G04 #@! TF.GenerationSoftware,KiCad,Pcbnew,(5.1.5-0-10_14)*
G04 #@! TF.CreationDate,2020-03-17T09:24:28-05:00*
G04 #@! TF.ProjectId,pulse,70756c73-652e-46b6-9963-61645f706362,rev?*
G04 #@! TF.SameCoordinates,Original*
G04 #@! TF.FileFunction,Soldermask,Bot*
G04 #@! TF.FilePolarity,Negative*
%FSLAX46Y46*%
G04 Gerber Fmt 4.6, Leading zero omitted, Abs format (unit mm)*
G04 Created by KiCad (PCBNEW (5.1.5-0-10_14)) date 2020-03-17 09:24:28*
%MOMM*%
%LPD*%
G04 APERTURE LIST*
%ADD10C,0.100000*%
G04 APERTURE END LIST*
D10*
G36*
X130413600Y-75384754D02*
G01*
X130527643Y-75419349D01*
X130632745Y-75475527D01*
X130632746Y-75475528D01*
X130632748Y-75475529D01*
X130724869Y-75551131D01*
X130800471Y-75643251D01*
X130800472Y-75643253D01*
X130800473Y-75643254D01*
X130856651Y-75748356D01*
X130891246Y-75862399D01*
X130891246Y-75862401D01*
X130900000Y-75951280D01*
X130900000Y-77118720D01*
X130898628Y-77132654D01*
X130891246Y-77207601D01*
X130856651Y-77321644D01*
X130800473Y-77426746D01*
X130800471Y-77426749D01*
X130724870Y-77518870D01*
X130632749Y-77594471D01*
X130632747Y-77594472D01*
X130632746Y-77594473D01*
X130527644Y-77650651D01*
X130413601Y-77685246D01*
X130295000Y-77696927D01*
X130176400Y-77685246D01*
X130062357Y-77650651D01*
X129957255Y-77594473D01*
X129957254Y-77594472D01*
X129957252Y-77594471D01*
X129865131Y-77518870D01*
X129789530Y-77426749D01*
X129789528Y-77426746D01*
X129733350Y-77321644D01*
X129698755Y-77207601D01*
X129691373Y-77132654D01*
X129690001Y-77118720D01*
X129690000Y-75951281D01*
X129698754Y-75862402D01*
X129698754Y-75862400D01*
X129733349Y-75748357D01*
X129789527Y-75643255D01*
X129865131Y-75551131D01*
X129957251Y-75475529D01*
X129957253Y-75475528D01*
X129957254Y-75475527D01*
X130062356Y-75419349D01*
X130176399Y-75384754D01*
X130295000Y-75373073D01*
X130413600Y-75384754D01*
G37*
G36*
X139063600Y-75384754D02*
G01*
X139177643Y-75419349D01*
X139282745Y-75475527D01*
X139282746Y-75475528D01*
X139282748Y-75475529D01*
X139374869Y-75551131D01*
X139450471Y-75643251D01*
X139450472Y-75643253D01*
X139450473Y-75643254D01*
X139506651Y-75748356D01*
X139541246Y-75862399D01*
X139541246Y-75862401D01*
X139550000Y-75951280D01*
X139550000Y-77118720D01*
X139548628Y-77132654D01*
X139541246Y-77207601D01*
X139506651Y-77321644D01*
X139450473Y-77426746D01*
X139450471Y-77426749D01*
X139374870Y-77518870D01*
X139282749Y-77594471D01*
X139282747Y-77594472D01*
X139282746Y-77594473D01*
X139177644Y-77650651D01*
X139063601Y-77685246D01*
X138945000Y-77696927D01*
X138826400Y-77685246D01*
X138712357Y-77650651D01*
X138607255Y-77594473D01*
X138607254Y-77594472D01*
X138607252Y-77594471D01*
X138515131Y-77518870D01*
X138439530Y-77426749D01*
X138439528Y-77426746D01*
X138383350Y-77321644D01*
X138348755Y-77207601D01*
X138341373Y-77132654D01*
X138340001Y-77118720D01*
X138340000Y-75951281D01*
X138348754Y-75862402D01*
X138348754Y-75862400D01*
X138383349Y-75748357D01*
X138439527Y-75643255D01*
X138515131Y-75551131D01*
X138607251Y-75475529D01*
X138607253Y-75475528D01*
X138607254Y-75475527D01*
X138712356Y-75419349D01*
X138826399Y-75384754D01*
X138945000Y-75373073D01*
X139063600Y-75384754D01*
G37*
G36*
X136474468Y-76095565D02*
G01*
X136513138Y-76107296D01*
X136548777Y-76126346D01*
X136580017Y-76151983D01*
X136605654Y-76183223D01*
X136624704Y-76218862D01*
X136636435Y-76257532D01*
X136641000Y-76303888D01*
X136641000Y-76955112D01*
X136636435Y-77001468D01*
X136624704Y-77040138D01*
X136605654Y-77075777D01*
X136580017Y-77107017D01*
X136548777Y-77132654D01*
X136513138Y-77151704D01*
X136474468Y-77163435D01*
X136428112Y-77168000D01*
X135351888Y-77168000D01*
X135305532Y-77163435D01*
X135266862Y-77151704D01*
X135231223Y-77132654D01*
X135199983Y-77107017D01*
X135174346Y-77075777D01*
X135155296Y-77040138D01*
X135143565Y-77001468D01*
X135139000Y-76955112D01*
X135139000Y-76303888D01*
X135143565Y-76257532D01*
X135155296Y-76218862D01*
X135174346Y-76183223D01*
X135199983Y-76151983D01*
X135231223Y-76126346D01*
X135266862Y-76107296D01*
X135305532Y-76095565D01*
X135351888Y-76091000D01*
X136428112Y-76091000D01*
X136474468Y-76095565D01*
G37*
G36*
X136474468Y-74220565D02*
G01*
X136513138Y-74232296D01*
X136548777Y-74251346D01*
X136580017Y-74276983D01*
X136605654Y-74308223D01*
X136624704Y-74343862D01*
X136636435Y-74382532D01*
X136641000Y-74428888D01*
X136641000Y-75080112D01*
X136636435Y-75126468D01*
X136624704Y-75165138D01*
X136605654Y-75200777D01*
X136580017Y-75232017D01*
X136548777Y-75257654D01*
X136513138Y-75276704D01*
X136474468Y-75288435D01*
X136428112Y-75293000D01*
X135351888Y-75293000D01*
X135305532Y-75288435D01*
X135266862Y-75276704D01*
X135231223Y-75257654D01*
X135199983Y-75232017D01*
X135174346Y-75200777D01*
X135155296Y-75165138D01*
X135143565Y-75126468D01*
X135139000Y-75080112D01*
X135139000Y-74428888D01*
X135143565Y-74382532D01*
X135155296Y-74343862D01*
X135174346Y-74308223D01*
X135199983Y-74276983D01*
X135231223Y-74251346D01*
X135266862Y-74232296D01*
X135305532Y-74220565D01*
X135351888Y-74216000D01*
X136428112Y-74216000D01*
X136474468Y-74220565D01*
G37*
G36*
X166001000Y-74561000D02*
G01*
X164199000Y-74561000D01*
X164199000Y-72759000D01*
X166001000Y-72759000D01*
X166001000Y-74561000D01*
G37*
G36*
X148221000Y-74561000D02*
G01*
X146419000Y-74561000D01*
X146419000Y-72759000D01*
X148221000Y-72759000D01*
X148221000Y-74561000D01*
G37*
G36*
X143141000Y-74561000D02*
G01*
X141339000Y-74561000D01*
X141339000Y-72759000D01*
X143141000Y-72759000D01*
X143141000Y-74561000D01*
G37*
G36*
X127901000Y-74561000D02*
G01*
X126099000Y-74561000D01*
X126099000Y-72759000D01*
X127901000Y-72759000D01*
X127901000Y-74561000D01*
G37*
G36*
X122033512Y-72763927D02*
G01*
X122182812Y-72793624D01*
X122346784Y-72861544D01*
X122494354Y-72960147D01*
X122619853Y-73085646D01*
X122718456Y-73233216D01*
X122786376Y-73397188D01*
X122821000Y-73571259D01*
X122821000Y-73748741D01*
X122786376Y-73922812D01*
X122718456Y-74086784D01*
X122619853Y-74234354D01*
X122494354Y-74359853D01*
X122346784Y-74458456D01*
X122182812Y-74526376D01*
X122033512Y-74556073D01*
X122008742Y-74561000D01*
X121831258Y-74561000D01*
X121806488Y-74556073D01*
X121657188Y-74526376D01*
X121493216Y-74458456D01*
X121345646Y-74359853D01*
X121220147Y-74234354D01*
X121121544Y-74086784D01*
X121053624Y-73922812D01*
X121019000Y-73748741D01*
X121019000Y-73571259D01*
X121053624Y-73397188D01*
X121121544Y-73233216D01*
X121220147Y-73085646D01*
X121345646Y-72960147D01*
X121493216Y-72861544D01*
X121657188Y-72793624D01*
X121806488Y-72763927D01*
X121831258Y-72759000D01*
X122008742Y-72759000D01*
X122033512Y-72763927D01*
G37*
G36*
X119493512Y-72763927D02*
G01*
X119642812Y-72793624D01*
X119806784Y-72861544D01*
X119954354Y-72960147D01*
X120079853Y-73085646D01*
X120178456Y-73233216D01*
X120246376Y-73397188D01*
X120281000Y-73571259D01*
X120281000Y-73748741D01*
X120246376Y-73922812D01*
X120178456Y-74086784D01*
X120079853Y-74234354D01*
X119954354Y-74359853D01*
X119806784Y-74458456D01*
X119642812Y-74526376D01*
X119493512Y-74556073D01*
X119468742Y-74561000D01*
X119291258Y-74561000D01*
X119266488Y-74556073D01*
X119117188Y-74526376D01*
X118953216Y-74458456D01*
X118805646Y-74359853D01*
X118680147Y-74234354D01*
X118581544Y-74086784D01*
X118513624Y-73922812D01*
X118479000Y-73748741D01*
X118479000Y-73571259D01*
X118513624Y-73397188D01*
X118581544Y-73233216D01*
X118680147Y-73085646D01*
X118805646Y-72960147D01*
X118953216Y-72861544D01*
X119117188Y-72793624D01*
X119266488Y-72763927D01*
X119291258Y-72759000D01*
X119468742Y-72759000D01*
X119493512Y-72763927D01*
G37*
G36*
X117741000Y-74561000D02*
G01*
X115939000Y-74561000D01*
X115939000Y-72759000D01*
X117741000Y-72759000D01*
X117741000Y-74561000D01*
G37*
G36*
X167753512Y-72763927D02*
G01*
X167902812Y-72793624D01*
X168066784Y-72861544D01*
X168214354Y-72960147D01*
X168339853Y-73085646D01*
X168438456Y-73233216D01*
X168506376Y-73397188D01*
X168541000Y-73571259D01*
X168541000Y-73748741D01*
X168506376Y-73922812D01*
X168438456Y-74086784D01*
X168339853Y-74234354D01*
X168214354Y-74359853D01*
X168066784Y-74458456D01*
X167902812Y-74526376D01*
X167753512Y-74556073D01*
X167728742Y-74561000D01*
X167551258Y-74561000D01*
X167526488Y-74556073D01*
X167377188Y-74526376D01*
X167213216Y-74458456D01*
X167065646Y-74359853D01*
X166940147Y-74234354D01*
X166841544Y-74086784D01*
X166773624Y-73922812D01*
X166739000Y-73748741D01*
X166739000Y-73571259D01*
X166773624Y-73397188D01*
X166841544Y-73233216D01*
X166940147Y-73085646D01*
X167065646Y-72960147D01*
X167213216Y-72861544D01*
X167377188Y-72793624D01*
X167526488Y-72763927D01*
X167551258Y-72759000D01*
X167728742Y-72759000D01*
X167753512Y-72763927D01*
G37*
G36*
X170293512Y-72763927D02*
G01*
X170442812Y-72793624D01*
X170606784Y-72861544D01*
X170754354Y-72960147D01*
X170879853Y-73085646D01*
X170978456Y-73233216D01*
X171046376Y-73397188D01*
X171081000Y-73571259D01*
X171081000Y-73748741D01*
X171046376Y-73922812D01*
X170978456Y-74086784D01*
X170879853Y-74234354D01*
X170754354Y-74359853D01*
X170606784Y-74458456D01*
X170442812Y-74526376D01*
X170293512Y-74556073D01*
X170268742Y-74561000D01*
X170091258Y-74561000D01*
X170066488Y-74556073D01*
X169917188Y-74526376D01*
X169753216Y-74458456D01*
X169605646Y-74359853D01*
X169480147Y-74234354D01*
X169381544Y-74086784D01*
X169313624Y-73922812D01*
X169279000Y-73748741D01*
X169279000Y-73571259D01*
X169313624Y-73397188D01*
X169381544Y-73233216D01*
X169480147Y-73085646D01*
X169605646Y-72960147D01*
X169753216Y-72861544D01*
X169917188Y-72793624D01*
X170066488Y-72763927D01*
X170091258Y-72759000D01*
X170268742Y-72759000D01*
X170293512Y-72763927D01*
G37*
G36*
X172833512Y-72763927D02*
G01*
X172982812Y-72793624D01*
X173146784Y-72861544D01*
X173294354Y-72960147D01*
X173419853Y-73085646D01*
X173518456Y-73233216D01*
X173586376Y-73397188D01*
X173621000Y-73571259D01*
X173621000Y-73748741D01*
X173586376Y-73922812D01*
X173518456Y-74086784D01*
X173419853Y-74234354D01*
X173294354Y-74359853D01*
X173146784Y-74458456D01*
X172982812Y-74526376D01*
X172833512Y-74556073D01*
X172808742Y-74561000D01*
X172631258Y-74561000D01*
X172606488Y-74556073D01*
X172457188Y-74526376D01*
X172293216Y-74458456D01*
X172145646Y-74359853D01*
X172020147Y-74234354D01*
X171921544Y-74086784D01*
X171853624Y-73922812D01*
X171819000Y-73748741D01*
X171819000Y-73571259D01*
X171853624Y-73397188D01*
X171921544Y-73233216D01*
X172020147Y-73085646D01*
X172145646Y-72960147D01*
X172293216Y-72861544D01*
X172457188Y-72793624D01*
X172606488Y-72763927D01*
X172631258Y-72759000D01*
X172808742Y-72759000D01*
X172833512Y-72763927D01*
G37*
G36*
X175373512Y-72763927D02*
G01*
X175522812Y-72793624D01*
X175686784Y-72861544D01*
X175834354Y-72960147D01*
X175959853Y-73085646D01*
X176058456Y-73233216D01*
X176126376Y-73397188D01*
X176161000Y-73571259D01*
X176161000Y-73748741D01*
X176126376Y-73922812D01*
X176058456Y-74086784D01*
X175959853Y-74234354D01*
X175834354Y-74359853D01*
X175686784Y-74458456D01*
X175522812Y-74526376D01*
X175373512Y-74556073D01*
X175348742Y-74561000D01*
X175171258Y-74561000D01*
X175146488Y-74556073D01*
X174997188Y-74526376D01*
X174833216Y-74458456D01*
X174685646Y-74359853D01*
X174560147Y-74234354D01*
X174461544Y-74086784D01*
X174393624Y-73922812D01*
X174359000Y-73748741D01*
X174359000Y-73571259D01*
X174393624Y-73397188D01*
X174461544Y-73233216D01*
X174560147Y-73085646D01*
X174685646Y-72960147D01*
X174833216Y-72861544D01*
X174997188Y-72793624D01*
X175146488Y-72763927D01*
X175171258Y-72759000D01*
X175348742Y-72759000D01*
X175373512Y-72763927D01*
G37*
G36*
X152088468Y-72913565D02*
G01*
X152127138Y-72925296D01*
X152162777Y-72944346D01*
X152194017Y-72969983D01*
X152219654Y-73001223D01*
X152238704Y-73036862D01*
X152250435Y-73075532D01*
X152255000Y-73121888D01*
X152255000Y-74198112D01*
X152250435Y-74244468D01*
X152238704Y-74283138D01*
X152219654Y-74318777D01*
X152194017Y-74350017D01*
X152162777Y-74375654D01*
X152127138Y-74394704D01*
X152088468Y-74406435D01*
X152042112Y-74411000D01*
X151390888Y-74411000D01*
X151344532Y-74406435D01*
X151305862Y-74394704D01*
X151270223Y-74375654D01*
X151238983Y-74350017D01*
X151213346Y-74318777D01*
X151194296Y-74283138D01*
X151182565Y-74244468D01*
X151178000Y-74198112D01*
X151178000Y-73121888D01*
X151182565Y-73075532D01*
X151194296Y-73036862D01*
X151213346Y-73001223D01*
X151238983Y-72969983D01*
X151270223Y-72944346D01*
X151305862Y-72925296D01*
X151344532Y-72913565D01*
X151390888Y-72909000D01*
X152042112Y-72909000D01*
X152088468Y-72913565D01*
G37*
G36*
X160186468Y-72913565D02*
G01*
X160225138Y-72925296D01*
X160260777Y-72944346D01*
X160292017Y-72969983D01*
X160317654Y-73001223D01*
X160336704Y-73036862D01*
X160348435Y-73075532D01*
X160353000Y-73121888D01*
X160353000Y-74198112D01*
X160348435Y-74244468D01*
X160336704Y-74283138D01*
X160317654Y-74318777D01*
X160292017Y-74350017D01*
X160260777Y-74375654D01*
X160225138Y-74394704D01*
X160186468Y-74406435D01*
X160140112Y-74411000D01*
X159488888Y-74411000D01*
X159442532Y-74406435D01*
X159403862Y-74394704D01*
X159368223Y-74375654D01*
X159336983Y-74350017D01*
X159311346Y-74318777D01*
X159292296Y-74283138D01*
X159280565Y-74244468D01*
X159276000Y-74198112D01*
X159276000Y-73121888D01*
X159280565Y-73075532D01*
X159292296Y-73036862D01*
X159311346Y-73001223D01*
X159336983Y-72969983D01*
X159368223Y-72944346D01*
X159403862Y-72925296D01*
X159442532Y-72913565D01*
X159488888Y-72909000D01*
X160140112Y-72909000D01*
X160186468Y-72913565D01*
G37*
G36*
X158311468Y-72913565D02*
G01*
X158350138Y-72925296D01*
X158385777Y-72944346D01*
X158417017Y-72969983D01*
X158442654Y-73001223D01*
X158461704Y-73036862D01*
X158473435Y-73075532D01*
X158478000Y-73121888D01*
X158478000Y-74198112D01*
X158473435Y-74244468D01*
X158461704Y-74283138D01*
X158442654Y-74318777D01*
X158417017Y-74350017D01*
X158385777Y-74375654D01*
X158350138Y-74394704D01*
X158311468Y-74406435D01*
X158265112Y-74411000D01*
X157613888Y-74411000D01*
X157567532Y-74406435D01*
X157528862Y-74394704D01*
X157493223Y-74375654D01*
X157461983Y-74350017D01*
X157436346Y-74318777D01*
X157417296Y-74283138D01*
X157405565Y-74244468D01*
X157401000Y-74198112D01*
X157401000Y-73121888D01*
X157405565Y-73075532D01*
X157417296Y-73036862D01*
X157436346Y-73001223D01*
X157461983Y-72969983D01*
X157493223Y-72944346D01*
X157528862Y-72925296D01*
X157567532Y-72913565D01*
X157613888Y-72909000D01*
X158265112Y-72909000D01*
X158311468Y-72913565D01*
G37*
G36*
X153963468Y-72913565D02*
G01*
X154002138Y-72925296D01*
X154037777Y-72944346D01*
X154069017Y-72969983D01*
X154094654Y-73001223D01*
X154113704Y-73036862D01*
X154125435Y-73075532D01*
X154130000Y-73121888D01*
X154130000Y-74198112D01*
X154125435Y-74244468D01*
X154113704Y-74283138D01*
X154094654Y-74318777D01*
X154069017Y-74350017D01*
X154037777Y-74375654D01*
X154002138Y-74394704D01*
X153963468Y-74406435D01*
X153917112Y-74411000D01*
X153265888Y-74411000D01*
X153219532Y-74406435D01*
X153180862Y-74394704D01*
X153145223Y-74375654D01*
X153113983Y-74350017D01*
X153088346Y-74318777D01*
X153069296Y-74283138D01*
X153057565Y-74244468D01*
X153053000Y-74198112D01*
X153053000Y-73121888D01*
X153057565Y-73075532D01*
X153069296Y-73036862D01*
X153088346Y-73001223D01*
X153113983Y-72969983D01*
X153145223Y-72944346D01*
X153180862Y-72925296D01*
X153219532Y-72913565D01*
X153265888Y-72909000D01*
X153917112Y-72909000D01*
X153963468Y-72913565D01*
G37*
G36*
X139063600Y-72004754D02*
G01*
X139177643Y-72039349D01*
X139282745Y-72095527D01*
X139282746Y-72095528D01*
X139282748Y-72095529D01*
X139374869Y-72171131D01*
X139450471Y-72263251D01*
X139450472Y-72263253D01*
X139450473Y-72263254D01*
X139506651Y-72368356D01*
X139541246Y-72482399D01*
X139550000Y-72571281D01*
X139550000Y-73738719D01*
X139541246Y-73827601D01*
X139506651Y-73941644D01*
X139450473Y-74046746D01*
X139450471Y-74046749D01*
X139374870Y-74138870D01*
X139282749Y-74214471D01*
X139282747Y-74214472D01*
X139282746Y-74214473D01*
X139177644Y-74270651D01*
X139063601Y-74305246D01*
X138945000Y-74316927D01*
X138826400Y-74305246D01*
X138712357Y-74270651D01*
X138607255Y-74214473D01*
X138607254Y-74214472D01*
X138607252Y-74214471D01*
X138515131Y-74138870D01*
X138439530Y-74046749D01*
X138439528Y-74046746D01*
X138383350Y-73941644D01*
X138348755Y-73827601D01*
X138340001Y-73738719D01*
X138340000Y-72571282D01*
X138348754Y-72482400D01*
X138383349Y-72368357D01*
X138439527Y-72263255D01*
X138481564Y-72212033D01*
X138515131Y-72171131D01*
X138607251Y-72095529D01*
X138607253Y-72095528D01*
X138607254Y-72095527D01*
X138712356Y-72039349D01*
X138826399Y-72004754D01*
X138945000Y-71993073D01*
X139063600Y-72004754D01*
G37*
G36*
X130413600Y-72004754D02*
G01*
X130527643Y-72039349D01*
X130632745Y-72095527D01*
X130632746Y-72095528D01*
X130632748Y-72095529D01*
X130724869Y-72171131D01*
X130800471Y-72263251D01*
X130800472Y-72263253D01*
X130800473Y-72263254D01*
X130856651Y-72368356D01*
X130891246Y-72482399D01*
X130900000Y-72571281D01*
X130900000Y-73738719D01*
X130891246Y-73827601D01*
X130856651Y-73941644D01*
X130800473Y-74046746D01*
X130800471Y-74046749D01*
X130724870Y-74138870D01*
X130632749Y-74214471D01*
X130632747Y-74214472D01*
X130632746Y-74214473D01*
X130527644Y-74270651D01*
X130413601Y-74305246D01*
X130295000Y-74316927D01*
X130176400Y-74305246D01*
X130062357Y-74270651D01*
X129957255Y-74214473D01*
X129957254Y-74214472D01*
X129957252Y-74214471D01*
X129865131Y-74138870D01*
X129789530Y-74046749D01*
X129789528Y-74046746D01*
X129733350Y-73941644D01*
X129698755Y-73827601D01*
X129690001Y-73738719D01*
X129690000Y-72571282D01*
X129698754Y-72482400D01*
X129733349Y-72368357D01*
X129789527Y-72263255D01*
X129831564Y-72212033D01*
X129865131Y-72171131D01*
X129957251Y-72095529D01*
X129957253Y-72095528D01*
X129957254Y-72095527D01*
X130062356Y-72039349D01*
X130176399Y-72004754D01*
X130295000Y-71993073D01*
X130413600Y-72004754D01*
G37*
G36*
X131754672Y-73163449D02*
G01*
X131754674Y-73163450D01*
X131754675Y-73163450D01*
X131823103Y-73191793D01*
X131884686Y-73232942D01*
X131937058Y-73285314D01*
X131966073Y-73328737D01*
X131981612Y-73347672D01*
X132000554Y-73363217D01*
X132022165Y-73374768D01*
X132045614Y-73381881D01*
X132070000Y-73384283D01*
X132094386Y-73381881D01*
X132117835Y-73374768D01*
X132139446Y-73363217D01*
X132158388Y-73347672D01*
X132173927Y-73328737D01*
X132202942Y-73285314D01*
X132255314Y-73232942D01*
X132316897Y-73191793D01*
X132385325Y-73163450D01*
X132385326Y-73163450D01*
X132385328Y-73163449D01*
X132457966Y-73149000D01*
X132532034Y-73149000D01*
X132604672Y-73163449D01*
X132604674Y-73163450D01*
X132604675Y-73163450D01*
X132673103Y-73191793D01*
X132734686Y-73232942D01*
X132787058Y-73285314D01*
X132816073Y-73328737D01*
X132831612Y-73347672D01*
X132850554Y-73363217D01*
X132872165Y-73374768D01*
X132895614Y-73381881D01*
X132920000Y-73384283D01*
X132944386Y-73381881D01*
X132967835Y-73374768D01*
X132989446Y-73363217D01*
X133008388Y-73347672D01*
X133023927Y-73328737D01*
X133052942Y-73285314D01*
X133105314Y-73232942D01*
X133166897Y-73191793D01*
X133235325Y-73163450D01*
X133235326Y-73163450D01*
X133235328Y-73163449D01*
X133307966Y-73149000D01*
X133382034Y-73149000D01*
X133454672Y-73163449D01*
X133454674Y-73163450D01*
X133454675Y-73163450D01*
X133523103Y-73191793D01*
X133584686Y-73232942D01*
X133637058Y-73285314D01*
X133666073Y-73328737D01*
X133681612Y-73347672D01*
X133700554Y-73363217D01*
X133722165Y-73374768D01*
X133745614Y-73381881D01*
X133770000Y-73384283D01*
X133794386Y-73381881D01*
X133817835Y-73374768D01*
X133839446Y-73363217D01*
X133858388Y-73347672D01*
X133873927Y-73328737D01*
X133902942Y-73285314D01*
X133955314Y-73232942D01*
X134016897Y-73191793D01*
X134085325Y-73163450D01*
X134085326Y-73163450D01*
X134085328Y-73163449D01*
X134157966Y-73149000D01*
X134232034Y-73149000D01*
X134304672Y-73163449D01*
X134304674Y-73163450D01*
X134304675Y-73163450D01*
X134373103Y-73191793D01*
X134434686Y-73232942D01*
X134487058Y-73285314D01*
X134516073Y-73328737D01*
X134531612Y-73347672D01*
X134550554Y-73363217D01*
X134572165Y-73374768D01*
X134595614Y-73381881D01*
X134620000Y-73384283D01*
X134644386Y-73381881D01*
X134667835Y-73374768D01*
X134689446Y-73363217D01*
X134708388Y-73347672D01*
X134723927Y-73328737D01*
X134752942Y-73285314D01*
X134805314Y-73232942D01*
X134866897Y-73191793D01*
X134935325Y-73163450D01*
X134935326Y-73163450D01*
X134935328Y-73163449D01*
X135007966Y-73149000D01*
X135082034Y-73149000D01*
X135154672Y-73163449D01*
X135154674Y-73163450D01*
X135154675Y-73163450D01*
X135223103Y-73191793D01*
X135284686Y-73232942D01*
X135337058Y-73285314D01*
X135366073Y-73328737D01*
X135381612Y-73347672D01*
X135400554Y-73363217D01*
X135422165Y-73374768D01*
X135445614Y-73381881D01*
X135470000Y-73384283D01*
X135494386Y-73381881D01*
X135517835Y-73374768D01*
X135539446Y-73363217D01*
X135558388Y-73347672D01*
X135573927Y-73328737D01*
X135602942Y-73285314D01*
X135655314Y-73232942D01*
X135716897Y-73191793D01*
X135785325Y-73163450D01*
X135785326Y-73163450D01*
X135785328Y-73163449D01*
X135857966Y-73149000D01*
X135932034Y-73149000D01*
X136004672Y-73163449D01*
X136004674Y-73163450D01*
X136004675Y-73163450D01*
X136073103Y-73191793D01*
X136134686Y-73232942D01*
X136187058Y-73285314D01*
X136216073Y-73328737D01*
X136231612Y-73347672D01*
X136250554Y-73363217D01*
X136272165Y-73374768D01*
X136295614Y-73381881D01*
X136320000Y-73384283D01*
X136344386Y-73381881D01*
X136367835Y-73374768D01*
X136389446Y-73363217D01*
X136408388Y-73347672D01*
X136423927Y-73328737D01*
X136452942Y-73285314D01*
X136505314Y-73232942D01*
X136566897Y-73191793D01*
X136635325Y-73163450D01*
X136635326Y-73163450D01*
X136635328Y-73163449D01*
X136707966Y-73149000D01*
X136782034Y-73149000D01*
X136854672Y-73163449D01*
X136854674Y-73163450D01*
X136854675Y-73163450D01*
X136923103Y-73191793D01*
X136984686Y-73232942D01*
X137037058Y-73285314D01*
X137066073Y-73328737D01*
X137081612Y-73347672D01*
X137100554Y-73363217D01*
X137122165Y-73374768D01*
X137145614Y-73381881D01*
X137170000Y-73384283D01*
X137194386Y-73381881D01*
X137217835Y-73374768D01*
X137239446Y-73363217D01*
X137258388Y-73347672D01*
X137273927Y-73328737D01*
X137302942Y-73285314D01*
X137355314Y-73232942D01*
X137416897Y-73191793D01*
X137485325Y-73163450D01*
X137485326Y-73163450D01*
X137485328Y-73163449D01*
X137557966Y-73149000D01*
X137632034Y-73149000D01*
X137704672Y-73163449D01*
X137704674Y-73163450D01*
X137704675Y-73163450D01*
X137773103Y-73191793D01*
X137834686Y-73232942D01*
X137887058Y-73285314D01*
X137928207Y-73346897D01*
X137956550Y-73415325D01*
X137971000Y-73487967D01*
X137971000Y-73562033D01*
X137956550Y-73634675D01*
X137928207Y-73703103D01*
X137887058Y-73764686D01*
X137834686Y-73817058D01*
X137773103Y-73858207D01*
X137704675Y-73886550D01*
X137704674Y-73886550D01*
X137704672Y-73886551D01*
X137632034Y-73901000D01*
X137557966Y-73901000D01*
X137485328Y-73886551D01*
X137485326Y-73886550D01*
X137485325Y-73886550D01*
X137416897Y-73858207D01*
X137355314Y-73817058D01*
X137302942Y-73764686D01*
X137273927Y-73721263D01*
X137258388Y-73702328D01*
X137239446Y-73686783D01*
X137217835Y-73675232D01*
X137194386Y-73668119D01*
X137170000Y-73665717D01*
X137145614Y-73668119D01*
X137122165Y-73675232D01*
X137100554Y-73686783D01*
X137081612Y-73702328D01*
X137066073Y-73721263D01*
X137037058Y-73764686D01*
X136984686Y-73817058D01*
X136923103Y-73858207D01*
X136854675Y-73886550D01*
X136854674Y-73886550D01*
X136854672Y-73886551D01*
X136782034Y-73901000D01*
X136707966Y-73901000D01*
X136635328Y-73886551D01*
X136635326Y-73886550D01*
X136635325Y-73886550D01*
X136566897Y-73858207D01*
X136505314Y-73817058D01*
X136452942Y-73764686D01*
X136423927Y-73721263D01*
X136408388Y-73702328D01*
X136389446Y-73686783D01*
X136367835Y-73675232D01*
X136344386Y-73668119D01*
X136320000Y-73665717D01*
X136295614Y-73668119D01*
X136272165Y-73675232D01*
X136250554Y-73686783D01*
X136231612Y-73702328D01*
X136216073Y-73721263D01*
X136187058Y-73764686D01*
X136134686Y-73817058D01*
X136073103Y-73858207D01*
X136004675Y-73886550D01*
X136004674Y-73886550D01*
X136004672Y-73886551D01*
X135932034Y-73901000D01*
X135857966Y-73901000D01*
X135785328Y-73886551D01*
X135785326Y-73886550D01*
X135785325Y-73886550D01*
X135716897Y-73858207D01*
X135655314Y-73817058D01*
X135602942Y-73764686D01*
X135573927Y-73721263D01*
X135558388Y-73702328D01*
X135539446Y-73686783D01*
X135517835Y-73675232D01*
X135494386Y-73668119D01*
X135470000Y-73665717D01*
X135445614Y-73668119D01*
X135422165Y-73675232D01*
X135400554Y-73686783D01*
X135381612Y-73702328D01*
X135366073Y-73721263D01*
X135337058Y-73764686D01*
X135284686Y-73817058D01*
X135223103Y-73858207D01*
X135154675Y-73886550D01*
X135154674Y-73886550D01*
X135154672Y-73886551D01*
X135082034Y-73901000D01*
X135007966Y-73901000D01*
X134935328Y-73886551D01*
X134935326Y-73886550D01*
X134935325Y-73886550D01*
X134866897Y-73858207D01*
X134805314Y-73817058D01*
X134752942Y-73764686D01*
X134723927Y-73721263D01*
X134708388Y-73702328D01*
X134689446Y-73686783D01*
X134667835Y-73675232D01*
X134644386Y-73668119D01*
X134620000Y-73665717D01*
X134595614Y-73668119D01*
X134572165Y-73675232D01*
X134550554Y-73686783D01*
X134531612Y-73702328D01*
X134516073Y-73721263D01*
X134487058Y-73764686D01*
X134434686Y-73817058D01*
X134373103Y-73858207D01*
X134304675Y-73886550D01*
X134304674Y-73886550D01*
X134304672Y-73886551D01*
X134232034Y-73901000D01*
X134157966Y-73901000D01*
X134085328Y-73886551D01*
X134085326Y-73886550D01*
X134085325Y-73886550D01*
X134016897Y-73858207D01*
X133955314Y-73817058D01*
X133902942Y-73764686D01*
X133873927Y-73721263D01*
X133858388Y-73702328D01*
X133839446Y-73686783D01*
X133817835Y-73675232D01*
X133794386Y-73668119D01*
X133770000Y-73665717D01*
X133745614Y-73668119D01*
X133722165Y-73675232D01*
X133700554Y-73686783D01*
X133681612Y-73702328D01*
X133666073Y-73721263D01*
X133637058Y-73764686D01*
X133584686Y-73817058D01*
X133523103Y-73858207D01*
X133454675Y-73886550D01*
X133454674Y-73886550D01*
X133454672Y-73886551D01*
X133382034Y-73901000D01*
X133307966Y-73901000D01*
X133235328Y-73886551D01*
X133235326Y-73886550D01*
X133235325Y-73886550D01*
X133166897Y-73858207D01*
X133105314Y-73817058D01*
X133052942Y-73764686D01*
X133023927Y-73721263D01*
X133008388Y-73702328D01*
X132989446Y-73686783D01*
X132967835Y-73675232D01*
X132944386Y-73668119D01*
X132920000Y-73665717D01*
X132895614Y-73668119D01*
X132872165Y-73675232D01*
X132850554Y-73686783D01*
X132831612Y-73702328D01*
X132816073Y-73721263D01*
X132787058Y-73764686D01*
X132734686Y-73817058D01*
X132673103Y-73858207D01*
X132604675Y-73886550D01*
X132604674Y-73886550D01*
X132604672Y-73886551D01*
X132532034Y-73901000D01*
X132457966Y-73901000D01*
X132385328Y-73886551D01*
X132385326Y-73886550D01*
X132385325Y-73886550D01*
X132316897Y-73858207D01*
X132255314Y-73817058D01*
X132202942Y-73764686D01*
X132173927Y-73721263D01*
X132158388Y-73702328D01*
X132139446Y-73686783D01*
X132117835Y-73675232D01*
X132094386Y-73668119D01*
X132070000Y-73665717D01*
X132045614Y-73668119D01*
X132022165Y-73675232D01*
X132000554Y-73686783D01*
X131981612Y-73702328D01*
X131966073Y-73721263D01*
X131937058Y-73764686D01*
X131884686Y-73817058D01*
X131823103Y-73858207D01*
X131754675Y-73886550D01*
X131754674Y-73886550D01*
X131754672Y-73886551D01*
X131682034Y-73901000D01*
X131607966Y-73901000D01*
X131535328Y-73886551D01*
X131535326Y-73886550D01*
X131535325Y-73886550D01*
X131466897Y-73858207D01*
X131405314Y-73817058D01*
X131352942Y-73764686D01*
X131311793Y-73703103D01*
X131283450Y-73634675D01*
X131269000Y-73562033D01*
X131269000Y-73487967D01*
X131283450Y-73415325D01*
X131311793Y-73346897D01*
X131352942Y-73285314D01*
X131405314Y-73232942D01*
X131466897Y-73191793D01*
X131535325Y-73163450D01*
X131535326Y-73163450D01*
X131535328Y-73163449D01*
X131607966Y-73149000D01*
X131682034Y-73149000D01*
X131754672Y-73163449D01*
G37*
G36*
X131754672Y-71813449D02*
G01*
X131754674Y-71813450D01*
X131754675Y-71813450D01*
X131823103Y-71841793D01*
X131884686Y-71882942D01*
X131937058Y-71935314D01*
X131966073Y-71978737D01*
X131981612Y-71997672D01*
X132000554Y-72013217D01*
X132022165Y-72024768D01*
X132045614Y-72031881D01*
X132070000Y-72034283D01*
X132094386Y-72031881D01*
X132117835Y-72024768D01*
X132139446Y-72013217D01*
X132158388Y-71997672D01*
X132173927Y-71978737D01*
X132202942Y-71935314D01*
X132255314Y-71882942D01*
X132316897Y-71841793D01*
X132385325Y-71813450D01*
X132385326Y-71813450D01*
X132385328Y-71813449D01*
X132457966Y-71799000D01*
X132532034Y-71799000D01*
X132604672Y-71813449D01*
X132604674Y-71813450D01*
X132604675Y-71813450D01*
X132673103Y-71841793D01*
X132734686Y-71882942D01*
X132787058Y-71935314D01*
X132816073Y-71978737D01*
X132831612Y-71997672D01*
X132850554Y-72013217D01*
X132872165Y-72024768D01*
X132895614Y-72031881D01*
X132920000Y-72034283D01*
X132944386Y-72031881D01*
X132967835Y-72024768D01*
X132989446Y-72013217D01*
X133008388Y-71997672D01*
X133023927Y-71978737D01*
X133052942Y-71935314D01*
X133105314Y-71882942D01*
X133166897Y-71841793D01*
X133235325Y-71813450D01*
X133235326Y-71813450D01*
X133235328Y-71813449D01*
X133307966Y-71799000D01*
X133382034Y-71799000D01*
X133454672Y-71813449D01*
X133454674Y-71813450D01*
X133454675Y-71813450D01*
X133523103Y-71841793D01*
X133584686Y-71882942D01*
X133637058Y-71935314D01*
X133666073Y-71978737D01*
X133681612Y-71997672D01*
X133700554Y-72013217D01*
X133722165Y-72024768D01*
X133745614Y-72031881D01*
X133770000Y-72034283D01*
X133794386Y-72031881D01*
X133817835Y-72024768D01*
X133839446Y-72013217D01*
X133858388Y-71997672D01*
X133873927Y-71978737D01*
X133902942Y-71935314D01*
X133955314Y-71882942D01*
X134016897Y-71841793D01*
X134085325Y-71813450D01*
X134085326Y-71813450D01*
X134085328Y-71813449D01*
X134157966Y-71799000D01*
X134232034Y-71799000D01*
X134304672Y-71813449D01*
X134304674Y-71813450D01*
X134304675Y-71813450D01*
X134373103Y-71841793D01*
X134434686Y-71882942D01*
X134487058Y-71935314D01*
X134516073Y-71978737D01*
X134531612Y-71997672D01*
X134550554Y-72013217D01*
X134572165Y-72024768D01*
X134595614Y-72031881D01*
X134620000Y-72034283D01*
X134644386Y-72031881D01*
X134667835Y-72024768D01*
X134689446Y-72013217D01*
X134708388Y-71997672D01*
X134723927Y-71978737D01*
X134752942Y-71935314D01*
X134805314Y-71882942D01*
X134866897Y-71841793D01*
X134935325Y-71813450D01*
X134935326Y-71813450D01*
X134935328Y-71813449D01*
X135007966Y-71799000D01*
X135082034Y-71799000D01*
X135154672Y-71813449D01*
X135154674Y-71813450D01*
X135154675Y-71813450D01*
X135223103Y-71841793D01*
X135284686Y-71882942D01*
X135337058Y-71935314D01*
X135366073Y-71978737D01*
X135381612Y-71997672D01*
X135400554Y-72013217D01*
X135422165Y-72024768D01*
X135445614Y-72031881D01*
X135470000Y-72034283D01*
X135494386Y-72031881D01*
X135517835Y-72024768D01*
X135539446Y-72013217D01*
X135558388Y-71997672D01*
X135573927Y-71978737D01*
X135602942Y-71935314D01*
X135655314Y-71882942D01*
X135716897Y-71841793D01*
X135785325Y-71813450D01*
X135785326Y-71813450D01*
X135785328Y-71813449D01*
X135857966Y-71799000D01*
X135932034Y-71799000D01*
X136004672Y-71813449D01*
X136004674Y-71813450D01*
X136004675Y-71813450D01*
X136073103Y-71841793D01*
X136134686Y-71882942D01*
X136187058Y-71935314D01*
X136216073Y-71978737D01*
X136231612Y-71997672D01*
X136250554Y-72013217D01*
X136272165Y-72024768D01*
X136295614Y-72031881D01*
X136320000Y-72034283D01*
X136344386Y-72031881D01*
X136367835Y-72024768D01*
X136389446Y-72013217D01*
X136408388Y-71997672D01*
X136423927Y-71978737D01*
X136452942Y-71935314D01*
X136505314Y-71882942D01*
X136566897Y-71841793D01*
X136635325Y-71813450D01*
X136635326Y-71813450D01*
X136635328Y-71813449D01*
X136707966Y-71799000D01*
X136782034Y-71799000D01*
X136854672Y-71813449D01*
X136854674Y-71813450D01*
X136854675Y-71813450D01*
X136923103Y-71841793D01*
X136984686Y-71882942D01*
X137037058Y-71935314D01*
X137066073Y-71978737D01*
X137081612Y-71997672D01*
X137100554Y-72013217D01*
X137122165Y-72024768D01*
X137145614Y-72031881D01*
X137170000Y-72034283D01*
X137194386Y-72031881D01*
X137217835Y-72024768D01*
X137239446Y-72013217D01*
X137258388Y-71997672D01*
X137273927Y-71978737D01*
X137302942Y-71935314D01*
X137355314Y-71882942D01*
X137416897Y-71841793D01*
X137485325Y-71813450D01*
X137485326Y-71813450D01*
X137485328Y-71813449D01*
X137557966Y-71799000D01*
X137632034Y-71799000D01*
X137704672Y-71813449D01*
X137704674Y-71813450D01*
X137704675Y-71813450D01*
X137773103Y-71841793D01*
X137834686Y-71882942D01*
X137887058Y-71935314D01*
X137928207Y-71996897D01*
X137956550Y-72065325D01*
X137956551Y-72065328D01*
X137971000Y-72137966D01*
X137971000Y-72212034D01*
X137960812Y-72263252D01*
X137956550Y-72284675D01*
X137928207Y-72353103D01*
X137887058Y-72414686D01*
X137834686Y-72467058D01*
X137773103Y-72508207D01*
X137704675Y-72536550D01*
X137704674Y-72536550D01*
X137704672Y-72536551D01*
X137632034Y-72551000D01*
X137557966Y-72551000D01*
X137485328Y-72536551D01*
X137485326Y-72536550D01*
X137485325Y-72536550D01*
X137416897Y-72508207D01*
X137355314Y-72467058D01*
X137302942Y-72414686D01*
X137273927Y-72371263D01*
X137258388Y-72352328D01*
X137239446Y-72336783D01*
X137217835Y-72325232D01*
X137194386Y-72318119D01*
X137170000Y-72315717D01*
X137145614Y-72318119D01*
X137122165Y-72325232D01*
X137100554Y-72336783D01*
X137081612Y-72352328D01*
X137066073Y-72371263D01*
X137037058Y-72414686D01*
X136984686Y-72467058D01*
X136923103Y-72508207D01*
X136854675Y-72536550D01*
X136854674Y-72536550D01*
X136854672Y-72536551D01*
X136782034Y-72551000D01*
X136707966Y-72551000D01*
X136635328Y-72536551D01*
X136635326Y-72536550D01*
X136635325Y-72536550D01*
X136566897Y-72508207D01*
X136505314Y-72467058D01*
X136452942Y-72414686D01*
X136423927Y-72371263D01*
X136408388Y-72352328D01*
X136389446Y-72336783D01*
X136367835Y-72325232D01*
X136344386Y-72318119D01*
X136320000Y-72315717D01*
X136295614Y-72318119D01*
X136272165Y-72325232D01*
X136250554Y-72336783D01*
X136231612Y-72352328D01*
X136216073Y-72371263D01*
X136187058Y-72414686D01*
X136134686Y-72467058D01*
X136073103Y-72508207D01*
X136004675Y-72536550D01*
X136004674Y-72536550D01*
X136004672Y-72536551D01*
X135932034Y-72551000D01*
X135857966Y-72551000D01*
X135785328Y-72536551D01*
X135785326Y-72536550D01*
X135785325Y-72536550D01*
X135716897Y-72508207D01*
X135655314Y-72467058D01*
X135602942Y-72414686D01*
X135573927Y-72371263D01*
X135558388Y-72352328D01*
X135539446Y-72336783D01*
X135517835Y-72325232D01*
X135494386Y-72318119D01*
X135470000Y-72315717D01*
X135445614Y-72318119D01*
X135422165Y-72325232D01*
X135400554Y-72336783D01*
X135381612Y-72352328D01*
X135366073Y-72371263D01*
X135337058Y-72414686D01*
X135284686Y-72467058D01*
X135223103Y-72508207D01*
X135154675Y-72536550D01*
X135154674Y-72536550D01*
X135154672Y-72536551D01*
X135082034Y-72551000D01*
X135007966Y-72551000D01*
X134935328Y-72536551D01*
X134935326Y-72536550D01*
X134935325Y-72536550D01*
X134866897Y-72508207D01*
X134805314Y-72467058D01*
X134752942Y-72414686D01*
X134723927Y-72371263D01*
X134708388Y-72352328D01*
X134689446Y-72336783D01*
X134667835Y-72325232D01*
X134644386Y-72318119D01*
X134620000Y-72315717D01*
X134595614Y-72318119D01*
X134572165Y-72325232D01*
X134550554Y-72336783D01*
X134531612Y-72352328D01*
X134516073Y-72371263D01*
X134487058Y-72414686D01*
X134434686Y-72467058D01*
X134373103Y-72508207D01*
X134304675Y-72536550D01*
X134304674Y-72536550D01*
X134304672Y-72536551D01*
X134232034Y-72551000D01*
X134157966Y-72551000D01*
X134085328Y-72536551D01*
X134085326Y-72536550D01*
X134085325Y-72536550D01*
X134016897Y-72508207D01*
X133955314Y-72467058D01*
X133902942Y-72414686D01*
X133873927Y-72371263D01*
X133858388Y-72352328D01*
X133839446Y-72336783D01*
X133817835Y-72325232D01*
X133794386Y-72318119D01*
X133770000Y-72315717D01*
X133745614Y-72318119D01*
X133722165Y-72325232D01*
X133700554Y-72336783D01*
X133681612Y-72352328D01*
X133666073Y-72371263D01*
X133637058Y-72414686D01*
X133584686Y-72467058D01*
X133523103Y-72508207D01*
X133454675Y-72536550D01*
X133454674Y-72536550D01*
X133454672Y-72536551D01*
X133382034Y-72551000D01*
X133307966Y-72551000D01*
X133235328Y-72536551D01*
X133235326Y-72536550D01*
X133235325Y-72536550D01*
X133166897Y-72508207D01*
X133105314Y-72467058D01*
X133052942Y-72414686D01*
X133023927Y-72371263D01*
X133008388Y-72352328D01*
X132989446Y-72336783D01*
X132967835Y-72325232D01*
X132944386Y-72318119D01*
X132920000Y-72315717D01*
X132895614Y-72318119D01*
X132872165Y-72325232D01*
X132850554Y-72336783D01*
X132831612Y-72352328D01*
X132816073Y-72371263D01*
X132787058Y-72414686D01*
X132734686Y-72467058D01*
X132673103Y-72508207D01*
X132604675Y-72536550D01*
X132604674Y-72536550D01*
X132604672Y-72536551D01*
X132532034Y-72551000D01*
X132457966Y-72551000D01*
X132385328Y-72536551D01*
X132385326Y-72536550D01*
X132385325Y-72536550D01*
X132316897Y-72508207D01*
X132255314Y-72467058D01*
X132202942Y-72414686D01*
X132173927Y-72371263D01*
X132158388Y-72352328D01*
X132139446Y-72336783D01*
X132117835Y-72325232D01*
X132094386Y-72318119D01*
X132070000Y-72315717D01*
X132045614Y-72318119D01*
X132022165Y-72325232D01*
X132000554Y-72336783D01*
X131981612Y-72352328D01*
X131966073Y-72371263D01*
X131937058Y-72414686D01*
X131884686Y-72467058D01*
X131823103Y-72508207D01*
X131754675Y-72536550D01*
X131754674Y-72536550D01*
X131754672Y-72536551D01*
X131682034Y-72551000D01*
X131607966Y-72551000D01*
X131535328Y-72536551D01*
X131535326Y-72536550D01*
X131535325Y-72536550D01*
X131466897Y-72508207D01*
X131405314Y-72467058D01*
X131352942Y-72414686D01*
X131311793Y-72353103D01*
X131283450Y-72284675D01*
X131279189Y-72263252D01*
X131269000Y-72212034D01*
X131269000Y-72137966D01*
X131283449Y-72065328D01*
X131283450Y-72065325D01*
X131311793Y-71996897D01*
X131352942Y-71935314D01*
X131405314Y-71882942D01*
X131466897Y-71841793D01*
X131535325Y-71813450D01*
X131535326Y-71813450D01*
X131535328Y-71813449D01*
X131607966Y-71799000D01*
X131682034Y-71799000D01*
X131754672Y-71813449D01*
G37*
G36*
X126404468Y-69484565D02*
G01*
X126443138Y-69496296D01*
X126478777Y-69515346D01*
X126510017Y-69540983D01*
X126535654Y-69572223D01*
X126554704Y-69607862D01*
X126566435Y-69646532D01*
X126571000Y-69692888D01*
X126571000Y-70769112D01*
X126566435Y-70815468D01*
X126554704Y-70854138D01*
X126535654Y-70889777D01*
X126510017Y-70921017D01*
X126478777Y-70946654D01*
X126443138Y-70965704D01*
X126404468Y-70977435D01*
X126358112Y-70982000D01*
X125706888Y-70982000D01*
X125660532Y-70977435D01*
X125621862Y-70965704D01*
X125586223Y-70946654D01*
X125554983Y-70921017D01*
X125529346Y-70889777D01*
X125510296Y-70854138D01*
X125498565Y-70815468D01*
X125494000Y-70769112D01*
X125494000Y-69692888D01*
X125498565Y-69646532D01*
X125510296Y-69607862D01*
X125529346Y-69572223D01*
X125554983Y-69540983D01*
X125586223Y-69515346D01*
X125621862Y-69496296D01*
X125660532Y-69484565D01*
X125706888Y-69480000D01*
X126358112Y-69480000D01*
X126404468Y-69484565D01*
G37*
G36*
X124529468Y-69484565D02*
G01*
X124568138Y-69496296D01*
X124603777Y-69515346D01*
X124635017Y-69540983D01*
X124660654Y-69572223D01*
X124679704Y-69607862D01*
X124691435Y-69646532D01*
X124696000Y-69692888D01*
X124696000Y-70769112D01*
X124691435Y-70815468D01*
X124679704Y-70854138D01*
X124660654Y-70889777D01*
X124635017Y-70921017D01*
X124603777Y-70946654D01*
X124568138Y-70965704D01*
X124529468Y-70977435D01*
X124483112Y-70982000D01*
X123831888Y-70982000D01*
X123785532Y-70977435D01*
X123746862Y-70965704D01*
X123711223Y-70946654D01*
X123679983Y-70921017D01*
X123654346Y-70889777D01*
X123635296Y-70854138D01*
X123623565Y-70815468D01*
X123619000Y-70769112D01*
X123619000Y-69692888D01*
X123623565Y-69646532D01*
X123635296Y-69607862D01*
X123654346Y-69572223D01*
X123679983Y-69540983D01*
X123711223Y-69515346D01*
X123746862Y-69496296D01*
X123785532Y-69484565D01*
X123831888Y-69480000D01*
X124483112Y-69480000D01*
X124529468Y-69484565D01*
G37*
G36*
X174410468Y-69484565D02*
G01*
X174449138Y-69496296D01*
X174484777Y-69515346D01*
X174516017Y-69540983D01*
X174541654Y-69572223D01*
X174560704Y-69607862D01*
X174572435Y-69646532D01*
X174577000Y-69692888D01*
X174577000Y-70769112D01*
X174572435Y-70815468D01*
X174560704Y-70854138D01*
X174541654Y-70889777D01*
X174516017Y-70921017D01*
X174484777Y-70946654D01*
X174449138Y-70965704D01*
X174410468Y-70977435D01*
X174364112Y-70982000D01*
X173712888Y-70982000D01*
X173666532Y-70977435D01*
X173627862Y-70965704D01*
X173592223Y-70946654D01*
X173560983Y-70921017D01*
X173535346Y-70889777D01*
X173516296Y-70854138D01*
X173504565Y-70815468D01*
X173500000Y-70769112D01*
X173500000Y-69692888D01*
X173504565Y-69646532D01*
X173516296Y-69607862D01*
X173535346Y-69572223D01*
X173560983Y-69540983D01*
X173592223Y-69515346D01*
X173627862Y-69496296D01*
X173666532Y-69484565D01*
X173712888Y-69480000D01*
X174364112Y-69480000D01*
X174410468Y-69484565D01*
G37*
G36*
X172535468Y-69484565D02*
G01*
X172574138Y-69496296D01*
X172609777Y-69515346D01*
X172641017Y-69540983D01*
X172666654Y-69572223D01*
X172685704Y-69607862D01*
X172697435Y-69646532D01*
X172702000Y-69692888D01*
X172702000Y-70769112D01*
X172697435Y-70815468D01*
X172685704Y-70854138D01*
X172666654Y-70889777D01*
X172641017Y-70921017D01*
X172609777Y-70946654D01*
X172574138Y-70965704D01*
X172535468Y-70977435D01*
X172489112Y-70982000D01*
X171837888Y-70982000D01*
X171791532Y-70977435D01*
X171752862Y-70965704D01*
X171717223Y-70946654D01*
X171685983Y-70921017D01*
X171660346Y-70889777D01*
X171641296Y-70854138D01*
X171629565Y-70815468D01*
X171625000Y-70769112D01*
X171625000Y-69692888D01*
X171629565Y-69646532D01*
X171641296Y-69607862D01*
X171660346Y-69572223D01*
X171685983Y-69540983D01*
X171717223Y-69515346D01*
X171752862Y-69496296D01*
X171791532Y-69484565D01*
X171837888Y-69480000D01*
X172489112Y-69480000D01*
X172535468Y-69484565D01*
G37*
G36*
X161661968Y-69484565D02*
G01*
X161700638Y-69496296D01*
X161736277Y-69515346D01*
X161767517Y-69540983D01*
X161793154Y-69572223D01*
X161812204Y-69607862D01*
X161823935Y-69646532D01*
X161828500Y-69692888D01*
X161828500Y-70769112D01*
X161823935Y-70815468D01*
X161812204Y-70854138D01*
X161793154Y-70889777D01*
X161767517Y-70921017D01*
X161736277Y-70946654D01*
X161700638Y-70965704D01*
X161661968Y-70977435D01*
X161615612Y-70982000D01*
X160964388Y-70982000D01*
X160918032Y-70977435D01*
X160879362Y-70965704D01*
X160843723Y-70946654D01*
X160812483Y-70921017D01*
X160786846Y-70889777D01*
X160767796Y-70854138D01*
X160756065Y-70815468D01*
X160751500Y-70769112D01*
X160751500Y-69692888D01*
X160756065Y-69646532D01*
X160767796Y-69607862D01*
X160786846Y-69572223D01*
X160812483Y-69540983D01*
X160843723Y-69515346D01*
X160879362Y-69496296D01*
X160918032Y-69484565D01*
X160964388Y-69480000D01*
X161615612Y-69480000D01*
X161661968Y-69484565D01*
G37*
G36*
X134054468Y-69484565D02*
G01*
X134093138Y-69496296D01*
X134128777Y-69515346D01*
X134160017Y-69540983D01*
X134185654Y-69572223D01*
X134204704Y-69607862D01*
X134216435Y-69646532D01*
X134221000Y-69692888D01*
X134221000Y-70769112D01*
X134216435Y-70815468D01*
X134204704Y-70854138D01*
X134185654Y-70889777D01*
X134160017Y-70921017D01*
X134128777Y-70946654D01*
X134093138Y-70965704D01*
X134054468Y-70977435D01*
X134008112Y-70982000D01*
X133356888Y-70982000D01*
X133310532Y-70977435D01*
X133271862Y-70965704D01*
X133236223Y-70946654D01*
X133204983Y-70921017D01*
X133179346Y-70889777D01*
X133160296Y-70854138D01*
X133148565Y-70815468D01*
X133144000Y-70769112D01*
X133144000Y-69692888D01*
X133148565Y-69646532D01*
X133160296Y-69607862D01*
X133179346Y-69572223D01*
X133204983Y-69540983D01*
X133236223Y-69515346D01*
X133271862Y-69496296D01*
X133310532Y-69484565D01*
X133356888Y-69480000D01*
X134008112Y-69480000D01*
X134054468Y-69484565D01*
G37*
G36*
X135929468Y-69484565D02*
G01*
X135968138Y-69496296D01*
X136003777Y-69515346D01*
X136035017Y-69540983D01*
X136060654Y-69572223D01*
X136079704Y-69607862D01*
X136091435Y-69646532D01*
X136096000Y-69692888D01*
X136096000Y-70769112D01*
X136091435Y-70815468D01*
X136079704Y-70854138D01*
X136060654Y-70889777D01*
X136035017Y-70921017D01*
X136003777Y-70946654D01*
X135968138Y-70965704D01*
X135929468Y-70977435D01*
X135883112Y-70982000D01*
X135231888Y-70982000D01*
X135185532Y-70977435D01*
X135146862Y-70965704D01*
X135111223Y-70946654D01*
X135079983Y-70921017D01*
X135054346Y-70889777D01*
X135035296Y-70854138D01*
X135023565Y-70815468D01*
X135019000Y-70769112D01*
X135019000Y-69692888D01*
X135023565Y-69646532D01*
X135035296Y-69607862D01*
X135054346Y-69572223D01*
X135079983Y-69540983D01*
X135111223Y-69515346D01*
X135146862Y-69496296D01*
X135185532Y-69484565D01*
X135231888Y-69480000D01*
X135883112Y-69480000D01*
X135929468Y-69484565D01*
G37*
G36*
X159786968Y-69484565D02*
G01*
X159825638Y-69496296D01*
X159861277Y-69515346D01*
X159892517Y-69540983D01*
X159918154Y-69572223D01*
X159937204Y-69607862D01*
X159948935Y-69646532D01*
X159953500Y-69692888D01*
X159953500Y-70769112D01*
X159948935Y-70815468D01*
X159937204Y-70854138D01*
X159918154Y-70889777D01*
X159892517Y-70921017D01*
X159861277Y-70946654D01*
X159825638Y-70965704D01*
X159786968Y-70977435D01*
X159740612Y-70982000D01*
X159089388Y-70982000D01*
X159043032Y-70977435D01*
X159004362Y-70965704D01*
X158968723Y-70946654D01*
X158937483Y-70921017D01*
X158911846Y-70889777D01*
X158892796Y-70854138D01*
X158881065Y-70815468D01*
X158876500Y-70769112D01*
X158876500Y-69692888D01*
X158881065Y-69646532D01*
X158892796Y-69607862D01*
X158911846Y-69572223D01*
X158937483Y-69540983D01*
X158968723Y-69515346D01*
X159004362Y-69496296D01*
X159043032Y-69484565D01*
X159089388Y-69480000D01*
X159740612Y-69480000D01*
X159786968Y-69484565D01*
G37*
G36*
X146881468Y-69357565D02*
G01*
X146920138Y-69369296D01*
X146955777Y-69388346D01*
X146987017Y-69413983D01*
X147012654Y-69445223D01*
X147031704Y-69480862D01*
X147043435Y-69519532D01*
X147048000Y-69565888D01*
X147048000Y-70642112D01*
X147043435Y-70688468D01*
X147031704Y-70727138D01*
X147012654Y-70762777D01*
X146987017Y-70794017D01*
X146955777Y-70819654D01*
X146920138Y-70838704D01*
X146881468Y-70850435D01*
X146835112Y-70855000D01*
X146183888Y-70855000D01*
X146137532Y-70850435D01*
X146098862Y-70838704D01*
X146063223Y-70819654D01*
X146031983Y-70794017D01*
X146006346Y-70762777D01*
X145987296Y-70727138D01*
X145975565Y-70688468D01*
X145971000Y-70642112D01*
X145971000Y-69565888D01*
X145975565Y-69519532D01*
X145987296Y-69480862D01*
X146006346Y-69445223D01*
X146031983Y-69413983D01*
X146063223Y-69388346D01*
X146098862Y-69369296D01*
X146137532Y-69357565D01*
X146183888Y-69353000D01*
X146835112Y-69353000D01*
X146881468Y-69357565D01*
G37*
G36*
X148756468Y-69357565D02*
G01*
X148795138Y-69369296D01*
X148830777Y-69388346D01*
X148862017Y-69413983D01*
X148887654Y-69445223D01*
X148906704Y-69480862D01*
X148918435Y-69519532D01*
X148923000Y-69565888D01*
X148923000Y-70642112D01*
X148918435Y-70688468D01*
X148906704Y-70727138D01*
X148887654Y-70762777D01*
X148862017Y-70794017D01*
X148830777Y-70819654D01*
X148795138Y-70838704D01*
X148756468Y-70850435D01*
X148710112Y-70855000D01*
X148058888Y-70855000D01*
X148012532Y-70850435D01*
X147973862Y-70838704D01*
X147938223Y-70819654D01*
X147906983Y-70794017D01*
X147881346Y-70762777D01*
X147862296Y-70727138D01*
X147850565Y-70688468D01*
X147846000Y-70642112D01*
X147846000Y-69565888D01*
X147850565Y-69519532D01*
X147862296Y-69480862D01*
X147881346Y-69445223D01*
X147906983Y-69413983D01*
X147938223Y-69388346D01*
X147973862Y-69369296D01*
X148012532Y-69357565D01*
X148058888Y-69353000D01*
X148710112Y-69353000D01*
X148756468Y-69357565D01*
G37*
G36*
X128466468Y-69357565D02*
G01*
X128505138Y-69369296D01*
X128540777Y-69388346D01*
X128572017Y-69413983D01*
X128597654Y-69445223D01*
X128616704Y-69480862D01*
X128628435Y-69519532D01*
X128633000Y-69565888D01*
X128633000Y-70642112D01*
X128628435Y-70688468D01*
X128616704Y-70727138D01*
X128597654Y-70762777D01*
X128572017Y-70794017D01*
X128540777Y-70819654D01*
X128505138Y-70838704D01*
X128466468Y-70850435D01*
X128420112Y-70855000D01*
X127768888Y-70855000D01*
X127722532Y-70850435D01*
X127683862Y-70838704D01*
X127648223Y-70819654D01*
X127616983Y-70794017D01*
X127591346Y-70762777D01*
X127572296Y-70727138D01*
X127560565Y-70688468D01*
X127556000Y-70642112D01*
X127556000Y-69565888D01*
X127560565Y-69519532D01*
X127572296Y-69480862D01*
X127591346Y-69445223D01*
X127616983Y-69413983D01*
X127648223Y-69388346D01*
X127683862Y-69369296D01*
X127722532Y-69357565D01*
X127768888Y-69353000D01*
X128420112Y-69353000D01*
X128466468Y-69357565D01*
G37*
G36*
X130341468Y-69357565D02*
G01*
X130380138Y-69369296D01*
X130415777Y-69388346D01*
X130447017Y-69413983D01*
X130472654Y-69445223D01*
X130491704Y-69480862D01*
X130503435Y-69519532D01*
X130508000Y-69565888D01*
X130508000Y-70642112D01*
X130503435Y-70688468D01*
X130491704Y-70727138D01*
X130472654Y-70762777D01*
X130447017Y-70794017D01*
X130415777Y-70819654D01*
X130380138Y-70838704D01*
X130341468Y-70850435D01*
X130295112Y-70855000D01*
X129643888Y-70855000D01*
X129597532Y-70850435D01*
X129558862Y-70838704D01*
X129523223Y-70819654D01*
X129491983Y-70794017D01*
X129466346Y-70762777D01*
X129447296Y-70727138D01*
X129435565Y-70688468D01*
X129431000Y-70642112D01*
X129431000Y-69565888D01*
X129435565Y-69519532D01*
X129447296Y-69480862D01*
X129466346Y-69445223D01*
X129491983Y-69413983D01*
X129523223Y-69388346D01*
X129558862Y-69369296D01*
X129597532Y-69357565D01*
X129643888Y-69353000D01*
X130295112Y-69353000D01*
X130341468Y-69357565D01*
G37*
G36*
X150712000Y-70832000D02*
G01*
X149510000Y-70832000D01*
X149510000Y-69630000D01*
X150712000Y-69630000D01*
X150712000Y-70832000D01*
G37*
G36*
X153512000Y-70832000D02*
G01*
X152310000Y-70832000D01*
X152310000Y-69630000D01*
X153512000Y-69630000D01*
X153512000Y-70832000D01*
G37*
G36*
X155270468Y-69745565D02*
G01*
X155309138Y-69757296D01*
X155344777Y-69776346D01*
X155376017Y-69801983D01*
X155401654Y-69833223D01*
X155420704Y-69868862D01*
X155432435Y-69907532D01*
X155437000Y-69953888D01*
X155437000Y-70605112D01*
X155432435Y-70651468D01*
X155420704Y-70690138D01*
X155401654Y-70725777D01*
X155376017Y-70757017D01*
X155344777Y-70782654D01*
X155309138Y-70801704D01*
X155270468Y-70813435D01*
X155224112Y-70818000D01*
X154147888Y-70818000D01*
X154101532Y-70813435D01*
X154062862Y-70801704D01*
X154027223Y-70782654D01*
X153995983Y-70757017D01*
X153970346Y-70725777D01*
X153951296Y-70690138D01*
X153939565Y-70651468D01*
X153935000Y-70605112D01*
X153935000Y-69953888D01*
X153939565Y-69907532D01*
X153951296Y-69868862D01*
X153970346Y-69833223D01*
X153995983Y-69801983D01*
X154027223Y-69776346D01*
X154062862Y-69757296D01*
X154101532Y-69745565D01*
X154147888Y-69741000D01*
X155224112Y-69741000D01*
X155270468Y-69745565D01*
G37*
G36*
X170891468Y-69364565D02*
G01*
X170930138Y-69376296D01*
X170965777Y-69395346D01*
X170997017Y-69420983D01*
X171022654Y-69452223D01*
X171041704Y-69487862D01*
X171053435Y-69526532D01*
X171058000Y-69572888D01*
X171058000Y-70224112D01*
X171053435Y-70270468D01*
X171041704Y-70309138D01*
X171022654Y-70344777D01*
X170997017Y-70376017D01*
X170965777Y-70401654D01*
X170930138Y-70420704D01*
X170891468Y-70432435D01*
X170845112Y-70437000D01*
X169768888Y-70437000D01*
X169722532Y-70432435D01*
X169683862Y-70420704D01*
X169648223Y-70401654D01*
X169616983Y-70376017D01*
X169591346Y-70344777D01*
X169572296Y-70309138D01*
X169560565Y-70270468D01*
X169556000Y-70224112D01*
X169556000Y-69572888D01*
X169560565Y-69526532D01*
X169572296Y-69487862D01*
X169591346Y-69452223D01*
X169616983Y-69420983D01*
X169648223Y-69395346D01*
X169683862Y-69376296D01*
X169722532Y-69364565D01*
X169768888Y-69360000D01*
X170845112Y-69360000D01*
X170891468Y-69364565D01*
G37*
G36*
X145237468Y-69301065D02*
G01*
X145276138Y-69312796D01*
X145311777Y-69331846D01*
X145343017Y-69357483D01*
X145368654Y-69388723D01*
X145387704Y-69424362D01*
X145399435Y-69463032D01*
X145404000Y-69509388D01*
X145404000Y-70160612D01*
X145399435Y-70206968D01*
X145387704Y-70245638D01*
X145368654Y-70281277D01*
X145343017Y-70312517D01*
X145311777Y-70338154D01*
X145276138Y-70357204D01*
X145237468Y-70368935D01*
X145191112Y-70373500D01*
X144114888Y-70373500D01*
X144068532Y-70368935D01*
X144029862Y-70357204D01*
X143994223Y-70338154D01*
X143962983Y-70312517D01*
X143937346Y-70281277D01*
X143918296Y-70245638D01*
X143906565Y-70206968D01*
X143902000Y-70160612D01*
X143902000Y-69509388D01*
X143906565Y-69463032D01*
X143918296Y-69424362D01*
X143937346Y-69388723D01*
X143962983Y-69357483D01*
X143994223Y-69331846D01*
X144029862Y-69312796D01*
X144068532Y-69301065D01*
X144114888Y-69296500D01*
X145191112Y-69296500D01*
X145237468Y-69301065D01*
G37*
G36*
X158064468Y-69301065D02*
G01*
X158103138Y-69312796D01*
X158138777Y-69331846D01*
X158170017Y-69357483D01*
X158195654Y-69388723D01*
X158214704Y-69424362D01*
X158226435Y-69463032D01*
X158231000Y-69509388D01*
X158231000Y-70160612D01*
X158226435Y-70206968D01*
X158214704Y-70245638D01*
X158195654Y-70281277D01*
X158170017Y-70312517D01*
X158138777Y-70338154D01*
X158103138Y-70357204D01*
X158064468Y-70368935D01*
X158018112Y-70373500D01*
X156941888Y-70373500D01*
X156895532Y-70368935D01*
X156856862Y-70357204D01*
X156821223Y-70338154D01*
X156789983Y-70312517D01*
X156764346Y-70281277D01*
X156745296Y-70245638D01*
X156733565Y-70206968D01*
X156729000Y-70160612D01*
X156729000Y-69509388D01*
X156733565Y-69463032D01*
X156745296Y-69424362D01*
X156764346Y-69388723D01*
X156789983Y-69357483D01*
X156821223Y-69331846D01*
X156856862Y-69312796D01*
X156895532Y-69301065D01*
X156941888Y-69296500D01*
X158018112Y-69296500D01*
X158064468Y-69301065D01*
G37*
G36*
X132410468Y-69237565D02*
G01*
X132449138Y-69249296D01*
X132484777Y-69268346D01*
X132516017Y-69293983D01*
X132541654Y-69325223D01*
X132560704Y-69360862D01*
X132572435Y-69399532D01*
X132577000Y-69445888D01*
X132577000Y-70097112D01*
X132572435Y-70143468D01*
X132560704Y-70182138D01*
X132541654Y-70217777D01*
X132516017Y-70249017D01*
X132484777Y-70274654D01*
X132449138Y-70293704D01*
X132410468Y-70305435D01*
X132364112Y-70310000D01*
X131287888Y-70310000D01*
X131241532Y-70305435D01*
X131202862Y-70293704D01*
X131167223Y-70274654D01*
X131135983Y-70249017D01*
X131110346Y-70217777D01*
X131091296Y-70182138D01*
X131079565Y-70143468D01*
X131075000Y-70097112D01*
X131075000Y-69445888D01*
X131079565Y-69399532D01*
X131091296Y-69360862D01*
X131110346Y-69325223D01*
X131135983Y-69293983D01*
X131167223Y-69268346D01*
X131202862Y-69249296D01*
X131241532Y-69237565D01*
X131287888Y-69233000D01*
X132364112Y-69233000D01*
X132410468Y-69237565D01*
G37*
G36*
X187966605Y-68546347D02*
G01*
X188003145Y-68557432D01*
X188036822Y-68575433D01*
X188066342Y-68599659D01*
X188090568Y-68629179D01*
X188108569Y-68662856D01*
X188119654Y-68699396D01*
X188124001Y-68743538D01*
X188124001Y-69692462D01*
X188119654Y-69736604D01*
X188108569Y-69773144D01*
X188090568Y-69806821D01*
X188066342Y-69836341D01*
X188036822Y-69860567D01*
X188003145Y-69878568D01*
X187966605Y-69889653D01*
X187922463Y-69894000D01*
X186473539Y-69894000D01*
X186429397Y-69889653D01*
X186392857Y-69878568D01*
X186359180Y-69860567D01*
X186329660Y-69836341D01*
X186305434Y-69806821D01*
X186287433Y-69773144D01*
X186276348Y-69736604D01*
X186272001Y-69692462D01*
X186272001Y-68743538D01*
X186276348Y-68699396D01*
X186287433Y-68662856D01*
X186305434Y-68629179D01*
X186329660Y-68599659D01*
X186359180Y-68575433D01*
X186392857Y-68557432D01*
X186429397Y-68546347D01*
X186473539Y-68542000D01*
X187922463Y-68542000D01*
X187966605Y-68546347D01*
G37*
G36*
X183394604Y-68546347D02*
G01*
X183431144Y-68557432D01*
X183464821Y-68575433D01*
X183494341Y-68599659D01*
X183518567Y-68629179D01*
X183536568Y-68662856D01*
X183547653Y-68699396D01*
X183552000Y-68743538D01*
X183552000Y-69692462D01*
X183547653Y-69736604D01*
X183536568Y-69773144D01*
X183518567Y-69806821D01*
X183494341Y-69836341D01*
X183464821Y-69860567D01*
X183431144Y-69878568D01*
X183394604Y-69889653D01*
X183350462Y-69894000D01*
X181901538Y-69894000D01*
X181857396Y-69889653D01*
X181820856Y-69878568D01*
X181787179Y-69860567D01*
X181757659Y-69836341D01*
X181733433Y-69806821D01*
X181715432Y-69773144D01*
X181704347Y-69736604D01*
X181700000Y-69692462D01*
X181700000Y-68743538D01*
X181704347Y-68699396D01*
X181715432Y-68662856D01*
X181733433Y-68629179D01*
X181757659Y-68599659D01*
X181787179Y-68575433D01*
X181820856Y-68557432D01*
X181857396Y-68546347D01*
X181901538Y-68542000D01*
X183350462Y-68542000D01*
X183394604Y-68546347D01*
G37*
G36*
X185680605Y-68546347D02*
G01*
X185717145Y-68557432D01*
X185750822Y-68575433D01*
X185780342Y-68599659D01*
X185804568Y-68629179D01*
X185822569Y-68662856D01*
X185833654Y-68699396D01*
X185838001Y-68743538D01*
X185838001Y-69692462D01*
X185833654Y-69736604D01*
X185822569Y-69773144D01*
X185804568Y-69806821D01*
X185780342Y-69836341D01*
X185750822Y-69860567D01*
X185717145Y-69878568D01*
X185680605Y-69889653D01*
X185636463Y-69894000D01*
X184187539Y-69894000D01*
X184143397Y-69889653D01*
X184106857Y-69878568D01*
X184073180Y-69860567D01*
X184043660Y-69836341D01*
X184019434Y-69806821D01*
X184001433Y-69773144D01*
X183990348Y-69736604D01*
X183986001Y-69692462D01*
X183986001Y-68743538D01*
X183990348Y-68699396D01*
X184001433Y-68662856D01*
X184019434Y-68629179D01*
X184043660Y-68599659D01*
X184073180Y-68575433D01*
X184106857Y-68557432D01*
X184143397Y-68546347D01*
X184187539Y-68542000D01*
X185636463Y-68542000D01*
X185680605Y-68546347D01*
G37*
G36*
X190252604Y-68546346D02*
G01*
X190289144Y-68557431D01*
X190322821Y-68575432D01*
X190352341Y-68599658D01*
X190376567Y-68629178D01*
X190394568Y-68662855D01*
X190405653Y-68699395D01*
X190410000Y-68743537D01*
X190410000Y-69692461D01*
X190405653Y-69736603D01*
X190394568Y-69773143D01*
X190376567Y-69806820D01*
X190352341Y-69836340D01*
X190322821Y-69860566D01*
X190289144Y-69878567D01*
X190252604Y-69889652D01*
X190208462Y-69893999D01*
X188759538Y-69893999D01*
X188715396Y-69889652D01*
X188678856Y-69878567D01*
X188645179Y-69860566D01*
X188615659Y-69836340D01*
X188591433Y-69806820D01*
X188573432Y-69773143D01*
X188562347Y-69736603D01*
X188558000Y-69692461D01*
X188558000Y-68743537D01*
X188562347Y-68699395D01*
X188573432Y-68662855D01*
X188591433Y-68629178D01*
X188615659Y-68599658D01*
X188645179Y-68575432D01*
X188678856Y-68557431D01*
X188715396Y-68546346D01*
X188759538Y-68541999D01*
X190208462Y-68541999D01*
X190252604Y-68546346D01*
G37*
G36*
X117260468Y-67706565D02*
G01*
X117299138Y-67718296D01*
X117334777Y-67737346D01*
X117366017Y-67762983D01*
X117391654Y-67794223D01*
X117410704Y-67829862D01*
X117422435Y-67868532D01*
X117427000Y-67914888D01*
X117427000Y-68991112D01*
X117422435Y-69037468D01*
X117410704Y-69076138D01*
X117391654Y-69111777D01*
X117366017Y-69143017D01*
X117334777Y-69168654D01*
X117299138Y-69187704D01*
X117260468Y-69199435D01*
X117214112Y-69204000D01*
X116562888Y-69204000D01*
X116516532Y-69199435D01*
X116477862Y-69187704D01*
X116442223Y-69168654D01*
X116410983Y-69143017D01*
X116385346Y-69111777D01*
X116366296Y-69076138D01*
X116354565Y-69037468D01*
X116350000Y-68991112D01*
X116350000Y-67914888D01*
X116354565Y-67868532D01*
X116366296Y-67829862D01*
X116385346Y-67794223D01*
X116410983Y-67762983D01*
X116442223Y-67737346D01*
X116477862Y-67718296D01*
X116516532Y-67706565D01*
X116562888Y-67702000D01*
X117214112Y-67702000D01*
X117260468Y-67706565D01*
G37*
G36*
X115385468Y-67706565D02*
G01*
X115424138Y-67718296D01*
X115459777Y-67737346D01*
X115491017Y-67762983D01*
X115516654Y-67794223D01*
X115535704Y-67829862D01*
X115547435Y-67868532D01*
X115552000Y-67914888D01*
X115552000Y-68991112D01*
X115547435Y-69037468D01*
X115535704Y-69076138D01*
X115516654Y-69111777D01*
X115491017Y-69143017D01*
X115459777Y-69168654D01*
X115424138Y-69187704D01*
X115385468Y-69199435D01*
X115339112Y-69204000D01*
X114687888Y-69204000D01*
X114641532Y-69199435D01*
X114602862Y-69187704D01*
X114567223Y-69168654D01*
X114535983Y-69143017D01*
X114510346Y-69111777D01*
X114491296Y-69076138D01*
X114479565Y-69037468D01*
X114475000Y-68991112D01*
X114475000Y-67914888D01*
X114479565Y-67868532D01*
X114491296Y-67829862D01*
X114510346Y-67794223D01*
X114535983Y-67762983D01*
X114567223Y-67737346D01*
X114602862Y-67718296D01*
X114641532Y-67706565D01*
X114687888Y-67702000D01*
X115339112Y-67702000D01*
X115385468Y-67706565D01*
G37*
G36*
X167589468Y-68094565D02*
G01*
X167628138Y-68106296D01*
X167663777Y-68125346D01*
X167695017Y-68150983D01*
X167720654Y-68182223D01*
X167739704Y-68217862D01*
X167751435Y-68256532D01*
X167756000Y-68302888D01*
X167756000Y-68954112D01*
X167751435Y-69000468D01*
X167739704Y-69039138D01*
X167720654Y-69074777D01*
X167695017Y-69106017D01*
X167663777Y-69131654D01*
X167628138Y-69150704D01*
X167589468Y-69162435D01*
X167543112Y-69167000D01*
X166466888Y-69167000D01*
X166420532Y-69162435D01*
X166381862Y-69150704D01*
X166346223Y-69131654D01*
X166314983Y-69106017D01*
X166289346Y-69074777D01*
X166270296Y-69039138D01*
X166258565Y-69000468D01*
X166254000Y-68954112D01*
X166254000Y-68302888D01*
X166258565Y-68256532D01*
X166270296Y-68217862D01*
X166289346Y-68182223D01*
X166314983Y-68150983D01*
X166346223Y-68125346D01*
X166381862Y-68106296D01*
X166420532Y-68094565D01*
X166466888Y-68090000D01*
X167543112Y-68090000D01*
X167589468Y-68094565D01*
G37*
G36*
X141935468Y-68094565D02*
G01*
X141974138Y-68106296D01*
X142009777Y-68125346D01*
X142041017Y-68150983D01*
X142066654Y-68182223D01*
X142085704Y-68217862D01*
X142097435Y-68256532D01*
X142102000Y-68302888D01*
X142102000Y-68954112D01*
X142097435Y-69000468D01*
X142085704Y-69039138D01*
X142066654Y-69074777D01*
X142041017Y-69106017D01*
X142009777Y-69131654D01*
X141974138Y-69150704D01*
X141935468Y-69162435D01*
X141889112Y-69167000D01*
X140812888Y-69167000D01*
X140766532Y-69162435D01*
X140727862Y-69150704D01*
X140692223Y-69131654D01*
X140660983Y-69106017D01*
X140635346Y-69074777D01*
X140616296Y-69039138D01*
X140604565Y-69000468D01*
X140600000Y-68954112D01*
X140600000Y-68302888D01*
X140604565Y-68256532D01*
X140616296Y-68217862D01*
X140635346Y-68182223D01*
X140660983Y-68150983D01*
X140692223Y-68125346D01*
X140727862Y-68106296D01*
X140766532Y-68094565D01*
X140812888Y-68090000D01*
X141889112Y-68090000D01*
X141935468Y-68094565D01*
G37*
G36*
X155270468Y-67870565D02*
G01*
X155309138Y-67882296D01*
X155344777Y-67901346D01*
X155376017Y-67926983D01*
X155401654Y-67958223D01*
X155420704Y-67993862D01*
X155432435Y-68032532D01*
X155437000Y-68078888D01*
X155437000Y-68730112D01*
X155432435Y-68776468D01*
X155420704Y-68815138D01*
X155401654Y-68850777D01*
X155376017Y-68882017D01*
X155344777Y-68907654D01*
X155309138Y-68926704D01*
X155270468Y-68938435D01*
X155224112Y-68943000D01*
X154147888Y-68943000D01*
X154101532Y-68938435D01*
X154062862Y-68926704D01*
X154027223Y-68907654D01*
X153995983Y-68882017D01*
X153970346Y-68850777D01*
X153951296Y-68815138D01*
X153939565Y-68776468D01*
X153935000Y-68730112D01*
X153935000Y-68078888D01*
X153939565Y-68032532D01*
X153951296Y-67993862D01*
X153970346Y-67958223D01*
X153995983Y-67926983D01*
X154027223Y-67901346D01*
X154062862Y-67882296D01*
X154101532Y-67870565D01*
X154147888Y-67866000D01*
X155224112Y-67866000D01*
X155270468Y-67870565D01*
G37*
G36*
X180416468Y-67713565D02*
G01*
X180455138Y-67725296D01*
X180490777Y-67744346D01*
X180522017Y-67769983D01*
X180547654Y-67801223D01*
X180566704Y-67836862D01*
X180578435Y-67875532D01*
X180583000Y-67921888D01*
X180583000Y-68573112D01*
X180578435Y-68619468D01*
X180566704Y-68658138D01*
X180547654Y-68693777D01*
X180522017Y-68725017D01*
X180490777Y-68750654D01*
X180455138Y-68769704D01*
X180416468Y-68781435D01*
X180370112Y-68786000D01*
X179293888Y-68786000D01*
X179247532Y-68781435D01*
X179208862Y-68769704D01*
X179173223Y-68750654D01*
X179141983Y-68725017D01*
X179116346Y-68693777D01*
X179097296Y-68658138D01*
X179085565Y-68619468D01*
X179081000Y-68573112D01*
X179081000Y-67921888D01*
X179085565Y-67875532D01*
X179097296Y-67836862D01*
X179116346Y-67801223D01*
X179141983Y-67769983D01*
X179173223Y-67744346D01*
X179208862Y-67725296D01*
X179247532Y-67713565D01*
X179293888Y-67709000D01*
X180370112Y-67709000D01*
X180416468Y-67713565D01*
G37*
G36*
X139996928Y-67977764D02*
G01*
X140018009Y-67984160D01*
X140037445Y-67994548D01*
X140054476Y-68008524D01*
X140068452Y-68025555D01*
X140078840Y-68044991D01*
X140085236Y-68066072D01*
X140088000Y-68094140D01*
X140088000Y-68557860D01*
X140085236Y-68585928D01*
X140078840Y-68607009D01*
X140068452Y-68626445D01*
X140054476Y-68643476D01*
X140037445Y-68657452D01*
X140018009Y-68667840D01*
X139996928Y-68674236D01*
X139968860Y-68677000D01*
X138155140Y-68677000D01*
X138127072Y-68674236D01*
X138105991Y-68667840D01*
X138086555Y-68657452D01*
X138069524Y-68643476D01*
X138055548Y-68626445D01*
X138045160Y-68607009D01*
X138038764Y-68585928D01*
X138036000Y-68557860D01*
X138036000Y-68094140D01*
X138038764Y-68066072D01*
X138045160Y-68044991D01*
X138055548Y-68025555D01*
X138069524Y-68008524D01*
X138086555Y-67994548D01*
X138105991Y-67984160D01*
X138127072Y-67977764D01*
X138155140Y-67975000D01*
X139968860Y-67975000D01*
X139996928Y-67977764D01*
G37*
G36*
X160700928Y-67977764D02*
G01*
X160722009Y-67984160D01*
X160741445Y-67994548D01*
X160758476Y-68008524D01*
X160772452Y-68025555D01*
X160782840Y-68044991D01*
X160789236Y-68066072D01*
X160792000Y-68094140D01*
X160792000Y-68557860D01*
X160789236Y-68585928D01*
X160782840Y-68607009D01*
X160772452Y-68626445D01*
X160758476Y-68643476D01*
X160741445Y-68657452D01*
X160722009Y-68667840D01*
X160700928Y-68674236D01*
X160672860Y-68677000D01*
X158859140Y-68677000D01*
X158831072Y-68674236D01*
X158809991Y-68667840D01*
X158790555Y-68657452D01*
X158773524Y-68643476D01*
X158759548Y-68626445D01*
X158749160Y-68607009D01*
X158742764Y-68585928D01*
X158740000Y-68557860D01*
X158740000Y-68094140D01*
X158742764Y-68066072D01*
X158749160Y-68044991D01*
X158759548Y-68025555D01*
X158773524Y-68008524D01*
X158790555Y-67994548D01*
X158809991Y-67984160D01*
X158831072Y-67977764D01*
X158859140Y-67975000D01*
X160672860Y-67975000D01*
X160700928Y-67977764D01*
G37*
G36*
X165650928Y-67977764D02*
G01*
X165672009Y-67984160D01*
X165691445Y-67994548D01*
X165708476Y-68008524D01*
X165722452Y-68025555D01*
X165732840Y-68044991D01*
X165739236Y-68066072D01*
X165742000Y-68094140D01*
X165742000Y-68557860D01*
X165739236Y-68585928D01*
X165732840Y-68607009D01*
X165722452Y-68626445D01*
X165708476Y-68643476D01*
X165691445Y-68657452D01*
X165672009Y-68667840D01*
X165650928Y-68674236D01*
X165622860Y-68677000D01*
X163809140Y-68677000D01*
X163781072Y-68674236D01*
X163759991Y-68667840D01*
X163740555Y-68657452D01*
X163723524Y-68643476D01*
X163709548Y-68626445D01*
X163699160Y-68607009D01*
X163692764Y-68585928D01*
X163690000Y-68557860D01*
X163690000Y-68094140D01*
X163692764Y-68066072D01*
X163699160Y-68044991D01*
X163709548Y-68025555D01*
X163723524Y-68008524D01*
X163740555Y-67994548D01*
X163759991Y-67984160D01*
X163781072Y-67977764D01*
X163809140Y-67975000D01*
X165622860Y-67975000D01*
X165650928Y-67977764D01*
G37*
G36*
X135046928Y-67977764D02*
G01*
X135068009Y-67984160D01*
X135087445Y-67994548D01*
X135104476Y-68008524D01*
X135118452Y-68025555D01*
X135128840Y-68044991D01*
X135135236Y-68066072D01*
X135138000Y-68094140D01*
X135138000Y-68557860D01*
X135135236Y-68585928D01*
X135128840Y-68607009D01*
X135118452Y-68626445D01*
X135104476Y-68643476D01*
X135087445Y-68657452D01*
X135068009Y-68667840D01*
X135046928Y-68674236D01*
X135018860Y-68677000D01*
X133205140Y-68677000D01*
X133177072Y-68674236D01*
X133155991Y-68667840D01*
X133136555Y-68657452D01*
X133119524Y-68643476D01*
X133105548Y-68626445D01*
X133095160Y-68607009D01*
X133088764Y-68585928D01*
X133086000Y-68557860D01*
X133086000Y-68094140D01*
X133088764Y-68066072D01*
X133095160Y-68044991D01*
X133105548Y-68025555D01*
X133119524Y-68008524D01*
X133136555Y-67994548D01*
X133155991Y-67984160D01*
X133177072Y-67977764D01*
X133205140Y-67975000D01*
X135018860Y-67975000D01*
X135046928Y-67977764D01*
G37*
G36*
X173527928Y-67977764D02*
G01*
X173549009Y-67984160D01*
X173568445Y-67994548D01*
X173585476Y-68008524D01*
X173599452Y-68025555D01*
X173609840Y-68044991D01*
X173616236Y-68066072D01*
X173619000Y-68094140D01*
X173619000Y-68557860D01*
X173616236Y-68585928D01*
X173609840Y-68607009D01*
X173599452Y-68626445D01*
X173585476Y-68643476D01*
X173568445Y-68657452D01*
X173549009Y-68667840D01*
X173527928Y-68674236D01*
X173499860Y-68677000D01*
X171686140Y-68677000D01*
X171658072Y-68674236D01*
X171636991Y-68667840D01*
X171617555Y-68657452D01*
X171600524Y-68643476D01*
X171586548Y-68626445D01*
X171576160Y-68607009D01*
X171569764Y-68585928D01*
X171567000Y-68557860D01*
X171567000Y-68094140D01*
X171569764Y-68066072D01*
X171576160Y-68044991D01*
X171586548Y-68025555D01*
X171600524Y-68008524D01*
X171617555Y-67994548D01*
X171636991Y-67984160D01*
X171658072Y-67977764D01*
X171686140Y-67975000D01*
X173499860Y-67975000D01*
X173527928Y-67977764D01*
G37*
G36*
X178477928Y-67977764D02*
G01*
X178499009Y-67984160D01*
X178518445Y-67994548D01*
X178535476Y-68008524D01*
X178549452Y-68025555D01*
X178559840Y-68044991D01*
X178566236Y-68066072D01*
X178569000Y-68094140D01*
X178569000Y-68557860D01*
X178566236Y-68585928D01*
X178559840Y-68607009D01*
X178549452Y-68626445D01*
X178535476Y-68643476D01*
X178518445Y-68657452D01*
X178499009Y-68667840D01*
X178477928Y-68674236D01*
X178449860Y-68677000D01*
X176636140Y-68677000D01*
X176608072Y-68674236D01*
X176586991Y-68667840D01*
X176567555Y-68657452D01*
X176550524Y-68643476D01*
X176536548Y-68626445D01*
X176526160Y-68607009D01*
X176519764Y-68585928D01*
X176517000Y-68557860D01*
X176517000Y-68094140D01*
X176519764Y-68066072D01*
X176526160Y-68044991D01*
X176536548Y-68025555D01*
X176550524Y-68008524D01*
X176567555Y-67994548D01*
X176586991Y-67984160D01*
X176608072Y-67977764D01*
X176636140Y-67975000D01*
X178449860Y-67975000D01*
X178477928Y-67977764D01*
G37*
G36*
X170891468Y-67489565D02*
G01*
X170930138Y-67501296D01*
X170965777Y-67520346D01*
X170997017Y-67545983D01*
X171022654Y-67577223D01*
X171041704Y-67612862D01*
X171053435Y-67651532D01*
X171058000Y-67697888D01*
X171058000Y-68349112D01*
X171053435Y-68395468D01*
X171041704Y-68434138D01*
X171022654Y-68469777D01*
X170997017Y-68501017D01*
X170965777Y-68526654D01*
X170930138Y-68545704D01*
X170891468Y-68557435D01*
X170845112Y-68562000D01*
X169768888Y-68562000D01*
X169722532Y-68557435D01*
X169683862Y-68545704D01*
X169648223Y-68526654D01*
X169616983Y-68501017D01*
X169591346Y-68469777D01*
X169572296Y-68434138D01*
X169560565Y-68395468D01*
X169556000Y-68349112D01*
X169556000Y-67697888D01*
X169560565Y-67651532D01*
X169572296Y-67612862D01*
X169591346Y-67577223D01*
X169616983Y-67545983D01*
X169648223Y-67520346D01*
X169683862Y-67501296D01*
X169722532Y-67489565D01*
X169768888Y-67485000D01*
X170845112Y-67485000D01*
X170891468Y-67489565D01*
G37*
G36*
X147873928Y-67850764D02*
G01*
X147895009Y-67857160D01*
X147914445Y-67867548D01*
X147931476Y-67881524D01*
X147945452Y-67898555D01*
X147955840Y-67917991D01*
X147962236Y-67939072D01*
X147965000Y-67967140D01*
X147965000Y-68430860D01*
X147962236Y-68458928D01*
X147955840Y-68480009D01*
X147945452Y-68499445D01*
X147931476Y-68516476D01*
X147914445Y-68530452D01*
X147895009Y-68540840D01*
X147873928Y-68547236D01*
X147845860Y-68550000D01*
X146032140Y-68550000D01*
X146004072Y-68547236D01*
X145982991Y-68540840D01*
X145963555Y-68530452D01*
X145946524Y-68516476D01*
X145932548Y-68499445D01*
X145922160Y-68480009D01*
X145915764Y-68458928D01*
X145913000Y-68430860D01*
X145913000Y-67967140D01*
X145915764Y-67939072D01*
X145922160Y-67917991D01*
X145932548Y-67898555D01*
X145946524Y-67881524D01*
X145963555Y-67867548D01*
X145982991Y-67857160D01*
X146004072Y-67850764D01*
X146032140Y-67848000D01*
X147845860Y-67848000D01*
X147873928Y-67850764D01*
G37*
G36*
X152823928Y-67850764D02*
G01*
X152845009Y-67857160D01*
X152864445Y-67867548D01*
X152881476Y-67881524D01*
X152895452Y-67898555D01*
X152905840Y-67917991D01*
X152912236Y-67939072D01*
X152915000Y-67967140D01*
X152915000Y-68430860D01*
X152912236Y-68458928D01*
X152905840Y-68480009D01*
X152895452Y-68499445D01*
X152881476Y-68516476D01*
X152864445Y-68530452D01*
X152845009Y-68540840D01*
X152823928Y-68547236D01*
X152795860Y-68550000D01*
X150982140Y-68550000D01*
X150954072Y-68547236D01*
X150932991Y-68540840D01*
X150913555Y-68530452D01*
X150896524Y-68516476D01*
X150882548Y-68499445D01*
X150872160Y-68480009D01*
X150865764Y-68458928D01*
X150863000Y-68430860D01*
X150863000Y-67967140D01*
X150865764Y-67939072D01*
X150872160Y-67917991D01*
X150882548Y-67898555D01*
X150896524Y-67881524D01*
X150913555Y-67867548D01*
X150932991Y-67857160D01*
X150954072Y-67850764D01*
X150982140Y-67848000D01*
X152795860Y-67848000D01*
X152823928Y-67850764D01*
G37*
G36*
X158064468Y-67426065D02*
G01*
X158103138Y-67437796D01*
X158138777Y-67456846D01*
X158170017Y-67482483D01*
X158195654Y-67513723D01*
X158214704Y-67549362D01*
X158226435Y-67588032D01*
X158231000Y-67634388D01*
X158231000Y-68285612D01*
X158226435Y-68331968D01*
X158214704Y-68370638D01*
X158195654Y-68406277D01*
X158170017Y-68437517D01*
X158138777Y-68463154D01*
X158103138Y-68482204D01*
X158064468Y-68493935D01*
X158018112Y-68498500D01*
X156941888Y-68498500D01*
X156895532Y-68493935D01*
X156856862Y-68482204D01*
X156821223Y-68463154D01*
X156789983Y-68437517D01*
X156764346Y-68406277D01*
X156745296Y-68370638D01*
X156733565Y-68331968D01*
X156729000Y-68285612D01*
X156729000Y-67634388D01*
X156733565Y-67588032D01*
X156745296Y-67549362D01*
X156764346Y-67513723D01*
X156789983Y-67482483D01*
X156821223Y-67456846D01*
X156856862Y-67437796D01*
X156895532Y-67426065D01*
X156941888Y-67421500D01*
X158018112Y-67421500D01*
X158064468Y-67426065D01*
G37*
G36*
X145237468Y-67426065D02*
G01*
X145276138Y-67437796D01*
X145311777Y-67456846D01*
X145343017Y-67482483D01*
X145368654Y-67513723D01*
X145387704Y-67549362D01*
X145399435Y-67588032D01*
X145404000Y-67634388D01*
X145404000Y-68285612D01*
X145399435Y-68331968D01*
X145387704Y-68370638D01*
X145368654Y-68406277D01*
X145343017Y-68437517D01*
X145311777Y-68463154D01*
X145276138Y-68482204D01*
X145237468Y-68493935D01*
X145191112Y-68498500D01*
X144114888Y-68498500D01*
X144068532Y-68493935D01*
X144029862Y-68482204D01*
X143994223Y-68463154D01*
X143962983Y-68437517D01*
X143937346Y-68406277D01*
X143918296Y-68370638D01*
X143906565Y-68331968D01*
X143902000Y-68285612D01*
X143902000Y-67634388D01*
X143906565Y-67588032D01*
X143918296Y-67549362D01*
X143937346Y-67513723D01*
X143962983Y-67482483D01*
X143994223Y-67456846D01*
X144029862Y-67437796D01*
X144068532Y-67426065D01*
X144114888Y-67421500D01*
X145191112Y-67421500D01*
X145237468Y-67426065D01*
G37*
G36*
X132410468Y-67362565D02*
G01*
X132449138Y-67374296D01*
X132484777Y-67393346D01*
X132516017Y-67418983D01*
X132541654Y-67450223D01*
X132560704Y-67485862D01*
X132572435Y-67524532D01*
X132577000Y-67570888D01*
X132577000Y-68222112D01*
X132572435Y-68268468D01*
X132560704Y-68307138D01*
X132541654Y-68342777D01*
X132516017Y-68374017D01*
X132484777Y-68399654D01*
X132449138Y-68418704D01*
X132410468Y-68430435D01*
X132364112Y-68435000D01*
X131287888Y-68435000D01*
X131241532Y-68430435D01*
X131202862Y-68418704D01*
X131167223Y-68399654D01*
X131135983Y-68374017D01*
X131110346Y-68342777D01*
X131091296Y-68307138D01*
X131079565Y-68268468D01*
X131075000Y-68222112D01*
X131075000Y-67570888D01*
X131079565Y-67524532D01*
X131091296Y-67485862D01*
X131110346Y-67450223D01*
X131135983Y-67418983D01*
X131167223Y-67393346D01*
X131202862Y-67374296D01*
X131241532Y-67362565D01*
X131287888Y-67358000D01*
X132364112Y-67358000D01*
X132410468Y-67362565D01*
G37*
G36*
X139996928Y-66707764D02*
G01*
X140018009Y-66714160D01*
X140037445Y-66724548D01*
X140054476Y-66738524D01*
X140068452Y-66755555D01*
X140078840Y-66774991D01*
X140085236Y-66796072D01*
X140088000Y-66824140D01*
X140088000Y-67287860D01*
X140085236Y-67315928D01*
X140078840Y-67337009D01*
X140068452Y-67356445D01*
X140054476Y-67373476D01*
X140037445Y-67387452D01*
X140018009Y-67397840D01*
X139996928Y-67404236D01*
X139968860Y-67407000D01*
X138155140Y-67407000D01*
X138127072Y-67404236D01*
X138105991Y-67397840D01*
X138086555Y-67387452D01*
X138069524Y-67373476D01*
X138055548Y-67356445D01*
X138045160Y-67337009D01*
X138038764Y-67315928D01*
X138036000Y-67287860D01*
X138036000Y-66824140D01*
X138038764Y-66796072D01*
X138045160Y-66774991D01*
X138055548Y-66755555D01*
X138069524Y-66738524D01*
X138086555Y-66724548D01*
X138105991Y-66714160D01*
X138127072Y-66707764D01*
X138155140Y-66705000D01*
X139968860Y-66705000D01*
X139996928Y-66707764D01*
G37*
G36*
X135046928Y-66707764D02*
G01*
X135068009Y-66714160D01*
X135087445Y-66724548D01*
X135104476Y-66738524D01*
X135118452Y-66755555D01*
X135128840Y-66774991D01*
X135135236Y-66796072D01*
X135138000Y-66824140D01*
X135138000Y-67287860D01*
X135135236Y-67315928D01*
X135128840Y-67337009D01*
X135118452Y-67356445D01*
X135104476Y-67373476D01*
X135087445Y-67387452D01*
X135068009Y-67397840D01*
X135046928Y-67404236D01*
X135018860Y-67407000D01*
X133205140Y-67407000D01*
X133177072Y-67404236D01*
X133155991Y-67397840D01*
X133136555Y-67387452D01*
X133119524Y-67373476D01*
X133105548Y-67356445D01*
X133095160Y-67337009D01*
X133088764Y-67315928D01*
X133086000Y-67287860D01*
X133086000Y-66824140D01*
X133088764Y-66796072D01*
X133095160Y-66774991D01*
X133105548Y-66755555D01*
X133119524Y-66738524D01*
X133136555Y-66724548D01*
X133155991Y-66714160D01*
X133177072Y-66707764D01*
X133205140Y-66705000D01*
X135018860Y-66705000D01*
X135046928Y-66707764D01*
G37*
G36*
X178477928Y-66707764D02*
G01*
X178499009Y-66714160D01*
X178518445Y-66724548D01*
X178535476Y-66738524D01*
X178549452Y-66755555D01*
X178559840Y-66774991D01*
X178566236Y-66796072D01*
X178569000Y-66824140D01*
X178569000Y-67287860D01*
X178566236Y-67315928D01*
X178559840Y-67337009D01*
X178549452Y-67356445D01*
X178535476Y-67373476D01*
X178518445Y-67387452D01*
X178499009Y-67397840D01*
X178477928Y-67404236D01*
X178449860Y-67407000D01*
X176636140Y-67407000D01*
X176608072Y-67404236D01*
X176586991Y-67397840D01*
X176567555Y-67387452D01*
X176550524Y-67373476D01*
X176536548Y-67356445D01*
X176526160Y-67337009D01*
X176519764Y-67315928D01*
X176517000Y-67287860D01*
X176517000Y-66824140D01*
X176519764Y-66796072D01*
X176526160Y-66774991D01*
X176536548Y-66755555D01*
X176550524Y-66738524D01*
X176567555Y-66724548D01*
X176586991Y-66714160D01*
X176608072Y-66707764D01*
X176636140Y-66705000D01*
X178449860Y-66705000D01*
X178477928Y-66707764D01*
G37*
G36*
X173527928Y-66707764D02*
G01*
X173549009Y-66714160D01*
X173568445Y-66724548D01*
X173585476Y-66738524D01*
X173599452Y-66755555D01*
X173609840Y-66774991D01*
X173616236Y-66796072D01*
X173619000Y-66824140D01*
X173619000Y-67287860D01*
X173616236Y-67315928D01*
X173609840Y-67337009D01*
X173599452Y-67356445D01*
X173585476Y-67373476D01*
X173568445Y-67387452D01*
X173549009Y-67397840D01*
X173527928Y-67404236D01*
X173499860Y-67407000D01*
X171686140Y-67407000D01*
X171658072Y-67404236D01*
X171636991Y-67397840D01*
X171617555Y-67387452D01*
X171600524Y-67373476D01*
X171586548Y-67356445D01*
X171576160Y-67337009D01*
X171569764Y-67315928D01*
X171567000Y-67287860D01*
X171567000Y-66824140D01*
X171569764Y-66796072D01*
X171576160Y-66774991D01*
X171586548Y-66755555D01*
X171600524Y-66738524D01*
X171617555Y-66724548D01*
X171636991Y-66714160D01*
X171658072Y-66707764D01*
X171686140Y-66705000D01*
X173499860Y-66705000D01*
X173527928Y-66707764D01*
G37*
G36*
X165650928Y-66707764D02*
G01*
X165672009Y-66714160D01*
X165691445Y-66724548D01*
X165708476Y-66738524D01*
X165722452Y-66755555D01*
X165732840Y-66774991D01*
X165739236Y-66796072D01*
X165742000Y-66824140D01*
X165742000Y-67287860D01*
X165739236Y-67315928D01*
X165732840Y-67337009D01*
X165722452Y-67356445D01*
X165708476Y-67373476D01*
X165691445Y-67387452D01*
X165672009Y-67397840D01*
X165650928Y-67404236D01*
X165622860Y-67407000D01*
X163809140Y-67407000D01*
X163781072Y-67404236D01*
X163759991Y-67397840D01*
X163740555Y-67387452D01*
X163723524Y-67373476D01*
X163709548Y-67356445D01*
X163699160Y-67337009D01*
X163692764Y-67315928D01*
X163690000Y-67287860D01*
X163690000Y-66824140D01*
X163692764Y-66796072D01*
X163699160Y-66774991D01*
X163709548Y-66755555D01*
X163723524Y-66738524D01*
X163740555Y-66724548D01*
X163759991Y-66714160D01*
X163781072Y-66707764D01*
X163809140Y-66705000D01*
X165622860Y-66705000D01*
X165650928Y-66707764D01*
G37*
G36*
X160700928Y-66707764D02*
G01*
X160722009Y-66714160D01*
X160741445Y-66724548D01*
X160758476Y-66738524D01*
X160772452Y-66755555D01*
X160782840Y-66774991D01*
X160789236Y-66796072D01*
X160792000Y-66824140D01*
X160792000Y-67287860D01*
X160789236Y-67315928D01*
X160782840Y-67337009D01*
X160772452Y-67356445D01*
X160758476Y-67373476D01*
X160741445Y-67387452D01*
X160722009Y-67397840D01*
X160700928Y-67404236D01*
X160672860Y-67407000D01*
X158859140Y-67407000D01*
X158831072Y-67404236D01*
X158809991Y-67397840D01*
X158790555Y-67387452D01*
X158773524Y-67373476D01*
X158759548Y-67356445D01*
X158749160Y-67337009D01*
X158742764Y-67315928D01*
X158740000Y-67287860D01*
X158740000Y-66824140D01*
X158742764Y-66796072D01*
X158749160Y-66774991D01*
X158759548Y-66755555D01*
X158773524Y-66738524D01*
X158790555Y-66724548D01*
X158809991Y-66714160D01*
X158831072Y-66707764D01*
X158859140Y-66705000D01*
X160672860Y-66705000D01*
X160700928Y-66707764D01*
G37*
G36*
X167589468Y-66219565D02*
G01*
X167628138Y-66231296D01*
X167663777Y-66250346D01*
X167695017Y-66275983D01*
X167720654Y-66307223D01*
X167739704Y-66342862D01*
X167751435Y-66381532D01*
X167756000Y-66427888D01*
X167756000Y-67079112D01*
X167751435Y-67125468D01*
X167739704Y-67164138D01*
X167720654Y-67199777D01*
X167695017Y-67231017D01*
X167663777Y-67256654D01*
X167628138Y-67275704D01*
X167589468Y-67287435D01*
X167543112Y-67292000D01*
X166466888Y-67292000D01*
X166420532Y-67287435D01*
X166381862Y-67275704D01*
X166346223Y-67256654D01*
X166314983Y-67231017D01*
X166289346Y-67199777D01*
X166270296Y-67164138D01*
X166258565Y-67125468D01*
X166254000Y-67079112D01*
X166254000Y-66427888D01*
X166258565Y-66381532D01*
X166270296Y-66342862D01*
X166289346Y-66307223D01*
X166314983Y-66275983D01*
X166346223Y-66250346D01*
X166381862Y-66231296D01*
X166420532Y-66219565D01*
X166466888Y-66215000D01*
X167543112Y-66215000D01*
X167589468Y-66219565D01*
G37*
G36*
X141935468Y-66219565D02*
G01*
X141974138Y-66231296D01*
X142009777Y-66250346D01*
X142041017Y-66275983D01*
X142066654Y-66307223D01*
X142085704Y-66342862D01*
X142097435Y-66381532D01*
X142102000Y-66427888D01*
X142102000Y-67079112D01*
X142097435Y-67125468D01*
X142085704Y-67164138D01*
X142066654Y-67199777D01*
X142041017Y-67231017D01*
X142009777Y-67256654D01*
X141974138Y-67275704D01*
X141935468Y-67287435D01*
X141889112Y-67292000D01*
X140812888Y-67292000D01*
X140766532Y-67287435D01*
X140727862Y-67275704D01*
X140692223Y-67256654D01*
X140660983Y-67231017D01*
X140635346Y-67199777D01*
X140616296Y-67164138D01*
X140604565Y-67125468D01*
X140600000Y-67079112D01*
X140600000Y-66427888D01*
X140604565Y-66381532D01*
X140616296Y-66342862D01*
X140635346Y-66307223D01*
X140660983Y-66275983D01*
X140692223Y-66250346D01*
X140727862Y-66231296D01*
X140766532Y-66219565D01*
X140812888Y-66215000D01*
X141889112Y-66215000D01*
X141935468Y-66219565D01*
G37*
G36*
X147873928Y-66580764D02*
G01*
X147895009Y-66587160D01*
X147914445Y-66597548D01*
X147931476Y-66611524D01*
X147945452Y-66628555D01*
X147955840Y-66647991D01*
X147962236Y-66669072D01*
X147965000Y-66697140D01*
X147965000Y-67160860D01*
X147962236Y-67188928D01*
X147955840Y-67210009D01*
X147945452Y-67229445D01*
X147931476Y-67246476D01*
X147914445Y-67260452D01*
X147895009Y-67270840D01*
X147873928Y-67277236D01*
X147845860Y-67280000D01*
X146032140Y-67280000D01*
X146004072Y-67277236D01*
X145982991Y-67270840D01*
X145963555Y-67260452D01*
X145946524Y-67246476D01*
X145932548Y-67229445D01*
X145922160Y-67210009D01*
X145915764Y-67188928D01*
X145913000Y-67160860D01*
X145913000Y-66697140D01*
X145915764Y-66669072D01*
X145922160Y-66647991D01*
X145932548Y-66628555D01*
X145946524Y-66611524D01*
X145963555Y-66597548D01*
X145982991Y-66587160D01*
X146004072Y-66580764D01*
X146032140Y-66578000D01*
X147845860Y-66578000D01*
X147873928Y-66580764D01*
G37*
G36*
X152823928Y-66580764D02*
G01*
X152845009Y-66587160D01*
X152864445Y-66597548D01*
X152881476Y-66611524D01*
X152895452Y-66628555D01*
X152905840Y-66647991D01*
X152912236Y-66669072D01*
X152915000Y-66697140D01*
X152915000Y-67160860D01*
X152912236Y-67188928D01*
X152905840Y-67210009D01*
X152895452Y-67229445D01*
X152881476Y-67246476D01*
X152864445Y-67260452D01*
X152845009Y-67270840D01*
X152823928Y-67277236D01*
X152795860Y-67280000D01*
X150982140Y-67280000D01*
X150954072Y-67277236D01*
X150932991Y-67270840D01*
X150913555Y-67260452D01*
X150896524Y-67246476D01*
X150882548Y-67229445D01*
X150872160Y-67210009D01*
X150865764Y-67188928D01*
X150863000Y-67160860D01*
X150863000Y-66697140D01*
X150865764Y-66669072D01*
X150872160Y-66647991D01*
X150882548Y-66628555D01*
X150896524Y-66611524D01*
X150913555Y-66597548D01*
X150932991Y-66587160D01*
X150954072Y-66580764D01*
X150982140Y-66578000D01*
X152795860Y-66578000D01*
X152823928Y-66580764D01*
G37*
G36*
X115385468Y-65674565D02*
G01*
X115424138Y-65686296D01*
X115459777Y-65705346D01*
X115491017Y-65730983D01*
X115516654Y-65762223D01*
X115535704Y-65797862D01*
X115547435Y-65836532D01*
X115552000Y-65882888D01*
X115552000Y-66959112D01*
X115547435Y-67005468D01*
X115535704Y-67044138D01*
X115516654Y-67079777D01*
X115491017Y-67111017D01*
X115459777Y-67136654D01*
X115424138Y-67155704D01*
X115385468Y-67167435D01*
X115339112Y-67172000D01*
X114687888Y-67172000D01*
X114641532Y-67167435D01*
X114602862Y-67155704D01*
X114567223Y-67136654D01*
X114535983Y-67111017D01*
X114510346Y-67079777D01*
X114491296Y-67044138D01*
X114479565Y-67005468D01*
X114475000Y-66959112D01*
X114475000Y-65882888D01*
X114479565Y-65836532D01*
X114491296Y-65797862D01*
X114510346Y-65762223D01*
X114535983Y-65730983D01*
X114567223Y-65705346D01*
X114602862Y-65686296D01*
X114641532Y-65674565D01*
X114687888Y-65670000D01*
X115339112Y-65670000D01*
X115385468Y-65674565D01*
G37*
G36*
X127166468Y-65674565D02*
G01*
X127205138Y-65686296D01*
X127240777Y-65705346D01*
X127272017Y-65730983D01*
X127297654Y-65762223D01*
X127316704Y-65797862D01*
X127328435Y-65836532D01*
X127333000Y-65882888D01*
X127333000Y-66959112D01*
X127328435Y-67005468D01*
X127316704Y-67044138D01*
X127297654Y-67079777D01*
X127272017Y-67111017D01*
X127240777Y-67136654D01*
X127205138Y-67155704D01*
X127166468Y-67167435D01*
X127120112Y-67172000D01*
X126468888Y-67172000D01*
X126422532Y-67167435D01*
X126383862Y-67155704D01*
X126348223Y-67136654D01*
X126316983Y-67111017D01*
X126291346Y-67079777D01*
X126272296Y-67044138D01*
X126260565Y-67005468D01*
X126256000Y-66959112D01*
X126256000Y-65882888D01*
X126260565Y-65836532D01*
X126272296Y-65797862D01*
X126291346Y-65762223D01*
X126316983Y-65730983D01*
X126348223Y-65705346D01*
X126383862Y-65686296D01*
X126422532Y-65674565D01*
X126468888Y-65670000D01*
X127120112Y-65670000D01*
X127166468Y-65674565D01*
G37*
G36*
X125291468Y-65674565D02*
G01*
X125330138Y-65686296D01*
X125365777Y-65705346D01*
X125397017Y-65730983D01*
X125422654Y-65762223D01*
X125441704Y-65797862D01*
X125453435Y-65836532D01*
X125458000Y-65882888D01*
X125458000Y-66959112D01*
X125453435Y-67005468D01*
X125441704Y-67044138D01*
X125422654Y-67079777D01*
X125397017Y-67111017D01*
X125365777Y-67136654D01*
X125330138Y-67155704D01*
X125291468Y-67167435D01*
X125245112Y-67172000D01*
X124593888Y-67172000D01*
X124547532Y-67167435D01*
X124508862Y-67155704D01*
X124473223Y-67136654D01*
X124441983Y-67111017D01*
X124416346Y-67079777D01*
X124397296Y-67044138D01*
X124385565Y-67005468D01*
X124381000Y-66959112D01*
X124381000Y-65882888D01*
X124385565Y-65836532D01*
X124397296Y-65797862D01*
X124416346Y-65762223D01*
X124441983Y-65730983D01*
X124473223Y-65705346D01*
X124508862Y-65686296D01*
X124547532Y-65674565D01*
X124593888Y-65670000D01*
X125245112Y-65670000D01*
X125291468Y-65674565D01*
G37*
G36*
X117260468Y-65674565D02*
G01*
X117299138Y-65686296D01*
X117334777Y-65705346D01*
X117366017Y-65730983D01*
X117391654Y-65762223D01*
X117410704Y-65797862D01*
X117422435Y-65836532D01*
X117427000Y-65882888D01*
X117427000Y-66959112D01*
X117422435Y-67005468D01*
X117410704Y-67044138D01*
X117391654Y-67079777D01*
X117366017Y-67111017D01*
X117334777Y-67136654D01*
X117299138Y-67155704D01*
X117260468Y-67167435D01*
X117214112Y-67172000D01*
X116562888Y-67172000D01*
X116516532Y-67167435D01*
X116477862Y-67155704D01*
X116442223Y-67136654D01*
X116410983Y-67111017D01*
X116385346Y-67079777D01*
X116366296Y-67044138D01*
X116354565Y-67005468D01*
X116350000Y-66959112D01*
X116350000Y-65882888D01*
X116354565Y-65836532D01*
X116366296Y-65797862D01*
X116385346Y-65762223D01*
X116410983Y-65730983D01*
X116442223Y-65705346D01*
X116477862Y-65686296D01*
X116516532Y-65674565D01*
X116562888Y-65670000D01*
X117214112Y-65670000D01*
X117260468Y-65674565D01*
G37*
G36*
X187966605Y-65746347D02*
G01*
X188003145Y-65757432D01*
X188036822Y-65775433D01*
X188066342Y-65799659D01*
X188090568Y-65829179D01*
X188108569Y-65862856D01*
X188119654Y-65899396D01*
X188124001Y-65943538D01*
X188124001Y-66892462D01*
X188119654Y-66936604D01*
X188108569Y-66973144D01*
X188090568Y-67006821D01*
X188066342Y-67036341D01*
X188036822Y-67060567D01*
X188003145Y-67078568D01*
X187966605Y-67089653D01*
X187922463Y-67094000D01*
X186473539Y-67094000D01*
X186429397Y-67089653D01*
X186392857Y-67078568D01*
X186359180Y-67060567D01*
X186329660Y-67036341D01*
X186305434Y-67006821D01*
X186287433Y-66973144D01*
X186276348Y-66936604D01*
X186272001Y-66892462D01*
X186272001Y-65943538D01*
X186276348Y-65899396D01*
X186287433Y-65862856D01*
X186305434Y-65829179D01*
X186329660Y-65799659D01*
X186359180Y-65775433D01*
X186392857Y-65757432D01*
X186429397Y-65746347D01*
X186473539Y-65742000D01*
X187922463Y-65742000D01*
X187966605Y-65746347D01*
G37*
G36*
X185680605Y-65746347D02*
G01*
X185717145Y-65757432D01*
X185750822Y-65775433D01*
X185780342Y-65799659D01*
X185804568Y-65829179D01*
X185822569Y-65862856D01*
X185833654Y-65899396D01*
X185838001Y-65943538D01*
X185838001Y-66892462D01*
X185833654Y-66936604D01*
X185822569Y-66973144D01*
X185804568Y-67006821D01*
X185780342Y-67036341D01*
X185750822Y-67060567D01*
X185717145Y-67078568D01*
X185680605Y-67089653D01*
X185636463Y-67094000D01*
X184187539Y-67094000D01*
X184143397Y-67089653D01*
X184106857Y-67078568D01*
X184073180Y-67060567D01*
X184043660Y-67036341D01*
X184019434Y-67006821D01*
X184001433Y-66973144D01*
X183990348Y-66936604D01*
X183986001Y-66892462D01*
X183986001Y-65943538D01*
X183990348Y-65899396D01*
X184001433Y-65862856D01*
X184019434Y-65829179D01*
X184043660Y-65799659D01*
X184073180Y-65775433D01*
X184106857Y-65757432D01*
X184143397Y-65746347D01*
X184187539Y-65742000D01*
X185636463Y-65742000D01*
X185680605Y-65746347D01*
G37*
G36*
X183394604Y-65746347D02*
G01*
X183431144Y-65757432D01*
X183464821Y-65775433D01*
X183494341Y-65799659D01*
X183518567Y-65829179D01*
X183536568Y-65862856D01*
X183547653Y-65899396D01*
X183552000Y-65943538D01*
X183552000Y-66892462D01*
X183547653Y-66936604D01*
X183536568Y-66973144D01*
X183518567Y-67006821D01*
X183494341Y-67036341D01*
X183464821Y-67060567D01*
X183431144Y-67078568D01*
X183394604Y-67089653D01*
X183350462Y-67094000D01*
X181901538Y-67094000D01*
X181857396Y-67089653D01*
X181820856Y-67078568D01*
X181787179Y-67060567D01*
X181757659Y-67036341D01*
X181733433Y-67006821D01*
X181715432Y-66973144D01*
X181704347Y-66936604D01*
X181700000Y-66892462D01*
X181700000Y-65943538D01*
X181704347Y-65899396D01*
X181715432Y-65862856D01*
X181733433Y-65829179D01*
X181757659Y-65799659D01*
X181787179Y-65775433D01*
X181820856Y-65757432D01*
X181857396Y-65746347D01*
X181901538Y-65742000D01*
X183350462Y-65742000D01*
X183394604Y-65746347D01*
G37*
G36*
X190252604Y-65746346D02*
G01*
X190289144Y-65757431D01*
X190322821Y-65775432D01*
X190352341Y-65799658D01*
X190376567Y-65829178D01*
X190394568Y-65862855D01*
X190405653Y-65899395D01*
X190410000Y-65943537D01*
X190410000Y-66892461D01*
X190405653Y-66936603D01*
X190394568Y-66973143D01*
X190376567Y-67006820D01*
X190352341Y-67036340D01*
X190322821Y-67060566D01*
X190289144Y-67078567D01*
X190252604Y-67089652D01*
X190208462Y-67093999D01*
X188759538Y-67093999D01*
X188715396Y-67089652D01*
X188678856Y-67078567D01*
X188645179Y-67060566D01*
X188615659Y-67036340D01*
X188591433Y-67006820D01*
X188573432Y-66973143D01*
X188562347Y-66936603D01*
X188558000Y-66892461D01*
X188558000Y-65943537D01*
X188562347Y-65899395D01*
X188573432Y-65862855D01*
X188591433Y-65829178D01*
X188615659Y-65799658D01*
X188645179Y-65775432D01*
X188678856Y-65757431D01*
X188715396Y-65746346D01*
X188759538Y-65741999D01*
X190208462Y-65741999D01*
X190252604Y-65746346D01*
G37*
G36*
X170891468Y-65857065D02*
G01*
X170930138Y-65868796D01*
X170965777Y-65887846D01*
X170997017Y-65913483D01*
X171022654Y-65944723D01*
X171041704Y-65980362D01*
X171053435Y-66019032D01*
X171058000Y-66065388D01*
X171058000Y-66716612D01*
X171053435Y-66762968D01*
X171041704Y-66801638D01*
X171022654Y-66837277D01*
X170997017Y-66868517D01*
X170965777Y-66894154D01*
X170930138Y-66913204D01*
X170891468Y-66924935D01*
X170845112Y-66929500D01*
X169768888Y-66929500D01*
X169722532Y-66924935D01*
X169683862Y-66913204D01*
X169648223Y-66894154D01*
X169616983Y-66868517D01*
X169591346Y-66837277D01*
X169572296Y-66801638D01*
X169560565Y-66762968D01*
X169556000Y-66716612D01*
X169556000Y-66065388D01*
X169560565Y-66019032D01*
X169572296Y-65980362D01*
X169591346Y-65944723D01*
X169616983Y-65913483D01*
X169648223Y-65887846D01*
X169683862Y-65868796D01*
X169722532Y-65857065D01*
X169768888Y-65852500D01*
X170845112Y-65852500D01*
X170891468Y-65857065D01*
G37*
G36*
X180416468Y-65838565D02*
G01*
X180455138Y-65850296D01*
X180490777Y-65869346D01*
X180522017Y-65894983D01*
X180547654Y-65926223D01*
X180566704Y-65961862D01*
X180578435Y-66000532D01*
X180583000Y-66046888D01*
X180583000Y-66698112D01*
X180578435Y-66744468D01*
X180566704Y-66783138D01*
X180547654Y-66818777D01*
X180522017Y-66850017D01*
X180490777Y-66875654D01*
X180455138Y-66894704D01*
X180416468Y-66906435D01*
X180370112Y-66911000D01*
X179293888Y-66911000D01*
X179247532Y-66906435D01*
X179208862Y-66894704D01*
X179173223Y-66875654D01*
X179141983Y-66850017D01*
X179116346Y-66818777D01*
X179097296Y-66783138D01*
X179085565Y-66744468D01*
X179081000Y-66698112D01*
X179081000Y-66046888D01*
X179085565Y-66000532D01*
X179097296Y-65961862D01*
X179116346Y-65926223D01*
X179141983Y-65894983D01*
X179173223Y-65869346D01*
X179208862Y-65850296D01*
X179247532Y-65838565D01*
X179293888Y-65834000D01*
X180370112Y-65834000D01*
X180416468Y-65838565D01*
G37*
G36*
X132410468Y-65808565D02*
G01*
X132449138Y-65820296D01*
X132484777Y-65839346D01*
X132516017Y-65864983D01*
X132541654Y-65896223D01*
X132560704Y-65931862D01*
X132572435Y-65970532D01*
X132577000Y-66016888D01*
X132577000Y-66668112D01*
X132572435Y-66714468D01*
X132560704Y-66753138D01*
X132541654Y-66788777D01*
X132516017Y-66820017D01*
X132484777Y-66845654D01*
X132449138Y-66864704D01*
X132410468Y-66876435D01*
X132364112Y-66881000D01*
X131287888Y-66881000D01*
X131241532Y-66876435D01*
X131202862Y-66864704D01*
X131167223Y-66845654D01*
X131135983Y-66820017D01*
X131110346Y-66788777D01*
X131091296Y-66753138D01*
X131079565Y-66714468D01*
X131075000Y-66668112D01*
X131075000Y-66016888D01*
X131079565Y-65970532D01*
X131091296Y-65931862D01*
X131110346Y-65896223D01*
X131135983Y-65864983D01*
X131167223Y-65839346D01*
X131202862Y-65820296D01*
X131241532Y-65808565D01*
X131287888Y-65804000D01*
X132364112Y-65804000D01*
X132410468Y-65808565D01*
G37*
G36*
X145237468Y-65808565D02*
G01*
X145276138Y-65820296D01*
X145311777Y-65839346D01*
X145343017Y-65864983D01*
X145368654Y-65896223D01*
X145387704Y-65931862D01*
X145399435Y-65970532D01*
X145404000Y-66016888D01*
X145404000Y-66668112D01*
X145399435Y-66714468D01*
X145387704Y-66753138D01*
X145368654Y-66788777D01*
X145343017Y-66820017D01*
X145311777Y-66845654D01*
X145276138Y-66864704D01*
X145237468Y-66876435D01*
X145191112Y-66881000D01*
X144114888Y-66881000D01*
X144068532Y-66876435D01*
X144029862Y-66864704D01*
X143994223Y-66845654D01*
X143962983Y-66820017D01*
X143937346Y-66788777D01*
X143918296Y-66753138D01*
X143906565Y-66714468D01*
X143902000Y-66668112D01*
X143902000Y-66016888D01*
X143906565Y-65970532D01*
X143918296Y-65931862D01*
X143937346Y-65896223D01*
X143962983Y-65864983D01*
X143994223Y-65839346D01*
X144029862Y-65820296D01*
X144068532Y-65808565D01*
X144114888Y-65804000D01*
X145191112Y-65804000D01*
X145237468Y-65808565D01*
G37*
G36*
X158064468Y-65808565D02*
G01*
X158103138Y-65820296D01*
X158138777Y-65839346D01*
X158170017Y-65864983D01*
X158195654Y-65896223D01*
X158214704Y-65931862D01*
X158226435Y-65970532D01*
X158231000Y-66016888D01*
X158231000Y-66668112D01*
X158226435Y-66714468D01*
X158214704Y-66753138D01*
X158195654Y-66788777D01*
X158170017Y-66820017D01*
X158138777Y-66845654D01*
X158103138Y-66864704D01*
X158064468Y-66876435D01*
X158018112Y-66881000D01*
X156941888Y-66881000D01*
X156895532Y-66876435D01*
X156856862Y-66864704D01*
X156821223Y-66845654D01*
X156789983Y-66820017D01*
X156764346Y-66788777D01*
X156745296Y-66753138D01*
X156733565Y-66714468D01*
X156729000Y-66668112D01*
X156729000Y-66016888D01*
X156733565Y-65970532D01*
X156745296Y-65931862D01*
X156764346Y-65896223D01*
X156789983Y-65864983D01*
X156821223Y-65839346D01*
X156856862Y-65820296D01*
X156895532Y-65808565D01*
X156941888Y-65804000D01*
X158018112Y-65804000D01*
X158064468Y-65808565D01*
G37*
G36*
X123799295Y-64205323D02*
G01*
X123806310Y-64207451D01*
X123812776Y-64210908D01*
X123818442Y-64215558D01*
X123823092Y-64221224D01*
X123826549Y-64227690D01*
X123828677Y-64234705D01*
X123830000Y-64248140D01*
X123830000Y-64561860D01*
X123828677Y-64575295D01*
X123826549Y-64582309D01*
X123819190Y-64596077D01*
X123809813Y-64618716D01*
X123805033Y-64642749D01*
X123805033Y-64667253D01*
X123809814Y-64691286D01*
X123819190Y-64713923D01*
X123826549Y-64727691D01*
X123828677Y-64734705D01*
X123830000Y-64748140D01*
X123830000Y-65061860D01*
X123828677Y-65075295D01*
X123826549Y-65082309D01*
X123819190Y-65096077D01*
X123809813Y-65118716D01*
X123805033Y-65142749D01*
X123805033Y-65167253D01*
X123809814Y-65191286D01*
X123819190Y-65213923D01*
X123826549Y-65227691D01*
X123828677Y-65234705D01*
X123830000Y-65248140D01*
X123830000Y-65561860D01*
X123828677Y-65575295D01*
X123826549Y-65582309D01*
X123819190Y-65596077D01*
X123809813Y-65618716D01*
X123805033Y-65642749D01*
X123805033Y-65667253D01*
X123809814Y-65691286D01*
X123819190Y-65713923D01*
X123826549Y-65727691D01*
X123828677Y-65734705D01*
X123830000Y-65748140D01*
X123830000Y-66061860D01*
X123828677Y-66075295D01*
X123826549Y-66082309D01*
X123819190Y-66096077D01*
X123809813Y-66118716D01*
X123805033Y-66142749D01*
X123805033Y-66167253D01*
X123809814Y-66191286D01*
X123819190Y-66213923D01*
X123826549Y-66227691D01*
X123828677Y-66234705D01*
X123830000Y-66248140D01*
X123830000Y-66561860D01*
X123828677Y-66575295D01*
X123826549Y-66582310D01*
X123823092Y-66588776D01*
X123818442Y-66594442D01*
X123812776Y-66599092D01*
X123806310Y-66602549D01*
X123799295Y-66604677D01*
X123785860Y-66606000D01*
X122322140Y-66606000D01*
X122308705Y-66604677D01*
X122301690Y-66602549D01*
X122295224Y-66599092D01*
X122289558Y-66594442D01*
X122284908Y-66588776D01*
X122281451Y-66582310D01*
X122279323Y-66575295D01*
X122278000Y-66561860D01*
X122278000Y-66248140D01*
X122279323Y-66234705D01*
X122281451Y-66227691D01*
X122288810Y-66213923D01*
X122298187Y-66191284D01*
X122302967Y-66167251D01*
X122302967Y-66142747D01*
X122298186Y-66118714D01*
X122288810Y-66096077D01*
X122281451Y-66082309D01*
X122279323Y-66075295D01*
X122278000Y-66061860D01*
X122278000Y-65748140D01*
X122279323Y-65734705D01*
X122281451Y-65727691D01*
X122288810Y-65713923D01*
X122298187Y-65691284D01*
X122302967Y-65667251D01*
X122302967Y-65642747D01*
X122298186Y-65618714D01*
X122288810Y-65596077D01*
X122281451Y-65582309D01*
X122279323Y-65575295D01*
X122278000Y-65561860D01*
X122278000Y-65248140D01*
X122279323Y-65234705D01*
X122281451Y-65227691D01*
X122288810Y-65213923D01*
X122298187Y-65191284D01*
X122302967Y-65167251D01*
X122302967Y-65142747D01*
X122298186Y-65118714D01*
X122288810Y-65096077D01*
X122281451Y-65082309D01*
X122279323Y-65075295D01*
X122278000Y-65061860D01*
X122278000Y-64748140D01*
X122279323Y-64734705D01*
X122281451Y-64727691D01*
X122288810Y-64713923D01*
X122298187Y-64691284D01*
X122302967Y-64667251D01*
X122302967Y-64642747D01*
X122298186Y-64618714D01*
X122288810Y-64596077D01*
X122281451Y-64582309D01*
X122279323Y-64575295D01*
X122278000Y-64561860D01*
X122278000Y-64248140D01*
X122279323Y-64234705D01*
X122281451Y-64227690D01*
X122284908Y-64221224D01*
X122289558Y-64215558D01*
X122295224Y-64210908D01*
X122301690Y-64207451D01*
X122308705Y-64205323D01*
X122322140Y-64204000D01*
X123785860Y-64204000D01*
X123799295Y-64205323D01*
G37*
G36*
X119499295Y-64205323D02*
G01*
X119506310Y-64207451D01*
X119512776Y-64210908D01*
X119518442Y-64215558D01*
X119523092Y-64221224D01*
X119526549Y-64227690D01*
X119528677Y-64234705D01*
X119530000Y-64248140D01*
X119530000Y-64561860D01*
X119528677Y-64575295D01*
X119526549Y-64582309D01*
X119519190Y-64596077D01*
X119509813Y-64618716D01*
X119505033Y-64642749D01*
X119505033Y-64667253D01*
X119509814Y-64691286D01*
X119519190Y-64713923D01*
X119526549Y-64727691D01*
X119528677Y-64734705D01*
X119530000Y-64748140D01*
X119530000Y-65061860D01*
X119528677Y-65075295D01*
X119526549Y-65082309D01*
X119519190Y-65096077D01*
X119509813Y-65118716D01*
X119505033Y-65142749D01*
X119505033Y-65167253D01*
X119509814Y-65191286D01*
X119519190Y-65213923D01*
X119526549Y-65227691D01*
X119528677Y-65234705D01*
X119530000Y-65248140D01*
X119530000Y-65561860D01*
X119528677Y-65575295D01*
X119526549Y-65582309D01*
X119519190Y-65596077D01*
X119509813Y-65618716D01*
X119505033Y-65642749D01*
X119505033Y-65667253D01*
X119509814Y-65691286D01*
X119519190Y-65713923D01*
X119526549Y-65727691D01*
X119528677Y-65734705D01*
X119530000Y-65748140D01*
X119530000Y-66061860D01*
X119528677Y-66075295D01*
X119526549Y-66082309D01*
X119519190Y-66096077D01*
X119509813Y-66118716D01*
X119505033Y-66142749D01*
X119505033Y-66167253D01*
X119509814Y-66191286D01*
X119519190Y-66213923D01*
X119526549Y-66227691D01*
X119528677Y-66234705D01*
X119530000Y-66248140D01*
X119530000Y-66561860D01*
X119528677Y-66575295D01*
X119526549Y-66582310D01*
X119523092Y-66588776D01*
X119518442Y-66594442D01*
X119512776Y-66599092D01*
X119506310Y-66602549D01*
X119499295Y-66604677D01*
X119485860Y-66606000D01*
X118022140Y-66606000D01*
X118008705Y-66604677D01*
X118001690Y-66602549D01*
X117995224Y-66599092D01*
X117989558Y-66594442D01*
X117984908Y-66588776D01*
X117981451Y-66582310D01*
X117979323Y-66575295D01*
X117978000Y-66561860D01*
X117978000Y-66248140D01*
X117979323Y-66234705D01*
X117981451Y-66227691D01*
X117988810Y-66213923D01*
X117998187Y-66191284D01*
X118002967Y-66167251D01*
X118002967Y-66142747D01*
X117998186Y-66118714D01*
X117988810Y-66096077D01*
X117981451Y-66082309D01*
X117979323Y-66075295D01*
X117978000Y-66061860D01*
X117978000Y-65748140D01*
X117979323Y-65734705D01*
X117981451Y-65727691D01*
X117988810Y-65713923D01*
X117998187Y-65691284D01*
X118002967Y-65667251D01*
X118002967Y-65642747D01*
X117998186Y-65618714D01*
X117988810Y-65596077D01*
X117981451Y-65582309D01*
X117979323Y-65575295D01*
X117978000Y-65561860D01*
X117978000Y-65248140D01*
X117979323Y-65234705D01*
X117981451Y-65227691D01*
X117988810Y-65213923D01*
X117998187Y-65191284D01*
X118002967Y-65167251D01*
X118002967Y-65142747D01*
X117998186Y-65118714D01*
X117988810Y-65096077D01*
X117981451Y-65082309D01*
X117979323Y-65075295D01*
X117978000Y-65061860D01*
X117978000Y-64748140D01*
X117979323Y-64734705D01*
X117981451Y-64727691D01*
X117988810Y-64713923D01*
X117998187Y-64691284D01*
X118002967Y-64667251D01*
X118002967Y-64642747D01*
X117998186Y-64618714D01*
X117988810Y-64596077D01*
X117981451Y-64582309D01*
X117979323Y-64575295D01*
X117978000Y-64561860D01*
X117978000Y-64248140D01*
X117979323Y-64234705D01*
X117981451Y-64227690D01*
X117984908Y-64221224D01*
X117989558Y-64215558D01*
X117995224Y-64210908D01*
X118001690Y-64207451D01*
X118008705Y-64205323D01*
X118022140Y-64204000D01*
X119485860Y-64204000D01*
X119499295Y-64205323D01*
G37*
G36*
X121652104Y-64418001D02*
G01*
X121685271Y-64428062D01*
X121715829Y-64444396D01*
X121742619Y-64466381D01*
X121764604Y-64493171D01*
X121780938Y-64523729D01*
X121790999Y-64556896D01*
X121795000Y-64597522D01*
X121795000Y-66212478D01*
X121790999Y-66253104D01*
X121780938Y-66286271D01*
X121764604Y-66316829D01*
X121742619Y-66343619D01*
X121715829Y-66365604D01*
X121685271Y-66381938D01*
X121652104Y-66391999D01*
X121611478Y-66396000D01*
X120196522Y-66396000D01*
X120155896Y-66391999D01*
X120122729Y-66381938D01*
X120092171Y-66365604D01*
X120065381Y-66343619D01*
X120043396Y-66316829D01*
X120027062Y-66286271D01*
X120017001Y-66253104D01*
X120013000Y-66212478D01*
X120013000Y-64597522D01*
X120017001Y-64556896D01*
X120027062Y-64523729D01*
X120043396Y-64493171D01*
X120065381Y-64466381D01*
X120092171Y-64444396D01*
X120122729Y-64428062D01*
X120155896Y-64418001D01*
X120196522Y-64414000D01*
X121611478Y-64414000D01*
X121652104Y-64418001D01*
G37*
G36*
X160700928Y-65437764D02*
G01*
X160722009Y-65444160D01*
X160741445Y-65454548D01*
X160758476Y-65468524D01*
X160772452Y-65485555D01*
X160782840Y-65504991D01*
X160789236Y-65526072D01*
X160792000Y-65554140D01*
X160792000Y-66017860D01*
X160789236Y-66045928D01*
X160782840Y-66067009D01*
X160772452Y-66086445D01*
X160758476Y-66103476D01*
X160741445Y-66117452D01*
X160722009Y-66127840D01*
X160700928Y-66134236D01*
X160672860Y-66137000D01*
X158859140Y-66137000D01*
X158831072Y-66134236D01*
X158809991Y-66127840D01*
X158790555Y-66117452D01*
X158773524Y-66103476D01*
X158759548Y-66086445D01*
X158749160Y-66067009D01*
X158742764Y-66045928D01*
X158740000Y-66017860D01*
X158740000Y-65554140D01*
X158742764Y-65526072D01*
X158749160Y-65504991D01*
X158759548Y-65485555D01*
X158773524Y-65468524D01*
X158790555Y-65454548D01*
X158809991Y-65444160D01*
X158831072Y-65437764D01*
X158859140Y-65435000D01*
X160672860Y-65435000D01*
X160700928Y-65437764D01*
G37*
G36*
X135046928Y-65437764D02*
G01*
X135068009Y-65444160D01*
X135087445Y-65454548D01*
X135104476Y-65468524D01*
X135118452Y-65485555D01*
X135128840Y-65504991D01*
X135135236Y-65526072D01*
X135138000Y-65554140D01*
X135138000Y-66017860D01*
X135135236Y-66045928D01*
X135128840Y-66067009D01*
X135118452Y-66086445D01*
X135104476Y-66103476D01*
X135087445Y-66117452D01*
X135068009Y-66127840D01*
X135046928Y-66134236D01*
X135018860Y-66137000D01*
X133205140Y-66137000D01*
X133177072Y-66134236D01*
X133155991Y-66127840D01*
X133136555Y-66117452D01*
X133119524Y-66103476D01*
X133105548Y-66086445D01*
X133095160Y-66067009D01*
X133088764Y-66045928D01*
X133086000Y-66017860D01*
X133086000Y-65554140D01*
X133088764Y-65526072D01*
X133095160Y-65504991D01*
X133105548Y-65485555D01*
X133119524Y-65468524D01*
X133136555Y-65454548D01*
X133155991Y-65444160D01*
X133177072Y-65437764D01*
X133205140Y-65435000D01*
X135018860Y-65435000D01*
X135046928Y-65437764D01*
G37*
G36*
X139996928Y-65437764D02*
G01*
X140018009Y-65444160D01*
X140037445Y-65454548D01*
X140054476Y-65468524D01*
X140068452Y-65485555D01*
X140078840Y-65504991D01*
X140085236Y-65526072D01*
X140088000Y-65554140D01*
X140088000Y-66017860D01*
X140085236Y-66045928D01*
X140078840Y-66067009D01*
X140068452Y-66086445D01*
X140054476Y-66103476D01*
X140037445Y-66117452D01*
X140018009Y-66127840D01*
X139996928Y-66134236D01*
X139968860Y-66137000D01*
X138155140Y-66137000D01*
X138127072Y-66134236D01*
X138105991Y-66127840D01*
X138086555Y-66117452D01*
X138069524Y-66103476D01*
X138055548Y-66086445D01*
X138045160Y-66067009D01*
X138038764Y-66045928D01*
X138036000Y-66017860D01*
X138036000Y-65554140D01*
X138038764Y-65526072D01*
X138045160Y-65504991D01*
X138055548Y-65485555D01*
X138069524Y-65468524D01*
X138086555Y-65454548D01*
X138105991Y-65444160D01*
X138127072Y-65437764D01*
X138155140Y-65435000D01*
X139968860Y-65435000D01*
X139996928Y-65437764D01*
G37*
G36*
X165650928Y-65437764D02*
G01*
X165672009Y-65444160D01*
X165691445Y-65454548D01*
X165708476Y-65468524D01*
X165722452Y-65485555D01*
X165732840Y-65504991D01*
X165739236Y-65526072D01*
X165742000Y-65554140D01*
X165742000Y-66017860D01*
X165739236Y-66045928D01*
X165732840Y-66067009D01*
X165722452Y-66086445D01*
X165708476Y-66103476D01*
X165691445Y-66117452D01*
X165672009Y-66127840D01*
X165650928Y-66134236D01*
X165622860Y-66137000D01*
X163809140Y-66137000D01*
X163781072Y-66134236D01*
X163759991Y-66127840D01*
X163740555Y-66117452D01*
X163723524Y-66103476D01*
X163709548Y-66086445D01*
X163699160Y-66067009D01*
X163692764Y-66045928D01*
X163690000Y-66017860D01*
X163690000Y-65554140D01*
X163692764Y-65526072D01*
X163699160Y-65504991D01*
X163709548Y-65485555D01*
X163723524Y-65468524D01*
X163740555Y-65454548D01*
X163759991Y-65444160D01*
X163781072Y-65437764D01*
X163809140Y-65435000D01*
X165622860Y-65435000D01*
X165650928Y-65437764D01*
G37*
G36*
X173527928Y-65437764D02*
G01*
X173549009Y-65444160D01*
X173568445Y-65454548D01*
X173585476Y-65468524D01*
X173599452Y-65485555D01*
X173609840Y-65504991D01*
X173616236Y-65526072D01*
X173619000Y-65554140D01*
X173619000Y-66017860D01*
X173616236Y-66045928D01*
X173609840Y-66067009D01*
X173599452Y-66086445D01*
X173585476Y-66103476D01*
X173568445Y-66117452D01*
X173549009Y-66127840D01*
X173527928Y-66134236D01*
X173499860Y-66137000D01*
X171686140Y-66137000D01*
X171658072Y-66134236D01*
X171636991Y-66127840D01*
X171617555Y-66117452D01*
X171600524Y-66103476D01*
X171586548Y-66086445D01*
X171576160Y-66067009D01*
X171569764Y-66045928D01*
X171567000Y-66017860D01*
X171567000Y-65554140D01*
X171569764Y-65526072D01*
X171576160Y-65504991D01*
X171586548Y-65485555D01*
X171600524Y-65468524D01*
X171617555Y-65454548D01*
X171636991Y-65444160D01*
X171658072Y-65437764D01*
X171686140Y-65435000D01*
X173499860Y-65435000D01*
X173527928Y-65437764D01*
G37*
G36*
X178477928Y-65437764D02*
G01*
X178499009Y-65444160D01*
X178518445Y-65454548D01*
X178535476Y-65468524D01*
X178549452Y-65485555D01*
X178559840Y-65504991D01*
X178566236Y-65526072D01*
X178569000Y-65554140D01*
X178569000Y-66017860D01*
X178566236Y-66045928D01*
X178559840Y-66067009D01*
X178549452Y-66086445D01*
X178535476Y-66103476D01*
X178518445Y-66117452D01*
X178499009Y-66127840D01*
X178477928Y-66134236D01*
X178449860Y-66137000D01*
X176636140Y-66137000D01*
X176608072Y-66134236D01*
X176586991Y-66127840D01*
X176567555Y-66117452D01*
X176550524Y-66103476D01*
X176536548Y-66086445D01*
X176526160Y-66067009D01*
X176519764Y-66045928D01*
X176517000Y-66017860D01*
X176517000Y-65554140D01*
X176519764Y-65526072D01*
X176526160Y-65504991D01*
X176536548Y-65485555D01*
X176550524Y-65468524D01*
X176567555Y-65454548D01*
X176586991Y-65444160D01*
X176608072Y-65437764D01*
X176636140Y-65435000D01*
X178449860Y-65435000D01*
X178477928Y-65437764D01*
G37*
G36*
X147873928Y-65310764D02*
G01*
X147895009Y-65317160D01*
X147914445Y-65327548D01*
X147931476Y-65341524D01*
X147945452Y-65358555D01*
X147955840Y-65377991D01*
X147962236Y-65399072D01*
X147965000Y-65427140D01*
X147965000Y-65890860D01*
X147962236Y-65918928D01*
X147955840Y-65940009D01*
X147945452Y-65959445D01*
X147931476Y-65976476D01*
X147914445Y-65990452D01*
X147895009Y-66000840D01*
X147873928Y-66007236D01*
X147845860Y-66010000D01*
X146032140Y-66010000D01*
X146004072Y-66007236D01*
X145982991Y-66000840D01*
X145963555Y-65990452D01*
X145946524Y-65976476D01*
X145932548Y-65959445D01*
X145922160Y-65940009D01*
X145915764Y-65918928D01*
X145913000Y-65890860D01*
X145913000Y-65427140D01*
X145915764Y-65399072D01*
X145922160Y-65377991D01*
X145932548Y-65358555D01*
X145946524Y-65341524D01*
X145963555Y-65327548D01*
X145982991Y-65317160D01*
X146004072Y-65310764D01*
X146032140Y-65308000D01*
X147845860Y-65308000D01*
X147873928Y-65310764D01*
G37*
G36*
X152823928Y-65310764D02*
G01*
X152845009Y-65317160D01*
X152864445Y-65327548D01*
X152881476Y-65341524D01*
X152895452Y-65358555D01*
X152905840Y-65377991D01*
X152912236Y-65399072D01*
X152915000Y-65427140D01*
X152915000Y-65890860D01*
X152912236Y-65918928D01*
X152905840Y-65940009D01*
X152895452Y-65959445D01*
X152881476Y-65976476D01*
X152864445Y-65990452D01*
X152845009Y-66000840D01*
X152823928Y-66007236D01*
X152795860Y-66010000D01*
X150982140Y-66010000D01*
X150954072Y-66007236D01*
X150932991Y-66000840D01*
X150913555Y-65990452D01*
X150896524Y-65976476D01*
X150882548Y-65959445D01*
X150872160Y-65940009D01*
X150865764Y-65918928D01*
X150863000Y-65890860D01*
X150863000Y-65427140D01*
X150865764Y-65399072D01*
X150872160Y-65377991D01*
X150882548Y-65358555D01*
X150896524Y-65341524D01*
X150913555Y-65327548D01*
X150932991Y-65317160D01*
X150954072Y-65310764D01*
X150982140Y-65308000D01*
X152795860Y-65308000D01*
X152823928Y-65310764D01*
G37*
G36*
X115385468Y-63642565D02*
G01*
X115424138Y-63654296D01*
X115459777Y-63673346D01*
X115491017Y-63698983D01*
X115516654Y-63730223D01*
X115535704Y-63765862D01*
X115547435Y-63804532D01*
X115552000Y-63850888D01*
X115552000Y-64927112D01*
X115547435Y-64973468D01*
X115535704Y-65012138D01*
X115516654Y-65047777D01*
X115491017Y-65079017D01*
X115459777Y-65104654D01*
X115424138Y-65123704D01*
X115385468Y-65135435D01*
X115339112Y-65140000D01*
X114687888Y-65140000D01*
X114641532Y-65135435D01*
X114602862Y-65123704D01*
X114567223Y-65104654D01*
X114535983Y-65079017D01*
X114510346Y-65047777D01*
X114491296Y-65012138D01*
X114479565Y-64973468D01*
X114475000Y-64927112D01*
X114475000Y-63850888D01*
X114479565Y-63804532D01*
X114491296Y-63765862D01*
X114510346Y-63730223D01*
X114535983Y-63698983D01*
X114567223Y-63673346D01*
X114602862Y-63654296D01*
X114641532Y-63642565D01*
X114687888Y-63638000D01*
X115339112Y-63638000D01*
X115385468Y-63642565D01*
G37*
G36*
X117260468Y-63642565D02*
G01*
X117299138Y-63654296D01*
X117334777Y-63673346D01*
X117366017Y-63698983D01*
X117391654Y-63730223D01*
X117410704Y-63765862D01*
X117422435Y-63804532D01*
X117427000Y-63850888D01*
X117427000Y-64927112D01*
X117422435Y-64973468D01*
X117410704Y-65012138D01*
X117391654Y-65047777D01*
X117366017Y-65079017D01*
X117334777Y-65104654D01*
X117299138Y-65123704D01*
X117260468Y-65135435D01*
X117214112Y-65140000D01*
X116562888Y-65140000D01*
X116516532Y-65135435D01*
X116477862Y-65123704D01*
X116442223Y-65104654D01*
X116410983Y-65079017D01*
X116385346Y-65047777D01*
X116366296Y-65012138D01*
X116354565Y-64973468D01*
X116350000Y-64927112D01*
X116350000Y-63850888D01*
X116354565Y-63804532D01*
X116366296Y-63765862D01*
X116385346Y-63730223D01*
X116410983Y-63698983D01*
X116442223Y-63673346D01*
X116477862Y-63654296D01*
X116516532Y-63642565D01*
X116562888Y-63638000D01*
X117214112Y-63638000D01*
X117260468Y-63642565D01*
G37*
G36*
X170891468Y-63982065D02*
G01*
X170930138Y-63993796D01*
X170965777Y-64012846D01*
X170997017Y-64038483D01*
X171022654Y-64069723D01*
X171041704Y-64105362D01*
X171053435Y-64144032D01*
X171058000Y-64190388D01*
X171058000Y-64841612D01*
X171053435Y-64887968D01*
X171041704Y-64926638D01*
X171022654Y-64962277D01*
X170997017Y-64993517D01*
X170965777Y-65019154D01*
X170930138Y-65038204D01*
X170891468Y-65049935D01*
X170845112Y-65054500D01*
X169768888Y-65054500D01*
X169722532Y-65049935D01*
X169683862Y-65038204D01*
X169648223Y-65019154D01*
X169616983Y-64993517D01*
X169591346Y-64962277D01*
X169572296Y-64926638D01*
X169560565Y-64887968D01*
X169556000Y-64841612D01*
X169556000Y-64190388D01*
X169560565Y-64144032D01*
X169572296Y-64105362D01*
X169591346Y-64069723D01*
X169616983Y-64038483D01*
X169648223Y-64012846D01*
X169683862Y-63993796D01*
X169722532Y-63982065D01*
X169768888Y-63977500D01*
X170845112Y-63977500D01*
X170891468Y-63982065D01*
G37*
G36*
X132410468Y-63933565D02*
G01*
X132449138Y-63945296D01*
X132484777Y-63964346D01*
X132516017Y-63989983D01*
X132541654Y-64021223D01*
X132560704Y-64056862D01*
X132572435Y-64095532D01*
X132577000Y-64141888D01*
X132577000Y-64793112D01*
X132572435Y-64839468D01*
X132560704Y-64878138D01*
X132541654Y-64913777D01*
X132516017Y-64945017D01*
X132484777Y-64970654D01*
X132449138Y-64989704D01*
X132410468Y-65001435D01*
X132364112Y-65006000D01*
X131287888Y-65006000D01*
X131241532Y-65001435D01*
X131202862Y-64989704D01*
X131167223Y-64970654D01*
X131135983Y-64945017D01*
X131110346Y-64913777D01*
X131091296Y-64878138D01*
X131079565Y-64839468D01*
X131075000Y-64793112D01*
X131075000Y-64141888D01*
X131079565Y-64095532D01*
X131091296Y-64056862D01*
X131110346Y-64021223D01*
X131135983Y-63989983D01*
X131167223Y-63964346D01*
X131202862Y-63945296D01*
X131241532Y-63933565D01*
X131287888Y-63929000D01*
X132364112Y-63929000D01*
X132410468Y-63933565D01*
G37*
G36*
X145237468Y-63933565D02*
G01*
X145276138Y-63945296D01*
X145311777Y-63964346D01*
X145343017Y-63989983D01*
X145368654Y-64021223D01*
X145387704Y-64056862D01*
X145399435Y-64095532D01*
X145404000Y-64141888D01*
X145404000Y-64793112D01*
X145399435Y-64839468D01*
X145387704Y-64878138D01*
X145368654Y-64913777D01*
X145343017Y-64945017D01*
X145311777Y-64970654D01*
X145276138Y-64989704D01*
X145237468Y-65001435D01*
X145191112Y-65006000D01*
X144114888Y-65006000D01*
X144068532Y-65001435D01*
X144029862Y-64989704D01*
X143994223Y-64970654D01*
X143962983Y-64945017D01*
X143937346Y-64913777D01*
X143918296Y-64878138D01*
X143906565Y-64839468D01*
X143902000Y-64793112D01*
X143902000Y-64141888D01*
X143906565Y-64095532D01*
X143918296Y-64056862D01*
X143937346Y-64021223D01*
X143962983Y-63989983D01*
X143994223Y-63964346D01*
X144029862Y-63945296D01*
X144068532Y-63933565D01*
X144114888Y-63929000D01*
X145191112Y-63929000D01*
X145237468Y-63933565D01*
G37*
G36*
X158064468Y-63933565D02*
G01*
X158103138Y-63945296D01*
X158138777Y-63964346D01*
X158170017Y-63989983D01*
X158195654Y-64021223D01*
X158214704Y-64056862D01*
X158226435Y-64095532D01*
X158231000Y-64141888D01*
X158231000Y-64793112D01*
X158226435Y-64839468D01*
X158214704Y-64878138D01*
X158195654Y-64913777D01*
X158170017Y-64945017D01*
X158138777Y-64970654D01*
X158103138Y-64989704D01*
X158064468Y-65001435D01*
X158018112Y-65006000D01*
X156941888Y-65006000D01*
X156895532Y-65001435D01*
X156856862Y-64989704D01*
X156821223Y-64970654D01*
X156789983Y-64945017D01*
X156764346Y-64913777D01*
X156745296Y-64878138D01*
X156733565Y-64839468D01*
X156729000Y-64793112D01*
X156729000Y-64141888D01*
X156733565Y-64095532D01*
X156745296Y-64056862D01*
X156764346Y-64021223D01*
X156789983Y-63989983D01*
X156821223Y-63964346D01*
X156856862Y-63945296D01*
X156895532Y-63933565D01*
X156941888Y-63929000D01*
X158018112Y-63929000D01*
X158064468Y-63933565D01*
G37*
G36*
X160700928Y-64167764D02*
G01*
X160722009Y-64174160D01*
X160741445Y-64184548D01*
X160758476Y-64198524D01*
X160772452Y-64215555D01*
X160782840Y-64234991D01*
X160789236Y-64256072D01*
X160792000Y-64284140D01*
X160792000Y-64747860D01*
X160789236Y-64775928D01*
X160782840Y-64797009D01*
X160772452Y-64816445D01*
X160758476Y-64833476D01*
X160741445Y-64847452D01*
X160722009Y-64857840D01*
X160700928Y-64864236D01*
X160672860Y-64867000D01*
X158859140Y-64867000D01*
X158831072Y-64864236D01*
X158809991Y-64857840D01*
X158790555Y-64847452D01*
X158773524Y-64833476D01*
X158759548Y-64816445D01*
X158749160Y-64797009D01*
X158742764Y-64775928D01*
X158740000Y-64747860D01*
X158740000Y-64284140D01*
X158742764Y-64256072D01*
X158749160Y-64234991D01*
X158759548Y-64215555D01*
X158773524Y-64198524D01*
X158790555Y-64184548D01*
X158809991Y-64174160D01*
X158831072Y-64167764D01*
X158859140Y-64165000D01*
X160672860Y-64165000D01*
X160700928Y-64167764D01*
G37*
G36*
X173527928Y-64167764D02*
G01*
X173549009Y-64174160D01*
X173568445Y-64184548D01*
X173585476Y-64198524D01*
X173599452Y-64215555D01*
X173609840Y-64234991D01*
X173616236Y-64256072D01*
X173619000Y-64284140D01*
X173619000Y-64747860D01*
X173616236Y-64775928D01*
X173609840Y-64797009D01*
X173599452Y-64816445D01*
X173585476Y-64833476D01*
X173568445Y-64847452D01*
X173549009Y-64857840D01*
X173527928Y-64864236D01*
X173499860Y-64867000D01*
X171686140Y-64867000D01*
X171658072Y-64864236D01*
X171636991Y-64857840D01*
X171617555Y-64847452D01*
X171600524Y-64833476D01*
X171586548Y-64816445D01*
X171576160Y-64797009D01*
X171569764Y-64775928D01*
X171567000Y-64747860D01*
X171567000Y-64284140D01*
X171569764Y-64256072D01*
X171576160Y-64234991D01*
X171586548Y-64215555D01*
X171600524Y-64198524D01*
X171617555Y-64184548D01*
X171636991Y-64174160D01*
X171658072Y-64167764D01*
X171686140Y-64165000D01*
X173499860Y-64165000D01*
X173527928Y-64167764D01*
G37*
G36*
X139996928Y-64167764D02*
G01*
X140018009Y-64174160D01*
X140037445Y-64184548D01*
X140054476Y-64198524D01*
X140068452Y-64215555D01*
X140078840Y-64234991D01*
X140085236Y-64256072D01*
X140088000Y-64284140D01*
X140088000Y-64747860D01*
X140085236Y-64775928D01*
X140078840Y-64797009D01*
X140068452Y-64816445D01*
X140054476Y-64833476D01*
X140037445Y-64847452D01*
X140018009Y-64857840D01*
X139996928Y-64864236D01*
X139968860Y-64867000D01*
X138155140Y-64867000D01*
X138127072Y-64864236D01*
X138105991Y-64857840D01*
X138086555Y-64847452D01*
X138069524Y-64833476D01*
X138055548Y-64816445D01*
X138045160Y-64797009D01*
X138038764Y-64775928D01*
X138036000Y-64747860D01*
X138036000Y-64284140D01*
X138038764Y-64256072D01*
X138045160Y-64234991D01*
X138055548Y-64215555D01*
X138069524Y-64198524D01*
X138086555Y-64184548D01*
X138105991Y-64174160D01*
X138127072Y-64167764D01*
X138155140Y-64165000D01*
X139968860Y-64165000D01*
X139996928Y-64167764D01*
G37*
G36*
X178477928Y-64167764D02*
G01*
X178499009Y-64174160D01*
X178518445Y-64184548D01*
X178535476Y-64198524D01*
X178549452Y-64215555D01*
X178559840Y-64234991D01*
X178566236Y-64256072D01*
X178569000Y-64284140D01*
X178569000Y-64747860D01*
X178566236Y-64775928D01*
X178559840Y-64797009D01*
X178549452Y-64816445D01*
X178535476Y-64833476D01*
X178518445Y-64847452D01*
X178499009Y-64857840D01*
X178477928Y-64864236D01*
X178449860Y-64867000D01*
X176636140Y-64867000D01*
X176608072Y-64864236D01*
X176586991Y-64857840D01*
X176567555Y-64847452D01*
X176550524Y-64833476D01*
X176536548Y-64816445D01*
X176526160Y-64797009D01*
X176519764Y-64775928D01*
X176517000Y-64747860D01*
X176517000Y-64284140D01*
X176519764Y-64256072D01*
X176526160Y-64234991D01*
X176536548Y-64215555D01*
X176550524Y-64198524D01*
X176567555Y-64184548D01*
X176586991Y-64174160D01*
X176608072Y-64167764D01*
X176636140Y-64165000D01*
X178449860Y-64165000D01*
X178477928Y-64167764D01*
G37*
G36*
X135046928Y-64167764D02*
G01*
X135068009Y-64174160D01*
X135087445Y-64184548D01*
X135104476Y-64198524D01*
X135118452Y-64215555D01*
X135128840Y-64234991D01*
X135135236Y-64256072D01*
X135138000Y-64284140D01*
X135138000Y-64747860D01*
X135135236Y-64775928D01*
X135128840Y-64797009D01*
X135118452Y-64816445D01*
X135104476Y-64833476D01*
X135087445Y-64847452D01*
X135068009Y-64857840D01*
X135046928Y-64864236D01*
X135018860Y-64867000D01*
X133205140Y-64867000D01*
X133177072Y-64864236D01*
X133155991Y-64857840D01*
X133136555Y-64847452D01*
X133119524Y-64833476D01*
X133105548Y-64816445D01*
X133095160Y-64797009D01*
X133088764Y-64775928D01*
X133086000Y-64747860D01*
X133086000Y-64284140D01*
X133088764Y-64256072D01*
X133095160Y-64234991D01*
X133105548Y-64215555D01*
X133119524Y-64198524D01*
X133136555Y-64184548D01*
X133155991Y-64174160D01*
X133177072Y-64167764D01*
X133205140Y-64165000D01*
X135018860Y-64165000D01*
X135046928Y-64167764D01*
G37*
G36*
X165650928Y-64167764D02*
G01*
X165672009Y-64174160D01*
X165691445Y-64184548D01*
X165708476Y-64198524D01*
X165722452Y-64215555D01*
X165732840Y-64234991D01*
X165739236Y-64256072D01*
X165742000Y-64284140D01*
X165742000Y-64747860D01*
X165739236Y-64775928D01*
X165732840Y-64797009D01*
X165722452Y-64816445D01*
X165708476Y-64833476D01*
X165691445Y-64847452D01*
X165672009Y-64857840D01*
X165650928Y-64864236D01*
X165622860Y-64867000D01*
X163809140Y-64867000D01*
X163781072Y-64864236D01*
X163759991Y-64857840D01*
X163740555Y-64847452D01*
X163723524Y-64833476D01*
X163709548Y-64816445D01*
X163699160Y-64797009D01*
X163692764Y-64775928D01*
X163690000Y-64747860D01*
X163690000Y-64284140D01*
X163692764Y-64256072D01*
X163699160Y-64234991D01*
X163709548Y-64215555D01*
X163723524Y-64198524D01*
X163740555Y-64184548D01*
X163759991Y-64174160D01*
X163781072Y-64167764D01*
X163809140Y-64165000D01*
X165622860Y-64165000D01*
X165650928Y-64167764D01*
G37*
G36*
X152823928Y-64040764D02*
G01*
X152845009Y-64047160D01*
X152864445Y-64057548D01*
X152881476Y-64071524D01*
X152895452Y-64088555D01*
X152905840Y-64107991D01*
X152912236Y-64129072D01*
X152915000Y-64157140D01*
X152915000Y-64620860D01*
X152912236Y-64648928D01*
X152905840Y-64670009D01*
X152895452Y-64689445D01*
X152881476Y-64706476D01*
X152864445Y-64720452D01*
X152845009Y-64730840D01*
X152823928Y-64737236D01*
X152795860Y-64740000D01*
X150982140Y-64740000D01*
X150954072Y-64737236D01*
X150932991Y-64730840D01*
X150913555Y-64720452D01*
X150896524Y-64706476D01*
X150882548Y-64689445D01*
X150872160Y-64670009D01*
X150865764Y-64648928D01*
X150863000Y-64620860D01*
X150863000Y-64157140D01*
X150865764Y-64129072D01*
X150872160Y-64107991D01*
X150882548Y-64088555D01*
X150896524Y-64071524D01*
X150913555Y-64057548D01*
X150932991Y-64047160D01*
X150954072Y-64040764D01*
X150982140Y-64038000D01*
X152795860Y-64038000D01*
X152823928Y-64040764D01*
G37*
G36*
X147873928Y-64040764D02*
G01*
X147895009Y-64047160D01*
X147914445Y-64057548D01*
X147931476Y-64071524D01*
X147945452Y-64088555D01*
X147955840Y-64107991D01*
X147962236Y-64129072D01*
X147965000Y-64157140D01*
X147965000Y-64620860D01*
X147962236Y-64648928D01*
X147955840Y-64670009D01*
X147945452Y-64689445D01*
X147931476Y-64706476D01*
X147914445Y-64720452D01*
X147895009Y-64730840D01*
X147873928Y-64737236D01*
X147845860Y-64740000D01*
X146032140Y-64740000D01*
X146004072Y-64737236D01*
X145982991Y-64730840D01*
X145963555Y-64720452D01*
X145946524Y-64706476D01*
X145932548Y-64689445D01*
X145922160Y-64670009D01*
X145915764Y-64648928D01*
X145913000Y-64620860D01*
X145913000Y-64157140D01*
X145915764Y-64129072D01*
X145922160Y-64107991D01*
X145932548Y-64088555D01*
X145946524Y-64071524D01*
X145963555Y-64057548D01*
X145982991Y-64047160D01*
X146004072Y-64040764D01*
X146032140Y-64038000D01*
X147845860Y-64038000D01*
X147873928Y-64040764D01*
G37*
G36*
X137663000Y-63582500D02*
G01*
X130561000Y-63582500D01*
X130561000Y-59480500D01*
X137663000Y-59480500D01*
X137663000Y-63582500D01*
G37*
G36*
X150490000Y-63582500D02*
G01*
X143388000Y-63582500D01*
X143388000Y-59480500D01*
X150490000Y-59480500D01*
X150490000Y-63582500D01*
G37*
G36*
X163317000Y-63582500D02*
G01*
X156215000Y-63582500D01*
X156215000Y-59480500D01*
X163317000Y-59480500D01*
X163317000Y-63582500D01*
G37*
G36*
X176144000Y-63582500D02*
G01*
X169042000Y-63582500D01*
X169042000Y-59480500D01*
X176144000Y-59480500D01*
X176144000Y-63582500D01*
G37*
G36*
X118641000Y-62888000D02*
G01*
X115039000Y-62888000D01*
X115039000Y-59286000D01*
X118641000Y-59286000D01*
X118641000Y-62888000D01*
G37*
G36*
X189365331Y-59355211D02*
G01*
X189693092Y-59490974D01*
X189988070Y-59688072D01*
X190238928Y-59938930D01*
X190436026Y-60233908D01*
X190571789Y-60561669D01*
X190641000Y-60909616D01*
X190641000Y-61264384D01*
X190571789Y-61612331D01*
X190436026Y-61940092D01*
X190238928Y-62235070D01*
X189988070Y-62485928D01*
X189693092Y-62683026D01*
X189365331Y-62818789D01*
X189017384Y-62888000D01*
X188662616Y-62888000D01*
X188314669Y-62818789D01*
X187986908Y-62683026D01*
X187691930Y-62485928D01*
X187441072Y-62235070D01*
X187243974Y-61940092D01*
X187108211Y-61612331D01*
X187039000Y-61264384D01*
X187039000Y-60909616D01*
X187108211Y-60561669D01*
X187243974Y-60233908D01*
X187441072Y-59938930D01*
X187691930Y-59688072D01*
X187986908Y-59490974D01*
X188314669Y-59355211D01*
X188662616Y-59286000D01*
X189017384Y-59286000D01*
X189365331Y-59355211D01*
G37*
G36*
X125860256Y-59478298D02*
G01*
X125966579Y-59499447D01*
X126267042Y-59623903D01*
X126537451Y-59804585D01*
X126767415Y-60034549D01*
X126948097Y-60304958D01*
X126948098Y-60304960D01*
X127072553Y-60605422D01*
X127136000Y-60924389D01*
X127136000Y-61249611D01*
X127133061Y-61264384D01*
X127072553Y-61568579D01*
X126948097Y-61869042D01*
X126767415Y-62139451D01*
X126537451Y-62369415D01*
X126267042Y-62550097D01*
X125966579Y-62674553D01*
X125923987Y-62683025D01*
X125647611Y-62738000D01*
X125322389Y-62738000D01*
X125046013Y-62683025D01*
X125003421Y-62674553D01*
X124702958Y-62550097D01*
X124432549Y-62369415D01*
X124202585Y-62139451D01*
X124021903Y-61869042D01*
X123897447Y-61568579D01*
X123836939Y-61264384D01*
X123834000Y-61249611D01*
X123834000Y-60924389D01*
X123897447Y-60605422D01*
X124021902Y-60304960D01*
X124021903Y-60304958D01*
X124202585Y-60034549D01*
X124432549Y-59804585D01*
X124702958Y-59623903D01*
X125003421Y-59499447D01*
X125109744Y-59478298D01*
X125322389Y-59436000D01*
X125647611Y-59436000D01*
X125860256Y-59478298D01*
G37*
G36*
X181470256Y-59478298D02*
G01*
X181576579Y-59499447D01*
X181877042Y-59623903D01*
X182147451Y-59804585D01*
X182377415Y-60034549D01*
X182558097Y-60304958D01*
X182558098Y-60304960D01*
X182682553Y-60605422D01*
X182746000Y-60924389D01*
X182746000Y-61249611D01*
X182743061Y-61264384D01*
X182682553Y-61568579D01*
X182558097Y-61869042D01*
X182377415Y-62139451D01*
X182147451Y-62369415D01*
X181877042Y-62550097D01*
X181576579Y-62674553D01*
X181533987Y-62683025D01*
X181257611Y-62738000D01*
X180932389Y-62738000D01*
X180656013Y-62683025D01*
X180613421Y-62674553D01*
X180312958Y-62550097D01*
X180042549Y-62369415D01*
X179812585Y-62139451D01*
X179631903Y-61869042D01*
X179507447Y-61568579D01*
X179446939Y-61264384D01*
X179444000Y-61249611D01*
X179444000Y-60924389D01*
X179507447Y-60605422D01*
X179631902Y-60304960D01*
X179631903Y-60304958D01*
X179812585Y-60034549D01*
X180042549Y-59804585D01*
X180312958Y-59623903D01*
X180613421Y-59499447D01*
X180719744Y-59478298D01*
X180932389Y-59436000D01*
X181257611Y-59436000D01*
X181470256Y-59478298D01*
G37*
G36*
X109595256Y-59351298D02*
G01*
X109701579Y-59372447D01*
X110002042Y-59496903D01*
X110272451Y-59677585D01*
X110502415Y-59907549D01*
X110502416Y-59907551D01*
X110683098Y-60177960D01*
X110807553Y-60478422D01*
X110871000Y-60797389D01*
X110871000Y-61122611D01*
X110842799Y-61264384D01*
X110807553Y-61441579D01*
X110683097Y-61742042D01*
X110502415Y-62012451D01*
X110272451Y-62242415D01*
X110002042Y-62423097D01*
X109701579Y-62547553D01*
X109688789Y-62550097D01*
X109382611Y-62611000D01*
X109057389Y-62611000D01*
X108751211Y-62550097D01*
X108738421Y-62547553D01*
X108437958Y-62423097D01*
X108167549Y-62242415D01*
X107937585Y-62012451D01*
X107756903Y-61742042D01*
X107632447Y-61441579D01*
X107597201Y-61264384D01*
X107569000Y-61122611D01*
X107569000Y-60797389D01*
X107632447Y-60478422D01*
X107756902Y-60177960D01*
X107937584Y-59907551D01*
X107937585Y-59907549D01*
X108167549Y-59677585D01*
X108437958Y-59496903D01*
X108738421Y-59372447D01*
X108844744Y-59351298D01*
X109057389Y-59309000D01*
X109382611Y-59309000D01*
X109595256Y-59351298D01*
G37*
G36*
X195955256Y-59351298D02*
G01*
X196061579Y-59372447D01*
X196362042Y-59496903D01*
X196632451Y-59677585D01*
X196862415Y-59907549D01*
X196862416Y-59907551D01*
X197043098Y-60177960D01*
X197167553Y-60478422D01*
X197231000Y-60797389D01*
X197231000Y-61122611D01*
X197202799Y-61264384D01*
X197167553Y-61441579D01*
X197043097Y-61742042D01*
X196862415Y-62012451D01*
X196632451Y-62242415D01*
X196362042Y-62423097D01*
X196061579Y-62547553D01*
X196048789Y-62550097D01*
X195742611Y-62611000D01*
X195417389Y-62611000D01*
X195111211Y-62550097D01*
X195098421Y-62547553D01*
X194797958Y-62423097D01*
X194527549Y-62242415D01*
X194297585Y-62012451D01*
X194116903Y-61742042D01*
X193992447Y-61441579D01*
X193957201Y-61264384D01*
X193929000Y-61122611D01*
X193929000Y-60797389D01*
X193992447Y-60478422D01*
X194116902Y-60177960D01*
X194297584Y-59907551D01*
X194297585Y-59907549D01*
X194527549Y-59677585D01*
X194797958Y-59496903D01*
X195098421Y-59372447D01*
X195204744Y-59351298D01*
X195417389Y-59309000D01*
X195742611Y-59309000D01*
X195955256Y-59351298D01*
G37*
G36*
X186821000Y-58905000D02*
G01*
X185919000Y-58905000D01*
X185919000Y-57903000D01*
X186821000Y-57903000D01*
X186821000Y-58905000D01*
G37*
G36*
X184921000Y-58905000D02*
G01*
X184019000Y-58905000D01*
X184019000Y-57903000D01*
X184921000Y-57903000D01*
X184921000Y-58905000D01*
G37*
G36*
X188798468Y-57680565D02*
G01*
X188837138Y-57692296D01*
X188872777Y-57711346D01*
X188904017Y-57736983D01*
X188929654Y-57768223D01*
X188948704Y-57803862D01*
X188960435Y-57842532D01*
X188965000Y-57888888D01*
X188965000Y-58540112D01*
X188960435Y-58586468D01*
X188948704Y-58625138D01*
X188929654Y-58660777D01*
X188904017Y-58692017D01*
X188872777Y-58717654D01*
X188837138Y-58736704D01*
X188798468Y-58748435D01*
X188752112Y-58753000D01*
X187675888Y-58753000D01*
X187629532Y-58748435D01*
X187590862Y-58736704D01*
X187555223Y-58717654D01*
X187523983Y-58692017D01*
X187498346Y-58660777D01*
X187479296Y-58625138D01*
X187467565Y-58586468D01*
X187463000Y-58540112D01*
X187463000Y-57888888D01*
X187467565Y-57842532D01*
X187479296Y-57803862D01*
X187498346Y-57768223D01*
X187523983Y-57736983D01*
X187555223Y-57711346D01*
X187590862Y-57692296D01*
X187629532Y-57680565D01*
X187675888Y-57676000D01*
X188752112Y-57676000D01*
X188798468Y-57680565D01*
G37*
G36*
X190830468Y-57680565D02*
G01*
X190869138Y-57692296D01*
X190904777Y-57711346D01*
X190936017Y-57736983D01*
X190961654Y-57768223D01*
X190980704Y-57803862D01*
X190992435Y-57842532D01*
X190997000Y-57888888D01*
X190997000Y-58540112D01*
X190992435Y-58586468D01*
X190980704Y-58625138D01*
X190961654Y-58660777D01*
X190936017Y-58692017D01*
X190904777Y-58717654D01*
X190869138Y-58736704D01*
X190830468Y-58748435D01*
X190784112Y-58753000D01*
X189707888Y-58753000D01*
X189661532Y-58748435D01*
X189622862Y-58736704D01*
X189587223Y-58717654D01*
X189555983Y-58692017D01*
X189530346Y-58660777D01*
X189511296Y-58625138D01*
X189499565Y-58586468D01*
X189495000Y-58540112D01*
X189495000Y-57888888D01*
X189499565Y-57842532D01*
X189511296Y-57803862D01*
X189530346Y-57768223D01*
X189555983Y-57736983D01*
X189587223Y-57711346D01*
X189622862Y-57692296D01*
X189661532Y-57680565D01*
X189707888Y-57676000D01*
X190784112Y-57676000D01*
X190830468Y-57680565D01*
G37*
G36*
X121990000Y-58651000D02*
G01*
X121088000Y-58651000D01*
X121088000Y-57649000D01*
X121990000Y-57649000D01*
X121990000Y-58651000D01*
G37*
G36*
X117297468Y-57553565D02*
G01*
X117336138Y-57565296D01*
X117371777Y-57584346D01*
X117403017Y-57609983D01*
X117428654Y-57641223D01*
X117447704Y-57676862D01*
X117459435Y-57715532D01*
X117464000Y-57761888D01*
X117464000Y-58413112D01*
X117459435Y-58459468D01*
X117447704Y-58498138D01*
X117428654Y-58533777D01*
X117403017Y-58565017D01*
X117371777Y-58590654D01*
X117336138Y-58609704D01*
X117297468Y-58621435D01*
X117251112Y-58626000D01*
X116174888Y-58626000D01*
X116128532Y-58621435D01*
X116089862Y-58609704D01*
X116054223Y-58590654D01*
X116022983Y-58565017D01*
X115997346Y-58533777D01*
X115978296Y-58498138D01*
X115966565Y-58459468D01*
X115962000Y-58413112D01*
X115962000Y-57761888D01*
X115966565Y-57715532D01*
X115978296Y-57676862D01*
X115997346Y-57641223D01*
X116022983Y-57609983D01*
X116054223Y-57584346D01*
X116089862Y-57565296D01*
X116128532Y-57553565D01*
X116174888Y-57549000D01*
X117251112Y-57549000D01*
X117297468Y-57553565D01*
G37*
G36*
X119329468Y-57553565D02*
G01*
X119368138Y-57565296D01*
X119403777Y-57584346D01*
X119435017Y-57609983D01*
X119460654Y-57641223D01*
X119479704Y-57676862D01*
X119491435Y-57715532D01*
X119496000Y-57761888D01*
X119496000Y-58413112D01*
X119491435Y-58459468D01*
X119479704Y-58498138D01*
X119460654Y-58533777D01*
X119435017Y-58565017D01*
X119403777Y-58590654D01*
X119368138Y-58609704D01*
X119329468Y-58621435D01*
X119283112Y-58626000D01*
X118206888Y-58626000D01*
X118160532Y-58621435D01*
X118121862Y-58609704D01*
X118086223Y-58590654D01*
X118054983Y-58565017D01*
X118029346Y-58533777D01*
X118010296Y-58498138D01*
X117998565Y-58459468D01*
X117994000Y-58413112D01*
X117994000Y-57761888D01*
X117998565Y-57715532D01*
X118010296Y-57676862D01*
X118029346Y-57641223D01*
X118054983Y-57609983D01*
X118086223Y-57584346D01*
X118121862Y-57565296D01*
X118160532Y-57553565D01*
X118206888Y-57549000D01*
X119283112Y-57549000D01*
X119329468Y-57553565D01*
G37*
G36*
X185871000Y-56905000D02*
G01*
X184969000Y-56905000D01*
X184969000Y-55903000D01*
X185871000Y-55903000D01*
X185871000Y-56905000D01*
G37*
G36*
X188798468Y-55805565D02*
G01*
X188837138Y-55817296D01*
X188872777Y-55836346D01*
X188904017Y-55861983D01*
X188929654Y-55893223D01*
X188948704Y-55928862D01*
X188960435Y-55967532D01*
X188965000Y-56013888D01*
X188965000Y-56665112D01*
X188960435Y-56711468D01*
X188948704Y-56750138D01*
X188929654Y-56785777D01*
X188904017Y-56817017D01*
X188872777Y-56842654D01*
X188837138Y-56861704D01*
X188798468Y-56873435D01*
X188752112Y-56878000D01*
X187675888Y-56878000D01*
X187629532Y-56873435D01*
X187590862Y-56861704D01*
X187555223Y-56842654D01*
X187523983Y-56817017D01*
X187498346Y-56785777D01*
X187479296Y-56750138D01*
X187467565Y-56711468D01*
X187463000Y-56665112D01*
X187463000Y-56013888D01*
X187467565Y-55967532D01*
X187479296Y-55928862D01*
X187498346Y-55893223D01*
X187523983Y-55861983D01*
X187555223Y-55836346D01*
X187590862Y-55817296D01*
X187629532Y-55805565D01*
X187675888Y-55801000D01*
X188752112Y-55801000D01*
X188798468Y-55805565D01*
G37*
G36*
X190830468Y-55805565D02*
G01*
X190869138Y-55817296D01*
X190904777Y-55836346D01*
X190936017Y-55861983D01*
X190961654Y-55893223D01*
X190980704Y-55928862D01*
X190992435Y-55967532D01*
X190997000Y-56013888D01*
X190997000Y-56665112D01*
X190992435Y-56711468D01*
X190980704Y-56750138D01*
X190961654Y-56785777D01*
X190936017Y-56817017D01*
X190904777Y-56842654D01*
X190869138Y-56861704D01*
X190830468Y-56873435D01*
X190784112Y-56878000D01*
X189707888Y-56878000D01*
X189661532Y-56873435D01*
X189622862Y-56861704D01*
X189587223Y-56842654D01*
X189555983Y-56817017D01*
X189530346Y-56785777D01*
X189511296Y-56750138D01*
X189499565Y-56711468D01*
X189495000Y-56665112D01*
X189495000Y-56013888D01*
X189499565Y-55967532D01*
X189511296Y-55928862D01*
X189530346Y-55893223D01*
X189555983Y-55861983D01*
X189587223Y-55836346D01*
X189622862Y-55817296D01*
X189661532Y-55805565D01*
X189707888Y-55801000D01*
X190784112Y-55801000D01*
X190830468Y-55805565D01*
G37*
G36*
X117297468Y-55678565D02*
G01*
X117336138Y-55690296D01*
X117371777Y-55709346D01*
X117403017Y-55734983D01*
X117428654Y-55766223D01*
X117447704Y-55801862D01*
X117459435Y-55840532D01*
X117464000Y-55886888D01*
X117464000Y-56538112D01*
X117459435Y-56584468D01*
X117447704Y-56623138D01*
X117428654Y-56658777D01*
X117403017Y-56690017D01*
X117371777Y-56715654D01*
X117336138Y-56734704D01*
X117297468Y-56746435D01*
X117251112Y-56751000D01*
X116174888Y-56751000D01*
X116128532Y-56746435D01*
X116089862Y-56734704D01*
X116054223Y-56715654D01*
X116022983Y-56690017D01*
X115997346Y-56658777D01*
X115978296Y-56623138D01*
X115966565Y-56584468D01*
X115962000Y-56538112D01*
X115962000Y-55886888D01*
X115966565Y-55840532D01*
X115978296Y-55801862D01*
X115997346Y-55766223D01*
X116022983Y-55734983D01*
X116054223Y-55709346D01*
X116089862Y-55690296D01*
X116128532Y-55678565D01*
X116174888Y-55674000D01*
X117251112Y-55674000D01*
X117297468Y-55678565D01*
G37*
G36*
X119329468Y-55678565D02*
G01*
X119368138Y-55690296D01*
X119403777Y-55709346D01*
X119435017Y-55734983D01*
X119460654Y-55766223D01*
X119479704Y-55801862D01*
X119491435Y-55840532D01*
X119496000Y-55886888D01*
X119496000Y-56538112D01*
X119491435Y-56584468D01*
X119479704Y-56623138D01*
X119460654Y-56658777D01*
X119435017Y-56690017D01*
X119403777Y-56715654D01*
X119368138Y-56734704D01*
X119329468Y-56746435D01*
X119283112Y-56751000D01*
X118206888Y-56751000D01*
X118160532Y-56746435D01*
X118121862Y-56734704D01*
X118086223Y-56715654D01*
X118054983Y-56690017D01*
X118029346Y-56658777D01*
X118010296Y-56623138D01*
X117998565Y-56584468D01*
X117994000Y-56538112D01*
X117994000Y-55886888D01*
X117998565Y-55840532D01*
X118010296Y-55801862D01*
X118029346Y-55766223D01*
X118054983Y-55734983D01*
X118086223Y-55709346D01*
X118121862Y-55690296D01*
X118160532Y-55678565D01*
X118206888Y-55674000D01*
X119283112Y-55674000D01*
X119329468Y-55678565D01*
G37*
G36*
X121040000Y-56651000D02*
G01*
X120138000Y-56651000D01*
X120138000Y-55649000D01*
X121040000Y-55649000D01*
X121040000Y-56651000D01*
G37*
G36*
X122940000Y-56651000D02*
G01*
X122038000Y-56651000D01*
X122038000Y-55649000D01*
X122940000Y-55649000D01*
X122940000Y-56651000D01*
G37*
G36*
X184921000Y-55222000D02*
G01*
X184019000Y-55222000D01*
X184019000Y-54220000D01*
X184921000Y-54220000D01*
X184921000Y-55222000D01*
G37*
G36*
X186821000Y-55222000D02*
G01*
X185919000Y-55222000D01*
X185919000Y-54220000D01*
X186821000Y-54220000D01*
X186821000Y-55222000D01*
G37*
G36*
X188798469Y-54076065D02*
G01*
X188837139Y-54087796D01*
X188872778Y-54106846D01*
X188904018Y-54132483D01*
X188929655Y-54163723D01*
X188948705Y-54199362D01*
X188960436Y-54238032D01*
X188965001Y-54284388D01*
X188965001Y-54935612D01*
X188960436Y-54981968D01*
X188948705Y-55020638D01*
X188929655Y-55056277D01*
X188904018Y-55087517D01*
X188872778Y-55113154D01*
X188837139Y-55132204D01*
X188798469Y-55143935D01*
X188752113Y-55148500D01*
X187675889Y-55148500D01*
X187629533Y-55143935D01*
X187590863Y-55132204D01*
X187555224Y-55113154D01*
X187523984Y-55087517D01*
X187498347Y-55056277D01*
X187479297Y-55020638D01*
X187467566Y-54981968D01*
X187463001Y-54935612D01*
X187463001Y-54284388D01*
X187467566Y-54238032D01*
X187479297Y-54199362D01*
X187498347Y-54163723D01*
X187523984Y-54132483D01*
X187555224Y-54106846D01*
X187590863Y-54087796D01*
X187629533Y-54076065D01*
X187675889Y-54071500D01*
X188752113Y-54071500D01*
X188798469Y-54076065D01*
G37*
G36*
X190830468Y-54046065D02*
G01*
X190869138Y-54057796D01*
X190904777Y-54076846D01*
X190936017Y-54102483D01*
X190961654Y-54133723D01*
X190980704Y-54169362D01*
X190992435Y-54208032D01*
X190997000Y-54254388D01*
X190997000Y-54905612D01*
X190992435Y-54951968D01*
X190980704Y-54990638D01*
X190961654Y-55026277D01*
X190936017Y-55057517D01*
X190904777Y-55083154D01*
X190869138Y-55102204D01*
X190830468Y-55113935D01*
X190784112Y-55118500D01*
X189707888Y-55118500D01*
X189661532Y-55113935D01*
X189622862Y-55102204D01*
X189587223Y-55083154D01*
X189555983Y-55057517D01*
X189530346Y-55026277D01*
X189511296Y-54990638D01*
X189499565Y-54951968D01*
X189495000Y-54905612D01*
X189495000Y-54254388D01*
X189499565Y-54208032D01*
X189511296Y-54169362D01*
X189530346Y-54133723D01*
X189555983Y-54102483D01*
X189587223Y-54076846D01*
X189622862Y-54057796D01*
X189661532Y-54046065D01*
X189707888Y-54041500D01*
X190784112Y-54041500D01*
X190830468Y-54046065D01*
G37*
G36*
X121990000Y-55095000D02*
G01*
X121088000Y-55095000D01*
X121088000Y-54093000D01*
X121990000Y-54093000D01*
X121990000Y-55095000D01*
G37*
G36*
X119329468Y-53997565D02*
G01*
X119368138Y-54009296D01*
X119403777Y-54028346D01*
X119435017Y-54053983D01*
X119460654Y-54085223D01*
X119479704Y-54120862D01*
X119491435Y-54159532D01*
X119496000Y-54205888D01*
X119496000Y-54857112D01*
X119491435Y-54903468D01*
X119479704Y-54942138D01*
X119460654Y-54977777D01*
X119435017Y-55009017D01*
X119403777Y-55034654D01*
X119368138Y-55053704D01*
X119329468Y-55065435D01*
X119283112Y-55070000D01*
X118206888Y-55070000D01*
X118160532Y-55065435D01*
X118121862Y-55053704D01*
X118086223Y-55034654D01*
X118054983Y-55009017D01*
X118029346Y-54977777D01*
X118010296Y-54942138D01*
X117998565Y-54903468D01*
X117994000Y-54857112D01*
X117994000Y-54205888D01*
X117998565Y-54159532D01*
X118010296Y-54120862D01*
X118029346Y-54085223D01*
X118054983Y-54053983D01*
X118086223Y-54028346D01*
X118121862Y-54009296D01*
X118160532Y-53997565D01*
X118206888Y-53993000D01*
X119283112Y-53993000D01*
X119329468Y-53997565D01*
G37*
G36*
X117297468Y-53997565D02*
G01*
X117336138Y-54009296D01*
X117371777Y-54028346D01*
X117403017Y-54053983D01*
X117428654Y-54085223D01*
X117447704Y-54120862D01*
X117459435Y-54159532D01*
X117464000Y-54205888D01*
X117464000Y-54857112D01*
X117459435Y-54903468D01*
X117447704Y-54942138D01*
X117428654Y-54977777D01*
X117403017Y-55009017D01*
X117371777Y-55034654D01*
X117336138Y-55053704D01*
X117297468Y-55065435D01*
X117251112Y-55070000D01*
X116174888Y-55070000D01*
X116128532Y-55065435D01*
X116089862Y-55053704D01*
X116054223Y-55034654D01*
X116022983Y-55009017D01*
X115997346Y-54977777D01*
X115978296Y-54942138D01*
X115966565Y-54903468D01*
X115962000Y-54857112D01*
X115962000Y-54205888D01*
X115966565Y-54159532D01*
X115978296Y-54120862D01*
X115997346Y-54085223D01*
X116022983Y-54053983D01*
X116054223Y-54028346D01*
X116089862Y-54009296D01*
X116128532Y-53997565D01*
X116174888Y-53993000D01*
X117251112Y-53993000D01*
X117297468Y-53997565D01*
G37*
G36*
X176144000Y-53613000D02*
G01*
X169042000Y-53613000D01*
X169042000Y-49511000D01*
X176144000Y-49511000D01*
X176144000Y-53613000D01*
G37*
G36*
X164881000Y-49311000D02*
G01*
X163441999Y-49311000D01*
X163417613Y-49313402D01*
X163394164Y-49320515D01*
X163372553Y-49332066D01*
X163353611Y-49347611D01*
X163338066Y-49366553D01*
X163326515Y-49388164D01*
X163319402Y-49411613D01*
X163317000Y-49435999D01*
X163317000Y-53613000D01*
X156215000Y-53613000D01*
X156215000Y-49511000D01*
X162654001Y-49511000D01*
X162678387Y-49508598D01*
X162701836Y-49501485D01*
X162723447Y-49489934D01*
X162742389Y-49474389D01*
X162757934Y-49455447D01*
X162769485Y-49433836D01*
X162776598Y-49410387D01*
X162779000Y-49386001D01*
X162779000Y-47209000D01*
X164881000Y-47209000D01*
X164881000Y-49311000D01*
G37*
G36*
X147101000Y-49386001D02*
G01*
X147103402Y-49410387D01*
X147110515Y-49433836D01*
X147122066Y-49455447D01*
X147137611Y-49474389D01*
X147156553Y-49489934D01*
X147178164Y-49501485D01*
X147201613Y-49508598D01*
X147225999Y-49511000D01*
X150490000Y-49511000D01*
X150490000Y-53613000D01*
X143388000Y-53613000D01*
X143388000Y-49511000D01*
X144874001Y-49511000D01*
X144898387Y-49508598D01*
X144921836Y-49501485D01*
X144943447Y-49489934D01*
X144962389Y-49474389D01*
X144977934Y-49455447D01*
X144989485Y-49433836D01*
X144996598Y-49410387D01*
X144999000Y-49386001D01*
X144999000Y-47209000D01*
X147101000Y-47209000D01*
X147101000Y-49386001D01*
G37*
G36*
X137663000Y-53613000D02*
G01*
X130561000Y-53613000D01*
X130561000Y-49511000D01*
X137663000Y-49511000D01*
X137663000Y-53613000D01*
G37*
G36*
X188798469Y-52201065D02*
G01*
X188837139Y-52212796D01*
X188872778Y-52231846D01*
X188904018Y-52257483D01*
X188929655Y-52288723D01*
X188948705Y-52324362D01*
X188960436Y-52363032D01*
X188965001Y-52409388D01*
X188965001Y-53060612D01*
X188960436Y-53106968D01*
X188948705Y-53145638D01*
X188929655Y-53181277D01*
X188904018Y-53212517D01*
X188872778Y-53238154D01*
X188837139Y-53257204D01*
X188798469Y-53268935D01*
X188752113Y-53273500D01*
X187675889Y-53273500D01*
X187629533Y-53268935D01*
X187590863Y-53257204D01*
X187555224Y-53238154D01*
X187523984Y-53212517D01*
X187498347Y-53181277D01*
X187479297Y-53145638D01*
X187467566Y-53106968D01*
X187463001Y-53060612D01*
X187463001Y-52409388D01*
X187467566Y-52363032D01*
X187479297Y-52324362D01*
X187498347Y-52288723D01*
X187523984Y-52257483D01*
X187555224Y-52231846D01*
X187590863Y-52212796D01*
X187629533Y-52201065D01*
X187675889Y-52196500D01*
X188752113Y-52196500D01*
X188798469Y-52201065D01*
G37*
G36*
X190830468Y-52171065D02*
G01*
X190869138Y-52182796D01*
X190904777Y-52201846D01*
X190936017Y-52227483D01*
X190961654Y-52258723D01*
X190980704Y-52294362D01*
X190992435Y-52333032D01*
X190997000Y-52379388D01*
X190997000Y-53030612D01*
X190992435Y-53076968D01*
X190980704Y-53115638D01*
X190961654Y-53151277D01*
X190936017Y-53182517D01*
X190904777Y-53208154D01*
X190869138Y-53227204D01*
X190830468Y-53238935D01*
X190784112Y-53243500D01*
X189707888Y-53243500D01*
X189661532Y-53238935D01*
X189622862Y-53227204D01*
X189587223Y-53208154D01*
X189555983Y-53182517D01*
X189530346Y-53151277D01*
X189511296Y-53115638D01*
X189499565Y-53076968D01*
X189495000Y-53030612D01*
X189495000Y-52379388D01*
X189499565Y-52333032D01*
X189511296Y-52294362D01*
X189530346Y-52258723D01*
X189555983Y-52227483D01*
X189587223Y-52201846D01*
X189622862Y-52182796D01*
X189661532Y-52171065D01*
X189707888Y-52166500D01*
X190784112Y-52166500D01*
X190830468Y-52171065D01*
G37*
G36*
X185871000Y-53222000D02*
G01*
X184969000Y-53222000D01*
X184969000Y-52220000D01*
X185871000Y-52220000D01*
X185871000Y-53222000D01*
G37*
G36*
X117297468Y-52122565D02*
G01*
X117336138Y-52134296D01*
X117371777Y-52153346D01*
X117403017Y-52178983D01*
X117428654Y-52210223D01*
X117447704Y-52245862D01*
X117459435Y-52284532D01*
X117464000Y-52330888D01*
X117464000Y-52982112D01*
X117459435Y-53028468D01*
X117447704Y-53067138D01*
X117428654Y-53102777D01*
X117403017Y-53134017D01*
X117371777Y-53159654D01*
X117336138Y-53178704D01*
X117297468Y-53190435D01*
X117251112Y-53195000D01*
X116174888Y-53195000D01*
X116128532Y-53190435D01*
X116089862Y-53178704D01*
X116054223Y-53159654D01*
X116022983Y-53134017D01*
X115997346Y-53102777D01*
X115978296Y-53067138D01*
X115966565Y-53028468D01*
X115962000Y-52982112D01*
X115962000Y-52330888D01*
X115966565Y-52284532D01*
X115978296Y-52245862D01*
X115997346Y-52210223D01*
X116022983Y-52178983D01*
X116054223Y-52153346D01*
X116089862Y-52134296D01*
X116128532Y-52122565D01*
X116174888Y-52118000D01*
X117251112Y-52118000D01*
X117297468Y-52122565D01*
G37*
G36*
X119329468Y-52122565D02*
G01*
X119368138Y-52134296D01*
X119403777Y-52153346D01*
X119435017Y-52178983D01*
X119460654Y-52210223D01*
X119479704Y-52245862D01*
X119491435Y-52284532D01*
X119496000Y-52330888D01*
X119496000Y-52982112D01*
X119491435Y-53028468D01*
X119479704Y-53067138D01*
X119460654Y-53102777D01*
X119435017Y-53134017D01*
X119403777Y-53159654D01*
X119368138Y-53178704D01*
X119329468Y-53190435D01*
X119283112Y-53195000D01*
X118206888Y-53195000D01*
X118160532Y-53190435D01*
X118121862Y-53178704D01*
X118086223Y-53159654D01*
X118054983Y-53134017D01*
X118029346Y-53102777D01*
X118010296Y-53067138D01*
X117998565Y-53028468D01*
X117994000Y-52982112D01*
X117994000Y-52330888D01*
X117998565Y-52284532D01*
X118010296Y-52245862D01*
X118029346Y-52210223D01*
X118054983Y-52178983D01*
X118086223Y-52153346D01*
X118121862Y-52134296D01*
X118160532Y-52122565D01*
X118206888Y-52118000D01*
X119283112Y-52118000D01*
X119329468Y-52122565D01*
G37*
G36*
X122940000Y-53095000D02*
G01*
X122038000Y-53095000D01*
X122038000Y-52093000D01*
X122940000Y-52093000D01*
X122940000Y-53095000D01*
G37*
G36*
X121040000Y-53095000D02*
G01*
X120138000Y-53095000D01*
X120138000Y-52093000D01*
X121040000Y-52093000D01*
X121040000Y-53095000D01*
G37*
G36*
X178909000Y-49877000D02*
G01*
X177707000Y-49877000D01*
X177707000Y-48675000D01*
X178909000Y-48675000D01*
X178909000Y-49877000D01*
G37*
G36*
X182661000Y-49311000D02*
G01*
X180559000Y-49311000D01*
X180559000Y-47209000D01*
X182661000Y-47209000D01*
X182661000Y-49311000D01*
G37*
G36*
X129321000Y-49311000D02*
G01*
X127219000Y-49311000D01*
X127219000Y-47209000D01*
X129321000Y-47209000D01*
X129321000Y-49311000D01*
G37*
G36*
X176161000Y-49161000D02*
G01*
X174359000Y-49161000D01*
X174359000Y-47359000D01*
X176161000Y-47359000D01*
X176161000Y-49161000D01*
G37*
G36*
X158381000Y-49161000D02*
G01*
X156579000Y-49161000D01*
X156579000Y-47359000D01*
X158381000Y-47359000D01*
X158381000Y-49161000D01*
G37*
G36*
X171081000Y-49161000D02*
G01*
X169279000Y-49161000D01*
X169279000Y-47359000D01*
X171081000Y-47359000D01*
X171081000Y-49161000D01*
G37*
G36*
X153301000Y-49161000D02*
G01*
X151499000Y-49161000D01*
X151499000Y-47359000D01*
X153301000Y-47359000D01*
X153301000Y-49161000D01*
G37*
G36*
X140601000Y-49161000D02*
G01*
X138799000Y-49161000D01*
X138799000Y-47359000D01*
X140601000Y-47359000D01*
X140601000Y-49161000D01*
G37*
G36*
X135521000Y-49161000D02*
G01*
X133719000Y-49161000D01*
X133719000Y-47359000D01*
X135521000Y-47359000D01*
X135521000Y-49161000D01*
G37*
G36*
X117741000Y-49161000D02*
G01*
X115939000Y-49161000D01*
X115939000Y-47359000D01*
X117741000Y-47359000D01*
X117741000Y-49161000D01*
G37*
G36*
X122821000Y-49161000D02*
G01*
X121019000Y-49161000D01*
X121019000Y-47359000D01*
X122821000Y-47359000D01*
X122821000Y-49161000D01*
G37*
G36*
X161129000Y-49118000D02*
G01*
X159927000Y-49118000D01*
X159927000Y-47916000D01*
X161129000Y-47916000D01*
X161129000Y-49118000D01*
G37*
G36*
X131918999Y-48991000D02*
G01*
X130716999Y-48991000D01*
X130716999Y-47789000D01*
X131918999Y-47789000D01*
X131918999Y-48991000D01*
G37*
G36*
X119710468Y-46377565D02*
G01*
X119749138Y-46389296D01*
X119784777Y-46408346D01*
X119816017Y-46433983D01*
X119841654Y-46465223D01*
X119860704Y-46500862D01*
X119872435Y-46539532D01*
X119877000Y-46585888D01*
X119877000Y-47237112D01*
X119872435Y-47283468D01*
X119860704Y-47322138D01*
X119841654Y-47357777D01*
X119816017Y-47389017D01*
X119784777Y-47414654D01*
X119749138Y-47433704D01*
X119710468Y-47445435D01*
X119664112Y-47450000D01*
X118587888Y-47450000D01*
X118541532Y-47445435D01*
X118502862Y-47433704D01*
X118467223Y-47414654D01*
X118435983Y-47389017D01*
X118410346Y-47357777D01*
X118391296Y-47322138D01*
X118379565Y-47283468D01*
X118375000Y-47237112D01*
X118375000Y-46585888D01*
X118379565Y-46539532D01*
X118391296Y-46500862D01*
X118410346Y-46465223D01*
X118435983Y-46433983D01*
X118467223Y-46408346D01*
X118502862Y-46389296D01*
X118541532Y-46377565D01*
X118587888Y-46373000D01*
X119664112Y-46373000D01*
X119710468Y-46377565D01*
G37*
G36*
X178909000Y-47077000D02*
G01*
X177707000Y-47077000D01*
X177707000Y-45875000D01*
X178909000Y-45875000D01*
X178909000Y-47077000D01*
G37*
G36*
X161129000Y-46318000D02*
G01*
X159927000Y-46318000D01*
X159927000Y-45116000D01*
X161129000Y-45116000D01*
X161129000Y-46318000D01*
G37*
G36*
X131918999Y-46191000D02*
G01*
X130716999Y-46191000D01*
X130716999Y-44989000D01*
X131918999Y-44989000D01*
X131918999Y-46191000D01*
G37*
G36*
X137363468Y-44726565D02*
G01*
X137402138Y-44738296D01*
X137437777Y-44757346D01*
X137469017Y-44782983D01*
X137494654Y-44814223D01*
X137513704Y-44849862D01*
X137525435Y-44888532D01*
X137530000Y-44934888D01*
X137530000Y-45586112D01*
X137525435Y-45632468D01*
X137513704Y-45671138D01*
X137494654Y-45706777D01*
X137469017Y-45738017D01*
X137437777Y-45763654D01*
X137402138Y-45782704D01*
X137363468Y-45794435D01*
X137317112Y-45799000D01*
X136240888Y-45799000D01*
X136194532Y-45794435D01*
X136155862Y-45782704D01*
X136120223Y-45763654D01*
X136088983Y-45738017D01*
X136063346Y-45706777D01*
X136044296Y-45671138D01*
X136032565Y-45632468D01*
X136028000Y-45586112D01*
X136028000Y-44934888D01*
X136032565Y-44888532D01*
X136044296Y-44849862D01*
X136063346Y-44814223D01*
X136088983Y-44782983D01*
X136120223Y-44757346D01*
X136155862Y-44738296D01*
X136194532Y-44726565D01*
X136240888Y-44722000D01*
X137317112Y-44722000D01*
X137363468Y-44726565D01*
G37*
G36*
X155270468Y-44599565D02*
G01*
X155309138Y-44611296D01*
X155344777Y-44630346D01*
X155376017Y-44655983D01*
X155401654Y-44687223D01*
X155420704Y-44722862D01*
X155432435Y-44761532D01*
X155437000Y-44807888D01*
X155437000Y-45459112D01*
X155432435Y-45505468D01*
X155420704Y-45544138D01*
X155401654Y-45579777D01*
X155376017Y-45611017D01*
X155344777Y-45636654D01*
X155309138Y-45655704D01*
X155270468Y-45667435D01*
X155224112Y-45672000D01*
X154147888Y-45672000D01*
X154101532Y-45667435D01*
X154062862Y-45655704D01*
X154027223Y-45636654D01*
X153995983Y-45611017D01*
X153970346Y-45579777D01*
X153951296Y-45544138D01*
X153939565Y-45505468D01*
X153935000Y-45459112D01*
X153935000Y-44807888D01*
X153939565Y-44761532D01*
X153951296Y-44722862D01*
X153970346Y-44687223D01*
X153995983Y-44655983D01*
X154027223Y-44630346D01*
X154062862Y-44611296D01*
X154101532Y-44599565D01*
X154147888Y-44595000D01*
X155224112Y-44595000D01*
X155270468Y-44599565D01*
G37*
G36*
X173050468Y-44551064D02*
G01*
X173089138Y-44562795D01*
X173124777Y-44581845D01*
X173156017Y-44607482D01*
X173181654Y-44638722D01*
X173200704Y-44674361D01*
X173212435Y-44713031D01*
X173217000Y-44759387D01*
X173217000Y-45410611D01*
X173212435Y-45456967D01*
X173200704Y-45495637D01*
X173181654Y-45531276D01*
X173156017Y-45562516D01*
X173124777Y-45588153D01*
X173089138Y-45607203D01*
X173050468Y-45618934D01*
X173004112Y-45623499D01*
X171927888Y-45623499D01*
X171881532Y-45618934D01*
X171842862Y-45607203D01*
X171807223Y-45588153D01*
X171775983Y-45562516D01*
X171750346Y-45531276D01*
X171731296Y-45495637D01*
X171719565Y-45456967D01*
X171715000Y-45410611D01*
X171715000Y-44759387D01*
X171719565Y-44713031D01*
X171731296Y-44674361D01*
X171750346Y-44638722D01*
X171775983Y-44607482D01*
X171807223Y-44581845D01*
X171842862Y-44562795D01*
X171881532Y-44551064D01*
X171927888Y-44546499D01*
X173004112Y-44546499D01*
X173050468Y-44551064D01*
G37*
G36*
X119710468Y-44502565D02*
G01*
X119749138Y-44514296D01*
X119784777Y-44533346D01*
X119816017Y-44558983D01*
X119841654Y-44590223D01*
X119860704Y-44625862D01*
X119872435Y-44664532D01*
X119877000Y-44710888D01*
X119877000Y-45362112D01*
X119872435Y-45408468D01*
X119860704Y-45447138D01*
X119841654Y-45482777D01*
X119816017Y-45514017D01*
X119784777Y-45539654D01*
X119749138Y-45558704D01*
X119710468Y-45570435D01*
X119664112Y-45575000D01*
X118587888Y-45575000D01*
X118541532Y-45570435D01*
X118502862Y-45558704D01*
X118467223Y-45539654D01*
X118435983Y-45514017D01*
X118410346Y-45482777D01*
X118391296Y-45447138D01*
X118379565Y-45408468D01*
X118375000Y-45362112D01*
X118375000Y-44710888D01*
X118379565Y-44664532D01*
X118391296Y-44625862D01*
X118410346Y-44590223D01*
X118435983Y-44558983D01*
X118467223Y-44533346D01*
X118502862Y-44514296D01*
X118541532Y-44502565D01*
X118587888Y-44498000D01*
X119664112Y-44498000D01*
X119710468Y-44502565D01*
G37*
G36*
X128576564Y-42249389D02*
G01*
X128767833Y-42328615D01*
X128767835Y-42328616D01*
X128939973Y-42443635D01*
X129086365Y-42590027D01*
X129196828Y-42755346D01*
X129201385Y-42762167D01*
X129280611Y-42953436D01*
X129321000Y-43156484D01*
X129321000Y-43363516D01*
X129280611Y-43566564D01*
X129201385Y-43757833D01*
X129201384Y-43757835D01*
X129086365Y-43929973D01*
X128939973Y-44076365D01*
X128767835Y-44191384D01*
X128767834Y-44191385D01*
X128767833Y-44191385D01*
X128576564Y-44270611D01*
X128373516Y-44311000D01*
X128166484Y-44311000D01*
X127963436Y-44270611D01*
X127772167Y-44191385D01*
X127772166Y-44191385D01*
X127772165Y-44191384D01*
X127600027Y-44076365D01*
X127453635Y-43929973D01*
X127338616Y-43757835D01*
X127338615Y-43757833D01*
X127259389Y-43566564D01*
X127219000Y-43363516D01*
X127219000Y-43156484D01*
X127259389Y-42953436D01*
X127338615Y-42762167D01*
X127343173Y-42755346D01*
X127453635Y-42590027D01*
X127600027Y-42443635D01*
X127772165Y-42328616D01*
X127772167Y-42328615D01*
X127963436Y-42249389D01*
X128166484Y-42209000D01*
X128373516Y-42209000D01*
X128576564Y-42249389D01*
G37*
G36*
X181916564Y-42249389D02*
G01*
X182107833Y-42328615D01*
X182107835Y-42328616D01*
X182279973Y-42443635D01*
X182426365Y-42590027D01*
X182536828Y-42755346D01*
X182541385Y-42762167D01*
X182620611Y-42953436D01*
X182661000Y-43156484D01*
X182661000Y-43363516D01*
X182620611Y-43566564D01*
X182541385Y-43757833D01*
X182541384Y-43757835D01*
X182426365Y-43929973D01*
X182279973Y-44076365D01*
X182107835Y-44191384D01*
X182107834Y-44191385D01*
X182107833Y-44191385D01*
X181916564Y-44270611D01*
X181713516Y-44311000D01*
X181506484Y-44311000D01*
X181303436Y-44270611D01*
X181112167Y-44191385D01*
X181112166Y-44191385D01*
X181112165Y-44191384D01*
X180940027Y-44076365D01*
X180793635Y-43929973D01*
X180678616Y-43757835D01*
X180678615Y-43757833D01*
X180599389Y-43566564D01*
X180559000Y-43363516D01*
X180559000Y-43156484D01*
X180599389Y-42953436D01*
X180678615Y-42762167D01*
X180683173Y-42755346D01*
X180793635Y-42590027D01*
X180940027Y-42443635D01*
X181112165Y-42328616D01*
X181112167Y-42328615D01*
X181303436Y-42249389D01*
X181506484Y-42209000D01*
X181713516Y-42209000D01*
X181916564Y-42249389D01*
G37*
G36*
X164136564Y-42249389D02*
G01*
X164327833Y-42328615D01*
X164327835Y-42328616D01*
X164499973Y-42443635D01*
X164646365Y-42590027D01*
X164756828Y-42755346D01*
X164761385Y-42762167D01*
X164840611Y-42953436D01*
X164881000Y-43156484D01*
X164881000Y-43363516D01*
X164840611Y-43566564D01*
X164761385Y-43757833D01*
X164761384Y-43757835D01*
X164646365Y-43929973D01*
X164499973Y-44076365D01*
X164327835Y-44191384D01*
X164327834Y-44191385D01*
X164327833Y-44191385D01*
X164136564Y-44270611D01*
X163933516Y-44311000D01*
X163726484Y-44311000D01*
X163523436Y-44270611D01*
X163332167Y-44191385D01*
X163332166Y-44191385D01*
X163332165Y-44191384D01*
X163160027Y-44076365D01*
X163013635Y-43929973D01*
X162898616Y-43757835D01*
X162898615Y-43757833D01*
X162819389Y-43566564D01*
X162779000Y-43363516D01*
X162779000Y-43156484D01*
X162819389Y-42953436D01*
X162898615Y-42762167D01*
X162903173Y-42755346D01*
X163013635Y-42590027D01*
X163160027Y-42443635D01*
X163332165Y-42328616D01*
X163332167Y-42328615D01*
X163523436Y-42249389D01*
X163726484Y-42209000D01*
X163933516Y-42209000D01*
X164136564Y-42249389D01*
G37*
G36*
X146356564Y-42249389D02*
G01*
X146547833Y-42328615D01*
X146547835Y-42328616D01*
X146719973Y-42443635D01*
X146866365Y-42590027D01*
X146976828Y-42755346D01*
X146981385Y-42762167D01*
X147060611Y-42953436D01*
X147101000Y-43156484D01*
X147101000Y-43363516D01*
X147060611Y-43566564D01*
X146981385Y-43757833D01*
X146981384Y-43757835D01*
X146866365Y-43929973D01*
X146719973Y-44076365D01*
X146547835Y-44191384D01*
X146547834Y-44191385D01*
X146547833Y-44191385D01*
X146356564Y-44270611D01*
X146153516Y-44311000D01*
X145946484Y-44311000D01*
X145743436Y-44270611D01*
X145552167Y-44191385D01*
X145552166Y-44191385D01*
X145552165Y-44191384D01*
X145380027Y-44076365D01*
X145233635Y-43929973D01*
X145118616Y-43757835D01*
X145118615Y-43757833D01*
X145039389Y-43566564D01*
X144999000Y-43363516D01*
X144999000Y-43156484D01*
X145039389Y-42953436D01*
X145118615Y-42762167D01*
X145123173Y-42755346D01*
X145233635Y-42590027D01*
X145380027Y-42443635D01*
X145552165Y-42328616D01*
X145552167Y-42328615D01*
X145743436Y-42249389D01*
X145946484Y-42209000D01*
X146153516Y-42209000D01*
X146356564Y-42249389D01*
G37*
G36*
X137363468Y-42851565D02*
G01*
X137402138Y-42863296D01*
X137437777Y-42882346D01*
X137469017Y-42907983D01*
X137494654Y-42939223D01*
X137513704Y-42974862D01*
X137525435Y-43013532D01*
X137530000Y-43059888D01*
X137530000Y-43711112D01*
X137525435Y-43757468D01*
X137513704Y-43796138D01*
X137494654Y-43831777D01*
X137469017Y-43863017D01*
X137437777Y-43888654D01*
X137402138Y-43907704D01*
X137363468Y-43919435D01*
X137317112Y-43924000D01*
X136240888Y-43924000D01*
X136194532Y-43919435D01*
X136155862Y-43907704D01*
X136120223Y-43888654D01*
X136088983Y-43863017D01*
X136063346Y-43831777D01*
X136044296Y-43796138D01*
X136032565Y-43757468D01*
X136028000Y-43711112D01*
X136028000Y-43059888D01*
X136032565Y-43013532D01*
X136044296Y-42974862D01*
X136063346Y-42939223D01*
X136088983Y-42907983D01*
X136120223Y-42882346D01*
X136155862Y-42863296D01*
X136194532Y-42851565D01*
X136240888Y-42847000D01*
X137317112Y-42847000D01*
X137363468Y-42851565D01*
G37*
G36*
X155270468Y-42724565D02*
G01*
X155309138Y-42736296D01*
X155344777Y-42755346D01*
X155376017Y-42780983D01*
X155401654Y-42812223D01*
X155420704Y-42847862D01*
X155432435Y-42886532D01*
X155437000Y-42932888D01*
X155437000Y-43584112D01*
X155432435Y-43630468D01*
X155420704Y-43669138D01*
X155401654Y-43704777D01*
X155376017Y-43736017D01*
X155344777Y-43761654D01*
X155309138Y-43780704D01*
X155270468Y-43792435D01*
X155224112Y-43797000D01*
X154147888Y-43797000D01*
X154101532Y-43792435D01*
X154062862Y-43780704D01*
X154027223Y-43761654D01*
X153995983Y-43736017D01*
X153970346Y-43704777D01*
X153951296Y-43669138D01*
X153939565Y-43630468D01*
X153935000Y-43584112D01*
X153935000Y-42932888D01*
X153939565Y-42886532D01*
X153951296Y-42847862D01*
X153970346Y-42812223D01*
X153995983Y-42780983D01*
X154027223Y-42755346D01*
X154062862Y-42736296D01*
X154101532Y-42724565D01*
X154147888Y-42720000D01*
X155224112Y-42720000D01*
X155270468Y-42724565D01*
G37*
G36*
X173050468Y-42676064D02*
G01*
X173089138Y-42687795D01*
X173124777Y-42706845D01*
X173156017Y-42732482D01*
X173181654Y-42763722D01*
X173200704Y-42799361D01*
X173212435Y-42838031D01*
X173217000Y-42884387D01*
X173217000Y-43535611D01*
X173212435Y-43581967D01*
X173200704Y-43620637D01*
X173181654Y-43656276D01*
X173156017Y-43687516D01*
X173124777Y-43713153D01*
X173089138Y-43732203D01*
X173050468Y-43743934D01*
X173004112Y-43748499D01*
X171927888Y-43748499D01*
X171881532Y-43743934D01*
X171842862Y-43732203D01*
X171807223Y-43713153D01*
X171775983Y-43687516D01*
X171750346Y-43656276D01*
X171731296Y-43620637D01*
X171719565Y-43581967D01*
X171715000Y-43535611D01*
X171715000Y-42884387D01*
X171719565Y-42838031D01*
X171731296Y-42799361D01*
X171750346Y-42763722D01*
X171775983Y-42732482D01*
X171807223Y-42706845D01*
X171842862Y-42687795D01*
X171881532Y-42676064D01*
X171927888Y-42671499D01*
X173004112Y-42671499D01*
X173050468Y-42676064D01*
G37*
M02*
