G04 #@! TF.GenerationSoftware,KiCad,Pcbnew,(5.1.5-0-10_14)*
G04 #@! TF.CreationDate,2020-03-17T09:24:28-05:00*
G04 #@! TF.ProjectId,pulse,70756c73-652e-46b6-9963-61645f706362,rev?*
G04 #@! TF.SameCoordinates,Original*
G04 #@! TF.FileFunction,Copper,L1,Top*
G04 #@! TF.FilePolarity,Positive*
%FSLAX46Y46*%
G04 Gerber Fmt 4.6, Leading zero omitted, Abs format (unit mm)*
G04 Created by KiCad (PCBNEW (5.1.5-0-10_14)) date 2020-03-17 09:24:28*
%MOMM*%
%LPD*%
G04 APERTURE LIST*
%ADD10C,0.650000*%
%ADD11O,1.108000X2.216000*%
%ADD12R,1.700000X1.700000*%
%ADD13C,2.000000*%
%ADD14R,2.000000X2.000000*%
%ADD15R,3.500000X3.500000*%
%ADD16C,3.500000*%
%ADD17O,1.700000X1.700000*%
%ADD18C,0.100000*%
%ADD19C,0.800000*%
%ADD20C,1.500000*%
%ADD21C,2.500000*%
%ADD22C,0.250000*%
%ADD23C,0.500000*%
%ADD24C,0.254000*%
G04 APERTURE END LIST*
D10*
X131645000Y-72175000D03*
X132495000Y-72175000D03*
X133345000Y-72175000D03*
X134195000Y-72175000D03*
X135045000Y-72175000D03*
X135895000Y-72175000D03*
X136745000Y-72175000D03*
X137595000Y-72175000D03*
X137595000Y-73525000D03*
X136745000Y-73525000D03*
X135895000Y-73525000D03*
X135045000Y-73525000D03*
X134195000Y-73525000D03*
X133345000Y-73525000D03*
X132495000Y-73525000D03*
X131645000Y-73525000D03*
D11*
X130295000Y-73155000D03*
X138945000Y-73155000D03*
X138945000Y-76535000D03*
X130295000Y-76535000D03*
D12*
X127000000Y-73660000D03*
D13*
X163830000Y-43260000D03*
D14*
X163830000Y-48260000D03*
D13*
X181610000Y-43260000D03*
D14*
X181610000Y-48260000D03*
D13*
X128270000Y-43260000D03*
D14*
X128270000Y-48260000D03*
D13*
X146050000Y-43260000D03*
D14*
X146050000Y-48260000D03*
D15*
X116840000Y-61087000D03*
D16*
X188840000Y-61087000D03*
D17*
X121920000Y-73660000D03*
X119380000Y-73660000D03*
D12*
X116840000Y-73660000D03*
X121920000Y-48260000D03*
X157480000Y-48260000D03*
X175260000Y-48260000D03*
X139700000Y-48260000D03*
X152400000Y-48260000D03*
X170180000Y-48260000D03*
X116840000Y-48260000D03*
X134620000Y-48260000D03*
D17*
X175260000Y-73660000D03*
X172720000Y-73660000D03*
X170180000Y-73660000D03*
X167640000Y-73660000D03*
D12*
X165100000Y-73660000D03*
X147320000Y-73660000D03*
X142240000Y-73660000D03*
G04 #@! TA.AperFunction,SMDPad,CuDef*
D18*
G36*
X140099504Y-42306204D02*
G01*
X140123773Y-42309804D01*
X140147571Y-42315765D01*
X140170671Y-42324030D01*
X140192849Y-42334520D01*
X140213893Y-42347133D01*
X140233598Y-42361747D01*
X140251777Y-42378223D01*
X140268253Y-42396402D01*
X140282867Y-42416107D01*
X140295480Y-42437151D01*
X140305970Y-42459329D01*
X140314235Y-42482429D01*
X140320196Y-42506227D01*
X140323796Y-42530496D01*
X140325000Y-42555000D01*
X140325000Y-43805000D01*
X140323796Y-43829504D01*
X140320196Y-43853773D01*
X140314235Y-43877571D01*
X140305970Y-43900671D01*
X140295480Y-43922849D01*
X140282867Y-43943893D01*
X140268253Y-43963598D01*
X140251777Y-43981777D01*
X140233598Y-43998253D01*
X140213893Y-44012867D01*
X140192849Y-44025480D01*
X140170671Y-44035970D01*
X140147571Y-44044235D01*
X140123773Y-44050196D01*
X140099504Y-44053796D01*
X140075000Y-44055000D01*
X139325000Y-44055000D01*
X139300496Y-44053796D01*
X139276227Y-44050196D01*
X139252429Y-44044235D01*
X139229329Y-44035970D01*
X139207151Y-44025480D01*
X139186107Y-44012867D01*
X139166402Y-43998253D01*
X139148223Y-43981777D01*
X139131747Y-43963598D01*
X139117133Y-43943893D01*
X139104520Y-43922849D01*
X139094030Y-43900671D01*
X139085765Y-43877571D01*
X139079804Y-43853773D01*
X139076204Y-43829504D01*
X139075000Y-43805000D01*
X139075000Y-42555000D01*
X139076204Y-42530496D01*
X139079804Y-42506227D01*
X139085765Y-42482429D01*
X139094030Y-42459329D01*
X139104520Y-42437151D01*
X139117133Y-42416107D01*
X139131747Y-42396402D01*
X139148223Y-42378223D01*
X139166402Y-42361747D01*
X139186107Y-42347133D01*
X139207151Y-42334520D01*
X139229329Y-42324030D01*
X139252429Y-42315765D01*
X139276227Y-42309804D01*
X139300496Y-42306204D01*
X139325000Y-42305000D01*
X140075000Y-42305000D01*
X140099504Y-42306204D01*
G37*
G04 #@! TD.AperFunction*
G04 #@! TA.AperFunction,SMDPad,CuDef*
G36*
X137299504Y-42306204D02*
G01*
X137323773Y-42309804D01*
X137347571Y-42315765D01*
X137370671Y-42324030D01*
X137392849Y-42334520D01*
X137413893Y-42347133D01*
X137433598Y-42361747D01*
X137451777Y-42378223D01*
X137468253Y-42396402D01*
X137482867Y-42416107D01*
X137495480Y-42437151D01*
X137505970Y-42459329D01*
X137514235Y-42482429D01*
X137520196Y-42506227D01*
X137523796Y-42530496D01*
X137525000Y-42555000D01*
X137525000Y-43805000D01*
X137523796Y-43829504D01*
X137520196Y-43853773D01*
X137514235Y-43877571D01*
X137505970Y-43900671D01*
X137495480Y-43922849D01*
X137482867Y-43943893D01*
X137468253Y-43963598D01*
X137451777Y-43981777D01*
X137433598Y-43998253D01*
X137413893Y-44012867D01*
X137392849Y-44025480D01*
X137370671Y-44035970D01*
X137347571Y-44044235D01*
X137323773Y-44050196D01*
X137299504Y-44053796D01*
X137275000Y-44055000D01*
X136525000Y-44055000D01*
X136500496Y-44053796D01*
X136476227Y-44050196D01*
X136452429Y-44044235D01*
X136429329Y-44035970D01*
X136407151Y-44025480D01*
X136386107Y-44012867D01*
X136366402Y-43998253D01*
X136348223Y-43981777D01*
X136331747Y-43963598D01*
X136317133Y-43943893D01*
X136304520Y-43922849D01*
X136294030Y-43900671D01*
X136285765Y-43877571D01*
X136279804Y-43853773D01*
X136276204Y-43829504D01*
X136275000Y-43805000D01*
X136275000Y-42555000D01*
X136276204Y-42530496D01*
X136279804Y-42506227D01*
X136285765Y-42482429D01*
X136294030Y-42459329D01*
X136304520Y-42437151D01*
X136317133Y-42416107D01*
X136331747Y-42396402D01*
X136348223Y-42378223D01*
X136366402Y-42361747D01*
X136386107Y-42347133D01*
X136407151Y-42334520D01*
X136429329Y-42324030D01*
X136452429Y-42315765D01*
X136476227Y-42309804D01*
X136500496Y-42306204D01*
X136525000Y-42305000D01*
X137275000Y-42305000D01*
X137299504Y-42306204D01*
G37*
G04 #@! TD.AperFunction*
G04 #@! TA.AperFunction,SMDPad,CuDef*
G36*
X122319504Y-43957204D02*
G01*
X122343773Y-43960804D01*
X122367571Y-43966765D01*
X122390671Y-43975030D01*
X122412849Y-43985520D01*
X122433893Y-43998133D01*
X122453598Y-44012747D01*
X122471777Y-44029223D01*
X122488253Y-44047402D01*
X122502867Y-44067107D01*
X122515480Y-44088151D01*
X122525970Y-44110329D01*
X122534235Y-44133429D01*
X122540196Y-44157227D01*
X122543796Y-44181496D01*
X122545000Y-44206000D01*
X122545000Y-45456000D01*
X122543796Y-45480504D01*
X122540196Y-45504773D01*
X122534235Y-45528571D01*
X122525970Y-45551671D01*
X122515480Y-45573849D01*
X122502867Y-45594893D01*
X122488253Y-45614598D01*
X122471777Y-45632777D01*
X122453598Y-45649253D01*
X122433893Y-45663867D01*
X122412849Y-45676480D01*
X122390671Y-45686970D01*
X122367571Y-45695235D01*
X122343773Y-45701196D01*
X122319504Y-45704796D01*
X122295000Y-45706000D01*
X121545000Y-45706000D01*
X121520496Y-45704796D01*
X121496227Y-45701196D01*
X121472429Y-45695235D01*
X121449329Y-45686970D01*
X121427151Y-45676480D01*
X121406107Y-45663867D01*
X121386402Y-45649253D01*
X121368223Y-45632777D01*
X121351747Y-45614598D01*
X121337133Y-45594893D01*
X121324520Y-45573849D01*
X121314030Y-45551671D01*
X121305765Y-45528571D01*
X121299804Y-45504773D01*
X121296204Y-45480504D01*
X121295000Y-45456000D01*
X121295000Y-44206000D01*
X121296204Y-44181496D01*
X121299804Y-44157227D01*
X121305765Y-44133429D01*
X121314030Y-44110329D01*
X121324520Y-44088151D01*
X121337133Y-44067107D01*
X121351747Y-44047402D01*
X121368223Y-44029223D01*
X121386402Y-44012747D01*
X121406107Y-43998133D01*
X121427151Y-43985520D01*
X121449329Y-43975030D01*
X121472429Y-43966765D01*
X121496227Y-43960804D01*
X121520496Y-43957204D01*
X121545000Y-43956000D01*
X122295000Y-43956000D01*
X122319504Y-43957204D01*
G37*
G04 #@! TD.AperFunction*
G04 #@! TA.AperFunction,SMDPad,CuDef*
G36*
X119519504Y-43957204D02*
G01*
X119543773Y-43960804D01*
X119567571Y-43966765D01*
X119590671Y-43975030D01*
X119612849Y-43985520D01*
X119633893Y-43998133D01*
X119653598Y-44012747D01*
X119671777Y-44029223D01*
X119688253Y-44047402D01*
X119702867Y-44067107D01*
X119715480Y-44088151D01*
X119725970Y-44110329D01*
X119734235Y-44133429D01*
X119740196Y-44157227D01*
X119743796Y-44181496D01*
X119745000Y-44206000D01*
X119745000Y-45456000D01*
X119743796Y-45480504D01*
X119740196Y-45504773D01*
X119734235Y-45528571D01*
X119725970Y-45551671D01*
X119715480Y-45573849D01*
X119702867Y-45594893D01*
X119688253Y-45614598D01*
X119671777Y-45632777D01*
X119653598Y-45649253D01*
X119633893Y-45663867D01*
X119612849Y-45676480D01*
X119590671Y-45686970D01*
X119567571Y-45695235D01*
X119543773Y-45701196D01*
X119519504Y-45704796D01*
X119495000Y-45706000D01*
X118745000Y-45706000D01*
X118720496Y-45704796D01*
X118696227Y-45701196D01*
X118672429Y-45695235D01*
X118649329Y-45686970D01*
X118627151Y-45676480D01*
X118606107Y-45663867D01*
X118586402Y-45649253D01*
X118568223Y-45632777D01*
X118551747Y-45614598D01*
X118537133Y-45594893D01*
X118524520Y-45573849D01*
X118514030Y-45551671D01*
X118505765Y-45528571D01*
X118499804Y-45504773D01*
X118496204Y-45480504D01*
X118495000Y-45456000D01*
X118495000Y-44206000D01*
X118496204Y-44181496D01*
X118499804Y-44157227D01*
X118505765Y-44133429D01*
X118514030Y-44110329D01*
X118524520Y-44088151D01*
X118537133Y-44067107D01*
X118551747Y-44047402D01*
X118568223Y-44029223D01*
X118586402Y-44012747D01*
X118606107Y-43998133D01*
X118627151Y-43985520D01*
X118649329Y-43975030D01*
X118672429Y-43966765D01*
X118696227Y-43960804D01*
X118720496Y-43957204D01*
X118745000Y-43956000D01*
X119495000Y-43956000D01*
X119519504Y-43957204D01*
G37*
G04 #@! TD.AperFunction*
G04 #@! TA.AperFunction,SMDPad,CuDef*
G36*
X157879504Y-42306204D02*
G01*
X157903773Y-42309804D01*
X157927571Y-42315765D01*
X157950671Y-42324030D01*
X157972849Y-42334520D01*
X157993893Y-42347133D01*
X158013598Y-42361747D01*
X158031777Y-42378223D01*
X158048253Y-42396402D01*
X158062867Y-42416107D01*
X158075480Y-42437151D01*
X158085970Y-42459329D01*
X158094235Y-42482429D01*
X158100196Y-42506227D01*
X158103796Y-42530496D01*
X158105000Y-42555000D01*
X158105000Y-43805000D01*
X158103796Y-43829504D01*
X158100196Y-43853773D01*
X158094235Y-43877571D01*
X158085970Y-43900671D01*
X158075480Y-43922849D01*
X158062867Y-43943893D01*
X158048253Y-43963598D01*
X158031777Y-43981777D01*
X158013598Y-43998253D01*
X157993893Y-44012867D01*
X157972849Y-44025480D01*
X157950671Y-44035970D01*
X157927571Y-44044235D01*
X157903773Y-44050196D01*
X157879504Y-44053796D01*
X157855000Y-44055000D01*
X157105000Y-44055000D01*
X157080496Y-44053796D01*
X157056227Y-44050196D01*
X157032429Y-44044235D01*
X157009329Y-44035970D01*
X156987151Y-44025480D01*
X156966107Y-44012867D01*
X156946402Y-43998253D01*
X156928223Y-43981777D01*
X156911747Y-43963598D01*
X156897133Y-43943893D01*
X156884520Y-43922849D01*
X156874030Y-43900671D01*
X156865765Y-43877571D01*
X156859804Y-43853773D01*
X156856204Y-43829504D01*
X156855000Y-43805000D01*
X156855000Y-42555000D01*
X156856204Y-42530496D01*
X156859804Y-42506227D01*
X156865765Y-42482429D01*
X156874030Y-42459329D01*
X156884520Y-42437151D01*
X156897133Y-42416107D01*
X156911747Y-42396402D01*
X156928223Y-42378223D01*
X156946402Y-42361747D01*
X156966107Y-42347133D01*
X156987151Y-42334520D01*
X157009329Y-42324030D01*
X157032429Y-42315765D01*
X157056227Y-42309804D01*
X157080496Y-42306204D01*
X157105000Y-42305000D01*
X157855000Y-42305000D01*
X157879504Y-42306204D01*
G37*
G04 #@! TD.AperFunction*
G04 #@! TA.AperFunction,SMDPad,CuDef*
G36*
X155079504Y-42306204D02*
G01*
X155103773Y-42309804D01*
X155127571Y-42315765D01*
X155150671Y-42324030D01*
X155172849Y-42334520D01*
X155193893Y-42347133D01*
X155213598Y-42361747D01*
X155231777Y-42378223D01*
X155248253Y-42396402D01*
X155262867Y-42416107D01*
X155275480Y-42437151D01*
X155285970Y-42459329D01*
X155294235Y-42482429D01*
X155300196Y-42506227D01*
X155303796Y-42530496D01*
X155305000Y-42555000D01*
X155305000Y-43805000D01*
X155303796Y-43829504D01*
X155300196Y-43853773D01*
X155294235Y-43877571D01*
X155285970Y-43900671D01*
X155275480Y-43922849D01*
X155262867Y-43943893D01*
X155248253Y-43963598D01*
X155231777Y-43981777D01*
X155213598Y-43998253D01*
X155193893Y-44012867D01*
X155172849Y-44025480D01*
X155150671Y-44035970D01*
X155127571Y-44044235D01*
X155103773Y-44050196D01*
X155079504Y-44053796D01*
X155055000Y-44055000D01*
X154305000Y-44055000D01*
X154280496Y-44053796D01*
X154256227Y-44050196D01*
X154232429Y-44044235D01*
X154209329Y-44035970D01*
X154187151Y-44025480D01*
X154166107Y-44012867D01*
X154146402Y-43998253D01*
X154128223Y-43981777D01*
X154111747Y-43963598D01*
X154097133Y-43943893D01*
X154084520Y-43922849D01*
X154074030Y-43900671D01*
X154065765Y-43877571D01*
X154059804Y-43853773D01*
X154056204Y-43829504D01*
X154055000Y-43805000D01*
X154055000Y-42555000D01*
X154056204Y-42530496D01*
X154059804Y-42506227D01*
X154065765Y-42482429D01*
X154074030Y-42459329D01*
X154084520Y-42437151D01*
X154097133Y-42416107D01*
X154111747Y-42396402D01*
X154128223Y-42378223D01*
X154146402Y-42361747D01*
X154166107Y-42347133D01*
X154187151Y-42334520D01*
X154209329Y-42324030D01*
X154232429Y-42315765D01*
X154256227Y-42309804D01*
X154280496Y-42306204D01*
X154305000Y-42305000D01*
X155055000Y-42305000D01*
X155079504Y-42306204D01*
G37*
G04 #@! TD.AperFunction*
G04 #@! TA.AperFunction,SMDPad,CuDef*
G36*
X175659504Y-42306204D02*
G01*
X175683773Y-42309804D01*
X175707571Y-42315765D01*
X175730671Y-42324030D01*
X175752849Y-42334520D01*
X175773893Y-42347133D01*
X175793598Y-42361747D01*
X175811777Y-42378223D01*
X175828253Y-42396402D01*
X175842867Y-42416107D01*
X175855480Y-42437151D01*
X175865970Y-42459329D01*
X175874235Y-42482429D01*
X175880196Y-42506227D01*
X175883796Y-42530496D01*
X175885000Y-42555000D01*
X175885000Y-43805000D01*
X175883796Y-43829504D01*
X175880196Y-43853773D01*
X175874235Y-43877571D01*
X175865970Y-43900671D01*
X175855480Y-43922849D01*
X175842867Y-43943893D01*
X175828253Y-43963598D01*
X175811777Y-43981777D01*
X175793598Y-43998253D01*
X175773893Y-44012867D01*
X175752849Y-44025480D01*
X175730671Y-44035970D01*
X175707571Y-44044235D01*
X175683773Y-44050196D01*
X175659504Y-44053796D01*
X175635000Y-44055000D01*
X174885000Y-44055000D01*
X174860496Y-44053796D01*
X174836227Y-44050196D01*
X174812429Y-44044235D01*
X174789329Y-44035970D01*
X174767151Y-44025480D01*
X174746107Y-44012867D01*
X174726402Y-43998253D01*
X174708223Y-43981777D01*
X174691747Y-43963598D01*
X174677133Y-43943893D01*
X174664520Y-43922849D01*
X174654030Y-43900671D01*
X174645765Y-43877571D01*
X174639804Y-43853773D01*
X174636204Y-43829504D01*
X174635000Y-43805000D01*
X174635000Y-42555000D01*
X174636204Y-42530496D01*
X174639804Y-42506227D01*
X174645765Y-42482429D01*
X174654030Y-42459329D01*
X174664520Y-42437151D01*
X174677133Y-42416107D01*
X174691747Y-42396402D01*
X174708223Y-42378223D01*
X174726402Y-42361747D01*
X174746107Y-42347133D01*
X174767151Y-42334520D01*
X174789329Y-42324030D01*
X174812429Y-42315765D01*
X174836227Y-42309804D01*
X174860496Y-42306204D01*
X174885000Y-42305000D01*
X175635000Y-42305000D01*
X175659504Y-42306204D01*
G37*
G04 #@! TD.AperFunction*
G04 #@! TA.AperFunction,SMDPad,CuDef*
G36*
X172859504Y-42306204D02*
G01*
X172883773Y-42309804D01*
X172907571Y-42315765D01*
X172930671Y-42324030D01*
X172952849Y-42334520D01*
X172973893Y-42347133D01*
X172993598Y-42361747D01*
X173011777Y-42378223D01*
X173028253Y-42396402D01*
X173042867Y-42416107D01*
X173055480Y-42437151D01*
X173065970Y-42459329D01*
X173074235Y-42482429D01*
X173080196Y-42506227D01*
X173083796Y-42530496D01*
X173085000Y-42555000D01*
X173085000Y-43805000D01*
X173083796Y-43829504D01*
X173080196Y-43853773D01*
X173074235Y-43877571D01*
X173065970Y-43900671D01*
X173055480Y-43922849D01*
X173042867Y-43943893D01*
X173028253Y-43963598D01*
X173011777Y-43981777D01*
X172993598Y-43998253D01*
X172973893Y-44012867D01*
X172952849Y-44025480D01*
X172930671Y-44035970D01*
X172907571Y-44044235D01*
X172883773Y-44050196D01*
X172859504Y-44053796D01*
X172835000Y-44055000D01*
X172085000Y-44055000D01*
X172060496Y-44053796D01*
X172036227Y-44050196D01*
X172012429Y-44044235D01*
X171989329Y-44035970D01*
X171967151Y-44025480D01*
X171946107Y-44012867D01*
X171926402Y-43998253D01*
X171908223Y-43981777D01*
X171891747Y-43963598D01*
X171877133Y-43943893D01*
X171864520Y-43922849D01*
X171854030Y-43900671D01*
X171845765Y-43877571D01*
X171839804Y-43853773D01*
X171836204Y-43829504D01*
X171835000Y-43805000D01*
X171835000Y-42555000D01*
X171836204Y-42530496D01*
X171839804Y-42506227D01*
X171845765Y-42482429D01*
X171854030Y-42459329D01*
X171864520Y-42437151D01*
X171877133Y-42416107D01*
X171891747Y-42396402D01*
X171908223Y-42378223D01*
X171926402Y-42361747D01*
X171946107Y-42347133D01*
X171967151Y-42334520D01*
X171989329Y-42324030D01*
X172012429Y-42315765D01*
X172036227Y-42309804D01*
X172060496Y-42306204D01*
X172085000Y-42305000D01*
X172835000Y-42305000D01*
X172859504Y-42306204D01*
G37*
G04 #@! TD.AperFunction*
G04 #@! TA.AperFunction,SMDPad,CuDef*
G36*
X154199504Y-72786204D02*
G01*
X154223773Y-72789804D01*
X154247571Y-72795765D01*
X154270671Y-72804030D01*
X154292849Y-72814520D01*
X154313893Y-72827133D01*
X154333598Y-72841747D01*
X154351777Y-72858223D01*
X154368253Y-72876402D01*
X154382867Y-72896107D01*
X154395480Y-72917151D01*
X154405970Y-72939329D01*
X154414235Y-72962429D01*
X154420196Y-72986227D01*
X154423796Y-73010496D01*
X154425000Y-73035000D01*
X154425000Y-74285000D01*
X154423796Y-74309504D01*
X154420196Y-74333773D01*
X154414235Y-74357571D01*
X154405970Y-74380671D01*
X154395480Y-74402849D01*
X154382867Y-74423893D01*
X154368253Y-74443598D01*
X154351777Y-74461777D01*
X154333598Y-74478253D01*
X154313893Y-74492867D01*
X154292849Y-74505480D01*
X154270671Y-74515970D01*
X154247571Y-74524235D01*
X154223773Y-74530196D01*
X154199504Y-74533796D01*
X154175000Y-74535000D01*
X153425000Y-74535000D01*
X153400496Y-74533796D01*
X153376227Y-74530196D01*
X153352429Y-74524235D01*
X153329329Y-74515970D01*
X153307151Y-74505480D01*
X153286107Y-74492867D01*
X153266402Y-74478253D01*
X153248223Y-74461777D01*
X153231747Y-74443598D01*
X153217133Y-74423893D01*
X153204520Y-74402849D01*
X153194030Y-74380671D01*
X153185765Y-74357571D01*
X153179804Y-74333773D01*
X153176204Y-74309504D01*
X153175000Y-74285000D01*
X153175000Y-73035000D01*
X153176204Y-73010496D01*
X153179804Y-72986227D01*
X153185765Y-72962429D01*
X153194030Y-72939329D01*
X153204520Y-72917151D01*
X153217133Y-72896107D01*
X153231747Y-72876402D01*
X153248223Y-72858223D01*
X153266402Y-72841747D01*
X153286107Y-72827133D01*
X153307151Y-72814520D01*
X153329329Y-72804030D01*
X153352429Y-72795765D01*
X153376227Y-72789804D01*
X153400496Y-72786204D01*
X153425000Y-72785000D01*
X154175000Y-72785000D01*
X154199504Y-72786204D01*
G37*
G04 #@! TD.AperFunction*
G04 #@! TA.AperFunction,SMDPad,CuDef*
G36*
X151399504Y-72786204D02*
G01*
X151423773Y-72789804D01*
X151447571Y-72795765D01*
X151470671Y-72804030D01*
X151492849Y-72814520D01*
X151513893Y-72827133D01*
X151533598Y-72841747D01*
X151551777Y-72858223D01*
X151568253Y-72876402D01*
X151582867Y-72896107D01*
X151595480Y-72917151D01*
X151605970Y-72939329D01*
X151614235Y-72962429D01*
X151620196Y-72986227D01*
X151623796Y-73010496D01*
X151625000Y-73035000D01*
X151625000Y-74285000D01*
X151623796Y-74309504D01*
X151620196Y-74333773D01*
X151614235Y-74357571D01*
X151605970Y-74380671D01*
X151595480Y-74402849D01*
X151582867Y-74423893D01*
X151568253Y-74443598D01*
X151551777Y-74461777D01*
X151533598Y-74478253D01*
X151513893Y-74492867D01*
X151492849Y-74505480D01*
X151470671Y-74515970D01*
X151447571Y-74524235D01*
X151423773Y-74530196D01*
X151399504Y-74533796D01*
X151375000Y-74535000D01*
X150625000Y-74535000D01*
X150600496Y-74533796D01*
X150576227Y-74530196D01*
X150552429Y-74524235D01*
X150529329Y-74515970D01*
X150507151Y-74505480D01*
X150486107Y-74492867D01*
X150466402Y-74478253D01*
X150448223Y-74461777D01*
X150431747Y-74443598D01*
X150417133Y-74423893D01*
X150404520Y-74402849D01*
X150394030Y-74380671D01*
X150385765Y-74357571D01*
X150379804Y-74333773D01*
X150376204Y-74309504D01*
X150375000Y-74285000D01*
X150375000Y-73035000D01*
X150376204Y-73010496D01*
X150379804Y-72986227D01*
X150385765Y-72962429D01*
X150394030Y-72939329D01*
X150404520Y-72917151D01*
X150417133Y-72896107D01*
X150431747Y-72876402D01*
X150448223Y-72858223D01*
X150466402Y-72841747D01*
X150486107Y-72827133D01*
X150507151Y-72814520D01*
X150529329Y-72804030D01*
X150552429Y-72795765D01*
X150576227Y-72789804D01*
X150600496Y-72786204D01*
X150625000Y-72785000D01*
X151375000Y-72785000D01*
X151399504Y-72786204D01*
G37*
G04 #@! TD.AperFunction*
G04 #@! TA.AperFunction,SMDPad,CuDef*
G36*
X160419504Y-72786204D02*
G01*
X160443773Y-72789804D01*
X160467571Y-72795765D01*
X160490671Y-72804030D01*
X160512849Y-72814520D01*
X160533893Y-72827133D01*
X160553598Y-72841747D01*
X160571777Y-72858223D01*
X160588253Y-72876402D01*
X160602867Y-72896107D01*
X160615480Y-72917151D01*
X160625970Y-72939329D01*
X160634235Y-72962429D01*
X160640196Y-72986227D01*
X160643796Y-73010496D01*
X160645000Y-73035000D01*
X160645000Y-74285000D01*
X160643796Y-74309504D01*
X160640196Y-74333773D01*
X160634235Y-74357571D01*
X160625970Y-74380671D01*
X160615480Y-74402849D01*
X160602867Y-74423893D01*
X160588253Y-74443598D01*
X160571777Y-74461777D01*
X160553598Y-74478253D01*
X160533893Y-74492867D01*
X160512849Y-74505480D01*
X160490671Y-74515970D01*
X160467571Y-74524235D01*
X160443773Y-74530196D01*
X160419504Y-74533796D01*
X160395000Y-74535000D01*
X159645000Y-74535000D01*
X159620496Y-74533796D01*
X159596227Y-74530196D01*
X159572429Y-74524235D01*
X159549329Y-74515970D01*
X159527151Y-74505480D01*
X159506107Y-74492867D01*
X159486402Y-74478253D01*
X159468223Y-74461777D01*
X159451747Y-74443598D01*
X159437133Y-74423893D01*
X159424520Y-74402849D01*
X159414030Y-74380671D01*
X159405765Y-74357571D01*
X159399804Y-74333773D01*
X159396204Y-74309504D01*
X159395000Y-74285000D01*
X159395000Y-73035000D01*
X159396204Y-73010496D01*
X159399804Y-72986227D01*
X159405765Y-72962429D01*
X159414030Y-72939329D01*
X159424520Y-72917151D01*
X159437133Y-72896107D01*
X159451747Y-72876402D01*
X159468223Y-72858223D01*
X159486402Y-72841747D01*
X159506107Y-72827133D01*
X159527151Y-72814520D01*
X159549329Y-72804030D01*
X159572429Y-72795765D01*
X159596227Y-72789804D01*
X159620496Y-72786204D01*
X159645000Y-72785000D01*
X160395000Y-72785000D01*
X160419504Y-72786204D01*
G37*
G04 #@! TD.AperFunction*
G04 #@! TA.AperFunction,SMDPad,CuDef*
G36*
X157619504Y-72786204D02*
G01*
X157643773Y-72789804D01*
X157667571Y-72795765D01*
X157690671Y-72804030D01*
X157712849Y-72814520D01*
X157733893Y-72827133D01*
X157753598Y-72841747D01*
X157771777Y-72858223D01*
X157788253Y-72876402D01*
X157802867Y-72896107D01*
X157815480Y-72917151D01*
X157825970Y-72939329D01*
X157834235Y-72962429D01*
X157840196Y-72986227D01*
X157843796Y-73010496D01*
X157845000Y-73035000D01*
X157845000Y-74285000D01*
X157843796Y-74309504D01*
X157840196Y-74333773D01*
X157834235Y-74357571D01*
X157825970Y-74380671D01*
X157815480Y-74402849D01*
X157802867Y-74423893D01*
X157788253Y-74443598D01*
X157771777Y-74461777D01*
X157753598Y-74478253D01*
X157733893Y-74492867D01*
X157712849Y-74505480D01*
X157690671Y-74515970D01*
X157667571Y-74524235D01*
X157643773Y-74530196D01*
X157619504Y-74533796D01*
X157595000Y-74535000D01*
X156845000Y-74535000D01*
X156820496Y-74533796D01*
X156796227Y-74530196D01*
X156772429Y-74524235D01*
X156749329Y-74515970D01*
X156727151Y-74505480D01*
X156706107Y-74492867D01*
X156686402Y-74478253D01*
X156668223Y-74461777D01*
X156651747Y-74443598D01*
X156637133Y-74423893D01*
X156624520Y-74402849D01*
X156614030Y-74380671D01*
X156605765Y-74357571D01*
X156599804Y-74333773D01*
X156596204Y-74309504D01*
X156595000Y-74285000D01*
X156595000Y-73035000D01*
X156596204Y-73010496D01*
X156599804Y-72986227D01*
X156605765Y-72962429D01*
X156614030Y-72939329D01*
X156624520Y-72917151D01*
X156637133Y-72896107D01*
X156651747Y-72876402D01*
X156668223Y-72858223D01*
X156686402Y-72841747D01*
X156706107Y-72827133D01*
X156727151Y-72814520D01*
X156749329Y-72804030D01*
X156772429Y-72795765D01*
X156796227Y-72789804D01*
X156820496Y-72786204D01*
X156845000Y-72785000D01*
X157595000Y-72785000D01*
X157619504Y-72786204D01*
G37*
G04 #@! TD.AperFunction*
D19*
X154940000Y-44704000D03*
X172720000Y-45212000D03*
X181864000Y-69596000D03*
X151765000Y-67945000D03*
X138430000Y-68580000D03*
X139700000Y-68580000D03*
X127635000Y-69850000D03*
X135890000Y-70485000D03*
X135255000Y-69850000D03*
X114935000Y-67945000D03*
X114935000Y-66675000D03*
X114935000Y-64135000D03*
X116840000Y-70485000D03*
X115570000Y-69850000D03*
X114935000Y-65405000D03*
X117475000Y-50165000D03*
X118745000Y-50165000D03*
X120015000Y-50165000D03*
X121285000Y-50165000D03*
X122555000Y-50165000D03*
X123825000Y-50165000D03*
X125095000Y-50800000D03*
X126365000Y-52070000D03*
X126365000Y-50800000D03*
X125730000Y-50165000D03*
X127000000Y-52705000D03*
X127000000Y-51435000D03*
X127000000Y-50165000D03*
X118745000Y-48895000D03*
X120015000Y-48895000D03*
X120015000Y-47625000D03*
X118745000Y-47625000D03*
X118745000Y-46355000D03*
X120015000Y-46355000D03*
X123190000Y-46355000D03*
X124460000Y-46355000D03*
X125730000Y-46355000D03*
X127000000Y-46355000D03*
X123825000Y-45085000D03*
X123825000Y-43815000D03*
X123190000Y-43180000D03*
X121920000Y-42545000D03*
X120650000Y-43180000D03*
X120650000Y-44450000D03*
X124460000Y-42545000D03*
X125730000Y-42545000D03*
X130175000Y-42545000D03*
X131445000Y-42545000D03*
X132715000Y-42545000D03*
X123825000Y-57785000D03*
X124460000Y-58420000D03*
X119380000Y-59690000D03*
X119380000Y-60960000D03*
X123825000Y-62865000D03*
X123190000Y-63500000D03*
X124460000Y-64135000D03*
X125730000Y-64135000D03*
X127000000Y-64135000D03*
X127635000Y-64770000D03*
X127635000Y-62865000D03*
X121285000Y-67310000D03*
X121920000Y-67945000D03*
X123190000Y-67945000D03*
X121285000Y-71120000D03*
X121920000Y-71755000D03*
X123825000Y-73660000D03*
X125730000Y-76200000D03*
X124460000Y-76200000D03*
X123190000Y-76200000D03*
X121920000Y-76200000D03*
X120650000Y-76200000D03*
X119380000Y-76200000D03*
X118110000Y-76200000D03*
X117475000Y-75565000D03*
X120015000Y-75565000D03*
X128905000Y-75565000D03*
X131445000Y-76200000D03*
X132715000Y-76200000D03*
X132080000Y-76835000D03*
X133350000Y-76835000D03*
X134620000Y-76835000D03*
X137160000Y-76835000D03*
X137795000Y-76200000D03*
X140335000Y-73025000D03*
X139065000Y-70485000D03*
X138430000Y-69850000D03*
X137795000Y-69215000D03*
X137160000Y-68580000D03*
X129540000Y-72390000D03*
X126365000Y-68580000D03*
X127635000Y-68580000D03*
X128905000Y-68580000D03*
X140335000Y-70485000D03*
X141605000Y-70485000D03*
X140970000Y-69850000D03*
X140335000Y-69215000D03*
X145415000Y-71120000D03*
X144145000Y-71120000D03*
X142875000Y-71120000D03*
X140970000Y-65405000D03*
X135890000Y-64135000D03*
X137160000Y-64135000D03*
X136525000Y-64770000D03*
X135890000Y-65405000D03*
X137160000Y-65405000D03*
X148590000Y-66040000D03*
X148590000Y-67310000D03*
X148590000Y-71120000D03*
X149225000Y-71755000D03*
X149860000Y-72390000D03*
X150495000Y-71755000D03*
X151765000Y-71120000D03*
X153035000Y-71120000D03*
X154305000Y-71120000D03*
X155575000Y-71120000D03*
X156845000Y-71120000D03*
X158115000Y-71120000D03*
X159385000Y-71755000D03*
X157480000Y-71755000D03*
X156210000Y-71755000D03*
X154940000Y-71755000D03*
X153670000Y-71755000D03*
X152400000Y-71755000D03*
X155575000Y-76200000D03*
X156210000Y-75565000D03*
X157480000Y-75565000D03*
X158750000Y-75565000D03*
X160020000Y-75565000D03*
X161290000Y-75565000D03*
X161925000Y-74930000D03*
X161925000Y-73660000D03*
X161925000Y-72390000D03*
X160655000Y-71755000D03*
X152400000Y-62865000D03*
X151130000Y-62865000D03*
X152400000Y-61214000D03*
X152400000Y-59944000D03*
X152400000Y-58674000D03*
X152400000Y-57404000D03*
X152400000Y-56134000D03*
X152400000Y-54864000D03*
X152400000Y-53594000D03*
X144145000Y-58420000D03*
X144145000Y-57150000D03*
X144145000Y-55880000D03*
X144145000Y-54610000D03*
X151765000Y-51435000D03*
X152400000Y-52070000D03*
X141605000Y-61595000D03*
X140970000Y-60960000D03*
X137160000Y-56515000D03*
X142240000Y-60960000D03*
X142240000Y-59690000D03*
X142240000Y-58420000D03*
X142240000Y-57150000D03*
X142240000Y-55880000D03*
X142240000Y-54610000D03*
X142240000Y-53340000D03*
X142240000Y-52070000D03*
X142875000Y-51435000D03*
X142875000Y-50165000D03*
X141605000Y-50165000D03*
X140335000Y-50165000D03*
X139065000Y-50165000D03*
X139065000Y-51308000D03*
X139065000Y-52578000D03*
X139065000Y-53848000D03*
X139065000Y-55118000D03*
X139065000Y-56388000D03*
X128905000Y-50165000D03*
X128905000Y-51435000D03*
X128905000Y-52705000D03*
X128905000Y-53975000D03*
X130175000Y-54610000D03*
X130810000Y-55880000D03*
X132715000Y-56515000D03*
X133350000Y-55245000D03*
X135890000Y-54610000D03*
X135255000Y-55245000D03*
X132715000Y-48260000D03*
X155575000Y-52705000D03*
X155575000Y-53975000D03*
X155575000Y-55245000D03*
X155575000Y-56515000D03*
X156845000Y-56515000D03*
X158115000Y-56515000D03*
X159385000Y-56515000D03*
X160655000Y-56515000D03*
X161925000Y-56515000D03*
X163830000Y-55245000D03*
X150495000Y-48895000D03*
X148590000Y-48260000D03*
X150495000Y-47625000D03*
X147955000Y-46990000D03*
X137795000Y-48260000D03*
X137160000Y-47625000D03*
X136525000Y-46990000D03*
X135890000Y-46355000D03*
X134620000Y-46355000D03*
X133350000Y-46355000D03*
X128270000Y-46355000D03*
X129540000Y-45720000D03*
X162814000Y-64262000D03*
X162052000Y-64262000D03*
X161798000Y-65024000D03*
X161798000Y-65786000D03*
X161798000Y-66548000D03*
X161798000Y-67310000D03*
X162560000Y-67310000D03*
X162814000Y-66548000D03*
X163322000Y-65786000D03*
X166116000Y-65532000D03*
X166116000Y-61214000D03*
X165608000Y-61976000D03*
X165608000Y-62992000D03*
X161544000Y-71120000D03*
X162560000Y-71120000D03*
X163576000Y-71120000D03*
X164592000Y-71120000D03*
X165608000Y-71120000D03*
X166624000Y-71120000D03*
X167640000Y-71120000D03*
X168656000Y-71120000D03*
X169672000Y-71120000D03*
X170688000Y-71120000D03*
X171704000Y-71628000D03*
X172720000Y-71628000D03*
X173736000Y-71120000D03*
X174752000Y-71120000D03*
X175768000Y-71120000D03*
X176784000Y-71120000D03*
X177800000Y-71120000D03*
X178816000Y-71120000D03*
X179832000Y-71120000D03*
X180848000Y-70612000D03*
X182880000Y-68580000D03*
X183896000Y-68072000D03*
X184912000Y-68072000D03*
X185928000Y-68072000D03*
X186944000Y-68072000D03*
X187960000Y-68072000D03*
X188976000Y-68072000D03*
X189992000Y-68072000D03*
X191008000Y-67564000D03*
X191008000Y-66548000D03*
X191008000Y-65532000D03*
X189992000Y-65024000D03*
X188976000Y-65024000D03*
X187960000Y-65024000D03*
X186944000Y-65024000D03*
X186944000Y-64008000D03*
X186944000Y-62992000D03*
X191008000Y-59436000D03*
X192024000Y-58420000D03*
X192024000Y-57404000D03*
X192024000Y-56388000D03*
X192024000Y-55372000D03*
X192024000Y-54356000D03*
X192024000Y-53340000D03*
X192024000Y-52324000D03*
X191008000Y-51308000D03*
X183388000Y-64516000D03*
X183388000Y-63500000D03*
X183388000Y-62484000D03*
X183388000Y-61468000D03*
X183388000Y-60452000D03*
X182372000Y-64516000D03*
X181356000Y-64516000D03*
X180340000Y-64516000D03*
X179324000Y-65024000D03*
X177292000Y-63500000D03*
X177292000Y-62484000D03*
X177292000Y-61468000D03*
X177292000Y-60452000D03*
X178308000Y-59944000D03*
X178308000Y-60960000D03*
X178308000Y-61976000D03*
X179324000Y-62992000D03*
X180340000Y-63500000D03*
X181356000Y-63500000D03*
X182372000Y-63500000D03*
X174244000Y-65024000D03*
X174244000Y-66040000D03*
X175768000Y-65024000D03*
X174244000Y-67056000D03*
X174244000Y-68072000D03*
X175260000Y-68072000D03*
X182372000Y-53848000D03*
X182372000Y-52832000D03*
X183388000Y-52832000D03*
X180848000Y-52832000D03*
X180848000Y-53848000D03*
X180340000Y-54864000D03*
X179324000Y-54864000D03*
X178308000Y-54864000D03*
X176784000Y-53340000D03*
X177800000Y-52324000D03*
X178816000Y-52324000D03*
X179832000Y-52324000D03*
X174752000Y-54356000D03*
X173736000Y-54356000D03*
X172720000Y-54356000D03*
X171704000Y-54356000D03*
X189992000Y-50292000D03*
X188976000Y-49784000D03*
X187960000Y-49784000D03*
X186944000Y-49784000D03*
X185928000Y-49784000D03*
X184912000Y-49784000D03*
X183896000Y-49784000D03*
X183896000Y-48768000D03*
X183896000Y-47752000D03*
X183388000Y-46736000D03*
X182372000Y-46228000D03*
X181356000Y-46228000D03*
X180340000Y-46228000D03*
X179832000Y-49784000D03*
X179324000Y-45212000D03*
X178308000Y-44704000D03*
X177292000Y-45212000D03*
X176276000Y-46228000D03*
X171704000Y-48768000D03*
X171704000Y-47752000D03*
X173736000Y-48768000D03*
X173736000Y-47752000D03*
X173736000Y-46736000D03*
X173736000Y-45720000D03*
X173736000Y-44704000D03*
X176276000Y-45212000D03*
X176784000Y-44196000D03*
X176784000Y-43180000D03*
X176784000Y-42164000D03*
X171704000Y-45212000D03*
X170688000Y-44196000D03*
X170688000Y-43180000D03*
X170688000Y-42164000D03*
X168148000Y-50292000D03*
X140335000Y-75565000D03*
X165608000Y-56388000D03*
X165608000Y-55372000D03*
X165608000Y-54356000D03*
X165608000Y-53340000D03*
X164592000Y-52324000D03*
X165608000Y-52324000D03*
X166624000Y-52324000D03*
X167640000Y-52324000D03*
X169164000Y-54356000D03*
X168148000Y-54864000D03*
X164084000Y-50292000D03*
X165100000Y-50292000D03*
X166116000Y-50292000D03*
X167132000Y-50292000D03*
X165608000Y-49276000D03*
X165608000Y-48260000D03*
X165608000Y-47244000D03*
X168148000Y-49276000D03*
X168148000Y-48260000D03*
X168148000Y-47244000D03*
X169164000Y-46228000D03*
X170180000Y-46228000D03*
X171196000Y-46228000D03*
X168148000Y-46228000D03*
X165608000Y-46228000D03*
X164592000Y-46228000D03*
X163576000Y-46228000D03*
X158496000Y-45212000D03*
X159004000Y-44196000D03*
X159004000Y-43180000D03*
X155956000Y-43180000D03*
X155956000Y-44704000D03*
X155956000Y-45720000D03*
X155956000Y-46736000D03*
X155448000Y-47752000D03*
X154432000Y-48768000D03*
X154432000Y-47752000D03*
X154432000Y-46736000D03*
X150876000Y-46736000D03*
X151892000Y-46228000D03*
X152908000Y-46228000D03*
X152908000Y-43180000D03*
X152908000Y-44196000D03*
X153924000Y-44704000D03*
X141224000Y-42164000D03*
X141224000Y-43180000D03*
X141224000Y-44196000D03*
X141224000Y-45212000D03*
X141224000Y-46228000D03*
X142240000Y-46736000D03*
X143256000Y-46736000D03*
X144272000Y-46736000D03*
X145288000Y-46228000D03*
X146304000Y-46228000D03*
X147320000Y-46228000D03*
X138176000Y-42164000D03*
X138176000Y-43180000D03*
X138176000Y-44196000D03*
X138176000Y-45212000D03*
X138176000Y-46228000D03*
X123063000Y-66675000D03*
X121539000Y-58166000D03*
X121539000Y-54610000D03*
X189484000Y-66421000D03*
X187198000Y-66421000D03*
X184912000Y-66421000D03*
X182626000Y-66421000D03*
X185420000Y-52721000D03*
X185420000Y-56404000D03*
X159893000Y-73660000D03*
X156464000Y-73660000D03*
X153670000Y-73660000D03*
X130556000Y-68707000D03*
X135699500Y-68834000D03*
X150050500Y-73660000D03*
X170307000Y-68023500D03*
X170370500Y-55118000D03*
X172466000Y-43180000D03*
X154686000Y-43180000D03*
X129417653Y-55499000D03*
X128142994Y-63754000D03*
X119126000Y-44958000D03*
X143173943Y-67272973D03*
X142621000Y-62738000D03*
X136779000Y-43307000D03*
X190246000Y-56324500D03*
X188595000Y-51398000D03*
X152527000Y-64389000D03*
X144653000Y-64467500D03*
X145717500Y-64467500D03*
X133985000Y-56515000D03*
X138212016Y-61341000D03*
X176276000Y-54837500D03*
X176784000Y-59690000D03*
X164589735Y-61119151D03*
X164592000Y-56388000D03*
X126032500Y-70231000D03*
D20*
X189484000Y-66421000D02*
X182626000Y-66421000D01*
X185420000Y-65913000D02*
X184912000Y-66421000D01*
X185420000Y-52721000D02*
X185420000Y-65913000D01*
D21*
X121539000Y-55175685D02*
X121539000Y-54610000D01*
X121539000Y-62371002D02*
X121539000Y-55175685D01*
X119189500Y-73660000D02*
X119140001Y-73610501D01*
X119140001Y-64770001D02*
X121539000Y-62371002D01*
X119140001Y-73610501D02*
X119140001Y-64770001D01*
X119380000Y-73660000D02*
X119189500Y-73660000D01*
D20*
X182226001Y-66820999D02*
X182626000Y-66421000D01*
X179673499Y-69373501D02*
X182226001Y-66820999D01*
X143276469Y-69373501D02*
X179673499Y-69373501D01*
X140577968Y-66675000D02*
X143276469Y-69373501D01*
X123063000Y-66675000D02*
X140577968Y-66675000D01*
X121158001Y-64770001D02*
X123063000Y-66675000D01*
X119140001Y-64770001D02*
X121158001Y-64770001D01*
D22*
X156464000Y-73660000D02*
X157220000Y-73660000D01*
X135572500Y-68707000D02*
X135699500Y-68834000D01*
X130556000Y-68707000D02*
X135572500Y-68707000D01*
X150050500Y-73660000D02*
X151000000Y-73660000D01*
D23*
X175260000Y-44055000D02*
X175260000Y-48260000D01*
X175260000Y-43180000D02*
X175260000Y-44055000D01*
D22*
X170307000Y-55181500D02*
X170370500Y-55118000D01*
X170307000Y-68023500D02*
X170307000Y-55181500D01*
D23*
X157480000Y-43180000D02*
X157480000Y-48260000D01*
X121920000Y-44831000D02*
X121920000Y-48260000D01*
D22*
X129417653Y-55499000D02*
X129417653Y-62479341D01*
X129417653Y-62479341D02*
X128142994Y-63754000D01*
D23*
X139700000Y-44055000D02*
X139700000Y-48260000D01*
X139700000Y-43180000D02*
X139700000Y-44055000D01*
D22*
X143192500Y-63309500D02*
X143192500Y-67254416D01*
X143192500Y-67254416D02*
X143173943Y-67272973D01*
X142621000Y-62738000D02*
X142621000Y-62738000D01*
X142621000Y-62738000D02*
X143192500Y-63309500D01*
X171493000Y-50673000D02*
X170180000Y-49360000D01*
X170180000Y-49360000D02*
X170180000Y-48260000D01*
X190246000Y-51943000D02*
X188976000Y-50673000D01*
X188976000Y-50673000D02*
X171493000Y-50673000D01*
X190246000Y-56324500D02*
X190246000Y-51943000D01*
X152400000Y-49360000D02*
X152400000Y-48260000D01*
X154438000Y-51398000D02*
X152400000Y-49360000D01*
X188595000Y-51398000D02*
X154438000Y-51398000D01*
D20*
X152448500Y-64467500D02*
X144653000Y-64467500D01*
X152527000Y-64389000D02*
X152448500Y-64467500D01*
D22*
X133985000Y-56515000D02*
X138212016Y-60742016D01*
X138212016Y-60742016D02*
X138212016Y-61341000D01*
X176276000Y-59182000D02*
X176784000Y-59690000D01*
X176276000Y-54837500D02*
X176276000Y-59182000D01*
X164589735Y-61119151D02*
X164589735Y-56390265D01*
X164589735Y-56390265D02*
X164592000Y-56388000D01*
X134385382Y-72874999D02*
X134195000Y-73065381D01*
X134195000Y-73065381D02*
X134195000Y-73525000D01*
X135045000Y-72634619D02*
X134804620Y-72874999D01*
X134804620Y-72874999D02*
X134385382Y-72874999D01*
X135045000Y-72175000D02*
X135045000Y-72634619D01*
X128100000Y-73660000D02*
X127000000Y-73660000D01*
X129028010Y-74588010D02*
X128100000Y-73660000D01*
X134195000Y-73984619D02*
X133591609Y-74588010D01*
X133591609Y-74588010D02*
X129028010Y-74588010D01*
X134195000Y-73525000D02*
X134195000Y-73984619D01*
X135045000Y-73984619D02*
X135045000Y-73525000D01*
X135648391Y-74588010D02*
X135045000Y-73984619D01*
X140211990Y-74588010D02*
X135648391Y-74588010D01*
X141140000Y-73660000D02*
X140211990Y-74588010D01*
X142240000Y-73660000D02*
X141140000Y-73660000D01*
D23*
X136745000Y-72175000D02*
X136745000Y-73525000D01*
X132495000Y-72175000D02*
X132495000Y-73525000D01*
X132495000Y-71715381D02*
X132495000Y-72175000D01*
X132810382Y-71399999D02*
X132495000Y-71715381D01*
X136745000Y-71877998D02*
X136267001Y-71399999D01*
X136267001Y-71399999D02*
X132810382Y-71399999D01*
X136745000Y-72175000D02*
X136745000Y-71877998D01*
X126047500Y-70231000D02*
X126032500Y-70231000D01*
X127063500Y-71247000D02*
X126047500Y-70231000D01*
X132026619Y-71247000D02*
X127063500Y-71247000D01*
X132495000Y-71715381D02*
X132026619Y-71247000D01*
D24*
G36*
X135786595Y-42061614D02*
G01*
X135704528Y-42215150D01*
X135653992Y-42381746D01*
X135636928Y-42555000D01*
X135636928Y-43805000D01*
X135653992Y-43978254D01*
X135704528Y-44144850D01*
X135786595Y-44298386D01*
X135897038Y-44432962D01*
X136031614Y-44543405D01*
X136185150Y-44625472D01*
X136351746Y-44676008D01*
X136525000Y-44693072D01*
X137275000Y-44693072D01*
X137448254Y-44676008D01*
X137614850Y-44625472D01*
X137768386Y-44543405D01*
X137902962Y-44432962D01*
X138013405Y-44298386D01*
X138095472Y-44144850D01*
X138146008Y-43978254D01*
X138163072Y-43805000D01*
X138163072Y-42555000D01*
X138146008Y-42381746D01*
X138095472Y-42215150D01*
X138013405Y-42061614D01*
X137924836Y-41953692D01*
X138675164Y-41953692D01*
X138586595Y-42061614D01*
X138504528Y-42215150D01*
X138453992Y-42381746D01*
X138436928Y-42555000D01*
X138436928Y-43805000D01*
X138453992Y-43978254D01*
X138504528Y-44144850D01*
X138586595Y-44298386D01*
X138697038Y-44432962D01*
X138815000Y-44529770D01*
X138815001Y-46775375D01*
X138725518Y-46784188D01*
X138605820Y-46820498D01*
X138495506Y-46879463D01*
X138398815Y-46958815D01*
X138319463Y-47055506D01*
X138260498Y-47165820D01*
X138224188Y-47285518D01*
X138211928Y-47410000D01*
X138211928Y-49110000D01*
X138224188Y-49234482D01*
X138260498Y-49354180D01*
X138319463Y-49464494D01*
X138398815Y-49561185D01*
X138495506Y-49640537D01*
X138605820Y-49699502D01*
X138725518Y-49735812D01*
X138850000Y-49748072D01*
X140550000Y-49748072D01*
X140674482Y-49735812D01*
X140794180Y-49699502D01*
X140904494Y-49640537D01*
X141001185Y-49561185D01*
X141080537Y-49464494D01*
X141139502Y-49354180D01*
X141175812Y-49234482D01*
X141188072Y-49110000D01*
X141188072Y-47410000D01*
X141175812Y-47285518D01*
X141168072Y-47260000D01*
X144411928Y-47260000D01*
X144411928Y-49260000D01*
X144424188Y-49384482D01*
X144460498Y-49504180D01*
X144519463Y-49614494D01*
X144598815Y-49711185D01*
X144695506Y-49790537D01*
X144805820Y-49849502D01*
X144925518Y-49885812D01*
X145050000Y-49898072D01*
X147050000Y-49898072D01*
X147174482Y-49885812D01*
X147294180Y-49849502D01*
X147404494Y-49790537D01*
X147501185Y-49711185D01*
X147580537Y-49614494D01*
X147639502Y-49504180D01*
X147675812Y-49384482D01*
X147688072Y-49260000D01*
X147688072Y-47260000D01*
X147675812Y-47135518D01*
X147639502Y-47015820D01*
X147580537Y-46905506D01*
X147501185Y-46808815D01*
X147404494Y-46729463D01*
X147294180Y-46670498D01*
X147174482Y-46634188D01*
X147050000Y-46621928D01*
X145050000Y-46621928D01*
X144925518Y-46634188D01*
X144805820Y-46670498D01*
X144695506Y-46729463D01*
X144598815Y-46808815D01*
X144519463Y-46905506D01*
X144460498Y-47015820D01*
X144424188Y-47135518D01*
X144411928Y-47260000D01*
X141168072Y-47260000D01*
X141139502Y-47165820D01*
X141080537Y-47055506D01*
X141001185Y-46958815D01*
X140904494Y-46879463D01*
X140794180Y-46820498D01*
X140674482Y-46784188D01*
X140585000Y-46775375D01*
X140585000Y-44529770D01*
X140702962Y-44432962D01*
X140813405Y-44298386D01*
X140895472Y-44144850D01*
X140946008Y-43978254D01*
X140963072Y-43805000D01*
X140963072Y-42555000D01*
X140946008Y-42381746D01*
X140895472Y-42215150D01*
X140813405Y-42061614D01*
X140724836Y-41953692D01*
X153655164Y-41953692D01*
X153566595Y-42061614D01*
X153484528Y-42215150D01*
X153433992Y-42381746D01*
X153416928Y-42555000D01*
X153416928Y-43805000D01*
X153433992Y-43978254D01*
X153484528Y-44144850D01*
X153566595Y-44298386D01*
X153677038Y-44432962D01*
X153811614Y-44543405D01*
X153965150Y-44625472D01*
X154131746Y-44676008D01*
X154305000Y-44693072D01*
X155055000Y-44693072D01*
X155228254Y-44676008D01*
X155394850Y-44625472D01*
X155548386Y-44543405D01*
X155682962Y-44432962D01*
X155793405Y-44298386D01*
X155875472Y-44144850D01*
X155926008Y-43978254D01*
X155943072Y-43805000D01*
X155943072Y-42555000D01*
X155926008Y-42381746D01*
X155875472Y-42215150D01*
X155793405Y-42061614D01*
X155704836Y-41953692D01*
X156455164Y-41953692D01*
X156366595Y-42061614D01*
X156284528Y-42215150D01*
X156233992Y-42381746D01*
X156216928Y-42555000D01*
X156216928Y-43805000D01*
X156233992Y-43978254D01*
X156284528Y-44144850D01*
X156366595Y-44298386D01*
X156477038Y-44432962D01*
X156595000Y-44529771D01*
X156595001Y-46775375D01*
X156505518Y-46784188D01*
X156385820Y-46820498D01*
X156275506Y-46879463D01*
X156178815Y-46958815D01*
X156099463Y-47055506D01*
X156040498Y-47165820D01*
X156004188Y-47285518D01*
X155991928Y-47410000D01*
X155991928Y-49110000D01*
X156004188Y-49234482D01*
X156040498Y-49354180D01*
X156099463Y-49464494D01*
X156178815Y-49561185D01*
X156275506Y-49640537D01*
X156385820Y-49699502D01*
X156505518Y-49735812D01*
X156630000Y-49748072D01*
X158330000Y-49748072D01*
X158454482Y-49735812D01*
X158574180Y-49699502D01*
X158684494Y-49640537D01*
X158781185Y-49561185D01*
X158860537Y-49464494D01*
X158919502Y-49354180D01*
X158955812Y-49234482D01*
X158968072Y-49110000D01*
X158968072Y-47410000D01*
X158955812Y-47285518D01*
X158948072Y-47260000D01*
X162191928Y-47260000D01*
X162191928Y-49260000D01*
X162204188Y-49384482D01*
X162240498Y-49504180D01*
X162299463Y-49614494D01*
X162378815Y-49711185D01*
X162475506Y-49790537D01*
X162585820Y-49849502D01*
X162705518Y-49885812D01*
X162830000Y-49898072D01*
X164830000Y-49898072D01*
X164954482Y-49885812D01*
X165074180Y-49849502D01*
X165184494Y-49790537D01*
X165281185Y-49711185D01*
X165360537Y-49614494D01*
X165419502Y-49504180D01*
X165455812Y-49384482D01*
X165468072Y-49260000D01*
X165468072Y-47260000D01*
X165455812Y-47135518D01*
X165419502Y-47015820D01*
X165360537Y-46905506D01*
X165281185Y-46808815D01*
X165184494Y-46729463D01*
X165074180Y-46670498D01*
X164954482Y-46634188D01*
X164830000Y-46621928D01*
X162830000Y-46621928D01*
X162705518Y-46634188D01*
X162585820Y-46670498D01*
X162475506Y-46729463D01*
X162378815Y-46808815D01*
X162299463Y-46905506D01*
X162240498Y-47015820D01*
X162204188Y-47135518D01*
X162191928Y-47260000D01*
X158948072Y-47260000D01*
X158919502Y-47165820D01*
X158860537Y-47055506D01*
X158781185Y-46958815D01*
X158684494Y-46879463D01*
X158574180Y-46820498D01*
X158454482Y-46784188D01*
X158365000Y-46775375D01*
X158365000Y-44529770D01*
X158482962Y-44432962D01*
X158593405Y-44298386D01*
X158675472Y-44144850D01*
X158726008Y-43978254D01*
X158743072Y-43805000D01*
X158743072Y-42555000D01*
X158726008Y-42381746D01*
X158675472Y-42215150D01*
X158593405Y-42061614D01*
X158504836Y-41953692D01*
X171435164Y-41953692D01*
X171346595Y-42061614D01*
X171264528Y-42215150D01*
X171213992Y-42381746D01*
X171196928Y-42555000D01*
X171196928Y-43805000D01*
X171213992Y-43978254D01*
X171264528Y-44144850D01*
X171346595Y-44298386D01*
X171457038Y-44432962D01*
X171591614Y-44543405D01*
X171745150Y-44625472D01*
X171911746Y-44676008D01*
X172085000Y-44693072D01*
X172835000Y-44693072D01*
X173008254Y-44676008D01*
X173174850Y-44625472D01*
X173328386Y-44543405D01*
X173462962Y-44432962D01*
X173573405Y-44298386D01*
X173655472Y-44144850D01*
X173706008Y-43978254D01*
X173723072Y-43805000D01*
X173723072Y-42555000D01*
X173706008Y-42381746D01*
X173655472Y-42215150D01*
X173573405Y-42061614D01*
X173484836Y-41953692D01*
X174235164Y-41953692D01*
X174146595Y-42061614D01*
X174064528Y-42215150D01*
X174013992Y-42381746D01*
X173996928Y-42555000D01*
X173996928Y-43805000D01*
X174013992Y-43978254D01*
X174064528Y-44144850D01*
X174146595Y-44298386D01*
X174257038Y-44432962D01*
X174375000Y-44529770D01*
X174375001Y-46775375D01*
X174285518Y-46784188D01*
X174165820Y-46820498D01*
X174055506Y-46879463D01*
X173958815Y-46958815D01*
X173879463Y-47055506D01*
X173820498Y-47165820D01*
X173784188Y-47285518D01*
X173771928Y-47410000D01*
X173771928Y-49110000D01*
X173784188Y-49234482D01*
X173820498Y-49354180D01*
X173879463Y-49464494D01*
X173958815Y-49561185D01*
X174055506Y-49640537D01*
X174165820Y-49699502D01*
X174285518Y-49735812D01*
X174410000Y-49748072D01*
X176110000Y-49748072D01*
X176234482Y-49735812D01*
X176354180Y-49699502D01*
X176464494Y-49640537D01*
X176561185Y-49561185D01*
X176640537Y-49464494D01*
X176699502Y-49354180D01*
X176735812Y-49234482D01*
X176748072Y-49110000D01*
X176748072Y-47410000D01*
X176735812Y-47285518D01*
X176728072Y-47260000D01*
X179971928Y-47260000D01*
X179971928Y-49260000D01*
X179984188Y-49384482D01*
X180020498Y-49504180D01*
X180079463Y-49614494D01*
X180158815Y-49711185D01*
X180255506Y-49790537D01*
X180365820Y-49849502D01*
X180485518Y-49885812D01*
X180610000Y-49898072D01*
X182610000Y-49898072D01*
X182734482Y-49885812D01*
X182854180Y-49849502D01*
X182964494Y-49790537D01*
X183061185Y-49711185D01*
X183140537Y-49614494D01*
X183199502Y-49504180D01*
X183235812Y-49384482D01*
X183248072Y-49260000D01*
X183248072Y-47260000D01*
X183235812Y-47135518D01*
X183199502Y-47015820D01*
X183140537Y-46905506D01*
X183061185Y-46808815D01*
X182964494Y-46729463D01*
X182854180Y-46670498D01*
X182734482Y-46634188D01*
X182610000Y-46621928D01*
X180610000Y-46621928D01*
X180485518Y-46634188D01*
X180365820Y-46670498D01*
X180255506Y-46729463D01*
X180158815Y-46808815D01*
X180079463Y-46905506D01*
X180020498Y-47015820D01*
X179984188Y-47135518D01*
X179971928Y-47260000D01*
X176728072Y-47260000D01*
X176699502Y-47165820D01*
X176640537Y-47055506D01*
X176561185Y-46958815D01*
X176464494Y-46879463D01*
X176354180Y-46820498D01*
X176234482Y-46784188D01*
X176145000Y-46775375D01*
X176145000Y-44529770D01*
X176262962Y-44432962D01*
X176373405Y-44298386D01*
X176455472Y-44144850D01*
X176506008Y-43978254D01*
X176523072Y-43805000D01*
X176523072Y-42555000D01*
X176506008Y-42381746D01*
X176455472Y-42215150D01*
X176373405Y-42061614D01*
X176284836Y-41953692D01*
X182612414Y-41953692D01*
X183231247Y-42014369D01*
X183795465Y-42184716D01*
X184315848Y-42461410D01*
X184796982Y-42853813D01*
X195535756Y-53592588D01*
X195930435Y-54073078D01*
X196208943Y-54592492D01*
X196381257Y-55156107D01*
X196447356Y-55806842D01*
X196448195Y-55811005D01*
X196448082Y-55821831D01*
X196448950Y-55831005D01*
X196521589Y-56546122D01*
X196533415Y-56604772D01*
X196544416Y-56663558D01*
X196547049Y-56672389D01*
X196757204Y-57359777D01*
X196780195Y-57415008D01*
X196802407Y-57470544D01*
X196806705Y-57478696D01*
X197146373Y-58112173D01*
X197179639Y-58161864D01*
X197212229Y-58212050D01*
X197218029Y-58219211D01*
X197674270Y-58774648D01*
X198089435Y-59280078D01*
X198367943Y-59799492D01*
X198540257Y-60363107D01*
X198599816Y-60949458D01*
X198544352Y-61536210D01*
X198375975Y-62101017D01*
X198101104Y-62622358D01*
X197710606Y-63104584D01*
X197707713Y-63107486D01*
X197689808Y-63129360D01*
X197669609Y-63149140D01*
X197663736Y-63156241D01*
X197209436Y-63713268D01*
X197176366Y-63763043D01*
X197142536Y-63812449D01*
X197138154Y-63820556D01*
X196800700Y-64455215D01*
X196777920Y-64510483D01*
X196754339Y-64565501D01*
X196751614Y-64574304D01*
X196543859Y-65262422D01*
X196532239Y-65321110D01*
X196519803Y-65379613D01*
X196518840Y-65388778D01*
X196448698Y-66104142D01*
X196448698Y-66104143D01*
X196384871Y-66755101D01*
X196214523Y-67319320D01*
X195937833Y-67839700D01*
X195545432Y-68320831D01*
X188398755Y-75467509D01*
X187918265Y-75862188D01*
X187398851Y-76140696D01*
X186835236Y-76313010D01*
X186217541Y-76375753D01*
X143858581Y-76375755D01*
X143831694Y-76378403D01*
X143820621Y-76378287D01*
X143811447Y-76379155D01*
X143096330Y-76451794D01*
X143037687Y-76463618D01*
X142978893Y-76474621D01*
X142970064Y-76477253D01*
X142970058Y-76477255D01*
X142282674Y-76687409D01*
X142227493Y-76710379D01*
X142171907Y-76732611D01*
X142163756Y-76736909D01*
X141530278Y-77076576D01*
X141480584Y-77109843D01*
X141430400Y-77142433D01*
X141423239Y-77148233D01*
X140867801Y-77604475D01*
X140867791Y-77604485D01*
X140362371Y-78019642D01*
X139842957Y-78298150D01*
X139279343Y-78470464D01*
X138661656Y-78533207D01*
X130589830Y-78533207D01*
X129970996Y-78472530D01*
X129406780Y-78302183D01*
X128886398Y-78025490D01*
X128384038Y-77615776D01*
X128368409Y-77599815D01*
X128361308Y-77593942D01*
X127804281Y-77139642D01*
X127754506Y-77106572D01*
X127705100Y-77072742D01*
X127696993Y-77068360D01*
X127062334Y-76730906D01*
X127007066Y-76708126D01*
X126952048Y-76684545D01*
X126943245Y-76681820D01*
X126255127Y-76474065D01*
X126196439Y-76462445D01*
X126137936Y-76450009D01*
X126128771Y-76449046D01*
X125413404Y-76378904D01*
X125413402Y-76378904D01*
X125381419Y-76375754D01*
X118593935Y-76375754D01*
X117975101Y-76315077D01*
X117410885Y-76144730D01*
X116890503Y-75868037D01*
X116409378Y-75475641D01*
X116081809Y-75148072D01*
X117690000Y-75148072D01*
X117814482Y-75135812D01*
X117934180Y-75099502D01*
X117957202Y-75087196D01*
X118137183Y-75234903D01*
X118464652Y-75409939D01*
X118819976Y-75517725D01*
X119096903Y-75545000D01*
X119096913Y-75545000D01*
X119189499Y-75554119D01*
X119282086Y-75545000D01*
X119472597Y-75545000D01*
X119749524Y-75517725D01*
X120104848Y-75409939D01*
X120432317Y-75234903D01*
X120719345Y-74999345D01*
X120917629Y-74757736D01*
X120973368Y-74813475D01*
X121216589Y-74975990D01*
X121486842Y-75087932D01*
X121773740Y-75145000D01*
X122066260Y-75145000D01*
X122353158Y-75087932D01*
X122623411Y-74975990D01*
X122866632Y-74813475D01*
X123073475Y-74606632D01*
X123235990Y-74363411D01*
X123347932Y-74093158D01*
X123405000Y-73806260D01*
X123405000Y-73513740D01*
X123347932Y-73226842D01*
X123235990Y-72956589D01*
X123073475Y-72713368D01*
X122866632Y-72506525D01*
X122623411Y-72344010D01*
X122353158Y-72232068D01*
X122066260Y-72175000D01*
X121773740Y-72175000D01*
X121486842Y-72232068D01*
X121216589Y-72344010D01*
X121025001Y-72472025D01*
X121025001Y-70129061D01*
X124997500Y-70129061D01*
X124997500Y-70332939D01*
X125037274Y-70532898D01*
X125115295Y-70721256D01*
X125228563Y-70890774D01*
X125372726Y-71034937D01*
X125542244Y-71148205D01*
X125730602Y-71226226D01*
X125806181Y-71241260D01*
X126406970Y-71842049D01*
X126434683Y-71875817D01*
X126468451Y-71903530D01*
X126468453Y-71903532D01*
X126476409Y-71910061D01*
X126569441Y-71986411D01*
X126723187Y-72068589D01*
X126808992Y-72094618D01*
X126890009Y-72119195D01*
X126904806Y-72120652D01*
X127020023Y-72132000D01*
X127020031Y-72132000D01*
X127063500Y-72136281D01*
X127106969Y-72132000D01*
X131535000Y-72132000D01*
X131535000Y-72269552D01*
X131571892Y-72455022D01*
X131610000Y-72547023D01*
X131610001Y-73152976D01*
X131571892Y-73244978D01*
X131535000Y-73430448D01*
X131535000Y-73619552D01*
X131571892Y-73805022D01*
X131581414Y-73828010D01*
X129342812Y-73828010D01*
X128663803Y-73149002D01*
X128640001Y-73119999D01*
X128524276Y-73025026D01*
X128488072Y-73005674D01*
X128488072Y-72810000D01*
X128475812Y-72685518D01*
X128439502Y-72565820D01*
X128380537Y-72455506D01*
X128301185Y-72358815D01*
X128204494Y-72279463D01*
X128094180Y-72220498D01*
X127974482Y-72184188D01*
X127850000Y-72171928D01*
X126150000Y-72171928D01*
X126025518Y-72184188D01*
X125905820Y-72220498D01*
X125795506Y-72279463D01*
X125698815Y-72358815D01*
X125619463Y-72455506D01*
X125560498Y-72565820D01*
X125524188Y-72685518D01*
X125511928Y-72810000D01*
X125511928Y-74510000D01*
X125524188Y-74634482D01*
X125560498Y-74754180D01*
X125619463Y-74864494D01*
X125698815Y-74961185D01*
X125795506Y-75040537D01*
X125905820Y-75099502D01*
X126025518Y-75135812D01*
X126150000Y-75148072D01*
X127850000Y-75148072D01*
X127974482Y-75135812D01*
X128094180Y-75099502D01*
X128204494Y-75040537D01*
X128301185Y-74961185D01*
X128312543Y-74947345D01*
X128464211Y-75099013D01*
X128488009Y-75128011D01*
X128603734Y-75222984D01*
X128735763Y-75293556D01*
X128879024Y-75337013D01*
X128990677Y-75348010D01*
X128990686Y-75348010D01*
X129028009Y-75351686D01*
X129065332Y-75348010D01*
X133554287Y-75348010D01*
X133591609Y-75351686D01*
X133628931Y-75348010D01*
X133628942Y-75348010D01*
X133740595Y-75337013D01*
X133883856Y-75293556D01*
X134015885Y-75222984D01*
X134131610Y-75128011D01*
X134155412Y-75099008D01*
X134620000Y-74634421D01*
X135084591Y-75099012D01*
X135108390Y-75128011D01*
X135224115Y-75222984D01*
X135356144Y-75293556D01*
X135499405Y-75337013D01*
X135611058Y-75348010D01*
X135611066Y-75348010D01*
X135648391Y-75351686D01*
X135685716Y-75348010D01*
X140174668Y-75348010D01*
X140211990Y-75351686D01*
X140249312Y-75348010D01*
X140249323Y-75348010D01*
X140360976Y-75337013D01*
X140504237Y-75293556D01*
X140636266Y-75222984D01*
X140751991Y-75128011D01*
X140775793Y-75099008D01*
X140927457Y-74947345D01*
X140938815Y-74961185D01*
X141035506Y-75040537D01*
X141145820Y-75099502D01*
X141265518Y-75135812D01*
X141390000Y-75148072D01*
X143090000Y-75148072D01*
X143214482Y-75135812D01*
X143334180Y-75099502D01*
X143444494Y-75040537D01*
X143541185Y-74961185D01*
X143620537Y-74864494D01*
X143679502Y-74754180D01*
X143715812Y-74634482D01*
X143728072Y-74510000D01*
X143728072Y-72810000D01*
X145831928Y-72810000D01*
X145831928Y-74510000D01*
X145844188Y-74634482D01*
X145880498Y-74754180D01*
X145939463Y-74864494D01*
X146018815Y-74961185D01*
X146115506Y-75040537D01*
X146225820Y-75099502D01*
X146345518Y-75135812D01*
X146470000Y-75148072D01*
X148170000Y-75148072D01*
X148294482Y-75135812D01*
X148414180Y-75099502D01*
X148524494Y-75040537D01*
X148621185Y-74961185D01*
X148700537Y-74864494D01*
X148759502Y-74754180D01*
X148795812Y-74634482D01*
X148808072Y-74510000D01*
X148808072Y-73558061D01*
X149015500Y-73558061D01*
X149015500Y-73761939D01*
X149055274Y-73961898D01*
X149133295Y-74150256D01*
X149246563Y-74319774D01*
X149390726Y-74463937D01*
X149560244Y-74577205D01*
X149748602Y-74655226D01*
X149829349Y-74671288D01*
X149886595Y-74778386D01*
X149997038Y-74912962D01*
X150131614Y-75023405D01*
X150285150Y-75105472D01*
X150451746Y-75156008D01*
X150625000Y-75173072D01*
X151375000Y-75173072D01*
X151548254Y-75156008D01*
X151714850Y-75105472D01*
X151868386Y-75023405D01*
X152002962Y-74912962D01*
X152113405Y-74778386D01*
X152195472Y-74624850D01*
X152246008Y-74458254D01*
X152263072Y-74285000D01*
X152263072Y-73035000D01*
X152536928Y-73035000D01*
X152536928Y-74285000D01*
X152553992Y-74458254D01*
X152604528Y-74624850D01*
X152686595Y-74778386D01*
X152797038Y-74912962D01*
X152931614Y-75023405D01*
X153085150Y-75105472D01*
X153251746Y-75156008D01*
X153425000Y-75173072D01*
X154175000Y-75173072D01*
X154348254Y-75156008D01*
X154514850Y-75105472D01*
X154668386Y-75023405D01*
X154802962Y-74912962D01*
X154913405Y-74778386D01*
X154995472Y-74624850D01*
X155046008Y-74458254D01*
X155063072Y-74285000D01*
X155063072Y-73558061D01*
X155429000Y-73558061D01*
X155429000Y-73761939D01*
X155468774Y-73961898D01*
X155546795Y-74150256D01*
X155660063Y-74319774D01*
X155804226Y-74463937D01*
X155973744Y-74577205D01*
X156015296Y-74594417D01*
X156024528Y-74624850D01*
X156106595Y-74778386D01*
X156217038Y-74912962D01*
X156351614Y-75023405D01*
X156505150Y-75105472D01*
X156671746Y-75156008D01*
X156845000Y-75173072D01*
X157595000Y-75173072D01*
X157768254Y-75156008D01*
X157934850Y-75105472D01*
X158088386Y-75023405D01*
X158222962Y-74912962D01*
X158333405Y-74778386D01*
X158415472Y-74624850D01*
X158466008Y-74458254D01*
X158483072Y-74285000D01*
X158483072Y-73035000D01*
X158756928Y-73035000D01*
X158756928Y-74285000D01*
X158773992Y-74458254D01*
X158824528Y-74624850D01*
X158906595Y-74778386D01*
X159017038Y-74912962D01*
X159151614Y-75023405D01*
X159305150Y-75105472D01*
X159471746Y-75156008D01*
X159645000Y-75173072D01*
X160395000Y-75173072D01*
X160568254Y-75156008D01*
X160734850Y-75105472D01*
X160888386Y-75023405D01*
X161022962Y-74912962D01*
X161133405Y-74778386D01*
X161215472Y-74624850D01*
X161266008Y-74458254D01*
X161283072Y-74285000D01*
X161283072Y-73035000D01*
X161266008Y-72861746D01*
X161215472Y-72695150D01*
X161133405Y-72541614D01*
X161022962Y-72407038D01*
X160888386Y-72296595D01*
X160734850Y-72214528D01*
X160568254Y-72163992D01*
X160395000Y-72146928D01*
X159645000Y-72146928D01*
X159471746Y-72163992D01*
X159305150Y-72214528D01*
X159151614Y-72296595D01*
X159017038Y-72407038D01*
X158906595Y-72541614D01*
X158824528Y-72695150D01*
X158773992Y-72861746D01*
X158756928Y-73035000D01*
X158483072Y-73035000D01*
X158466008Y-72861746D01*
X158415472Y-72695150D01*
X158333405Y-72541614D01*
X158222962Y-72407038D01*
X158088386Y-72296595D01*
X157934850Y-72214528D01*
X157768254Y-72163992D01*
X157595000Y-72146928D01*
X156845000Y-72146928D01*
X156671746Y-72163992D01*
X156505150Y-72214528D01*
X156351614Y-72296595D01*
X156217038Y-72407038D01*
X156106595Y-72541614D01*
X156024528Y-72695150D01*
X156015296Y-72725583D01*
X155973744Y-72742795D01*
X155804226Y-72856063D01*
X155660063Y-73000226D01*
X155546795Y-73169744D01*
X155468774Y-73358102D01*
X155429000Y-73558061D01*
X155063072Y-73558061D01*
X155063072Y-73035000D01*
X155046008Y-72861746D01*
X154995472Y-72695150D01*
X154913405Y-72541614D01*
X154802962Y-72407038D01*
X154668386Y-72296595D01*
X154514850Y-72214528D01*
X154348254Y-72163992D01*
X154175000Y-72146928D01*
X153425000Y-72146928D01*
X153251746Y-72163992D01*
X153085150Y-72214528D01*
X152931614Y-72296595D01*
X152797038Y-72407038D01*
X152686595Y-72541614D01*
X152604528Y-72695150D01*
X152553992Y-72861746D01*
X152536928Y-73035000D01*
X152263072Y-73035000D01*
X152246008Y-72861746D01*
X152195472Y-72695150D01*
X152113405Y-72541614D01*
X152002962Y-72407038D01*
X151868386Y-72296595D01*
X151714850Y-72214528D01*
X151548254Y-72163992D01*
X151375000Y-72146928D01*
X150625000Y-72146928D01*
X150451746Y-72163992D01*
X150285150Y-72214528D01*
X150131614Y-72296595D01*
X149997038Y-72407038D01*
X149886595Y-72541614D01*
X149829349Y-72648712D01*
X149748602Y-72664774D01*
X149560244Y-72742795D01*
X149390726Y-72856063D01*
X149246563Y-73000226D01*
X149133295Y-73169744D01*
X149055274Y-73358102D01*
X149015500Y-73558061D01*
X148808072Y-73558061D01*
X148808072Y-72810000D01*
X148795812Y-72685518D01*
X148759502Y-72565820D01*
X148700537Y-72455506D01*
X148621185Y-72358815D01*
X148524494Y-72279463D01*
X148414180Y-72220498D01*
X148294482Y-72184188D01*
X148170000Y-72171928D01*
X146470000Y-72171928D01*
X146345518Y-72184188D01*
X146225820Y-72220498D01*
X146115506Y-72279463D01*
X146018815Y-72358815D01*
X145939463Y-72455506D01*
X145880498Y-72565820D01*
X145844188Y-72685518D01*
X145831928Y-72810000D01*
X143728072Y-72810000D01*
X143715812Y-72685518D01*
X143679502Y-72565820D01*
X143620537Y-72455506D01*
X143541185Y-72358815D01*
X143444494Y-72279463D01*
X143334180Y-72220498D01*
X143214482Y-72184188D01*
X143090000Y-72171928D01*
X141390000Y-72171928D01*
X141265518Y-72184188D01*
X141145820Y-72220498D01*
X141035506Y-72279463D01*
X140938815Y-72358815D01*
X140859463Y-72455506D01*
X140800498Y-72565820D01*
X140764188Y-72685518D01*
X140751928Y-72810000D01*
X140751928Y-73005674D01*
X140715724Y-73025026D01*
X140599999Y-73119999D01*
X140576201Y-73148997D01*
X139897189Y-73828010D01*
X137658586Y-73828010D01*
X137668108Y-73805022D01*
X137705000Y-73619552D01*
X137705000Y-73430448D01*
X137668108Y-73244978D01*
X137630000Y-73152977D01*
X137630000Y-72547023D01*
X137668108Y-72455022D01*
X137705000Y-72269552D01*
X137705000Y-72080448D01*
X137668108Y-71894978D01*
X137625924Y-71793137D01*
X137617195Y-71704509D01*
X137607305Y-71671905D01*
X137566589Y-71537684D01*
X137506891Y-71425997D01*
X137484411Y-71383939D01*
X137373817Y-71249181D01*
X137340044Y-71221464D01*
X136923535Y-70804955D01*
X136895818Y-70771182D01*
X136761060Y-70660588D01*
X136607314Y-70578410D01*
X136440491Y-70527804D01*
X136310478Y-70514999D01*
X136310470Y-70514999D01*
X136267001Y-70510718D01*
X136223532Y-70514999D01*
X132853851Y-70514999D01*
X132810382Y-70510718D01*
X132766913Y-70514999D01*
X132766905Y-70514999D01*
X132636892Y-70527804D01*
X132570026Y-70548088D01*
X132520678Y-70507589D01*
X132366932Y-70425411D01*
X132200109Y-70374805D01*
X132070096Y-70362000D01*
X132070088Y-70362000D01*
X132026619Y-70357719D01*
X131983150Y-70362000D01*
X127430079Y-70362000D01*
X127035310Y-69967232D01*
X127027726Y-69929102D01*
X126949705Y-69740744D01*
X126836437Y-69571226D01*
X126692274Y-69427063D01*
X126522756Y-69313795D01*
X126334398Y-69235774D01*
X126134439Y-69196000D01*
X125930561Y-69196000D01*
X125730602Y-69235774D01*
X125542244Y-69313795D01*
X125372726Y-69427063D01*
X125228563Y-69571226D01*
X125115295Y-69740744D01*
X125037274Y-69929102D01*
X124997500Y-70129061D01*
X121025001Y-70129061D01*
X121025001Y-66595686D01*
X122035550Y-67606236D01*
X122078919Y-67659081D01*
X122131764Y-67702450D01*
X122131766Y-67702452D01*
X122211687Y-67768041D01*
X122289812Y-67832157D01*
X122530419Y-67960764D01*
X122791493Y-68039960D01*
X122994963Y-68060000D01*
X122994972Y-68060000D01*
X123062999Y-68066700D01*
X123131026Y-68060000D01*
X129743528Y-68060000D01*
X129638795Y-68216744D01*
X129560774Y-68405102D01*
X129521000Y-68605061D01*
X129521000Y-68808939D01*
X129560774Y-69008898D01*
X129638795Y-69197256D01*
X129752063Y-69366774D01*
X129896226Y-69510937D01*
X130065744Y-69624205D01*
X130254102Y-69702226D01*
X130454061Y-69742000D01*
X130657939Y-69742000D01*
X130857898Y-69702226D01*
X131046256Y-69624205D01*
X131215774Y-69510937D01*
X131259711Y-69467000D01*
X134877673Y-69467000D01*
X134895563Y-69493774D01*
X135039726Y-69637937D01*
X135209244Y-69751205D01*
X135397602Y-69829226D01*
X135597561Y-69869000D01*
X135801439Y-69869000D01*
X136001398Y-69829226D01*
X136189756Y-69751205D01*
X136359274Y-69637937D01*
X136503437Y-69493774D01*
X136616705Y-69324256D01*
X136694726Y-69135898D01*
X136734500Y-68935939D01*
X136734500Y-68732061D01*
X136694726Y-68532102D01*
X136616705Y-68343744D01*
X136503437Y-68174226D01*
X136389211Y-68060000D01*
X140004283Y-68060000D01*
X142249019Y-70304737D01*
X142292388Y-70357582D01*
X142345233Y-70400951D01*
X142345235Y-70400953D01*
X142499803Y-70527804D01*
X142503281Y-70530658D01*
X142743888Y-70659265D01*
X143004962Y-70738461D01*
X143208432Y-70758501D01*
X143208440Y-70758501D01*
X143276469Y-70765201D01*
X143344498Y-70758501D01*
X179605470Y-70758501D01*
X179673499Y-70765201D01*
X179741528Y-70758501D01*
X179741536Y-70758501D01*
X179945006Y-70738461D01*
X180206080Y-70659265D01*
X180446687Y-70530658D01*
X180657580Y-70357582D01*
X180700953Y-70304732D01*
X183199686Y-67806000D01*
X184843971Y-67806000D01*
X184912000Y-67812700D01*
X184980029Y-67806000D01*
X189552037Y-67806000D01*
X189755507Y-67785960D01*
X190016581Y-67706764D01*
X190257188Y-67578157D01*
X190468081Y-67405081D01*
X190641157Y-67194188D01*
X190769764Y-66953581D01*
X190848960Y-66692507D01*
X190875701Y-66421000D01*
X190848960Y-66149493D01*
X190769764Y-65888419D01*
X190641157Y-65647812D01*
X190468081Y-65436919D01*
X190257188Y-65263843D01*
X190016581Y-65135236D01*
X189755507Y-65056040D01*
X189552037Y-65036000D01*
X186805000Y-65036000D01*
X186805000Y-60739872D01*
X193345000Y-60739872D01*
X193345000Y-61180128D01*
X193430890Y-61611925D01*
X193599369Y-62018669D01*
X193843962Y-62384729D01*
X194155271Y-62696038D01*
X194521331Y-62940631D01*
X194928075Y-63109110D01*
X195359872Y-63195000D01*
X195800128Y-63195000D01*
X196231925Y-63109110D01*
X196638669Y-62940631D01*
X197004729Y-62696038D01*
X197316038Y-62384729D01*
X197560631Y-62018669D01*
X197729110Y-61611925D01*
X197815000Y-61180128D01*
X197815000Y-60739872D01*
X197729110Y-60308075D01*
X197560631Y-59901331D01*
X197316038Y-59535271D01*
X197004729Y-59223962D01*
X196638669Y-58979369D01*
X196231925Y-58810890D01*
X195800128Y-58725000D01*
X195359872Y-58725000D01*
X194928075Y-58810890D01*
X194521331Y-58979369D01*
X194155271Y-59223962D01*
X193843962Y-59535271D01*
X193599369Y-59901331D01*
X193430890Y-60308075D01*
X193345000Y-60739872D01*
X186805000Y-60739872D01*
X186805000Y-52652963D01*
X186784960Y-52449493D01*
X186705764Y-52188419D01*
X186689505Y-52158000D01*
X187891289Y-52158000D01*
X187935226Y-52201937D01*
X188104744Y-52315205D01*
X188293102Y-52393226D01*
X188493061Y-52433000D01*
X188696939Y-52433000D01*
X188896898Y-52393226D01*
X189085256Y-52315205D01*
X189254774Y-52201937D01*
X189342455Y-52114256D01*
X189486001Y-52257803D01*
X189486000Y-55620789D01*
X189442063Y-55664726D01*
X189328795Y-55834244D01*
X189250774Y-56022602D01*
X189211000Y-56222561D01*
X189211000Y-56426439D01*
X189250774Y-56626398D01*
X189328795Y-56814756D01*
X189442063Y-56984274D01*
X189586226Y-57128437D01*
X189755744Y-57241705D01*
X189944102Y-57319726D01*
X190144061Y-57359500D01*
X190347939Y-57359500D01*
X190547898Y-57319726D01*
X190736256Y-57241705D01*
X190905774Y-57128437D01*
X191049937Y-56984274D01*
X191163205Y-56814756D01*
X191241226Y-56626398D01*
X191281000Y-56426439D01*
X191281000Y-56222561D01*
X191241226Y-56022602D01*
X191163205Y-55834244D01*
X191049937Y-55664726D01*
X191006000Y-55620789D01*
X191006000Y-51980322D01*
X191009676Y-51942999D01*
X191006000Y-51905676D01*
X191006000Y-51905667D01*
X190995003Y-51794014D01*
X190951546Y-51650753D01*
X190880974Y-51518724D01*
X190786001Y-51402999D01*
X190757003Y-51379201D01*
X189539804Y-50162003D01*
X189516001Y-50132999D01*
X189400276Y-50038026D01*
X189268247Y-49967454D01*
X189124986Y-49923997D01*
X189013333Y-49913000D01*
X189013322Y-49913000D01*
X188976000Y-49909324D01*
X188938678Y-49913000D01*
X171807803Y-49913000D01*
X171467345Y-49572543D01*
X171481185Y-49561185D01*
X171560537Y-49464494D01*
X171619502Y-49354180D01*
X171655812Y-49234482D01*
X171668072Y-49110000D01*
X171668072Y-47410000D01*
X171655812Y-47285518D01*
X171619502Y-47165820D01*
X171560537Y-47055506D01*
X171481185Y-46958815D01*
X171384494Y-46879463D01*
X171274180Y-46820498D01*
X171154482Y-46784188D01*
X171030000Y-46771928D01*
X169330000Y-46771928D01*
X169205518Y-46784188D01*
X169085820Y-46820498D01*
X168975506Y-46879463D01*
X168878815Y-46958815D01*
X168799463Y-47055506D01*
X168740498Y-47165820D01*
X168704188Y-47285518D01*
X168691928Y-47410000D01*
X168691928Y-49110000D01*
X168704188Y-49234482D01*
X168740498Y-49354180D01*
X168799463Y-49464494D01*
X168878815Y-49561185D01*
X168975506Y-49640537D01*
X169085820Y-49699502D01*
X169205518Y-49735812D01*
X169330000Y-49748072D01*
X169525674Y-49748072D01*
X169545026Y-49784276D01*
X169584871Y-49832826D01*
X169639999Y-49900001D01*
X169669002Y-49923803D01*
X170383198Y-50638000D01*
X154752802Y-50638000D01*
X153687345Y-49572543D01*
X153701185Y-49561185D01*
X153780537Y-49464494D01*
X153839502Y-49354180D01*
X153875812Y-49234482D01*
X153888072Y-49110000D01*
X153888072Y-47410000D01*
X153875812Y-47285518D01*
X153839502Y-47165820D01*
X153780537Y-47055506D01*
X153701185Y-46958815D01*
X153604494Y-46879463D01*
X153494180Y-46820498D01*
X153374482Y-46784188D01*
X153250000Y-46771928D01*
X151550000Y-46771928D01*
X151425518Y-46784188D01*
X151305820Y-46820498D01*
X151195506Y-46879463D01*
X151098815Y-46958815D01*
X151019463Y-47055506D01*
X150960498Y-47165820D01*
X150924188Y-47285518D01*
X150911928Y-47410000D01*
X150911928Y-49110000D01*
X150924188Y-49234482D01*
X150960498Y-49354180D01*
X151019463Y-49464494D01*
X151098815Y-49561185D01*
X151195506Y-49640537D01*
X151305820Y-49699502D01*
X151425518Y-49735812D01*
X151550000Y-49748072D01*
X151745674Y-49748072D01*
X151765026Y-49784276D01*
X151804871Y-49832826D01*
X151859999Y-49900001D01*
X151889003Y-49923804D01*
X153874201Y-51909003D01*
X153897999Y-51938001D01*
X154013724Y-52032974D01*
X154145753Y-52103546D01*
X154289014Y-52147003D01*
X154400667Y-52158000D01*
X154400676Y-52158000D01*
X154437999Y-52161676D01*
X154475322Y-52158000D01*
X184150496Y-52158000D01*
X184134236Y-52188420D01*
X184055040Y-52449494D01*
X184035000Y-52652964D01*
X184035001Y-65036000D01*
X182694028Y-65036000D01*
X182625999Y-65029300D01*
X182557970Y-65036000D01*
X182557963Y-65036000D01*
X182380099Y-65053518D01*
X182354492Y-65056040D01*
X182265542Y-65083023D01*
X182093419Y-65135236D01*
X181852812Y-65263843D01*
X181641919Y-65436919D01*
X181598548Y-65489767D01*
X181294773Y-65793542D01*
X181294767Y-65793547D01*
X179099814Y-67988501D01*
X171342000Y-67988501D01*
X171342000Y-67921561D01*
X171302226Y-67721602D01*
X171224205Y-67533244D01*
X171110937Y-67363726D01*
X171067000Y-67319789D01*
X171067000Y-60866872D01*
X178860000Y-60866872D01*
X178860000Y-61307128D01*
X178945890Y-61738925D01*
X179114369Y-62145669D01*
X179358962Y-62511729D01*
X179670271Y-62823038D01*
X180036331Y-63067631D01*
X180443075Y-63236110D01*
X180874872Y-63322000D01*
X181315128Y-63322000D01*
X181746925Y-63236110D01*
X182153669Y-63067631D01*
X182519729Y-62823038D01*
X182831038Y-62511729D01*
X183075631Y-62145669D01*
X183244110Y-61738925D01*
X183330000Y-61307128D01*
X183330000Y-60866872D01*
X183244110Y-60435075D01*
X183075631Y-60028331D01*
X182831038Y-59662271D01*
X182519729Y-59350962D01*
X182153669Y-59106369D01*
X181746925Y-58937890D01*
X181315128Y-58852000D01*
X180874872Y-58852000D01*
X180443075Y-58937890D01*
X180036331Y-59106369D01*
X179670271Y-59350962D01*
X179358962Y-59662271D01*
X179114369Y-60028331D01*
X178945890Y-60435075D01*
X178860000Y-60866872D01*
X171067000Y-60866872D01*
X171067000Y-55885211D01*
X171174437Y-55777774D01*
X171287705Y-55608256D01*
X171365726Y-55419898D01*
X171405500Y-55219939D01*
X171405500Y-55016061D01*
X171365726Y-54816102D01*
X171332365Y-54735561D01*
X175241000Y-54735561D01*
X175241000Y-54939439D01*
X175280774Y-55139398D01*
X175358795Y-55327756D01*
X175472063Y-55497274D01*
X175516000Y-55541211D01*
X175516001Y-59144668D01*
X175512324Y-59182000D01*
X175516001Y-59219333D01*
X175526998Y-59330986D01*
X175531939Y-59347273D01*
X175570454Y-59474246D01*
X175641026Y-59606276D01*
X175712201Y-59693002D01*
X175736000Y-59722001D01*
X175749000Y-59732670D01*
X175749000Y-59791939D01*
X175788774Y-59991898D01*
X175866795Y-60180256D01*
X175980063Y-60349774D01*
X176124226Y-60493937D01*
X176293744Y-60607205D01*
X176482102Y-60685226D01*
X176682061Y-60725000D01*
X176885939Y-60725000D01*
X177085898Y-60685226D01*
X177274256Y-60607205D01*
X177443774Y-60493937D01*
X177587937Y-60349774D01*
X177701205Y-60180256D01*
X177779226Y-59991898D01*
X177819000Y-59791939D01*
X177819000Y-59588061D01*
X177779226Y-59388102D01*
X177701205Y-59199744D01*
X177587937Y-59030226D01*
X177443774Y-58886063D01*
X177274256Y-58772795D01*
X177085898Y-58694774D01*
X177036000Y-58684849D01*
X177036000Y-55541211D01*
X177079937Y-55497274D01*
X177193205Y-55327756D01*
X177271226Y-55139398D01*
X177311000Y-54939439D01*
X177311000Y-54735561D01*
X177271226Y-54535602D01*
X177193205Y-54347244D01*
X177079937Y-54177726D01*
X176935774Y-54033563D01*
X176766256Y-53920295D01*
X176577898Y-53842274D01*
X176377939Y-53802500D01*
X176174061Y-53802500D01*
X175974102Y-53842274D01*
X175785744Y-53920295D01*
X175616226Y-54033563D01*
X175472063Y-54177726D01*
X175358795Y-54347244D01*
X175280774Y-54535602D01*
X175241000Y-54735561D01*
X171332365Y-54735561D01*
X171287705Y-54627744D01*
X171174437Y-54458226D01*
X171030274Y-54314063D01*
X170860756Y-54200795D01*
X170672398Y-54122774D01*
X170472439Y-54083000D01*
X170268561Y-54083000D01*
X170068602Y-54122774D01*
X169880244Y-54200795D01*
X169710726Y-54314063D01*
X169566563Y-54458226D01*
X169453295Y-54627744D01*
X169375274Y-54816102D01*
X169335500Y-55016061D01*
X169335500Y-55219939D01*
X169375274Y-55419898D01*
X169453295Y-55608256D01*
X169547001Y-55748497D01*
X169547000Y-67319789D01*
X169503063Y-67363726D01*
X169389795Y-67533244D01*
X169311774Y-67721602D01*
X169272000Y-67921561D01*
X169272000Y-67988501D01*
X143922126Y-67988501D01*
X143977880Y-67932747D01*
X144091148Y-67763229D01*
X144169169Y-67574871D01*
X144208943Y-67374912D01*
X144208943Y-67171034D01*
X144169169Y-66971075D01*
X144091148Y-66782717D01*
X143977880Y-66613199D01*
X143952500Y-66587819D01*
X143952500Y-65663510D01*
X144120419Y-65753264D01*
X144381493Y-65832460D01*
X144584963Y-65852500D01*
X152380471Y-65852500D01*
X152448500Y-65859200D01*
X152516529Y-65852500D01*
X152516537Y-65852500D01*
X152720007Y-65832460D01*
X152981081Y-65753264D01*
X153221688Y-65624657D01*
X153432581Y-65451581D01*
X153475954Y-65398731D01*
X153554452Y-65320233D01*
X153684157Y-65162187D01*
X153812764Y-64921580D01*
X153891960Y-64660506D01*
X153918700Y-64389000D01*
X153891960Y-64117493D01*
X153812764Y-63856420D01*
X153684157Y-63615812D01*
X153511081Y-63404919D01*
X153300188Y-63231843D01*
X153059580Y-63103236D01*
X152798507Y-63024040D01*
X152527000Y-62997300D01*
X152255494Y-63024040D01*
X152062777Y-63082500D01*
X144584963Y-63082500D01*
X144381493Y-63102540D01*
X144120419Y-63181736D01*
X143952437Y-63271524D01*
X143941503Y-63160514D01*
X143898046Y-63017253D01*
X143883663Y-62990344D01*
X143827474Y-62885223D01*
X143756299Y-62798497D01*
X143732501Y-62769499D01*
X143703504Y-62745702D01*
X143656000Y-62698198D01*
X143656000Y-62636061D01*
X143616226Y-62436102D01*
X143538205Y-62247744D01*
X143424937Y-62078226D01*
X143280774Y-61934063D01*
X143111256Y-61820795D01*
X142922898Y-61742774D01*
X142722939Y-61703000D01*
X142519061Y-61703000D01*
X142319102Y-61742774D01*
X142130744Y-61820795D01*
X141961226Y-61934063D01*
X141817063Y-62078226D01*
X141703795Y-62247744D01*
X141625774Y-62436102D01*
X141586000Y-62636061D01*
X141586000Y-62839939D01*
X141625774Y-63039898D01*
X141703795Y-63228256D01*
X141817063Y-63397774D01*
X141961226Y-63541937D01*
X142130744Y-63655205D01*
X142319102Y-63733226D01*
X142432500Y-63755782D01*
X142432501Y-66550704D01*
X142422429Y-66560776D01*
X141605422Y-65743769D01*
X141562049Y-65690919D01*
X141351156Y-65517843D01*
X141110549Y-65389236D01*
X140849475Y-65310040D01*
X140646005Y-65290000D01*
X140645997Y-65290000D01*
X140577968Y-65283300D01*
X140509939Y-65290000D01*
X123636686Y-65290000D01*
X122461240Y-64114555D01*
X122806423Y-63769372D01*
X122878345Y-63710347D01*
X122926179Y-63652061D01*
X127107994Y-63652061D01*
X127107994Y-63855939D01*
X127147768Y-64055898D01*
X127225789Y-64244256D01*
X127339057Y-64413774D01*
X127483220Y-64557937D01*
X127652738Y-64671205D01*
X127841096Y-64749226D01*
X128041055Y-64789000D01*
X128244933Y-64789000D01*
X128444892Y-64749226D01*
X128633250Y-64671205D01*
X128802768Y-64557937D01*
X128946931Y-64413774D01*
X129060199Y-64244256D01*
X129138220Y-64055898D01*
X129177994Y-63855939D01*
X129177994Y-63793801D01*
X129928656Y-63043140D01*
X129957654Y-63019342D01*
X129989571Y-62980451D01*
X130052627Y-62903618D01*
X130123199Y-62771588D01*
X130132622Y-62740525D01*
X130166656Y-62628327D01*
X130177653Y-62516674D01*
X130177653Y-62516665D01*
X130181329Y-62479342D01*
X130177653Y-62442019D01*
X130177653Y-56413061D01*
X132950000Y-56413061D01*
X132950000Y-56616939D01*
X132989774Y-56816898D01*
X133067795Y-57005256D01*
X133181063Y-57174774D01*
X133325226Y-57318937D01*
X133494744Y-57432205D01*
X133683102Y-57510226D01*
X133883061Y-57550000D01*
X133945199Y-57550000D01*
X137280498Y-60885299D01*
X137216790Y-61039102D01*
X137177016Y-61239061D01*
X137177016Y-61442939D01*
X137216790Y-61642898D01*
X137294811Y-61831256D01*
X137408079Y-62000774D01*
X137552242Y-62144937D01*
X137721760Y-62258205D01*
X137910118Y-62336226D01*
X138110077Y-62376000D01*
X138313955Y-62376000D01*
X138513914Y-62336226D01*
X138702272Y-62258205D01*
X138871790Y-62144937D01*
X139015953Y-62000774D01*
X139129221Y-61831256D01*
X139207242Y-61642898D01*
X139247016Y-61442939D01*
X139247016Y-61239061D01*
X139207242Y-61039102D01*
X139198175Y-61017212D01*
X163554735Y-61017212D01*
X163554735Y-61221090D01*
X163594509Y-61421049D01*
X163672530Y-61609407D01*
X163785798Y-61778925D01*
X163929961Y-61923088D01*
X164099479Y-62036356D01*
X164287837Y-62114377D01*
X164487796Y-62154151D01*
X164691674Y-62154151D01*
X164891633Y-62114377D01*
X165079991Y-62036356D01*
X165249509Y-61923088D01*
X165393672Y-61778925D01*
X165506940Y-61609407D01*
X165584961Y-61421049D01*
X165624735Y-61221090D01*
X165624735Y-61017212D01*
X165584961Y-60817253D01*
X165506940Y-60628895D01*
X165393672Y-60459377D01*
X165349735Y-60415440D01*
X165349735Y-57093976D01*
X165395937Y-57047774D01*
X165509205Y-56878256D01*
X165587226Y-56689898D01*
X165627000Y-56489939D01*
X165627000Y-56286061D01*
X165587226Y-56086102D01*
X165509205Y-55897744D01*
X165395937Y-55728226D01*
X165251774Y-55584063D01*
X165082256Y-55470795D01*
X164893898Y-55392774D01*
X164693939Y-55353000D01*
X164490061Y-55353000D01*
X164290102Y-55392774D01*
X164101744Y-55470795D01*
X163932226Y-55584063D01*
X163788063Y-55728226D01*
X163674795Y-55897744D01*
X163596774Y-56086102D01*
X163557000Y-56286061D01*
X163557000Y-56489939D01*
X163596774Y-56689898D01*
X163674795Y-56878256D01*
X163788063Y-57047774D01*
X163829736Y-57089447D01*
X163829735Y-60415440D01*
X163785798Y-60459377D01*
X163672530Y-60628895D01*
X163594509Y-60817253D01*
X163554735Y-61017212D01*
X139198175Y-61017212D01*
X139129221Y-60850744D01*
X139015953Y-60681226D01*
X138964653Y-60629926D01*
X138961019Y-60593030D01*
X138917562Y-60449769D01*
X138846990Y-60317740D01*
X138752017Y-60202015D01*
X138723020Y-60178218D01*
X135020000Y-56475199D01*
X135020000Y-56413061D01*
X134980226Y-56213102D01*
X134902205Y-56024744D01*
X134788937Y-55855226D01*
X134644774Y-55711063D01*
X134475256Y-55597795D01*
X134286898Y-55519774D01*
X134086939Y-55480000D01*
X133883061Y-55480000D01*
X133683102Y-55519774D01*
X133494744Y-55597795D01*
X133325226Y-55711063D01*
X133181063Y-55855226D01*
X133067795Y-56024744D01*
X132989774Y-56213102D01*
X132950000Y-56413061D01*
X130177653Y-56413061D01*
X130177653Y-56202711D01*
X130221590Y-56158774D01*
X130334858Y-55989256D01*
X130412879Y-55800898D01*
X130452653Y-55600939D01*
X130452653Y-55397061D01*
X130412879Y-55197102D01*
X130334858Y-55008744D01*
X130221590Y-54839226D01*
X130077427Y-54695063D01*
X129907909Y-54581795D01*
X129719551Y-54503774D01*
X129519592Y-54464000D01*
X129315714Y-54464000D01*
X129115755Y-54503774D01*
X128927397Y-54581795D01*
X128757879Y-54695063D01*
X128613716Y-54839226D01*
X128500448Y-55008744D01*
X128422427Y-55197102D01*
X128382653Y-55397061D01*
X128382653Y-55600939D01*
X128422427Y-55800898D01*
X128500448Y-55989256D01*
X128613716Y-56158774D01*
X128657653Y-56202711D01*
X128657654Y-62164538D01*
X128103193Y-62719000D01*
X128041055Y-62719000D01*
X127841096Y-62758774D01*
X127652738Y-62836795D01*
X127483220Y-62950063D01*
X127339057Y-63094226D01*
X127225789Y-63263744D01*
X127147768Y-63452102D01*
X127107994Y-63652061D01*
X122926179Y-63652061D01*
X122937896Y-63637785D01*
X123009696Y-63550295D01*
X123113903Y-63423319D01*
X123288939Y-63095850D01*
X123364028Y-62848313D01*
X123396725Y-62740527D01*
X123407014Y-62636061D01*
X123424000Y-62463599D01*
X123424000Y-62463591D01*
X123433119Y-62371002D01*
X123424000Y-62278413D01*
X123424000Y-61951641D01*
X123504369Y-62145669D01*
X123748962Y-62511729D01*
X124060271Y-62823038D01*
X124426331Y-63067631D01*
X124833075Y-63236110D01*
X125264872Y-63322000D01*
X125705128Y-63322000D01*
X126136925Y-63236110D01*
X126543669Y-63067631D01*
X126909729Y-62823038D01*
X127221038Y-62511729D01*
X127465631Y-62145669D01*
X127634110Y-61738925D01*
X127720000Y-61307128D01*
X127720000Y-60866872D01*
X127634110Y-60435075D01*
X127465631Y-60028331D01*
X127221038Y-59662271D01*
X126909729Y-59350962D01*
X126543669Y-59106369D01*
X126136925Y-58937890D01*
X125705128Y-58852000D01*
X125264872Y-58852000D01*
X124833075Y-58937890D01*
X124426331Y-59106369D01*
X124060271Y-59350962D01*
X123748962Y-59662271D01*
X123504369Y-60028331D01*
X123424000Y-60222359D01*
X123424000Y-54517404D01*
X123396725Y-54240477D01*
X123288939Y-53885152D01*
X123113903Y-53557683D01*
X122878345Y-53270655D01*
X122591317Y-53035097D01*
X122263848Y-52860061D01*
X121908524Y-52752275D01*
X121539000Y-52715880D01*
X121169477Y-52752275D01*
X120814153Y-52860061D01*
X120486684Y-53035097D01*
X120199656Y-53270655D01*
X119964097Y-53557683D01*
X119789061Y-53885152D01*
X119681275Y-54240476D01*
X119654000Y-54517403D01*
X119654000Y-55268281D01*
X119654001Y-55268291D01*
X119654000Y-61590209D01*
X119228072Y-62016137D01*
X119228072Y-59337000D01*
X119215812Y-59212518D01*
X119179502Y-59092820D01*
X119120537Y-58982506D01*
X119041185Y-58885815D01*
X118944494Y-58806463D01*
X118834180Y-58747498D01*
X118714482Y-58711188D01*
X118590000Y-58698928D01*
X115090000Y-58698928D01*
X114965518Y-58711188D01*
X114845820Y-58747498D01*
X114735506Y-58806463D01*
X114638815Y-58885815D01*
X114559463Y-58982506D01*
X114500498Y-59092820D01*
X114464188Y-59212518D01*
X114451928Y-59337000D01*
X114451928Y-62837000D01*
X114464188Y-62961482D01*
X114500498Y-63081180D01*
X114559463Y-63191494D01*
X114638815Y-63288185D01*
X114735506Y-63367537D01*
X114845820Y-63426502D01*
X114965518Y-63462812D01*
X115090000Y-63475072D01*
X117764206Y-63475072D01*
X117741632Y-63502578D01*
X117741629Y-63502581D01*
X117565099Y-63717684D01*
X117390063Y-64045153D01*
X117282276Y-64400477D01*
X117245882Y-64770001D01*
X117255002Y-64862600D01*
X117255001Y-72171928D01*
X115990000Y-72171928D01*
X115865518Y-72184188D01*
X115745820Y-72220498D01*
X115635506Y-72279463D01*
X115538815Y-72358815D01*
X115459463Y-72455506D01*
X115400498Y-72565820D01*
X115364188Y-72685518D01*
X115351928Y-72810000D01*
X115351928Y-74418191D01*
X109262698Y-68328962D01*
X108868016Y-67848466D01*
X108589509Y-67329055D01*
X108417195Y-66765440D01*
X108351684Y-66120495D01*
X108351918Y-66098169D01*
X108351050Y-66088995D01*
X108278411Y-65373879D01*
X108266587Y-65315236D01*
X108255584Y-65256442D01*
X108252951Y-65247611D01*
X108042796Y-64560223D01*
X108019817Y-64505020D01*
X107997593Y-64449456D01*
X107993295Y-64441304D01*
X107653627Y-63807827D01*
X107620361Y-63758136D01*
X107587771Y-63707950D01*
X107581971Y-63700789D01*
X107125730Y-63145352D01*
X106710565Y-62639922D01*
X106432057Y-62120508D01*
X106259743Y-61556893D01*
X106200184Y-60970543D01*
X106221988Y-60739872D01*
X106985000Y-60739872D01*
X106985000Y-61180128D01*
X107070890Y-61611925D01*
X107239369Y-62018669D01*
X107483962Y-62384729D01*
X107795271Y-62696038D01*
X108161331Y-62940631D01*
X108568075Y-63109110D01*
X108999872Y-63195000D01*
X109440128Y-63195000D01*
X109871925Y-63109110D01*
X110278669Y-62940631D01*
X110644729Y-62696038D01*
X110956038Y-62384729D01*
X111200631Y-62018669D01*
X111369110Y-61611925D01*
X111455000Y-61180128D01*
X111455000Y-60739872D01*
X111369110Y-60308075D01*
X111200631Y-59901331D01*
X110956038Y-59535271D01*
X110644729Y-59223962D01*
X110278669Y-58979369D01*
X109871925Y-58810890D01*
X109440128Y-58725000D01*
X108999872Y-58725000D01*
X108568075Y-58810890D01*
X108161331Y-58979369D01*
X107795271Y-59223962D01*
X107483962Y-59535271D01*
X107239369Y-59901331D01*
X107070890Y-60308075D01*
X106985000Y-60739872D01*
X106221988Y-60739872D01*
X106255648Y-60383790D01*
X106424025Y-59818982D01*
X106698896Y-59297642D01*
X107089393Y-58815418D01*
X107092287Y-58812514D01*
X107110192Y-58790640D01*
X107130391Y-58770860D01*
X107136264Y-58763759D01*
X107590564Y-58206732D01*
X107623646Y-58156939D01*
X107657464Y-58107550D01*
X107661846Y-58099444D01*
X107999301Y-57464785D01*
X108022100Y-57409470D01*
X108045661Y-57354498D01*
X108048386Y-57345695D01*
X108256141Y-56657578D01*
X108267764Y-56598875D01*
X108280197Y-56540386D01*
X108281160Y-56531222D01*
X108348852Y-55840842D01*
X108351886Y-55826569D01*
X108352849Y-55817405D01*
X108416676Y-55166446D01*
X108587024Y-54602227D01*
X108863715Y-54081847D01*
X109256129Y-53600701D01*
X115351928Y-47504902D01*
X115351928Y-49110000D01*
X115364188Y-49234482D01*
X115400498Y-49354180D01*
X115459463Y-49464494D01*
X115538815Y-49561185D01*
X115635506Y-49640537D01*
X115745820Y-49699502D01*
X115865518Y-49735812D01*
X115990000Y-49748072D01*
X117690000Y-49748072D01*
X117814482Y-49735812D01*
X117934180Y-49699502D01*
X118044494Y-49640537D01*
X118141185Y-49561185D01*
X118220537Y-49464494D01*
X118279502Y-49354180D01*
X118315812Y-49234482D01*
X118328072Y-49110000D01*
X118328072Y-47410000D01*
X120431928Y-47410000D01*
X120431928Y-49110000D01*
X120444188Y-49234482D01*
X120480498Y-49354180D01*
X120539463Y-49464494D01*
X120618815Y-49561185D01*
X120715506Y-49640537D01*
X120825820Y-49699502D01*
X120945518Y-49735812D01*
X121070000Y-49748072D01*
X122770000Y-49748072D01*
X122894482Y-49735812D01*
X123014180Y-49699502D01*
X123124494Y-49640537D01*
X123221185Y-49561185D01*
X123300537Y-49464494D01*
X123359502Y-49354180D01*
X123395812Y-49234482D01*
X123408072Y-49110000D01*
X123408072Y-47410000D01*
X123395812Y-47285518D01*
X123388072Y-47260000D01*
X126631928Y-47260000D01*
X126631928Y-49260000D01*
X126644188Y-49384482D01*
X126680498Y-49504180D01*
X126739463Y-49614494D01*
X126818815Y-49711185D01*
X126915506Y-49790537D01*
X127025820Y-49849502D01*
X127145518Y-49885812D01*
X127270000Y-49898072D01*
X129270000Y-49898072D01*
X129394482Y-49885812D01*
X129514180Y-49849502D01*
X129624494Y-49790537D01*
X129721185Y-49711185D01*
X129800537Y-49614494D01*
X129859502Y-49504180D01*
X129895812Y-49384482D01*
X129908072Y-49260000D01*
X129908072Y-47410000D01*
X133131928Y-47410000D01*
X133131928Y-49110000D01*
X133144188Y-49234482D01*
X133180498Y-49354180D01*
X133239463Y-49464494D01*
X133318815Y-49561185D01*
X133415506Y-49640537D01*
X133525820Y-49699502D01*
X133645518Y-49735812D01*
X133770000Y-49748072D01*
X135470000Y-49748072D01*
X135594482Y-49735812D01*
X135714180Y-49699502D01*
X135824494Y-49640537D01*
X135921185Y-49561185D01*
X136000537Y-49464494D01*
X136059502Y-49354180D01*
X136095812Y-49234482D01*
X136108072Y-49110000D01*
X136108072Y-47410000D01*
X136095812Y-47285518D01*
X136059502Y-47165820D01*
X136000537Y-47055506D01*
X135921185Y-46958815D01*
X135824494Y-46879463D01*
X135714180Y-46820498D01*
X135594482Y-46784188D01*
X135470000Y-46771928D01*
X133770000Y-46771928D01*
X133645518Y-46784188D01*
X133525820Y-46820498D01*
X133415506Y-46879463D01*
X133318815Y-46958815D01*
X133239463Y-47055506D01*
X133180498Y-47165820D01*
X133144188Y-47285518D01*
X133131928Y-47410000D01*
X129908072Y-47410000D01*
X129908072Y-47260000D01*
X129895812Y-47135518D01*
X129859502Y-47015820D01*
X129800537Y-46905506D01*
X129721185Y-46808815D01*
X129624494Y-46729463D01*
X129514180Y-46670498D01*
X129394482Y-46634188D01*
X129270000Y-46621928D01*
X127270000Y-46621928D01*
X127145518Y-46634188D01*
X127025820Y-46670498D01*
X126915506Y-46729463D01*
X126818815Y-46808815D01*
X126739463Y-46905506D01*
X126680498Y-47015820D01*
X126644188Y-47135518D01*
X126631928Y-47260000D01*
X123388072Y-47260000D01*
X123359502Y-47165820D01*
X123300537Y-47055506D01*
X123221185Y-46958815D01*
X123124494Y-46879463D01*
X123014180Y-46820498D01*
X122894482Y-46784188D01*
X122805000Y-46775375D01*
X122805000Y-46180770D01*
X122922962Y-46083962D01*
X123033405Y-45949386D01*
X123115472Y-45795850D01*
X123166008Y-45629254D01*
X123183072Y-45456000D01*
X123183072Y-44206000D01*
X123166008Y-44032746D01*
X123115472Y-43866150D01*
X123033405Y-43712614D01*
X122922962Y-43578038D01*
X122788386Y-43467595D01*
X122634850Y-43385528D01*
X122468254Y-43334992D01*
X122295000Y-43317928D01*
X121545000Y-43317928D01*
X121371746Y-43334992D01*
X121205150Y-43385528D01*
X121051614Y-43467595D01*
X120917038Y-43578038D01*
X120806595Y-43712614D01*
X120724528Y-43866150D01*
X120673992Y-44032746D01*
X120656928Y-44206000D01*
X120656928Y-45456000D01*
X120673992Y-45629254D01*
X120724528Y-45795850D01*
X120806595Y-45949386D01*
X120917038Y-46083962D01*
X121035000Y-46180771D01*
X121035001Y-46775375D01*
X120945518Y-46784188D01*
X120825820Y-46820498D01*
X120715506Y-46879463D01*
X120618815Y-46958815D01*
X120539463Y-47055506D01*
X120480498Y-47165820D01*
X120444188Y-47285518D01*
X120431928Y-47410000D01*
X118328072Y-47410000D01*
X118315812Y-47285518D01*
X118279502Y-47165820D01*
X118220537Y-47055506D01*
X118141185Y-46958815D01*
X118044494Y-46879463D01*
X117934180Y-46820498D01*
X117814482Y-46784188D01*
X117690000Y-46771928D01*
X116084902Y-46771928D01*
X117856928Y-44999902D01*
X117856928Y-45456000D01*
X117873992Y-45629254D01*
X117924528Y-45795850D01*
X118006595Y-45949386D01*
X118117038Y-46083962D01*
X118251614Y-46194405D01*
X118405150Y-46276472D01*
X118571746Y-46327008D01*
X118745000Y-46344072D01*
X119495000Y-46344072D01*
X119668254Y-46327008D01*
X119834850Y-46276472D01*
X119988386Y-46194405D01*
X120122962Y-46083962D01*
X120233405Y-45949386D01*
X120315472Y-45795850D01*
X120366008Y-45629254D01*
X120383072Y-45456000D01*
X120383072Y-44206000D01*
X120366008Y-44032746D01*
X120315472Y-43866150D01*
X120233405Y-43712614D01*
X120122962Y-43578038D01*
X119988386Y-43467595D01*
X119834850Y-43385528D01*
X119668254Y-43334992D01*
X119534966Y-43321864D01*
X119994878Y-42861952D01*
X120475384Y-42467258D01*
X120994797Y-42188751D01*
X121558414Y-42016435D01*
X122176108Y-41953692D01*
X135875164Y-41953692D01*
X135786595Y-42061614D01*
G37*
X135786595Y-42061614D02*
X135704528Y-42215150D01*
X135653992Y-42381746D01*
X135636928Y-42555000D01*
X135636928Y-43805000D01*
X135653992Y-43978254D01*
X135704528Y-44144850D01*
X135786595Y-44298386D01*
X135897038Y-44432962D01*
X136031614Y-44543405D01*
X136185150Y-44625472D01*
X136351746Y-44676008D01*
X136525000Y-44693072D01*
X137275000Y-44693072D01*
X137448254Y-44676008D01*
X137614850Y-44625472D01*
X137768386Y-44543405D01*
X137902962Y-44432962D01*
X138013405Y-44298386D01*
X138095472Y-44144850D01*
X138146008Y-43978254D01*
X138163072Y-43805000D01*
X138163072Y-42555000D01*
X138146008Y-42381746D01*
X138095472Y-42215150D01*
X138013405Y-42061614D01*
X137924836Y-41953692D01*
X138675164Y-41953692D01*
X138586595Y-42061614D01*
X138504528Y-42215150D01*
X138453992Y-42381746D01*
X138436928Y-42555000D01*
X138436928Y-43805000D01*
X138453992Y-43978254D01*
X138504528Y-44144850D01*
X138586595Y-44298386D01*
X138697038Y-44432962D01*
X138815000Y-44529770D01*
X138815001Y-46775375D01*
X138725518Y-46784188D01*
X138605820Y-46820498D01*
X138495506Y-46879463D01*
X138398815Y-46958815D01*
X138319463Y-47055506D01*
X138260498Y-47165820D01*
X138224188Y-47285518D01*
X138211928Y-47410000D01*
X138211928Y-49110000D01*
X138224188Y-49234482D01*
X138260498Y-49354180D01*
X138319463Y-49464494D01*
X138398815Y-49561185D01*
X138495506Y-49640537D01*
X138605820Y-49699502D01*
X138725518Y-49735812D01*
X138850000Y-49748072D01*
X140550000Y-49748072D01*
X140674482Y-49735812D01*
X140794180Y-49699502D01*
X140904494Y-49640537D01*
X141001185Y-49561185D01*
X141080537Y-49464494D01*
X141139502Y-49354180D01*
X141175812Y-49234482D01*
X141188072Y-49110000D01*
X141188072Y-47410000D01*
X141175812Y-47285518D01*
X141168072Y-47260000D01*
X144411928Y-47260000D01*
X144411928Y-49260000D01*
X144424188Y-49384482D01*
X144460498Y-49504180D01*
X144519463Y-49614494D01*
X144598815Y-49711185D01*
X144695506Y-49790537D01*
X144805820Y-49849502D01*
X144925518Y-49885812D01*
X145050000Y-49898072D01*
X147050000Y-49898072D01*
X147174482Y-49885812D01*
X147294180Y-49849502D01*
X147404494Y-49790537D01*
X147501185Y-49711185D01*
X147580537Y-49614494D01*
X147639502Y-49504180D01*
X147675812Y-49384482D01*
X147688072Y-49260000D01*
X147688072Y-47260000D01*
X147675812Y-47135518D01*
X147639502Y-47015820D01*
X147580537Y-46905506D01*
X147501185Y-46808815D01*
X147404494Y-46729463D01*
X147294180Y-46670498D01*
X147174482Y-46634188D01*
X147050000Y-46621928D01*
X145050000Y-46621928D01*
X144925518Y-46634188D01*
X144805820Y-46670498D01*
X144695506Y-46729463D01*
X144598815Y-46808815D01*
X144519463Y-46905506D01*
X144460498Y-47015820D01*
X144424188Y-47135518D01*
X144411928Y-47260000D01*
X141168072Y-47260000D01*
X141139502Y-47165820D01*
X141080537Y-47055506D01*
X141001185Y-46958815D01*
X140904494Y-46879463D01*
X140794180Y-46820498D01*
X140674482Y-46784188D01*
X140585000Y-46775375D01*
X140585000Y-44529770D01*
X140702962Y-44432962D01*
X140813405Y-44298386D01*
X140895472Y-44144850D01*
X140946008Y-43978254D01*
X140963072Y-43805000D01*
X140963072Y-42555000D01*
X140946008Y-42381746D01*
X140895472Y-42215150D01*
X140813405Y-42061614D01*
X140724836Y-41953692D01*
X153655164Y-41953692D01*
X153566595Y-42061614D01*
X153484528Y-42215150D01*
X153433992Y-42381746D01*
X153416928Y-42555000D01*
X153416928Y-43805000D01*
X153433992Y-43978254D01*
X153484528Y-44144850D01*
X153566595Y-44298386D01*
X153677038Y-44432962D01*
X153811614Y-44543405D01*
X153965150Y-44625472D01*
X154131746Y-44676008D01*
X154305000Y-44693072D01*
X155055000Y-44693072D01*
X155228254Y-44676008D01*
X155394850Y-44625472D01*
X155548386Y-44543405D01*
X155682962Y-44432962D01*
X155793405Y-44298386D01*
X155875472Y-44144850D01*
X155926008Y-43978254D01*
X155943072Y-43805000D01*
X155943072Y-42555000D01*
X155926008Y-42381746D01*
X155875472Y-42215150D01*
X155793405Y-42061614D01*
X155704836Y-41953692D01*
X156455164Y-41953692D01*
X156366595Y-42061614D01*
X156284528Y-42215150D01*
X156233992Y-42381746D01*
X156216928Y-42555000D01*
X156216928Y-43805000D01*
X156233992Y-43978254D01*
X156284528Y-44144850D01*
X156366595Y-44298386D01*
X156477038Y-44432962D01*
X156595000Y-44529771D01*
X156595001Y-46775375D01*
X156505518Y-46784188D01*
X156385820Y-46820498D01*
X156275506Y-46879463D01*
X156178815Y-46958815D01*
X156099463Y-47055506D01*
X156040498Y-47165820D01*
X156004188Y-47285518D01*
X155991928Y-47410000D01*
X155991928Y-49110000D01*
X156004188Y-49234482D01*
X156040498Y-49354180D01*
X156099463Y-49464494D01*
X156178815Y-49561185D01*
X156275506Y-49640537D01*
X156385820Y-49699502D01*
X156505518Y-49735812D01*
X156630000Y-49748072D01*
X158330000Y-49748072D01*
X158454482Y-49735812D01*
X158574180Y-49699502D01*
X158684494Y-49640537D01*
X158781185Y-49561185D01*
X158860537Y-49464494D01*
X158919502Y-49354180D01*
X158955812Y-49234482D01*
X158968072Y-49110000D01*
X158968072Y-47410000D01*
X158955812Y-47285518D01*
X158948072Y-47260000D01*
X162191928Y-47260000D01*
X162191928Y-49260000D01*
X162204188Y-49384482D01*
X162240498Y-49504180D01*
X162299463Y-49614494D01*
X162378815Y-49711185D01*
X162475506Y-49790537D01*
X162585820Y-49849502D01*
X162705518Y-49885812D01*
X162830000Y-49898072D01*
X164830000Y-49898072D01*
X164954482Y-49885812D01*
X165074180Y-49849502D01*
X165184494Y-49790537D01*
X165281185Y-49711185D01*
X165360537Y-49614494D01*
X165419502Y-49504180D01*
X165455812Y-49384482D01*
X165468072Y-49260000D01*
X165468072Y-47260000D01*
X165455812Y-47135518D01*
X165419502Y-47015820D01*
X165360537Y-46905506D01*
X165281185Y-46808815D01*
X165184494Y-46729463D01*
X165074180Y-46670498D01*
X164954482Y-46634188D01*
X164830000Y-46621928D01*
X162830000Y-46621928D01*
X162705518Y-46634188D01*
X162585820Y-46670498D01*
X162475506Y-46729463D01*
X162378815Y-46808815D01*
X162299463Y-46905506D01*
X162240498Y-47015820D01*
X162204188Y-47135518D01*
X162191928Y-47260000D01*
X158948072Y-47260000D01*
X158919502Y-47165820D01*
X158860537Y-47055506D01*
X158781185Y-46958815D01*
X158684494Y-46879463D01*
X158574180Y-46820498D01*
X158454482Y-46784188D01*
X158365000Y-46775375D01*
X158365000Y-44529770D01*
X158482962Y-44432962D01*
X158593405Y-44298386D01*
X158675472Y-44144850D01*
X158726008Y-43978254D01*
X158743072Y-43805000D01*
X158743072Y-42555000D01*
X158726008Y-42381746D01*
X158675472Y-42215150D01*
X158593405Y-42061614D01*
X158504836Y-41953692D01*
X171435164Y-41953692D01*
X171346595Y-42061614D01*
X171264528Y-42215150D01*
X171213992Y-42381746D01*
X171196928Y-42555000D01*
X171196928Y-43805000D01*
X171213992Y-43978254D01*
X171264528Y-44144850D01*
X171346595Y-44298386D01*
X171457038Y-44432962D01*
X171591614Y-44543405D01*
X171745150Y-44625472D01*
X171911746Y-44676008D01*
X172085000Y-44693072D01*
X172835000Y-44693072D01*
X173008254Y-44676008D01*
X173174850Y-44625472D01*
X173328386Y-44543405D01*
X173462962Y-44432962D01*
X173573405Y-44298386D01*
X173655472Y-44144850D01*
X173706008Y-43978254D01*
X173723072Y-43805000D01*
X173723072Y-42555000D01*
X173706008Y-42381746D01*
X173655472Y-42215150D01*
X173573405Y-42061614D01*
X173484836Y-41953692D01*
X174235164Y-41953692D01*
X174146595Y-42061614D01*
X174064528Y-42215150D01*
X174013992Y-42381746D01*
X173996928Y-42555000D01*
X173996928Y-43805000D01*
X174013992Y-43978254D01*
X174064528Y-44144850D01*
X174146595Y-44298386D01*
X174257038Y-44432962D01*
X174375000Y-44529770D01*
X174375001Y-46775375D01*
X174285518Y-46784188D01*
X174165820Y-46820498D01*
X174055506Y-46879463D01*
X173958815Y-46958815D01*
X173879463Y-47055506D01*
X173820498Y-47165820D01*
X173784188Y-47285518D01*
X173771928Y-47410000D01*
X173771928Y-49110000D01*
X173784188Y-49234482D01*
X173820498Y-49354180D01*
X173879463Y-49464494D01*
X173958815Y-49561185D01*
X174055506Y-49640537D01*
X174165820Y-49699502D01*
X174285518Y-49735812D01*
X174410000Y-49748072D01*
X176110000Y-49748072D01*
X176234482Y-49735812D01*
X176354180Y-49699502D01*
X176464494Y-49640537D01*
X176561185Y-49561185D01*
X176640537Y-49464494D01*
X176699502Y-49354180D01*
X176735812Y-49234482D01*
X176748072Y-49110000D01*
X176748072Y-47410000D01*
X176735812Y-47285518D01*
X176728072Y-47260000D01*
X179971928Y-47260000D01*
X179971928Y-49260000D01*
X179984188Y-49384482D01*
X180020498Y-49504180D01*
X180079463Y-49614494D01*
X180158815Y-49711185D01*
X180255506Y-49790537D01*
X180365820Y-49849502D01*
X180485518Y-49885812D01*
X180610000Y-49898072D01*
X182610000Y-49898072D01*
X182734482Y-49885812D01*
X182854180Y-49849502D01*
X182964494Y-49790537D01*
X183061185Y-49711185D01*
X183140537Y-49614494D01*
X183199502Y-49504180D01*
X183235812Y-49384482D01*
X183248072Y-49260000D01*
X183248072Y-47260000D01*
X183235812Y-47135518D01*
X183199502Y-47015820D01*
X183140537Y-46905506D01*
X183061185Y-46808815D01*
X182964494Y-46729463D01*
X182854180Y-46670498D01*
X182734482Y-46634188D01*
X182610000Y-46621928D01*
X180610000Y-46621928D01*
X180485518Y-46634188D01*
X180365820Y-46670498D01*
X180255506Y-46729463D01*
X180158815Y-46808815D01*
X180079463Y-46905506D01*
X180020498Y-47015820D01*
X179984188Y-47135518D01*
X179971928Y-47260000D01*
X176728072Y-47260000D01*
X176699502Y-47165820D01*
X176640537Y-47055506D01*
X176561185Y-46958815D01*
X176464494Y-46879463D01*
X176354180Y-46820498D01*
X176234482Y-46784188D01*
X176145000Y-46775375D01*
X176145000Y-44529770D01*
X176262962Y-44432962D01*
X176373405Y-44298386D01*
X176455472Y-44144850D01*
X176506008Y-43978254D01*
X176523072Y-43805000D01*
X176523072Y-42555000D01*
X176506008Y-42381746D01*
X176455472Y-42215150D01*
X176373405Y-42061614D01*
X176284836Y-41953692D01*
X182612414Y-41953692D01*
X183231247Y-42014369D01*
X183795465Y-42184716D01*
X184315848Y-42461410D01*
X184796982Y-42853813D01*
X195535756Y-53592588D01*
X195930435Y-54073078D01*
X196208943Y-54592492D01*
X196381257Y-55156107D01*
X196447356Y-55806842D01*
X196448195Y-55811005D01*
X196448082Y-55821831D01*
X196448950Y-55831005D01*
X196521589Y-56546122D01*
X196533415Y-56604772D01*
X196544416Y-56663558D01*
X196547049Y-56672389D01*
X196757204Y-57359777D01*
X196780195Y-57415008D01*
X196802407Y-57470544D01*
X196806705Y-57478696D01*
X197146373Y-58112173D01*
X197179639Y-58161864D01*
X197212229Y-58212050D01*
X197218029Y-58219211D01*
X197674270Y-58774648D01*
X198089435Y-59280078D01*
X198367943Y-59799492D01*
X198540257Y-60363107D01*
X198599816Y-60949458D01*
X198544352Y-61536210D01*
X198375975Y-62101017D01*
X198101104Y-62622358D01*
X197710606Y-63104584D01*
X197707713Y-63107486D01*
X197689808Y-63129360D01*
X197669609Y-63149140D01*
X197663736Y-63156241D01*
X197209436Y-63713268D01*
X197176366Y-63763043D01*
X197142536Y-63812449D01*
X197138154Y-63820556D01*
X196800700Y-64455215D01*
X196777920Y-64510483D01*
X196754339Y-64565501D01*
X196751614Y-64574304D01*
X196543859Y-65262422D01*
X196532239Y-65321110D01*
X196519803Y-65379613D01*
X196518840Y-65388778D01*
X196448698Y-66104142D01*
X196448698Y-66104143D01*
X196384871Y-66755101D01*
X196214523Y-67319320D01*
X195937833Y-67839700D01*
X195545432Y-68320831D01*
X188398755Y-75467509D01*
X187918265Y-75862188D01*
X187398851Y-76140696D01*
X186835236Y-76313010D01*
X186217541Y-76375753D01*
X143858581Y-76375755D01*
X143831694Y-76378403D01*
X143820621Y-76378287D01*
X143811447Y-76379155D01*
X143096330Y-76451794D01*
X143037687Y-76463618D01*
X142978893Y-76474621D01*
X142970064Y-76477253D01*
X142970058Y-76477255D01*
X142282674Y-76687409D01*
X142227493Y-76710379D01*
X142171907Y-76732611D01*
X142163756Y-76736909D01*
X141530278Y-77076576D01*
X141480584Y-77109843D01*
X141430400Y-77142433D01*
X141423239Y-77148233D01*
X140867801Y-77604475D01*
X140867791Y-77604485D01*
X140362371Y-78019642D01*
X139842957Y-78298150D01*
X139279343Y-78470464D01*
X138661656Y-78533207D01*
X130589830Y-78533207D01*
X129970996Y-78472530D01*
X129406780Y-78302183D01*
X128886398Y-78025490D01*
X128384038Y-77615776D01*
X128368409Y-77599815D01*
X128361308Y-77593942D01*
X127804281Y-77139642D01*
X127754506Y-77106572D01*
X127705100Y-77072742D01*
X127696993Y-77068360D01*
X127062334Y-76730906D01*
X127007066Y-76708126D01*
X126952048Y-76684545D01*
X126943245Y-76681820D01*
X126255127Y-76474065D01*
X126196439Y-76462445D01*
X126137936Y-76450009D01*
X126128771Y-76449046D01*
X125413404Y-76378904D01*
X125413402Y-76378904D01*
X125381419Y-76375754D01*
X118593935Y-76375754D01*
X117975101Y-76315077D01*
X117410885Y-76144730D01*
X116890503Y-75868037D01*
X116409378Y-75475641D01*
X116081809Y-75148072D01*
X117690000Y-75148072D01*
X117814482Y-75135812D01*
X117934180Y-75099502D01*
X117957202Y-75087196D01*
X118137183Y-75234903D01*
X118464652Y-75409939D01*
X118819976Y-75517725D01*
X119096903Y-75545000D01*
X119096913Y-75545000D01*
X119189499Y-75554119D01*
X119282086Y-75545000D01*
X119472597Y-75545000D01*
X119749524Y-75517725D01*
X120104848Y-75409939D01*
X120432317Y-75234903D01*
X120719345Y-74999345D01*
X120917629Y-74757736D01*
X120973368Y-74813475D01*
X121216589Y-74975990D01*
X121486842Y-75087932D01*
X121773740Y-75145000D01*
X122066260Y-75145000D01*
X122353158Y-75087932D01*
X122623411Y-74975990D01*
X122866632Y-74813475D01*
X123073475Y-74606632D01*
X123235990Y-74363411D01*
X123347932Y-74093158D01*
X123405000Y-73806260D01*
X123405000Y-73513740D01*
X123347932Y-73226842D01*
X123235990Y-72956589D01*
X123073475Y-72713368D01*
X122866632Y-72506525D01*
X122623411Y-72344010D01*
X122353158Y-72232068D01*
X122066260Y-72175000D01*
X121773740Y-72175000D01*
X121486842Y-72232068D01*
X121216589Y-72344010D01*
X121025001Y-72472025D01*
X121025001Y-70129061D01*
X124997500Y-70129061D01*
X124997500Y-70332939D01*
X125037274Y-70532898D01*
X125115295Y-70721256D01*
X125228563Y-70890774D01*
X125372726Y-71034937D01*
X125542244Y-71148205D01*
X125730602Y-71226226D01*
X125806181Y-71241260D01*
X126406970Y-71842049D01*
X126434683Y-71875817D01*
X126468451Y-71903530D01*
X126468453Y-71903532D01*
X126476409Y-71910061D01*
X126569441Y-71986411D01*
X126723187Y-72068589D01*
X126808992Y-72094618D01*
X126890009Y-72119195D01*
X126904806Y-72120652D01*
X127020023Y-72132000D01*
X127020031Y-72132000D01*
X127063500Y-72136281D01*
X127106969Y-72132000D01*
X131535000Y-72132000D01*
X131535000Y-72269552D01*
X131571892Y-72455022D01*
X131610000Y-72547023D01*
X131610001Y-73152976D01*
X131571892Y-73244978D01*
X131535000Y-73430448D01*
X131535000Y-73619552D01*
X131571892Y-73805022D01*
X131581414Y-73828010D01*
X129342812Y-73828010D01*
X128663803Y-73149002D01*
X128640001Y-73119999D01*
X128524276Y-73025026D01*
X128488072Y-73005674D01*
X128488072Y-72810000D01*
X128475812Y-72685518D01*
X128439502Y-72565820D01*
X128380537Y-72455506D01*
X128301185Y-72358815D01*
X128204494Y-72279463D01*
X128094180Y-72220498D01*
X127974482Y-72184188D01*
X127850000Y-72171928D01*
X126150000Y-72171928D01*
X126025518Y-72184188D01*
X125905820Y-72220498D01*
X125795506Y-72279463D01*
X125698815Y-72358815D01*
X125619463Y-72455506D01*
X125560498Y-72565820D01*
X125524188Y-72685518D01*
X125511928Y-72810000D01*
X125511928Y-74510000D01*
X125524188Y-74634482D01*
X125560498Y-74754180D01*
X125619463Y-74864494D01*
X125698815Y-74961185D01*
X125795506Y-75040537D01*
X125905820Y-75099502D01*
X126025518Y-75135812D01*
X126150000Y-75148072D01*
X127850000Y-75148072D01*
X127974482Y-75135812D01*
X128094180Y-75099502D01*
X128204494Y-75040537D01*
X128301185Y-74961185D01*
X128312543Y-74947345D01*
X128464211Y-75099013D01*
X128488009Y-75128011D01*
X128603734Y-75222984D01*
X128735763Y-75293556D01*
X128879024Y-75337013D01*
X128990677Y-75348010D01*
X128990686Y-75348010D01*
X129028009Y-75351686D01*
X129065332Y-75348010D01*
X133554287Y-75348010D01*
X133591609Y-75351686D01*
X133628931Y-75348010D01*
X133628942Y-75348010D01*
X133740595Y-75337013D01*
X133883856Y-75293556D01*
X134015885Y-75222984D01*
X134131610Y-75128011D01*
X134155412Y-75099008D01*
X134620000Y-74634421D01*
X135084591Y-75099012D01*
X135108390Y-75128011D01*
X135224115Y-75222984D01*
X135356144Y-75293556D01*
X135499405Y-75337013D01*
X135611058Y-75348010D01*
X135611066Y-75348010D01*
X135648391Y-75351686D01*
X135685716Y-75348010D01*
X140174668Y-75348010D01*
X140211990Y-75351686D01*
X140249312Y-75348010D01*
X140249323Y-75348010D01*
X140360976Y-75337013D01*
X140504237Y-75293556D01*
X140636266Y-75222984D01*
X140751991Y-75128011D01*
X140775793Y-75099008D01*
X140927457Y-74947345D01*
X140938815Y-74961185D01*
X141035506Y-75040537D01*
X141145820Y-75099502D01*
X141265518Y-75135812D01*
X141390000Y-75148072D01*
X143090000Y-75148072D01*
X143214482Y-75135812D01*
X143334180Y-75099502D01*
X143444494Y-75040537D01*
X143541185Y-74961185D01*
X143620537Y-74864494D01*
X143679502Y-74754180D01*
X143715812Y-74634482D01*
X143728072Y-74510000D01*
X143728072Y-72810000D01*
X145831928Y-72810000D01*
X145831928Y-74510000D01*
X145844188Y-74634482D01*
X145880498Y-74754180D01*
X145939463Y-74864494D01*
X146018815Y-74961185D01*
X146115506Y-75040537D01*
X146225820Y-75099502D01*
X146345518Y-75135812D01*
X146470000Y-75148072D01*
X148170000Y-75148072D01*
X148294482Y-75135812D01*
X148414180Y-75099502D01*
X148524494Y-75040537D01*
X148621185Y-74961185D01*
X148700537Y-74864494D01*
X148759502Y-74754180D01*
X148795812Y-74634482D01*
X148808072Y-74510000D01*
X148808072Y-73558061D01*
X149015500Y-73558061D01*
X149015500Y-73761939D01*
X149055274Y-73961898D01*
X149133295Y-74150256D01*
X149246563Y-74319774D01*
X149390726Y-74463937D01*
X149560244Y-74577205D01*
X149748602Y-74655226D01*
X149829349Y-74671288D01*
X149886595Y-74778386D01*
X149997038Y-74912962D01*
X150131614Y-75023405D01*
X150285150Y-75105472D01*
X150451746Y-75156008D01*
X150625000Y-75173072D01*
X151375000Y-75173072D01*
X151548254Y-75156008D01*
X151714850Y-75105472D01*
X151868386Y-75023405D01*
X152002962Y-74912962D01*
X152113405Y-74778386D01*
X152195472Y-74624850D01*
X152246008Y-74458254D01*
X152263072Y-74285000D01*
X152263072Y-73035000D01*
X152536928Y-73035000D01*
X152536928Y-74285000D01*
X152553992Y-74458254D01*
X152604528Y-74624850D01*
X152686595Y-74778386D01*
X152797038Y-74912962D01*
X152931614Y-75023405D01*
X153085150Y-75105472D01*
X153251746Y-75156008D01*
X153425000Y-75173072D01*
X154175000Y-75173072D01*
X154348254Y-75156008D01*
X154514850Y-75105472D01*
X154668386Y-75023405D01*
X154802962Y-74912962D01*
X154913405Y-74778386D01*
X154995472Y-74624850D01*
X155046008Y-74458254D01*
X155063072Y-74285000D01*
X155063072Y-73558061D01*
X155429000Y-73558061D01*
X155429000Y-73761939D01*
X155468774Y-73961898D01*
X155546795Y-74150256D01*
X155660063Y-74319774D01*
X155804226Y-74463937D01*
X155973744Y-74577205D01*
X156015296Y-74594417D01*
X156024528Y-74624850D01*
X156106595Y-74778386D01*
X156217038Y-74912962D01*
X156351614Y-75023405D01*
X156505150Y-75105472D01*
X156671746Y-75156008D01*
X156845000Y-75173072D01*
X157595000Y-75173072D01*
X157768254Y-75156008D01*
X157934850Y-75105472D01*
X158088386Y-75023405D01*
X158222962Y-74912962D01*
X158333405Y-74778386D01*
X158415472Y-74624850D01*
X158466008Y-74458254D01*
X158483072Y-74285000D01*
X158483072Y-73035000D01*
X158756928Y-73035000D01*
X158756928Y-74285000D01*
X158773992Y-74458254D01*
X158824528Y-74624850D01*
X158906595Y-74778386D01*
X159017038Y-74912962D01*
X159151614Y-75023405D01*
X159305150Y-75105472D01*
X159471746Y-75156008D01*
X159645000Y-75173072D01*
X160395000Y-75173072D01*
X160568254Y-75156008D01*
X160734850Y-75105472D01*
X160888386Y-75023405D01*
X161022962Y-74912962D01*
X161133405Y-74778386D01*
X161215472Y-74624850D01*
X161266008Y-74458254D01*
X161283072Y-74285000D01*
X161283072Y-73035000D01*
X161266008Y-72861746D01*
X161215472Y-72695150D01*
X161133405Y-72541614D01*
X161022962Y-72407038D01*
X160888386Y-72296595D01*
X160734850Y-72214528D01*
X160568254Y-72163992D01*
X160395000Y-72146928D01*
X159645000Y-72146928D01*
X159471746Y-72163992D01*
X159305150Y-72214528D01*
X159151614Y-72296595D01*
X159017038Y-72407038D01*
X158906595Y-72541614D01*
X158824528Y-72695150D01*
X158773992Y-72861746D01*
X158756928Y-73035000D01*
X158483072Y-73035000D01*
X158466008Y-72861746D01*
X158415472Y-72695150D01*
X158333405Y-72541614D01*
X158222962Y-72407038D01*
X158088386Y-72296595D01*
X157934850Y-72214528D01*
X157768254Y-72163992D01*
X157595000Y-72146928D01*
X156845000Y-72146928D01*
X156671746Y-72163992D01*
X156505150Y-72214528D01*
X156351614Y-72296595D01*
X156217038Y-72407038D01*
X156106595Y-72541614D01*
X156024528Y-72695150D01*
X156015296Y-72725583D01*
X155973744Y-72742795D01*
X155804226Y-72856063D01*
X155660063Y-73000226D01*
X155546795Y-73169744D01*
X155468774Y-73358102D01*
X155429000Y-73558061D01*
X155063072Y-73558061D01*
X155063072Y-73035000D01*
X155046008Y-72861746D01*
X154995472Y-72695150D01*
X154913405Y-72541614D01*
X154802962Y-72407038D01*
X154668386Y-72296595D01*
X154514850Y-72214528D01*
X154348254Y-72163992D01*
X154175000Y-72146928D01*
X153425000Y-72146928D01*
X153251746Y-72163992D01*
X153085150Y-72214528D01*
X152931614Y-72296595D01*
X152797038Y-72407038D01*
X152686595Y-72541614D01*
X152604528Y-72695150D01*
X152553992Y-72861746D01*
X152536928Y-73035000D01*
X152263072Y-73035000D01*
X152246008Y-72861746D01*
X152195472Y-72695150D01*
X152113405Y-72541614D01*
X152002962Y-72407038D01*
X151868386Y-72296595D01*
X151714850Y-72214528D01*
X151548254Y-72163992D01*
X151375000Y-72146928D01*
X150625000Y-72146928D01*
X150451746Y-72163992D01*
X150285150Y-72214528D01*
X150131614Y-72296595D01*
X149997038Y-72407038D01*
X149886595Y-72541614D01*
X149829349Y-72648712D01*
X149748602Y-72664774D01*
X149560244Y-72742795D01*
X149390726Y-72856063D01*
X149246563Y-73000226D01*
X149133295Y-73169744D01*
X149055274Y-73358102D01*
X149015500Y-73558061D01*
X148808072Y-73558061D01*
X148808072Y-72810000D01*
X148795812Y-72685518D01*
X148759502Y-72565820D01*
X148700537Y-72455506D01*
X148621185Y-72358815D01*
X148524494Y-72279463D01*
X148414180Y-72220498D01*
X148294482Y-72184188D01*
X148170000Y-72171928D01*
X146470000Y-72171928D01*
X146345518Y-72184188D01*
X146225820Y-72220498D01*
X146115506Y-72279463D01*
X146018815Y-72358815D01*
X145939463Y-72455506D01*
X145880498Y-72565820D01*
X145844188Y-72685518D01*
X145831928Y-72810000D01*
X143728072Y-72810000D01*
X143715812Y-72685518D01*
X143679502Y-72565820D01*
X143620537Y-72455506D01*
X143541185Y-72358815D01*
X143444494Y-72279463D01*
X143334180Y-72220498D01*
X143214482Y-72184188D01*
X143090000Y-72171928D01*
X141390000Y-72171928D01*
X141265518Y-72184188D01*
X141145820Y-72220498D01*
X141035506Y-72279463D01*
X140938815Y-72358815D01*
X140859463Y-72455506D01*
X140800498Y-72565820D01*
X140764188Y-72685518D01*
X140751928Y-72810000D01*
X140751928Y-73005674D01*
X140715724Y-73025026D01*
X140599999Y-73119999D01*
X140576201Y-73148997D01*
X139897189Y-73828010D01*
X137658586Y-73828010D01*
X137668108Y-73805022D01*
X137705000Y-73619552D01*
X137705000Y-73430448D01*
X137668108Y-73244978D01*
X137630000Y-73152977D01*
X137630000Y-72547023D01*
X137668108Y-72455022D01*
X137705000Y-72269552D01*
X137705000Y-72080448D01*
X137668108Y-71894978D01*
X137625924Y-71793137D01*
X137617195Y-71704509D01*
X137607305Y-71671905D01*
X137566589Y-71537684D01*
X137506891Y-71425997D01*
X137484411Y-71383939D01*
X137373817Y-71249181D01*
X137340044Y-71221464D01*
X136923535Y-70804955D01*
X136895818Y-70771182D01*
X136761060Y-70660588D01*
X136607314Y-70578410D01*
X136440491Y-70527804D01*
X136310478Y-70514999D01*
X136310470Y-70514999D01*
X136267001Y-70510718D01*
X136223532Y-70514999D01*
X132853851Y-70514999D01*
X132810382Y-70510718D01*
X132766913Y-70514999D01*
X132766905Y-70514999D01*
X132636892Y-70527804D01*
X132570026Y-70548088D01*
X132520678Y-70507589D01*
X132366932Y-70425411D01*
X132200109Y-70374805D01*
X132070096Y-70362000D01*
X132070088Y-70362000D01*
X132026619Y-70357719D01*
X131983150Y-70362000D01*
X127430079Y-70362000D01*
X127035310Y-69967232D01*
X127027726Y-69929102D01*
X126949705Y-69740744D01*
X126836437Y-69571226D01*
X126692274Y-69427063D01*
X126522756Y-69313795D01*
X126334398Y-69235774D01*
X126134439Y-69196000D01*
X125930561Y-69196000D01*
X125730602Y-69235774D01*
X125542244Y-69313795D01*
X125372726Y-69427063D01*
X125228563Y-69571226D01*
X125115295Y-69740744D01*
X125037274Y-69929102D01*
X124997500Y-70129061D01*
X121025001Y-70129061D01*
X121025001Y-66595686D01*
X122035550Y-67606236D01*
X122078919Y-67659081D01*
X122131764Y-67702450D01*
X122131766Y-67702452D01*
X122211687Y-67768041D01*
X122289812Y-67832157D01*
X122530419Y-67960764D01*
X122791493Y-68039960D01*
X122994963Y-68060000D01*
X122994972Y-68060000D01*
X123062999Y-68066700D01*
X123131026Y-68060000D01*
X129743528Y-68060000D01*
X129638795Y-68216744D01*
X129560774Y-68405102D01*
X129521000Y-68605061D01*
X129521000Y-68808939D01*
X129560774Y-69008898D01*
X129638795Y-69197256D01*
X129752063Y-69366774D01*
X129896226Y-69510937D01*
X130065744Y-69624205D01*
X130254102Y-69702226D01*
X130454061Y-69742000D01*
X130657939Y-69742000D01*
X130857898Y-69702226D01*
X131046256Y-69624205D01*
X131215774Y-69510937D01*
X131259711Y-69467000D01*
X134877673Y-69467000D01*
X134895563Y-69493774D01*
X135039726Y-69637937D01*
X135209244Y-69751205D01*
X135397602Y-69829226D01*
X135597561Y-69869000D01*
X135801439Y-69869000D01*
X136001398Y-69829226D01*
X136189756Y-69751205D01*
X136359274Y-69637937D01*
X136503437Y-69493774D01*
X136616705Y-69324256D01*
X136694726Y-69135898D01*
X136734500Y-68935939D01*
X136734500Y-68732061D01*
X136694726Y-68532102D01*
X136616705Y-68343744D01*
X136503437Y-68174226D01*
X136389211Y-68060000D01*
X140004283Y-68060000D01*
X142249019Y-70304737D01*
X142292388Y-70357582D01*
X142345233Y-70400951D01*
X142345235Y-70400953D01*
X142499803Y-70527804D01*
X142503281Y-70530658D01*
X142743888Y-70659265D01*
X143004962Y-70738461D01*
X143208432Y-70758501D01*
X143208440Y-70758501D01*
X143276469Y-70765201D01*
X143344498Y-70758501D01*
X179605470Y-70758501D01*
X179673499Y-70765201D01*
X179741528Y-70758501D01*
X179741536Y-70758501D01*
X179945006Y-70738461D01*
X180206080Y-70659265D01*
X180446687Y-70530658D01*
X180657580Y-70357582D01*
X180700953Y-70304732D01*
X183199686Y-67806000D01*
X184843971Y-67806000D01*
X184912000Y-67812700D01*
X184980029Y-67806000D01*
X189552037Y-67806000D01*
X189755507Y-67785960D01*
X190016581Y-67706764D01*
X190257188Y-67578157D01*
X190468081Y-67405081D01*
X190641157Y-67194188D01*
X190769764Y-66953581D01*
X190848960Y-66692507D01*
X190875701Y-66421000D01*
X190848960Y-66149493D01*
X190769764Y-65888419D01*
X190641157Y-65647812D01*
X190468081Y-65436919D01*
X190257188Y-65263843D01*
X190016581Y-65135236D01*
X189755507Y-65056040D01*
X189552037Y-65036000D01*
X186805000Y-65036000D01*
X186805000Y-60739872D01*
X193345000Y-60739872D01*
X193345000Y-61180128D01*
X193430890Y-61611925D01*
X193599369Y-62018669D01*
X193843962Y-62384729D01*
X194155271Y-62696038D01*
X194521331Y-62940631D01*
X194928075Y-63109110D01*
X195359872Y-63195000D01*
X195800128Y-63195000D01*
X196231925Y-63109110D01*
X196638669Y-62940631D01*
X197004729Y-62696038D01*
X197316038Y-62384729D01*
X197560631Y-62018669D01*
X197729110Y-61611925D01*
X197815000Y-61180128D01*
X197815000Y-60739872D01*
X197729110Y-60308075D01*
X197560631Y-59901331D01*
X197316038Y-59535271D01*
X197004729Y-59223962D01*
X196638669Y-58979369D01*
X196231925Y-58810890D01*
X195800128Y-58725000D01*
X195359872Y-58725000D01*
X194928075Y-58810890D01*
X194521331Y-58979369D01*
X194155271Y-59223962D01*
X193843962Y-59535271D01*
X193599369Y-59901331D01*
X193430890Y-60308075D01*
X193345000Y-60739872D01*
X186805000Y-60739872D01*
X186805000Y-52652963D01*
X186784960Y-52449493D01*
X186705764Y-52188419D01*
X186689505Y-52158000D01*
X187891289Y-52158000D01*
X187935226Y-52201937D01*
X188104744Y-52315205D01*
X188293102Y-52393226D01*
X188493061Y-52433000D01*
X188696939Y-52433000D01*
X188896898Y-52393226D01*
X189085256Y-52315205D01*
X189254774Y-52201937D01*
X189342455Y-52114256D01*
X189486001Y-52257803D01*
X189486000Y-55620789D01*
X189442063Y-55664726D01*
X189328795Y-55834244D01*
X189250774Y-56022602D01*
X189211000Y-56222561D01*
X189211000Y-56426439D01*
X189250774Y-56626398D01*
X189328795Y-56814756D01*
X189442063Y-56984274D01*
X189586226Y-57128437D01*
X189755744Y-57241705D01*
X189944102Y-57319726D01*
X190144061Y-57359500D01*
X190347939Y-57359500D01*
X190547898Y-57319726D01*
X190736256Y-57241705D01*
X190905774Y-57128437D01*
X191049937Y-56984274D01*
X191163205Y-56814756D01*
X191241226Y-56626398D01*
X191281000Y-56426439D01*
X191281000Y-56222561D01*
X191241226Y-56022602D01*
X191163205Y-55834244D01*
X191049937Y-55664726D01*
X191006000Y-55620789D01*
X191006000Y-51980322D01*
X191009676Y-51942999D01*
X191006000Y-51905676D01*
X191006000Y-51905667D01*
X190995003Y-51794014D01*
X190951546Y-51650753D01*
X190880974Y-51518724D01*
X190786001Y-51402999D01*
X190757003Y-51379201D01*
X189539804Y-50162003D01*
X189516001Y-50132999D01*
X189400276Y-50038026D01*
X189268247Y-49967454D01*
X189124986Y-49923997D01*
X189013333Y-49913000D01*
X189013322Y-49913000D01*
X188976000Y-49909324D01*
X188938678Y-49913000D01*
X171807803Y-49913000D01*
X171467345Y-49572543D01*
X171481185Y-49561185D01*
X171560537Y-49464494D01*
X171619502Y-49354180D01*
X171655812Y-49234482D01*
X171668072Y-49110000D01*
X171668072Y-47410000D01*
X171655812Y-47285518D01*
X171619502Y-47165820D01*
X171560537Y-47055506D01*
X171481185Y-46958815D01*
X171384494Y-46879463D01*
X171274180Y-46820498D01*
X171154482Y-46784188D01*
X171030000Y-46771928D01*
X169330000Y-46771928D01*
X169205518Y-46784188D01*
X169085820Y-46820498D01*
X168975506Y-46879463D01*
X168878815Y-46958815D01*
X168799463Y-47055506D01*
X168740498Y-47165820D01*
X168704188Y-47285518D01*
X168691928Y-47410000D01*
X168691928Y-49110000D01*
X168704188Y-49234482D01*
X168740498Y-49354180D01*
X168799463Y-49464494D01*
X168878815Y-49561185D01*
X168975506Y-49640537D01*
X169085820Y-49699502D01*
X169205518Y-49735812D01*
X169330000Y-49748072D01*
X169525674Y-49748072D01*
X169545026Y-49784276D01*
X169584871Y-49832826D01*
X169639999Y-49900001D01*
X169669002Y-49923803D01*
X170383198Y-50638000D01*
X154752802Y-50638000D01*
X153687345Y-49572543D01*
X153701185Y-49561185D01*
X153780537Y-49464494D01*
X153839502Y-49354180D01*
X153875812Y-49234482D01*
X153888072Y-49110000D01*
X153888072Y-47410000D01*
X153875812Y-47285518D01*
X153839502Y-47165820D01*
X153780537Y-47055506D01*
X153701185Y-46958815D01*
X153604494Y-46879463D01*
X153494180Y-46820498D01*
X153374482Y-46784188D01*
X153250000Y-46771928D01*
X151550000Y-46771928D01*
X151425518Y-46784188D01*
X151305820Y-46820498D01*
X151195506Y-46879463D01*
X151098815Y-46958815D01*
X151019463Y-47055506D01*
X150960498Y-47165820D01*
X150924188Y-47285518D01*
X150911928Y-47410000D01*
X150911928Y-49110000D01*
X150924188Y-49234482D01*
X150960498Y-49354180D01*
X151019463Y-49464494D01*
X151098815Y-49561185D01*
X151195506Y-49640537D01*
X151305820Y-49699502D01*
X151425518Y-49735812D01*
X151550000Y-49748072D01*
X151745674Y-49748072D01*
X151765026Y-49784276D01*
X151804871Y-49832826D01*
X151859999Y-49900001D01*
X151889003Y-49923804D01*
X153874201Y-51909003D01*
X153897999Y-51938001D01*
X154013724Y-52032974D01*
X154145753Y-52103546D01*
X154289014Y-52147003D01*
X154400667Y-52158000D01*
X154400676Y-52158000D01*
X154437999Y-52161676D01*
X154475322Y-52158000D01*
X184150496Y-52158000D01*
X184134236Y-52188420D01*
X184055040Y-52449494D01*
X184035000Y-52652964D01*
X184035001Y-65036000D01*
X182694028Y-65036000D01*
X182625999Y-65029300D01*
X182557970Y-65036000D01*
X182557963Y-65036000D01*
X182380099Y-65053518D01*
X182354492Y-65056040D01*
X182265542Y-65083023D01*
X182093419Y-65135236D01*
X181852812Y-65263843D01*
X181641919Y-65436919D01*
X181598548Y-65489767D01*
X181294773Y-65793542D01*
X181294767Y-65793547D01*
X179099814Y-67988501D01*
X171342000Y-67988501D01*
X171342000Y-67921561D01*
X171302226Y-67721602D01*
X171224205Y-67533244D01*
X171110937Y-67363726D01*
X171067000Y-67319789D01*
X171067000Y-60866872D01*
X178860000Y-60866872D01*
X178860000Y-61307128D01*
X178945890Y-61738925D01*
X179114369Y-62145669D01*
X179358962Y-62511729D01*
X179670271Y-62823038D01*
X180036331Y-63067631D01*
X180443075Y-63236110D01*
X180874872Y-63322000D01*
X181315128Y-63322000D01*
X181746925Y-63236110D01*
X182153669Y-63067631D01*
X182519729Y-62823038D01*
X182831038Y-62511729D01*
X183075631Y-62145669D01*
X183244110Y-61738925D01*
X183330000Y-61307128D01*
X183330000Y-60866872D01*
X183244110Y-60435075D01*
X183075631Y-60028331D01*
X182831038Y-59662271D01*
X182519729Y-59350962D01*
X182153669Y-59106369D01*
X181746925Y-58937890D01*
X181315128Y-58852000D01*
X180874872Y-58852000D01*
X180443075Y-58937890D01*
X180036331Y-59106369D01*
X179670271Y-59350962D01*
X179358962Y-59662271D01*
X179114369Y-60028331D01*
X178945890Y-60435075D01*
X178860000Y-60866872D01*
X171067000Y-60866872D01*
X171067000Y-55885211D01*
X171174437Y-55777774D01*
X171287705Y-55608256D01*
X171365726Y-55419898D01*
X171405500Y-55219939D01*
X171405500Y-55016061D01*
X171365726Y-54816102D01*
X171332365Y-54735561D01*
X175241000Y-54735561D01*
X175241000Y-54939439D01*
X175280774Y-55139398D01*
X175358795Y-55327756D01*
X175472063Y-55497274D01*
X175516000Y-55541211D01*
X175516001Y-59144668D01*
X175512324Y-59182000D01*
X175516001Y-59219333D01*
X175526998Y-59330986D01*
X175531939Y-59347273D01*
X175570454Y-59474246D01*
X175641026Y-59606276D01*
X175712201Y-59693002D01*
X175736000Y-59722001D01*
X175749000Y-59732670D01*
X175749000Y-59791939D01*
X175788774Y-59991898D01*
X175866795Y-60180256D01*
X175980063Y-60349774D01*
X176124226Y-60493937D01*
X176293744Y-60607205D01*
X176482102Y-60685226D01*
X176682061Y-60725000D01*
X176885939Y-60725000D01*
X177085898Y-60685226D01*
X177274256Y-60607205D01*
X177443774Y-60493937D01*
X177587937Y-60349774D01*
X177701205Y-60180256D01*
X177779226Y-59991898D01*
X177819000Y-59791939D01*
X177819000Y-59588061D01*
X177779226Y-59388102D01*
X177701205Y-59199744D01*
X177587937Y-59030226D01*
X177443774Y-58886063D01*
X177274256Y-58772795D01*
X177085898Y-58694774D01*
X177036000Y-58684849D01*
X177036000Y-55541211D01*
X177079937Y-55497274D01*
X177193205Y-55327756D01*
X177271226Y-55139398D01*
X177311000Y-54939439D01*
X177311000Y-54735561D01*
X177271226Y-54535602D01*
X177193205Y-54347244D01*
X177079937Y-54177726D01*
X176935774Y-54033563D01*
X176766256Y-53920295D01*
X176577898Y-53842274D01*
X176377939Y-53802500D01*
X176174061Y-53802500D01*
X175974102Y-53842274D01*
X175785744Y-53920295D01*
X175616226Y-54033563D01*
X175472063Y-54177726D01*
X175358795Y-54347244D01*
X175280774Y-54535602D01*
X175241000Y-54735561D01*
X171332365Y-54735561D01*
X171287705Y-54627744D01*
X171174437Y-54458226D01*
X171030274Y-54314063D01*
X170860756Y-54200795D01*
X170672398Y-54122774D01*
X170472439Y-54083000D01*
X170268561Y-54083000D01*
X170068602Y-54122774D01*
X169880244Y-54200795D01*
X169710726Y-54314063D01*
X169566563Y-54458226D01*
X169453295Y-54627744D01*
X169375274Y-54816102D01*
X169335500Y-55016061D01*
X169335500Y-55219939D01*
X169375274Y-55419898D01*
X169453295Y-55608256D01*
X169547001Y-55748497D01*
X169547000Y-67319789D01*
X169503063Y-67363726D01*
X169389795Y-67533244D01*
X169311774Y-67721602D01*
X169272000Y-67921561D01*
X169272000Y-67988501D01*
X143922126Y-67988501D01*
X143977880Y-67932747D01*
X144091148Y-67763229D01*
X144169169Y-67574871D01*
X144208943Y-67374912D01*
X144208943Y-67171034D01*
X144169169Y-66971075D01*
X144091148Y-66782717D01*
X143977880Y-66613199D01*
X143952500Y-66587819D01*
X143952500Y-65663510D01*
X144120419Y-65753264D01*
X144381493Y-65832460D01*
X144584963Y-65852500D01*
X152380471Y-65852500D01*
X152448500Y-65859200D01*
X152516529Y-65852500D01*
X152516537Y-65852500D01*
X152720007Y-65832460D01*
X152981081Y-65753264D01*
X153221688Y-65624657D01*
X153432581Y-65451581D01*
X153475954Y-65398731D01*
X153554452Y-65320233D01*
X153684157Y-65162187D01*
X153812764Y-64921580D01*
X153891960Y-64660506D01*
X153918700Y-64389000D01*
X153891960Y-64117493D01*
X153812764Y-63856420D01*
X153684157Y-63615812D01*
X153511081Y-63404919D01*
X153300188Y-63231843D01*
X153059580Y-63103236D01*
X152798507Y-63024040D01*
X152527000Y-62997300D01*
X152255494Y-63024040D01*
X152062777Y-63082500D01*
X144584963Y-63082500D01*
X144381493Y-63102540D01*
X144120419Y-63181736D01*
X143952437Y-63271524D01*
X143941503Y-63160514D01*
X143898046Y-63017253D01*
X143883663Y-62990344D01*
X143827474Y-62885223D01*
X143756299Y-62798497D01*
X143732501Y-62769499D01*
X143703504Y-62745702D01*
X143656000Y-62698198D01*
X143656000Y-62636061D01*
X143616226Y-62436102D01*
X143538205Y-62247744D01*
X143424937Y-62078226D01*
X143280774Y-61934063D01*
X143111256Y-61820795D01*
X142922898Y-61742774D01*
X142722939Y-61703000D01*
X142519061Y-61703000D01*
X142319102Y-61742774D01*
X142130744Y-61820795D01*
X141961226Y-61934063D01*
X141817063Y-62078226D01*
X141703795Y-62247744D01*
X141625774Y-62436102D01*
X141586000Y-62636061D01*
X141586000Y-62839939D01*
X141625774Y-63039898D01*
X141703795Y-63228256D01*
X141817063Y-63397774D01*
X141961226Y-63541937D01*
X142130744Y-63655205D01*
X142319102Y-63733226D01*
X142432500Y-63755782D01*
X142432501Y-66550704D01*
X142422429Y-66560776D01*
X141605422Y-65743769D01*
X141562049Y-65690919D01*
X141351156Y-65517843D01*
X141110549Y-65389236D01*
X140849475Y-65310040D01*
X140646005Y-65290000D01*
X140645997Y-65290000D01*
X140577968Y-65283300D01*
X140509939Y-65290000D01*
X123636686Y-65290000D01*
X122461240Y-64114555D01*
X122806423Y-63769372D01*
X122878345Y-63710347D01*
X122926179Y-63652061D01*
X127107994Y-63652061D01*
X127107994Y-63855939D01*
X127147768Y-64055898D01*
X127225789Y-64244256D01*
X127339057Y-64413774D01*
X127483220Y-64557937D01*
X127652738Y-64671205D01*
X127841096Y-64749226D01*
X128041055Y-64789000D01*
X128244933Y-64789000D01*
X128444892Y-64749226D01*
X128633250Y-64671205D01*
X128802768Y-64557937D01*
X128946931Y-64413774D01*
X129060199Y-64244256D01*
X129138220Y-64055898D01*
X129177994Y-63855939D01*
X129177994Y-63793801D01*
X129928656Y-63043140D01*
X129957654Y-63019342D01*
X129989571Y-62980451D01*
X130052627Y-62903618D01*
X130123199Y-62771588D01*
X130132622Y-62740525D01*
X130166656Y-62628327D01*
X130177653Y-62516674D01*
X130177653Y-62516665D01*
X130181329Y-62479342D01*
X130177653Y-62442019D01*
X130177653Y-56413061D01*
X132950000Y-56413061D01*
X132950000Y-56616939D01*
X132989774Y-56816898D01*
X133067795Y-57005256D01*
X133181063Y-57174774D01*
X133325226Y-57318937D01*
X133494744Y-57432205D01*
X133683102Y-57510226D01*
X133883061Y-57550000D01*
X133945199Y-57550000D01*
X137280498Y-60885299D01*
X137216790Y-61039102D01*
X137177016Y-61239061D01*
X137177016Y-61442939D01*
X137216790Y-61642898D01*
X137294811Y-61831256D01*
X137408079Y-62000774D01*
X137552242Y-62144937D01*
X137721760Y-62258205D01*
X137910118Y-62336226D01*
X138110077Y-62376000D01*
X138313955Y-62376000D01*
X138513914Y-62336226D01*
X138702272Y-62258205D01*
X138871790Y-62144937D01*
X139015953Y-62000774D01*
X139129221Y-61831256D01*
X139207242Y-61642898D01*
X139247016Y-61442939D01*
X139247016Y-61239061D01*
X139207242Y-61039102D01*
X139198175Y-61017212D01*
X163554735Y-61017212D01*
X163554735Y-61221090D01*
X163594509Y-61421049D01*
X163672530Y-61609407D01*
X163785798Y-61778925D01*
X163929961Y-61923088D01*
X164099479Y-62036356D01*
X164287837Y-62114377D01*
X164487796Y-62154151D01*
X164691674Y-62154151D01*
X164891633Y-62114377D01*
X165079991Y-62036356D01*
X165249509Y-61923088D01*
X165393672Y-61778925D01*
X165506940Y-61609407D01*
X165584961Y-61421049D01*
X165624735Y-61221090D01*
X165624735Y-61017212D01*
X165584961Y-60817253D01*
X165506940Y-60628895D01*
X165393672Y-60459377D01*
X165349735Y-60415440D01*
X165349735Y-57093976D01*
X165395937Y-57047774D01*
X165509205Y-56878256D01*
X165587226Y-56689898D01*
X165627000Y-56489939D01*
X165627000Y-56286061D01*
X165587226Y-56086102D01*
X165509205Y-55897744D01*
X165395937Y-55728226D01*
X165251774Y-55584063D01*
X165082256Y-55470795D01*
X164893898Y-55392774D01*
X164693939Y-55353000D01*
X164490061Y-55353000D01*
X164290102Y-55392774D01*
X164101744Y-55470795D01*
X163932226Y-55584063D01*
X163788063Y-55728226D01*
X163674795Y-55897744D01*
X163596774Y-56086102D01*
X163557000Y-56286061D01*
X163557000Y-56489939D01*
X163596774Y-56689898D01*
X163674795Y-56878256D01*
X163788063Y-57047774D01*
X163829736Y-57089447D01*
X163829735Y-60415440D01*
X163785798Y-60459377D01*
X163672530Y-60628895D01*
X163594509Y-60817253D01*
X163554735Y-61017212D01*
X139198175Y-61017212D01*
X139129221Y-60850744D01*
X139015953Y-60681226D01*
X138964653Y-60629926D01*
X138961019Y-60593030D01*
X138917562Y-60449769D01*
X138846990Y-60317740D01*
X138752017Y-60202015D01*
X138723020Y-60178218D01*
X135020000Y-56475199D01*
X135020000Y-56413061D01*
X134980226Y-56213102D01*
X134902205Y-56024744D01*
X134788937Y-55855226D01*
X134644774Y-55711063D01*
X134475256Y-55597795D01*
X134286898Y-55519774D01*
X134086939Y-55480000D01*
X133883061Y-55480000D01*
X133683102Y-55519774D01*
X133494744Y-55597795D01*
X133325226Y-55711063D01*
X133181063Y-55855226D01*
X133067795Y-56024744D01*
X132989774Y-56213102D01*
X132950000Y-56413061D01*
X130177653Y-56413061D01*
X130177653Y-56202711D01*
X130221590Y-56158774D01*
X130334858Y-55989256D01*
X130412879Y-55800898D01*
X130452653Y-55600939D01*
X130452653Y-55397061D01*
X130412879Y-55197102D01*
X130334858Y-55008744D01*
X130221590Y-54839226D01*
X130077427Y-54695063D01*
X129907909Y-54581795D01*
X129719551Y-54503774D01*
X129519592Y-54464000D01*
X129315714Y-54464000D01*
X129115755Y-54503774D01*
X128927397Y-54581795D01*
X128757879Y-54695063D01*
X128613716Y-54839226D01*
X128500448Y-55008744D01*
X128422427Y-55197102D01*
X128382653Y-55397061D01*
X128382653Y-55600939D01*
X128422427Y-55800898D01*
X128500448Y-55989256D01*
X128613716Y-56158774D01*
X128657653Y-56202711D01*
X128657654Y-62164538D01*
X128103193Y-62719000D01*
X128041055Y-62719000D01*
X127841096Y-62758774D01*
X127652738Y-62836795D01*
X127483220Y-62950063D01*
X127339057Y-63094226D01*
X127225789Y-63263744D01*
X127147768Y-63452102D01*
X127107994Y-63652061D01*
X122926179Y-63652061D01*
X122937896Y-63637785D01*
X123009696Y-63550295D01*
X123113903Y-63423319D01*
X123288939Y-63095850D01*
X123364028Y-62848313D01*
X123396725Y-62740527D01*
X123407014Y-62636061D01*
X123424000Y-62463599D01*
X123424000Y-62463591D01*
X123433119Y-62371002D01*
X123424000Y-62278413D01*
X123424000Y-61951641D01*
X123504369Y-62145669D01*
X123748962Y-62511729D01*
X124060271Y-62823038D01*
X124426331Y-63067631D01*
X124833075Y-63236110D01*
X125264872Y-63322000D01*
X125705128Y-63322000D01*
X126136925Y-63236110D01*
X126543669Y-63067631D01*
X126909729Y-62823038D01*
X127221038Y-62511729D01*
X127465631Y-62145669D01*
X127634110Y-61738925D01*
X127720000Y-61307128D01*
X127720000Y-60866872D01*
X127634110Y-60435075D01*
X127465631Y-60028331D01*
X127221038Y-59662271D01*
X126909729Y-59350962D01*
X126543669Y-59106369D01*
X126136925Y-58937890D01*
X125705128Y-58852000D01*
X125264872Y-58852000D01*
X124833075Y-58937890D01*
X124426331Y-59106369D01*
X124060271Y-59350962D01*
X123748962Y-59662271D01*
X123504369Y-60028331D01*
X123424000Y-60222359D01*
X123424000Y-54517404D01*
X123396725Y-54240477D01*
X123288939Y-53885152D01*
X123113903Y-53557683D01*
X122878345Y-53270655D01*
X122591317Y-53035097D01*
X122263848Y-52860061D01*
X121908524Y-52752275D01*
X121539000Y-52715880D01*
X121169477Y-52752275D01*
X120814153Y-52860061D01*
X120486684Y-53035097D01*
X120199656Y-53270655D01*
X119964097Y-53557683D01*
X119789061Y-53885152D01*
X119681275Y-54240476D01*
X119654000Y-54517403D01*
X119654000Y-55268281D01*
X119654001Y-55268291D01*
X119654000Y-61590209D01*
X119228072Y-62016137D01*
X119228072Y-59337000D01*
X119215812Y-59212518D01*
X119179502Y-59092820D01*
X119120537Y-58982506D01*
X119041185Y-58885815D01*
X118944494Y-58806463D01*
X118834180Y-58747498D01*
X118714482Y-58711188D01*
X118590000Y-58698928D01*
X115090000Y-58698928D01*
X114965518Y-58711188D01*
X114845820Y-58747498D01*
X114735506Y-58806463D01*
X114638815Y-58885815D01*
X114559463Y-58982506D01*
X114500498Y-59092820D01*
X114464188Y-59212518D01*
X114451928Y-59337000D01*
X114451928Y-62837000D01*
X114464188Y-62961482D01*
X114500498Y-63081180D01*
X114559463Y-63191494D01*
X114638815Y-63288185D01*
X114735506Y-63367537D01*
X114845820Y-63426502D01*
X114965518Y-63462812D01*
X115090000Y-63475072D01*
X117764206Y-63475072D01*
X117741632Y-63502578D01*
X117741629Y-63502581D01*
X117565099Y-63717684D01*
X117390063Y-64045153D01*
X117282276Y-64400477D01*
X117245882Y-64770001D01*
X117255002Y-64862600D01*
X117255001Y-72171928D01*
X115990000Y-72171928D01*
X115865518Y-72184188D01*
X115745820Y-72220498D01*
X115635506Y-72279463D01*
X115538815Y-72358815D01*
X115459463Y-72455506D01*
X115400498Y-72565820D01*
X115364188Y-72685518D01*
X115351928Y-72810000D01*
X115351928Y-74418191D01*
X109262698Y-68328962D01*
X108868016Y-67848466D01*
X108589509Y-67329055D01*
X108417195Y-66765440D01*
X108351684Y-66120495D01*
X108351918Y-66098169D01*
X108351050Y-66088995D01*
X108278411Y-65373879D01*
X108266587Y-65315236D01*
X108255584Y-65256442D01*
X108252951Y-65247611D01*
X108042796Y-64560223D01*
X108019817Y-64505020D01*
X107997593Y-64449456D01*
X107993295Y-64441304D01*
X107653627Y-63807827D01*
X107620361Y-63758136D01*
X107587771Y-63707950D01*
X107581971Y-63700789D01*
X107125730Y-63145352D01*
X106710565Y-62639922D01*
X106432057Y-62120508D01*
X106259743Y-61556893D01*
X106200184Y-60970543D01*
X106221988Y-60739872D01*
X106985000Y-60739872D01*
X106985000Y-61180128D01*
X107070890Y-61611925D01*
X107239369Y-62018669D01*
X107483962Y-62384729D01*
X107795271Y-62696038D01*
X108161331Y-62940631D01*
X108568075Y-63109110D01*
X108999872Y-63195000D01*
X109440128Y-63195000D01*
X109871925Y-63109110D01*
X110278669Y-62940631D01*
X110644729Y-62696038D01*
X110956038Y-62384729D01*
X111200631Y-62018669D01*
X111369110Y-61611925D01*
X111455000Y-61180128D01*
X111455000Y-60739872D01*
X111369110Y-60308075D01*
X111200631Y-59901331D01*
X110956038Y-59535271D01*
X110644729Y-59223962D01*
X110278669Y-58979369D01*
X109871925Y-58810890D01*
X109440128Y-58725000D01*
X108999872Y-58725000D01*
X108568075Y-58810890D01*
X108161331Y-58979369D01*
X107795271Y-59223962D01*
X107483962Y-59535271D01*
X107239369Y-59901331D01*
X107070890Y-60308075D01*
X106985000Y-60739872D01*
X106221988Y-60739872D01*
X106255648Y-60383790D01*
X106424025Y-59818982D01*
X106698896Y-59297642D01*
X107089393Y-58815418D01*
X107092287Y-58812514D01*
X107110192Y-58790640D01*
X107130391Y-58770860D01*
X107136264Y-58763759D01*
X107590564Y-58206732D01*
X107623646Y-58156939D01*
X107657464Y-58107550D01*
X107661846Y-58099444D01*
X107999301Y-57464785D01*
X108022100Y-57409470D01*
X108045661Y-57354498D01*
X108048386Y-57345695D01*
X108256141Y-56657578D01*
X108267764Y-56598875D01*
X108280197Y-56540386D01*
X108281160Y-56531222D01*
X108348852Y-55840842D01*
X108351886Y-55826569D01*
X108352849Y-55817405D01*
X108416676Y-55166446D01*
X108587024Y-54602227D01*
X108863715Y-54081847D01*
X109256129Y-53600701D01*
X115351928Y-47504902D01*
X115351928Y-49110000D01*
X115364188Y-49234482D01*
X115400498Y-49354180D01*
X115459463Y-49464494D01*
X115538815Y-49561185D01*
X115635506Y-49640537D01*
X115745820Y-49699502D01*
X115865518Y-49735812D01*
X115990000Y-49748072D01*
X117690000Y-49748072D01*
X117814482Y-49735812D01*
X117934180Y-49699502D01*
X118044494Y-49640537D01*
X118141185Y-49561185D01*
X118220537Y-49464494D01*
X118279502Y-49354180D01*
X118315812Y-49234482D01*
X118328072Y-49110000D01*
X118328072Y-47410000D01*
X120431928Y-47410000D01*
X120431928Y-49110000D01*
X120444188Y-49234482D01*
X120480498Y-49354180D01*
X120539463Y-49464494D01*
X120618815Y-49561185D01*
X120715506Y-49640537D01*
X120825820Y-49699502D01*
X120945518Y-49735812D01*
X121070000Y-49748072D01*
X122770000Y-49748072D01*
X122894482Y-49735812D01*
X123014180Y-49699502D01*
X123124494Y-49640537D01*
X123221185Y-49561185D01*
X123300537Y-49464494D01*
X123359502Y-49354180D01*
X123395812Y-49234482D01*
X123408072Y-49110000D01*
X123408072Y-47410000D01*
X123395812Y-47285518D01*
X123388072Y-47260000D01*
X126631928Y-47260000D01*
X126631928Y-49260000D01*
X126644188Y-49384482D01*
X126680498Y-49504180D01*
X126739463Y-49614494D01*
X126818815Y-49711185D01*
X126915506Y-49790537D01*
X127025820Y-49849502D01*
X127145518Y-49885812D01*
X127270000Y-49898072D01*
X129270000Y-49898072D01*
X129394482Y-49885812D01*
X129514180Y-49849502D01*
X129624494Y-49790537D01*
X129721185Y-49711185D01*
X129800537Y-49614494D01*
X129859502Y-49504180D01*
X129895812Y-49384482D01*
X129908072Y-49260000D01*
X129908072Y-47410000D01*
X133131928Y-47410000D01*
X133131928Y-49110000D01*
X133144188Y-49234482D01*
X133180498Y-49354180D01*
X133239463Y-49464494D01*
X133318815Y-49561185D01*
X133415506Y-49640537D01*
X133525820Y-49699502D01*
X133645518Y-49735812D01*
X133770000Y-49748072D01*
X135470000Y-49748072D01*
X135594482Y-49735812D01*
X135714180Y-49699502D01*
X135824494Y-49640537D01*
X135921185Y-49561185D01*
X136000537Y-49464494D01*
X136059502Y-49354180D01*
X136095812Y-49234482D01*
X136108072Y-49110000D01*
X136108072Y-47410000D01*
X136095812Y-47285518D01*
X136059502Y-47165820D01*
X136000537Y-47055506D01*
X135921185Y-46958815D01*
X135824494Y-46879463D01*
X135714180Y-46820498D01*
X135594482Y-46784188D01*
X135470000Y-46771928D01*
X133770000Y-46771928D01*
X133645518Y-46784188D01*
X133525820Y-46820498D01*
X133415506Y-46879463D01*
X133318815Y-46958815D01*
X133239463Y-47055506D01*
X133180498Y-47165820D01*
X133144188Y-47285518D01*
X133131928Y-47410000D01*
X129908072Y-47410000D01*
X129908072Y-47260000D01*
X129895812Y-47135518D01*
X129859502Y-47015820D01*
X129800537Y-46905506D01*
X129721185Y-46808815D01*
X129624494Y-46729463D01*
X129514180Y-46670498D01*
X129394482Y-46634188D01*
X129270000Y-46621928D01*
X127270000Y-46621928D01*
X127145518Y-46634188D01*
X127025820Y-46670498D01*
X126915506Y-46729463D01*
X126818815Y-46808815D01*
X126739463Y-46905506D01*
X126680498Y-47015820D01*
X126644188Y-47135518D01*
X126631928Y-47260000D01*
X123388072Y-47260000D01*
X123359502Y-47165820D01*
X123300537Y-47055506D01*
X123221185Y-46958815D01*
X123124494Y-46879463D01*
X123014180Y-46820498D01*
X122894482Y-46784188D01*
X122805000Y-46775375D01*
X122805000Y-46180770D01*
X122922962Y-46083962D01*
X123033405Y-45949386D01*
X123115472Y-45795850D01*
X123166008Y-45629254D01*
X123183072Y-45456000D01*
X123183072Y-44206000D01*
X123166008Y-44032746D01*
X123115472Y-43866150D01*
X123033405Y-43712614D01*
X122922962Y-43578038D01*
X122788386Y-43467595D01*
X122634850Y-43385528D01*
X122468254Y-43334992D01*
X122295000Y-43317928D01*
X121545000Y-43317928D01*
X121371746Y-43334992D01*
X121205150Y-43385528D01*
X121051614Y-43467595D01*
X120917038Y-43578038D01*
X120806595Y-43712614D01*
X120724528Y-43866150D01*
X120673992Y-44032746D01*
X120656928Y-44206000D01*
X120656928Y-45456000D01*
X120673992Y-45629254D01*
X120724528Y-45795850D01*
X120806595Y-45949386D01*
X120917038Y-46083962D01*
X121035000Y-46180771D01*
X121035001Y-46775375D01*
X120945518Y-46784188D01*
X120825820Y-46820498D01*
X120715506Y-46879463D01*
X120618815Y-46958815D01*
X120539463Y-47055506D01*
X120480498Y-47165820D01*
X120444188Y-47285518D01*
X120431928Y-47410000D01*
X118328072Y-47410000D01*
X118315812Y-47285518D01*
X118279502Y-47165820D01*
X118220537Y-47055506D01*
X118141185Y-46958815D01*
X118044494Y-46879463D01*
X117934180Y-46820498D01*
X117814482Y-46784188D01*
X117690000Y-46771928D01*
X116084902Y-46771928D01*
X117856928Y-44999902D01*
X117856928Y-45456000D01*
X117873992Y-45629254D01*
X117924528Y-45795850D01*
X118006595Y-45949386D01*
X118117038Y-46083962D01*
X118251614Y-46194405D01*
X118405150Y-46276472D01*
X118571746Y-46327008D01*
X118745000Y-46344072D01*
X119495000Y-46344072D01*
X119668254Y-46327008D01*
X119834850Y-46276472D01*
X119988386Y-46194405D01*
X120122962Y-46083962D01*
X120233405Y-45949386D01*
X120315472Y-45795850D01*
X120366008Y-45629254D01*
X120383072Y-45456000D01*
X120383072Y-44206000D01*
X120366008Y-44032746D01*
X120315472Y-43866150D01*
X120233405Y-43712614D01*
X120122962Y-43578038D01*
X119988386Y-43467595D01*
X119834850Y-43385528D01*
X119668254Y-43334992D01*
X119534966Y-43321864D01*
X119994878Y-42861952D01*
X120475384Y-42467258D01*
X120994797Y-42188751D01*
X121558414Y-42016435D01*
X122176108Y-41953692D01*
X135875164Y-41953692D01*
X135786595Y-42061614D01*
M02*
