G04 #@! TF.GenerationSoftware,KiCad,Pcbnew,(5.1.5-0-10_14)*
G04 #@! TF.CreationDate,2020-03-17T09:24:28-05:00*
G04 #@! TF.ProjectId,pulse,70756c73-652e-46b6-9963-61645f706362,rev?*
G04 #@! TF.SameCoordinates,Original*
G04 #@! TF.FileFunction,Paste,Top*
G04 #@! TF.FilePolarity,Positive*
%FSLAX46Y46*%
G04 Gerber Fmt 4.6, Leading zero omitted, Abs format (unit mm)*
G04 Created by KiCad (PCBNEW (5.1.5-0-10_14)) date 2020-03-17 09:24:28*
%MOMM*%
%LPD*%
G04 APERTURE LIST*
%ADD10C,0.100000*%
G04 APERTURE END LIST*
D10*
G36*
X140099504Y-42306204D02*
G01*
X140123773Y-42309804D01*
X140147571Y-42315765D01*
X140170671Y-42324030D01*
X140192849Y-42334520D01*
X140213893Y-42347133D01*
X140233598Y-42361747D01*
X140251777Y-42378223D01*
X140268253Y-42396402D01*
X140282867Y-42416107D01*
X140295480Y-42437151D01*
X140305970Y-42459329D01*
X140314235Y-42482429D01*
X140320196Y-42506227D01*
X140323796Y-42530496D01*
X140325000Y-42555000D01*
X140325000Y-43805000D01*
X140323796Y-43829504D01*
X140320196Y-43853773D01*
X140314235Y-43877571D01*
X140305970Y-43900671D01*
X140295480Y-43922849D01*
X140282867Y-43943893D01*
X140268253Y-43963598D01*
X140251777Y-43981777D01*
X140233598Y-43998253D01*
X140213893Y-44012867D01*
X140192849Y-44025480D01*
X140170671Y-44035970D01*
X140147571Y-44044235D01*
X140123773Y-44050196D01*
X140099504Y-44053796D01*
X140075000Y-44055000D01*
X139325000Y-44055000D01*
X139300496Y-44053796D01*
X139276227Y-44050196D01*
X139252429Y-44044235D01*
X139229329Y-44035970D01*
X139207151Y-44025480D01*
X139186107Y-44012867D01*
X139166402Y-43998253D01*
X139148223Y-43981777D01*
X139131747Y-43963598D01*
X139117133Y-43943893D01*
X139104520Y-43922849D01*
X139094030Y-43900671D01*
X139085765Y-43877571D01*
X139079804Y-43853773D01*
X139076204Y-43829504D01*
X139075000Y-43805000D01*
X139075000Y-42555000D01*
X139076204Y-42530496D01*
X139079804Y-42506227D01*
X139085765Y-42482429D01*
X139094030Y-42459329D01*
X139104520Y-42437151D01*
X139117133Y-42416107D01*
X139131747Y-42396402D01*
X139148223Y-42378223D01*
X139166402Y-42361747D01*
X139186107Y-42347133D01*
X139207151Y-42334520D01*
X139229329Y-42324030D01*
X139252429Y-42315765D01*
X139276227Y-42309804D01*
X139300496Y-42306204D01*
X139325000Y-42305000D01*
X140075000Y-42305000D01*
X140099504Y-42306204D01*
G37*
G36*
X137299504Y-42306204D02*
G01*
X137323773Y-42309804D01*
X137347571Y-42315765D01*
X137370671Y-42324030D01*
X137392849Y-42334520D01*
X137413893Y-42347133D01*
X137433598Y-42361747D01*
X137451777Y-42378223D01*
X137468253Y-42396402D01*
X137482867Y-42416107D01*
X137495480Y-42437151D01*
X137505970Y-42459329D01*
X137514235Y-42482429D01*
X137520196Y-42506227D01*
X137523796Y-42530496D01*
X137525000Y-42555000D01*
X137525000Y-43805000D01*
X137523796Y-43829504D01*
X137520196Y-43853773D01*
X137514235Y-43877571D01*
X137505970Y-43900671D01*
X137495480Y-43922849D01*
X137482867Y-43943893D01*
X137468253Y-43963598D01*
X137451777Y-43981777D01*
X137433598Y-43998253D01*
X137413893Y-44012867D01*
X137392849Y-44025480D01*
X137370671Y-44035970D01*
X137347571Y-44044235D01*
X137323773Y-44050196D01*
X137299504Y-44053796D01*
X137275000Y-44055000D01*
X136525000Y-44055000D01*
X136500496Y-44053796D01*
X136476227Y-44050196D01*
X136452429Y-44044235D01*
X136429329Y-44035970D01*
X136407151Y-44025480D01*
X136386107Y-44012867D01*
X136366402Y-43998253D01*
X136348223Y-43981777D01*
X136331747Y-43963598D01*
X136317133Y-43943893D01*
X136304520Y-43922849D01*
X136294030Y-43900671D01*
X136285765Y-43877571D01*
X136279804Y-43853773D01*
X136276204Y-43829504D01*
X136275000Y-43805000D01*
X136275000Y-42555000D01*
X136276204Y-42530496D01*
X136279804Y-42506227D01*
X136285765Y-42482429D01*
X136294030Y-42459329D01*
X136304520Y-42437151D01*
X136317133Y-42416107D01*
X136331747Y-42396402D01*
X136348223Y-42378223D01*
X136366402Y-42361747D01*
X136386107Y-42347133D01*
X136407151Y-42334520D01*
X136429329Y-42324030D01*
X136452429Y-42315765D01*
X136476227Y-42309804D01*
X136500496Y-42306204D01*
X136525000Y-42305000D01*
X137275000Y-42305000D01*
X137299504Y-42306204D01*
G37*
G36*
X122319504Y-43957204D02*
G01*
X122343773Y-43960804D01*
X122367571Y-43966765D01*
X122390671Y-43975030D01*
X122412849Y-43985520D01*
X122433893Y-43998133D01*
X122453598Y-44012747D01*
X122471777Y-44029223D01*
X122488253Y-44047402D01*
X122502867Y-44067107D01*
X122515480Y-44088151D01*
X122525970Y-44110329D01*
X122534235Y-44133429D01*
X122540196Y-44157227D01*
X122543796Y-44181496D01*
X122545000Y-44206000D01*
X122545000Y-45456000D01*
X122543796Y-45480504D01*
X122540196Y-45504773D01*
X122534235Y-45528571D01*
X122525970Y-45551671D01*
X122515480Y-45573849D01*
X122502867Y-45594893D01*
X122488253Y-45614598D01*
X122471777Y-45632777D01*
X122453598Y-45649253D01*
X122433893Y-45663867D01*
X122412849Y-45676480D01*
X122390671Y-45686970D01*
X122367571Y-45695235D01*
X122343773Y-45701196D01*
X122319504Y-45704796D01*
X122295000Y-45706000D01*
X121545000Y-45706000D01*
X121520496Y-45704796D01*
X121496227Y-45701196D01*
X121472429Y-45695235D01*
X121449329Y-45686970D01*
X121427151Y-45676480D01*
X121406107Y-45663867D01*
X121386402Y-45649253D01*
X121368223Y-45632777D01*
X121351747Y-45614598D01*
X121337133Y-45594893D01*
X121324520Y-45573849D01*
X121314030Y-45551671D01*
X121305765Y-45528571D01*
X121299804Y-45504773D01*
X121296204Y-45480504D01*
X121295000Y-45456000D01*
X121295000Y-44206000D01*
X121296204Y-44181496D01*
X121299804Y-44157227D01*
X121305765Y-44133429D01*
X121314030Y-44110329D01*
X121324520Y-44088151D01*
X121337133Y-44067107D01*
X121351747Y-44047402D01*
X121368223Y-44029223D01*
X121386402Y-44012747D01*
X121406107Y-43998133D01*
X121427151Y-43985520D01*
X121449329Y-43975030D01*
X121472429Y-43966765D01*
X121496227Y-43960804D01*
X121520496Y-43957204D01*
X121545000Y-43956000D01*
X122295000Y-43956000D01*
X122319504Y-43957204D01*
G37*
G36*
X119519504Y-43957204D02*
G01*
X119543773Y-43960804D01*
X119567571Y-43966765D01*
X119590671Y-43975030D01*
X119612849Y-43985520D01*
X119633893Y-43998133D01*
X119653598Y-44012747D01*
X119671777Y-44029223D01*
X119688253Y-44047402D01*
X119702867Y-44067107D01*
X119715480Y-44088151D01*
X119725970Y-44110329D01*
X119734235Y-44133429D01*
X119740196Y-44157227D01*
X119743796Y-44181496D01*
X119745000Y-44206000D01*
X119745000Y-45456000D01*
X119743796Y-45480504D01*
X119740196Y-45504773D01*
X119734235Y-45528571D01*
X119725970Y-45551671D01*
X119715480Y-45573849D01*
X119702867Y-45594893D01*
X119688253Y-45614598D01*
X119671777Y-45632777D01*
X119653598Y-45649253D01*
X119633893Y-45663867D01*
X119612849Y-45676480D01*
X119590671Y-45686970D01*
X119567571Y-45695235D01*
X119543773Y-45701196D01*
X119519504Y-45704796D01*
X119495000Y-45706000D01*
X118745000Y-45706000D01*
X118720496Y-45704796D01*
X118696227Y-45701196D01*
X118672429Y-45695235D01*
X118649329Y-45686970D01*
X118627151Y-45676480D01*
X118606107Y-45663867D01*
X118586402Y-45649253D01*
X118568223Y-45632777D01*
X118551747Y-45614598D01*
X118537133Y-45594893D01*
X118524520Y-45573849D01*
X118514030Y-45551671D01*
X118505765Y-45528571D01*
X118499804Y-45504773D01*
X118496204Y-45480504D01*
X118495000Y-45456000D01*
X118495000Y-44206000D01*
X118496204Y-44181496D01*
X118499804Y-44157227D01*
X118505765Y-44133429D01*
X118514030Y-44110329D01*
X118524520Y-44088151D01*
X118537133Y-44067107D01*
X118551747Y-44047402D01*
X118568223Y-44029223D01*
X118586402Y-44012747D01*
X118606107Y-43998133D01*
X118627151Y-43985520D01*
X118649329Y-43975030D01*
X118672429Y-43966765D01*
X118696227Y-43960804D01*
X118720496Y-43957204D01*
X118745000Y-43956000D01*
X119495000Y-43956000D01*
X119519504Y-43957204D01*
G37*
G36*
X157879504Y-42306204D02*
G01*
X157903773Y-42309804D01*
X157927571Y-42315765D01*
X157950671Y-42324030D01*
X157972849Y-42334520D01*
X157993893Y-42347133D01*
X158013598Y-42361747D01*
X158031777Y-42378223D01*
X158048253Y-42396402D01*
X158062867Y-42416107D01*
X158075480Y-42437151D01*
X158085970Y-42459329D01*
X158094235Y-42482429D01*
X158100196Y-42506227D01*
X158103796Y-42530496D01*
X158105000Y-42555000D01*
X158105000Y-43805000D01*
X158103796Y-43829504D01*
X158100196Y-43853773D01*
X158094235Y-43877571D01*
X158085970Y-43900671D01*
X158075480Y-43922849D01*
X158062867Y-43943893D01*
X158048253Y-43963598D01*
X158031777Y-43981777D01*
X158013598Y-43998253D01*
X157993893Y-44012867D01*
X157972849Y-44025480D01*
X157950671Y-44035970D01*
X157927571Y-44044235D01*
X157903773Y-44050196D01*
X157879504Y-44053796D01*
X157855000Y-44055000D01*
X157105000Y-44055000D01*
X157080496Y-44053796D01*
X157056227Y-44050196D01*
X157032429Y-44044235D01*
X157009329Y-44035970D01*
X156987151Y-44025480D01*
X156966107Y-44012867D01*
X156946402Y-43998253D01*
X156928223Y-43981777D01*
X156911747Y-43963598D01*
X156897133Y-43943893D01*
X156884520Y-43922849D01*
X156874030Y-43900671D01*
X156865765Y-43877571D01*
X156859804Y-43853773D01*
X156856204Y-43829504D01*
X156855000Y-43805000D01*
X156855000Y-42555000D01*
X156856204Y-42530496D01*
X156859804Y-42506227D01*
X156865765Y-42482429D01*
X156874030Y-42459329D01*
X156884520Y-42437151D01*
X156897133Y-42416107D01*
X156911747Y-42396402D01*
X156928223Y-42378223D01*
X156946402Y-42361747D01*
X156966107Y-42347133D01*
X156987151Y-42334520D01*
X157009329Y-42324030D01*
X157032429Y-42315765D01*
X157056227Y-42309804D01*
X157080496Y-42306204D01*
X157105000Y-42305000D01*
X157855000Y-42305000D01*
X157879504Y-42306204D01*
G37*
G36*
X155079504Y-42306204D02*
G01*
X155103773Y-42309804D01*
X155127571Y-42315765D01*
X155150671Y-42324030D01*
X155172849Y-42334520D01*
X155193893Y-42347133D01*
X155213598Y-42361747D01*
X155231777Y-42378223D01*
X155248253Y-42396402D01*
X155262867Y-42416107D01*
X155275480Y-42437151D01*
X155285970Y-42459329D01*
X155294235Y-42482429D01*
X155300196Y-42506227D01*
X155303796Y-42530496D01*
X155305000Y-42555000D01*
X155305000Y-43805000D01*
X155303796Y-43829504D01*
X155300196Y-43853773D01*
X155294235Y-43877571D01*
X155285970Y-43900671D01*
X155275480Y-43922849D01*
X155262867Y-43943893D01*
X155248253Y-43963598D01*
X155231777Y-43981777D01*
X155213598Y-43998253D01*
X155193893Y-44012867D01*
X155172849Y-44025480D01*
X155150671Y-44035970D01*
X155127571Y-44044235D01*
X155103773Y-44050196D01*
X155079504Y-44053796D01*
X155055000Y-44055000D01*
X154305000Y-44055000D01*
X154280496Y-44053796D01*
X154256227Y-44050196D01*
X154232429Y-44044235D01*
X154209329Y-44035970D01*
X154187151Y-44025480D01*
X154166107Y-44012867D01*
X154146402Y-43998253D01*
X154128223Y-43981777D01*
X154111747Y-43963598D01*
X154097133Y-43943893D01*
X154084520Y-43922849D01*
X154074030Y-43900671D01*
X154065765Y-43877571D01*
X154059804Y-43853773D01*
X154056204Y-43829504D01*
X154055000Y-43805000D01*
X154055000Y-42555000D01*
X154056204Y-42530496D01*
X154059804Y-42506227D01*
X154065765Y-42482429D01*
X154074030Y-42459329D01*
X154084520Y-42437151D01*
X154097133Y-42416107D01*
X154111747Y-42396402D01*
X154128223Y-42378223D01*
X154146402Y-42361747D01*
X154166107Y-42347133D01*
X154187151Y-42334520D01*
X154209329Y-42324030D01*
X154232429Y-42315765D01*
X154256227Y-42309804D01*
X154280496Y-42306204D01*
X154305000Y-42305000D01*
X155055000Y-42305000D01*
X155079504Y-42306204D01*
G37*
G36*
X175659504Y-42306204D02*
G01*
X175683773Y-42309804D01*
X175707571Y-42315765D01*
X175730671Y-42324030D01*
X175752849Y-42334520D01*
X175773893Y-42347133D01*
X175793598Y-42361747D01*
X175811777Y-42378223D01*
X175828253Y-42396402D01*
X175842867Y-42416107D01*
X175855480Y-42437151D01*
X175865970Y-42459329D01*
X175874235Y-42482429D01*
X175880196Y-42506227D01*
X175883796Y-42530496D01*
X175885000Y-42555000D01*
X175885000Y-43805000D01*
X175883796Y-43829504D01*
X175880196Y-43853773D01*
X175874235Y-43877571D01*
X175865970Y-43900671D01*
X175855480Y-43922849D01*
X175842867Y-43943893D01*
X175828253Y-43963598D01*
X175811777Y-43981777D01*
X175793598Y-43998253D01*
X175773893Y-44012867D01*
X175752849Y-44025480D01*
X175730671Y-44035970D01*
X175707571Y-44044235D01*
X175683773Y-44050196D01*
X175659504Y-44053796D01*
X175635000Y-44055000D01*
X174885000Y-44055000D01*
X174860496Y-44053796D01*
X174836227Y-44050196D01*
X174812429Y-44044235D01*
X174789329Y-44035970D01*
X174767151Y-44025480D01*
X174746107Y-44012867D01*
X174726402Y-43998253D01*
X174708223Y-43981777D01*
X174691747Y-43963598D01*
X174677133Y-43943893D01*
X174664520Y-43922849D01*
X174654030Y-43900671D01*
X174645765Y-43877571D01*
X174639804Y-43853773D01*
X174636204Y-43829504D01*
X174635000Y-43805000D01*
X174635000Y-42555000D01*
X174636204Y-42530496D01*
X174639804Y-42506227D01*
X174645765Y-42482429D01*
X174654030Y-42459329D01*
X174664520Y-42437151D01*
X174677133Y-42416107D01*
X174691747Y-42396402D01*
X174708223Y-42378223D01*
X174726402Y-42361747D01*
X174746107Y-42347133D01*
X174767151Y-42334520D01*
X174789329Y-42324030D01*
X174812429Y-42315765D01*
X174836227Y-42309804D01*
X174860496Y-42306204D01*
X174885000Y-42305000D01*
X175635000Y-42305000D01*
X175659504Y-42306204D01*
G37*
G36*
X172859504Y-42306204D02*
G01*
X172883773Y-42309804D01*
X172907571Y-42315765D01*
X172930671Y-42324030D01*
X172952849Y-42334520D01*
X172973893Y-42347133D01*
X172993598Y-42361747D01*
X173011777Y-42378223D01*
X173028253Y-42396402D01*
X173042867Y-42416107D01*
X173055480Y-42437151D01*
X173065970Y-42459329D01*
X173074235Y-42482429D01*
X173080196Y-42506227D01*
X173083796Y-42530496D01*
X173085000Y-42555000D01*
X173085000Y-43805000D01*
X173083796Y-43829504D01*
X173080196Y-43853773D01*
X173074235Y-43877571D01*
X173065970Y-43900671D01*
X173055480Y-43922849D01*
X173042867Y-43943893D01*
X173028253Y-43963598D01*
X173011777Y-43981777D01*
X172993598Y-43998253D01*
X172973893Y-44012867D01*
X172952849Y-44025480D01*
X172930671Y-44035970D01*
X172907571Y-44044235D01*
X172883773Y-44050196D01*
X172859504Y-44053796D01*
X172835000Y-44055000D01*
X172085000Y-44055000D01*
X172060496Y-44053796D01*
X172036227Y-44050196D01*
X172012429Y-44044235D01*
X171989329Y-44035970D01*
X171967151Y-44025480D01*
X171946107Y-44012867D01*
X171926402Y-43998253D01*
X171908223Y-43981777D01*
X171891747Y-43963598D01*
X171877133Y-43943893D01*
X171864520Y-43922849D01*
X171854030Y-43900671D01*
X171845765Y-43877571D01*
X171839804Y-43853773D01*
X171836204Y-43829504D01*
X171835000Y-43805000D01*
X171835000Y-42555000D01*
X171836204Y-42530496D01*
X171839804Y-42506227D01*
X171845765Y-42482429D01*
X171854030Y-42459329D01*
X171864520Y-42437151D01*
X171877133Y-42416107D01*
X171891747Y-42396402D01*
X171908223Y-42378223D01*
X171926402Y-42361747D01*
X171946107Y-42347133D01*
X171967151Y-42334520D01*
X171989329Y-42324030D01*
X172012429Y-42315765D01*
X172036227Y-42309804D01*
X172060496Y-42306204D01*
X172085000Y-42305000D01*
X172835000Y-42305000D01*
X172859504Y-42306204D01*
G37*
G36*
X154199504Y-72786204D02*
G01*
X154223773Y-72789804D01*
X154247571Y-72795765D01*
X154270671Y-72804030D01*
X154292849Y-72814520D01*
X154313893Y-72827133D01*
X154333598Y-72841747D01*
X154351777Y-72858223D01*
X154368253Y-72876402D01*
X154382867Y-72896107D01*
X154395480Y-72917151D01*
X154405970Y-72939329D01*
X154414235Y-72962429D01*
X154420196Y-72986227D01*
X154423796Y-73010496D01*
X154425000Y-73035000D01*
X154425000Y-74285000D01*
X154423796Y-74309504D01*
X154420196Y-74333773D01*
X154414235Y-74357571D01*
X154405970Y-74380671D01*
X154395480Y-74402849D01*
X154382867Y-74423893D01*
X154368253Y-74443598D01*
X154351777Y-74461777D01*
X154333598Y-74478253D01*
X154313893Y-74492867D01*
X154292849Y-74505480D01*
X154270671Y-74515970D01*
X154247571Y-74524235D01*
X154223773Y-74530196D01*
X154199504Y-74533796D01*
X154175000Y-74535000D01*
X153425000Y-74535000D01*
X153400496Y-74533796D01*
X153376227Y-74530196D01*
X153352429Y-74524235D01*
X153329329Y-74515970D01*
X153307151Y-74505480D01*
X153286107Y-74492867D01*
X153266402Y-74478253D01*
X153248223Y-74461777D01*
X153231747Y-74443598D01*
X153217133Y-74423893D01*
X153204520Y-74402849D01*
X153194030Y-74380671D01*
X153185765Y-74357571D01*
X153179804Y-74333773D01*
X153176204Y-74309504D01*
X153175000Y-74285000D01*
X153175000Y-73035000D01*
X153176204Y-73010496D01*
X153179804Y-72986227D01*
X153185765Y-72962429D01*
X153194030Y-72939329D01*
X153204520Y-72917151D01*
X153217133Y-72896107D01*
X153231747Y-72876402D01*
X153248223Y-72858223D01*
X153266402Y-72841747D01*
X153286107Y-72827133D01*
X153307151Y-72814520D01*
X153329329Y-72804030D01*
X153352429Y-72795765D01*
X153376227Y-72789804D01*
X153400496Y-72786204D01*
X153425000Y-72785000D01*
X154175000Y-72785000D01*
X154199504Y-72786204D01*
G37*
G36*
X151399504Y-72786204D02*
G01*
X151423773Y-72789804D01*
X151447571Y-72795765D01*
X151470671Y-72804030D01*
X151492849Y-72814520D01*
X151513893Y-72827133D01*
X151533598Y-72841747D01*
X151551777Y-72858223D01*
X151568253Y-72876402D01*
X151582867Y-72896107D01*
X151595480Y-72917151D01*
X151605970Y-72939329D01*
X151614235Y-72962429D01*
X151620196Y-72986227D01*
X151623796Y-73010496D01*
X151625000Y-73035000D01*
X151625000Y-74285000D01*
X151623796Y-74309504D01*
X151620196Y-74333773D01*
X151614235Y-74357571D01*
X151605970Y-74380671D01*
X151595480Y-74402849D01*
X151582867Y-74423893D01*
X151568253Y-74443598D01*
X151551777Y-74461777D01*
X151533598Y-74478253D01*
X151513893Y-74492867D01*
X151492849Y-74505480D01*
X151470671Y-74515970D01*
X151447571Y-74524235D01*
X151423773Y-74530196D01*
X151399504Y-74533796D01*
X151375000Y-74535000D01*
X150625000Y-74535000D01*
X150600496Y-74533796D01*
X150576227Y-74530196D01*
X150552429Y-74524235D01*
X150529329Y-74515970D01*
X150507151Y-74505480D01*
X150486107Y-74492867D01*
X150466402Y-74478253D01*
X150448223Y-74461777D01*
X150431747Y-74443598D01*
X150417133Y-74423893D01*
X150404520Y-74402849D01*
X150394030Y-74380671D01*
X150385765Y-74357571D01*
X150379804Y-74333773D01*
X150376204Y-74309504D01*
X150375000Y-74285000D01*
X150375000Y-73035000D01*
X150376204Y-73010496D01*
X150379804Y-72986227D01*
X150385765Y-72962429D01*
X150394030Y-72939329D01*
X150404520Y-72917151D01*
X150417133Y-72896107D01*
X150431747Y-72876402D01*
X150448223Y-72858223D01*
X150466402Y-72841747D01*
X150486107Y-72827133D01*
X150507151Y-72814520D01*
X150529329Y-72804030D01*
X150552429Y-72795765D01*
X150576227Y-72789804D01*
X150600496Y-72786204D01*
X150625000Y-72785000D01*
X151375000Y-72785000D01*
X151399504Y-72786204D01*
G37*
G36*
X160419504Y-72786204D02*
G01*
X160443773Y-72789804D01*
X160467571Y-72795765D01*
X160490671Y-72804030D01*
X160512849Y-72814520D01*
X160533893Y-72827133D01*
X160553598Y-72841747D01*
X160571777Y-72858223D01*
X160588253Y-72876402D01*
X160602867Y-72896107D01*
X160615480Y-72917151D01*
X160625970Y-72939329D01*
X160634235Y-72962429D01*
X160640196Y-72986227D01*
X160643796Y-73010496D01*
X160645000Y-73035000D01*
X160645000Y-74285000D01*
X160643796Y-74309504D01*
X160640196Y-74333773D01*
X160634235Y-74357571D01*
X160625970Y-74380671D01*
X160615480Y-74402849D01*
X160602867Y-74423893D01*
X160588253Y-74443598D01*
X160571777Y-74461777D01*
X160553598Y-74478253D01*
X160533893Y-74492867D01*
X160512849Y-74505480D01*
X160490671Y-74515970D01*
X160467571Y-74524235D01*
X160443773Y-74530196D01*
X160419504Y-74533796D01*
X160395000Y-74535000D01*
X159645000Y-74535000D01*
X159620496Y-74533796D01*
X159596227Y-74530196D01*
X159572429Y-74524235D01*
X159549329Y-74515970D01*
X159527151Y-74505480D01*
X159506107Y-74492867D01*
X159486402Y-74478253D01*
X159468223Y-74461777D01*
X159451747Y-74443598D01*
X159437133Y-74423893D01*
X159424520Y-74402849D01*
X159414030Y-74380671D01*
X159405765Y-74357571D01*
X159399804Y-74333773D01*
X159396204Y-74309504D01*
X159395000Y-74285000D01*
X159395000Y-73035000D01*
X159396204Y-73010496D01*
X159399804Y-72986227D01*
X159405765Y-72962429D01*
X159414030Y-72939329D01*
X159424520Y-72917151D01*
X159437133Y-72896107D01*
X159451747Y-72876402D01*
X159468223Y-72858223D01*
X159486402Y-72841747D01*
X159506107Y-72827133D01*
X159527151Y-72814520D01*
X159549329Y-72804030D01*
X159572429Y-72795765D01*
X159596227Y-72789804D01*
X159620496Y-72786204D01*
X159645000Y-72785000D01*
X160395000Y-72785000D01*
X160419504Y-72786204D01*
G37*
G36*
X157619504Y-72786204D02*
G01*
X157643773Y-72789804D01*
X157667571Y-72795765D01*
X157690671Y-72804030D01*
X157712849Y-72814520D01*
X157733893Y-72827133D01*
X157753598Y-72841747D01*
X157771777Y-72858223D01*
X157788253Y-72876402D01*
X157802867Y-72896107D01*
X157815480Y-72917151D01*
X157825970Y-72939329D01*
X157834235Y-72962429D01*
X157840196Y-72986227D01*
X157843796Y-73010496D01*
X157845000Y-73035000D01*
X157845000Y-74285000D01*
X157843796Y-74309504D01*
X157840196Y-74333773D01*
X157834235Y-74357571D01*
X157825970Y-74380671D01*
X157815480Y-74402849D01*
X157802867Y-74423893D01*
X157788253Y-74443598D01*
X157771777Y-74461777D01*
X157753598Y-74478253D01*
X157733893Y-74492867D01*
X157712849Y-74505480D01*
X157690671Y-74515970D01*
X157667571Y-74524235D01*
X157643773Y-74530196D01*
X157619504Y-74533796D01*
X157595000Y-74535000D01*
X156845000Y-74535000D01*
X156820496Y-74533796D01*
X156796227Y-74530196D01*
X156772429Y-74524235D01*
X156749329Y-74515970D01*
X156727151Y-74505480D01*
X156706107Y-74492867D01*
X156686402Y-74478253D01*
X156668223Y-74461777D01*
X156651747Y-74443598D01*
X156637133Y-74423893D01*
X156624520Y-74402849D01*
X156614030Y-74380671D01*
X156605765Y-74357571D01*
X156599804Y-74333773D01*
X156596204Y-74309504D01*
X156595000Y-74285000D01*
X156595000Y-73035000D01*
X156596204Y-73010496D01*
X156599804Y-72986227D01*
X156605765Y-72962429D01*
X156614030Y-72939329D01*
X156624520Y-72917151D01*
X156637133Y-72896107D01*
X156651747Y-72876402D01*
X156668223Y-72858223D01*
X156686402Y-72841747D01*
X156706107Y-72827133D01*
X156727151Y-72814520D01*
X156749329Y-72804030D01*
X156772429Y-72795765D01*
X156796227Y-72789804D01*
X156820496Y-72786204D01*
X156845000Y-72785000D01*
X157595000Y-72785000D01*
X157619504Y-72786204D01*
G37*
M02*
