G04 #@! TF.GenerationSoftware,KiCad,Pcbnew,(5.1.5-0-10_14)*
G04 #@! TF.CreationDate,2020-03-17T09:24:28-05:00*
G04 #@! TF.ProjectId,pulse,70756c73-652e-46b6-9963-61645f706362,rev?*
G04 #@! TF.SameCoordinates,Original*
G04 #@! TF.FileFunction,Legend,Bot*
G04 #@! TF.FilePolarity,Positive*
%FSLAX46Y46*%
G04 Gerber Fmt 4.6, Leading zero omitted, Abs format (unit mm)*
G04 Created by KiCad (PCBNEW (5.1.5-0-10_14)) date 2020-03-17 09:24:28*
%MOMM*%
%LPD*%
G04 APERTURE LIST*
%ADD10C,0.150000*%
%ADD11C,0.152400*%
%ADD12C,0.120000*%
G04 APERTURE END LIST*
D10*
X176919942Y-76449180D02*
X176919942Y-75449180D01*
X176491371Y-76449180D02*
X176491371Y-75925371D01*
X176538990Y-75830133D01*
X176634228Y-75782514D01*
X176777085Y-75782514D01*
X176872323Y-75830133D01*
X176919942Y-75877752D01*
X176158038Y-75782514D02*
X175777085Y-75782514D01*
X176015180Y-75449180D02*
X176015180Y-76306323D01*
X175967561Y-76401561D01*
X175872323Y-76449180D01*
X175777085Y-76449180D01*
X175586609Y-75782514D02*
X175205657Y-75782514D01*
X175443752Y-75449180D02*
X175443752Y-76306323D01*
X175396133Y-76401561D01*
X175300895Y-76449180D01*
X175205657Y-76449180D01*
X174872323Y-75782514D02*
X174872323Y-76782514D01*
X174872323Y-75830133D02*
X174777085Y-75782514D01*
X174586609Y-75782514D01*
X174491371Y-75830133D01*
X174443752Y-75877752D01*
X174396133Y-75972990D01*
X174396133Y-76258704D01*
X174443752Y-76353942D01*
X174491371Y-76401561D01*
X174586609Y-76449180D01*
X174777085Y-76449180D01*
X174872323Y-76401561D01*
X174015180Y-76401561D02*
X173919942Y-76449180D01*
X173729466Y-76449180D01*
X173634228Y-76401561D01*
X173586609Y-76306323D01*
X173586609Y-76258704D01*
X173634228Y-76163466D01*
X173729466Y-76115847D01*
X173872323Y-76115847D01*
X173967561Y-76068228D01*
X174015180Y-75972990D01*
X174015180Y-75925371D01*
X173967561Y-75830133D01*
X173872323Y-75782514D01*
X173729466Y-75782514D01*
X173634228Y-75830133D01*
X173158038Y-76353942D02*
X173110419Y-76401561D01*
X173158038Y-76449180D01*
X173205657Y-76401561D01*
X173158038Y-76353942D01*
X173158038Y-76449180D01*
X173158038Y-75830133D02*
X173110419Y-75877752D01*
X173158038Y-75925371D01*
X173205657Y-75877752D01*
X173158038Y-75830133D01*
X173158038Y-75925371D01*
X171967561Y-75401561D02*
X172824704Y-76687276D01*
X170919942Y-75401561D02*
X171777085Y-76687276D01*
X170158038Y-75782514D02*
X170158038Y-76592038D01*
X170205657Y-76687276D01*
X170253276Y-76734895D01*
X170348514Y-76782514D01*
X170491371Y-76782514D01*
X170586609Y-76734895D01*
X170158038Y-76401561D02*
X170253276Y-76449180D01*
X170443752Y-76449180D01*
X170538990Y-76401561D01*
X170586609Y-76353942D01*
X170634228Y-76258704D01*
X170634228Y-75972990D01*
X170586609Y-75877752D01*
X170538990Y-75830133D01*
X170443752Y-75782514D01*
X170253276Y-75782514D01*
X170158038Y-75830133D01*
X169681847Y-76449180D02*
X169681847Y-75782514D01*
X169681847Y-75449180D02*
X169729466Y-75496800D01*
X169681847Y-75544419D01*
X169634228Y-75496800D01*
X169681847Y-75449180D01*
X169681847Y-75544419D01*
X169348514Y-75782514D02*
X168967561Y-75782514D01*
X169205657Y-75449180D02*
X169205657Y-76306323D01*
X169158038Y-76401561D01*
X169062800Y-76449180D01*
X168967561Y-76449180D01*
X168634228Y-76449180D02*
X168634228Y-75449180D01*
X168205657Y-76449180D02*
X168205657Y-75925371D01*
X168253276Y-75830133D01*
X168348514Y-75782514D01*
X168491371Y-75782514D01*
X168586609Y-75830133D01*
X168634228Y-75877752D01*
X167300895Y-75782514D02*
X167300895Y-76449180D01*
X167729466Y-75782514D02*
X167729466Y-76306323D01*
X167681847Y-76401561D01*
X167586609Y-76449180D01*
X167443752Y-76449180D01*
X167348514Y-76401561D01*
X167300895Y-76353942D01*
X166824704Y-76449180D02*
X166824704Y-75449180D01*
X166824704Y-75830133D02*
X166729466Y-75782514D01*
X166538990Y-75782514D01*
X166443752Y-75830133D01*
X166396133Y-75877752D01*
X166348514Y-75972990D01*
X166348514Y-76258704D01*
X166396133Y-76353942D01*
X166443752Y-76401561D01*
X166538990Y-76449180D01*
X166729466Y-76449180D01*
X166824704Y-76401561D01*
X165919942Y-76353942D02*
X165872323Y-76401561D01*
X165919942Y-76449180D01*
X165967561Y-76401561D01*
X165919942Y-76353942D01*
X165919942Y-76449180D01*
X165015180Y-76401561D02*
X165110419Y-76449180D01*
X165300895Y-76449180D01*
X165396133Y-76401561D01*
X165443752Y-76353942D01*
X165491371Y-76258704D01*
X165491371Y-75972990D01*
X165443752Y-75877752D01*
X165396133Y-75830133D01*
X165300895Y-75782514D01*
X165110419Y-75782514D01*
X165015180Y-75830133D01*
X164443752Y-76449180D02*
X164538990Y-76401561D01*
X164586609Y-76353942D01*
X164634228Y-76258704D01*
X164634228Y-75972990D01*
X164586609Y-75877752D01*
X164538990Y-75830133D01*
X164443752Y-75782514D01*
X164300895Y-75782514D01*
X164205657Y-75830133D01*
X164158038Y-75877752D01*
X164110419Y-75972990D01*
X164110419Y-76258704D01*
X164158038Y-76353942D01*
X164205657Y-76401561D01*
X164300895Y-76449180D01*
X164443752Y-76449180D01*
X163681847Y-76449180D02*
X163681847Y-75782514D01*
X163681847Y-75877752D02*
X163634228Y-75830133D01*
X163538990Y-75782514D01*
X163396133Y-75782514D01*
X163300895Y-75830133D01*
X163253276Y-75925371D01*
X163253276Y-76449180D01*
X163253276Y-75925371D02*
X163205657Y-75830133D01*
X163110419Y-75782514D01*
X162967561Y-75782514D01*
X162872323Y-75830133D01*
X162824704Y-75925371D01*
X162824704Y-76449180D01*
X161634228Y-75401561D02*
X162491371Y-76687276D01*
X161300895Y-76449180D02*
X161300895Y-75782514D01*
X161300895Y-75449180D02*
X161348514Y-75496800D01*
X161300895Y-75544419D01*
X161253276Y-75496800D01*
X161300895Y-75449180D01*
X161300895Y-75544419D01*
X160872323Y-76401561D02*
X160777085Y-76449180D01*
X160586609Y-76449180D01*
X160491371Y-76401561D01*
X160443752Y-76306323D01*
X160443752Y-76258704D01*
X160491371Y-76163466D01*
X160586609Y-76115847D01*
X160729466Y-76115847D01*
X160824704Y-76068228D01*
X160872323Y-75972990D01*
X160872323Y-75925371D01*
X160824704Y-75830133D01*
X160729466Y-75782514D01*
X160586609Y-75782514D01*
X160491371Y-75830133D01*
X159872323Y-76449180D02*
X159967561Y-76401561D01*
X160015180Y-76353942D01*
X160062800Y-76258704D01*
X160062800Y-75972990D01*
X160015180Y-75877752D01*
X159967561Y-75830133D01*
X159872323Y-75782514D01*
X159729466Y-75782514D01*
X159634228Y-75830133D01*
X159586609Y-75877752D01*
X159538990Y-75972990D01*
X159538990Y-76258704D01*
X159586609Y-76353942D01*
X159634228Y-76401561D01*
X159729466Y-76449180D01*
X159872323Y-76449180D01*
X159110419Y-76449180D02*
X159110419Y-75782514D01*
X159110419Y-75877752D02*
X159062800Y-75830133D01*
X158967561Y-75782514D01*
X158824704Y-75782514D01*
X158729466Y-75830133D01*
X158681847Y-75925371D01*
X158681847Y-76449180D01*
X158681847Y-75925371D02*
X158634228Y-75830133D01*
X158538990Y-75782514D01*
X158396133Y-75782514D01*
X158300895Y-75830133D01*
X158253276Y-75925371D01*
X158253276Y-76449180D01*
X157634228Y-76449180D02*
X157729466Y-76401561D01*
X157777085Y-76353942D01*
X157824704Y-76258704D01*
X157824704Y-75972990D01*
X157777085Y-75877752D01*
X157729466Y-75830133D01*
X157634228Y-75782514D01*
X157491371Y-75782514D01*
X157396133Y-75830133D01*
X157348514Y-75877752D01*
X157300895Y-75972990D01*
X157300895Y-76258704D01*
X157348514Y-76353942D01*
X157396133Y-76401561D01*
X157491371Y-76449180D01*
X157634228Y-76449180D01*
X156872323Y-76449180D02*
X156872323Y-75782514D01*
X156872323Y-75972990D02*
X156824704Y-75877752D01*
X156777085Y-75830133D01*
X156681847Y-75782514D01*
X156586609Y-75782514D01*
X156253276Y-75782514D02*
X156253276Y-76782514D01*
X156253276Y-75830133D02*
X156158038Y-75782514D01*
X155967561Y-75782514D01*
X155872323Y-75830133D01*
X155824704Y-75877752D01*
X155777085Y-75972990D01*
X155777085Y-76258704D01*
X155824704Y-76353942D01*
X155872323Y-76401561D01*
X155967561Y-76449180D01*
X156158038Y-76449180D01*
X156253276Y-76401561D01*
X155348514Y-76449180D02*
X155348514Y-75449180D01*
X154919942Y-76449180D02*
X154919942Y-75925371D01*
X154967561Y-75830133D01*
X155062800Y-75782514D01*
X155205657Y-75782514D01*
X155300895Y-75830133D01*
X155348514Y-75877752D01*
X154443752Y-76068228D02*
X153681847Y-76068228D01*
X153205657Y-76449180D02*
X153205657Y-75782514D01*
X153205657Y-75972990D02*
X153158038Y-75877752D01*
X153110419Y-75830133D01*
X153015180Y-75782514D01*
X152919942Y-75782514D01*
X152205657Y-76401561D02*
X152300895Y-76449180D01*
X152491371Y-76449180D01*
X152586609Y-76401561D01*
X152634228Y-76306323D01*
X152634228Y-75925371D01*
X152586609Y-75830133D01*
X152491371Y-75782514D01*
X152300895Y-75782514D01*
X152205657Y-75830133D01*
X152158038Y-75925371D01*
X152158038Y-76020609D01*
X152634228Y-76115847D01*
X151777085Y-76401561D02*
X151681847Y-76449180D01*
X151491371Y-76449180D01*
X151396133Y-76401561D01*
X151348514Y-76306323D01*
X151348514Y-76258704D01*
X151396133Y-76163466D01*
X151491371Y-76115847D01*
X151634228Y-76115847D01*
X151729466Y-76068228D01*
X151777085Y-75972990D01*
X151777085Y-75925371D01*
X151729466Y-75830133D01*
X151634228Y-75782514D01*
X151491371Y-75782514D01*
X151396133Y-75830133D01*
X150538990Y-76401561D02*
X150634228Y-76449180D01*
X150824704Y-76449180D01*
X150919942Y-76401561D01*
X150967561Y-76306323D01*
X150967561Y-75925371D01*
X150919942Y-75830133D01*
X150824704Y-75782514D01*
X150634228Y-75782514D01*
X150538990Y-75830133D01*
X150491371Y-75925371D01*
X150491371Y-76020609D01*
X150967561Y-76115847D01*
X149634228Y-76449180D02*
X149634228Y-75925371D01*
X149681847Y-75830133D01*
X149777085Y-75782514D01*
X149967561Y-75782514D01*
X150062800Y-75830133D01*
X149634228Y-76401561D02*
X149729466Y-76449180D01*
X149967561Y-76449180D01*
X150062800Y-76401561D01*
X150110419Y-76306323D01*
X150110419Y-76211085D01*
X150062800Y-76115847D01*
X149967561Y-76068228D01*
X149729466Y-76068228D01*
X149634228Y-76020609D01*
X149158038Y-76449180D02*
X149158038Y-75782514D01*
X149158038Y-75972990D02*
X149110419Y-75877752D01*
X149062800Y-75830133D01*
X148967561Y-75782514D01*
X148872323Y-75782514D01*
X148110419Y-76401561D02*
X148205657Y-76449180D01*
X148396133Y-76449180D01*
X148491371Y-76401561D01*
X148538990Y-76353942D01*
X148586609Y-76258704D01*
X148586609Y-75972990D01*
X148538990Y-75877752D01*
X148491371Y-75830133D01*
X148396133Y-75782514D01*
X148205657Y-75782514D01*
X148110419Y-75830133D01*
X147681847Y-76449180D02*
X147681847Y-75449180D01*
X147253276Y-76449180D02*
X147253276Y-75925371D01*
X147300895Y-75830133D01*
X147396133Y-75782514D01*
X147538990Y-75782514D01*
X147634228Y-75830133D01*
X147681847Y-75877752D01*
X146062800Y-75401561D02*
X146919942Y-76687276D01*
X145729466Y-75782514D02*
X145729466Y-76782514D01*
X145729466Y-75830133D02*
X145634228Y-75782514D01*
X145443752Y-75782514D01*
X145348514Y-75830133D01*
X145300895Y-75877752D01*
X145253276Y-75972990D01*
X145253276Y-76258704D01*
X145300895Y-76353942D01*
X145348514Y-76401561D01*
X145443752Y-76449180D01*
X145634228Y-76449180D01*
X145729466Y-76401561D01*
X144396133Y-75782514D02*
X144396133Y-76449180D01*
X144824704Y-75782514D02*
X144824704Y-76306323D01*
X144777085Y-76401561D01*
X144681847Y-76449180D01*
X144538990Y-76449180D01*
X144443752Y-76401561D01*
X144396133Y-76353942D01*
X143777085Y-76449180D02*
X143872323Y-76401561D01*
X143919942Y-76306323D01*
X143919942Y-75449180D01*
X143443752Y-76401561D02*
X143348514Y-76449180D01*
X143158038Y-76449180D01*
X143062800Y-76401561D01*
X143015180Y-76306323D01*
X143015180Y-76258704D01*
X143062800Y-76163466D01*
X143158038Y-76115847D01*
X143300895Y-76115847D01*
X143396133Y-76068228D01*
X143443752Y-75972990D01*
X143443752Y-75925371D01*
X143396133Y-75830133D01*
X143300895Y-75782514D01*
X143158038Y-75782514D01*
X143062800Y-75830133D01*
X142205657Y-76401561D02*
X142300895Y-76449180D01*
X142491371Y-76449180D01*
X142586609Y-76401561D01*
X142634228Y-76306323D01*
X142634228Y-75925371D01*
X142586609Y-75830133D01*
X142491371Y-75782514D01*
X142300895Y-75782514D01*
X142205657Y-75830133D01*
X142158038Y-75925371D01*
X142158038Y-76020609D01*
X142634228Y-76115847D01*
D11*
X153439000Y-63050560D02*
X153439000Y-50050560D01*
X140439000Y-50050560D02*
X140439000Y-63050560D01*
X140439000Y-63050560D02*
X153439000Y-63050560D01*
X153439000Y-50050560D02*
X140439000Y-50050560D01*
X166266000Y-63050560D02*
X166266000Y-50050560D01*
X153266000Y-50050560D02*
X153266000Y-63050560D01*
X153266000Y-63050560D02*
X166266000Y-63050560D01*
X166266000Y-50050560D02*
X153266000Y-50050560D01*
X179093000Y-63050560D02*
X179093000Y-50050560D01*
X166093000Y-50050560D02*
X166093000Y-63050560D01*
X166093000Y-63050560D02*
X179093000Y-63050560D01*
X179093000Y-50050560D02*
X166093000Y-50050560D01*
X140612000Y-63050560D02*
X140612000Y-50050560D01*
X127612000Y-50050560D02*
X127612000Y-63050560D01*
X127612000Y-63050560D02*
X140612000Y-63050560D01*
X140612000Y-50050560D02*
X127612000Y-50050560D01*
D12*
X124836422Y-69521000D02*
X125353578Y-69521000D01*
X124836422Y-70941000D02*
X125353578Y-70941000D01*
X156770000Y-65663578D02*
X156770000Y-65146422D01*
X158190000Y-65663578D02*
X158190000Y-65146422D01*
X125670000Y-74990000D02*
X127000000Y-74990000D01*
X125670000Y-73660000D02*
X125670000Y-74990000D01*
X125670000Y-72390000D02*
X128330000Y-72390000D01*
X128330000Y-72390000D02*
X128330000Y-72330000D01*
X125670000Y-72390000D02*
X125670000Y-72330000D01*
X125670000Y-72330000D02*
X128330000Y-72330000D01*
X159528000Y-44917000D02*
X159528000Y-48767000D01*
X161528000Y-44917000D02*
X161528000Y-48767000D01*
X159528000Y-44917000D02*
X161528000Y-44917000D01*
X177308000Y-45676000D02*
X177308000Y-49526000D01*
X179308000Y-45676000D02*
X179308000Y-49526000D01*
X177308000Y-45676000D02*
X179308000Y-45676000D01*
X130317999Y-44790000D02*
X130317999Y-48640000D01*
X132317999Y-44790000D02*
X132317999Y-48640000D01*
X130317999Y-44790000D02*
X132317999Y-44790000D01*
X149311000Y-71231000D02*
X153161000Y-71231000D01*
X149311000Y-69231000D02*
X153161000Y-69231000D01*
X149311000Y-71231000D02*
X149311000Y-69231000D01*
X162241000Y-63861000D02*
X165691000Y-63861000D01*
X162241000Y-63861000D02*
X160291000Y-63861000D01*
X162241000Y-68981000D02*
X164191000Y-68981000D01*
X162241000Y-68981000D02*
X160291000Y-68981000D01*
X175068000Y-63861000D02*
X178518000Y-63861000D01*
X175068000Y-63861000D02*
X173118000Y-63861000D01*
X175068000Y-68981000D02*
X177018000Y-68981000D01*
X175068000Y-68981000D02*
X173118000Y-68981000D01*
X136587000Y-63861000D02*
X140037000Y-63861000D01*
X136587000Y-63861000D02*
X134637000Y-63861000D01*
X136587000Y-68981000D02*
X138537000Y-68981000D01*
X136587000Y-68981000D02*
X134637000Y-68981000D01*
X149414000Y-63734000D02*
X152864000Y-63734000D01*
X149414000Y-63734000D02*
X147464000Y-63734000D01*
X149414000Y-68854000D02*
X151364000Y-68854000D01*
X149414000Y-68854000D02*
X147464000Y-68854000D01*
X120904000Y-67015000D02*
X118029000Y-67015000D01*
X120904000Y-67015000D02*
X122404000Y-67015000D01*
X120904000Y-63795000D02*
X119404000Y-63795000D01*
X120904000Y-63795000D02*
X122404000Y-63795000D01*
X115510000Y-72330000D02*
X115510000Y-73660000D01*
X116840000Y-72330000D02*
X115510000Y-72330000D01*
X118110000Y-72330000D02*
X118110000Y-74990000D01*
X118110000Y-74990000D02*
X123250000Y-74990000D01*
X118110000Y-72330000D02*
X123250000Y-72330000D01*
X123250000Y-72330000D02*
X123250000Y-74990000D01*
X137489000Y-44064422D02*
X137489000Y-44581578D01*
X136069000Y-44064422D02*
X136069000Y-44581578D01*
X119836000Y-45715422D02*
X119836000Y-46232578D01*
X118416000Y-45715422D02*
X118416000Y-46232578D01*
X155396000Y-43937422D02*
X155396000Y-44454578D01*
X153976000Y-43937422D02*
X153976000Y-44454578D01*
X173176000Y-43888921D02*
X173176000Y-44406077D01*
X171756000Y-43888921D02*
X171756000Y-44406077D01*
X147188422Y-69394000D02*
X147705578Y-69394000D01*
X147188422Y-70814000D02*
X147705578Y-70814000D01*
X145363000Y-68638922D02*
X145363000Y-69156078D01*
X143943000Y-68638922D02*
X143943000Y-69156078D01*
X160093922Y-69521000D02*
X160611078Y-69521000D01*
X160093922Y-70941000D02*
X160611078Y-70941000D01*
X158190000Y-68638922D02*
X158190000Y-69156078D01*
X156770000Y-68638922D02*
X156770000Y-69156078D01*
X172842422Y-69521000D02*
X173359578Y-69521000D01*
X172842422Y-70941000D02*
X173359578Y-70941000D01*
X171017000Y-68702422D02*
X171017000Y-69219578D01*
X169597000Y-68702422D02*
X169597000Y-69219578D01*
X134361422Y-69521000D02*
X134878578Y-69521000D01*
X134361422Y-70941000D02*
X134878578Y-70941000D01*
X132536000Y-68575422D02*
X132536000Y-69092578D01*
X131116000Y-68575422D02*
X131116000Y-69092578D01*
X169597000Y-65712078D02*
X169597000Y-65194922D01*
X171017000Y-65712078D02*
X171017000Y-65194922D01*
X131116000Y-65663578D02*
X131116000Y-65146422D01*
X132536000Y-65663578D02*
X132536000Y-65146422D01*
X143943000Y-65663578D02*
X143943000Y-65146422D01*
X145363000Y-65663578D02*
X145363000Y-65146422D01*
X189536000Y-53901078D02*
X189536000Y-53383922D01*
X190956000Y-53901078D02*
X190956000Y-53383922D01*
X188924001Y-53413922D02*
X188924001Y-53931078D01*
X187504001Y-53413922D02*
X187504001Y-53931078D01*
X189536000Y-57535578D02*
X189536000Y-57018422D01*
X190956000Y-57535578D02*
X190956000Y-57018422D01*
X188924000Y-57018422D02*
X188924000Y-57535578D01*
X187504000Y-57018422D02*
X187504000Y-57535578D01*
X117423000Y-56891422D02*
X117423000Y-57408578D01*
X116003000Y-56891422D02*
X116003000Y-57408578D01*
X118035000Y-57408578D02*
X118035000Y-56891422D01*
X119455000Y-57408578D02*
X119455000Y-56891422D01*
X117423000Y-53335422D02*
X117423000Y-53852578D01*
X116003000Y-53335422D02*
X116003000Y-53852578D01*
X118035000Y-53852578D02*
X118035000Y-53335422D01*
X119455000Y-53852578D02*
X119455000Y-53335422D01*
X152395422Y-72950000D02*
X152912578Y-72950000D01*
X152395422Y-74370000D02*
X152912578Y-74370000D01*
X158618422Y-72950000D02*
X159135578Y-72950000D01*
X158618422Y-74370000D02*
X159135578Y-74370000D01*
X126115578Y-67131000D02*
X125598422Y-67131000D01*
X126115578Y-65711000D02*
X125598422Y-65711000D01*
X116209578Y-65099000D02*
X115692422Y-65099000D01*
X116209578Y-63679000D02*
X115692422Y-63679000D01*
X116209578Y-67131000D02*
X115692422Y-67131000D01*
X116209578Y-65711000D02*
X115692422Y-65711000D01*
X135180000Y-75950578D02*
X135180000Y-75433422D01*
X136600000Y-75950578D02*
X136600000Y-75433422D01*
X128773422Y-69394000D02*
X129290578Y-69394000D01*
X128773422Y-70814000D02*
X129290578Y-70814000D01*
X183840000Y-52961000D02*
X183840000Y-54421000D01*
X187000000Y-52961000D02*
X187000000Y-55121000D01*
X187000000Y-52961000D02*
X186070000Y-52961000D01*
X183840000Y-52961000D02*
X184770000Y-52961000D01*
X183840000Y-56644000D02*
X183840000Y-58104000D01*
X187000000Y-56644000D02*
X187000000Y-58804000D01*
X187000000Y-56644000D02*
X186070000Y-56644000D01*
X183840000Y-56644000D02*
X184770000Y-56644000D01*
X123119000Y-57910000D02*
X123119000Y-56450000D01*
X119959000Y-57910000D02*
X119959000Y-55750000D01*
X119959000Y-57910000D02*
X120889000Y-57910000D01*
X123119000Y-57910000D02*
X122189000Y-57910000D01*
X123119000Y-54354000D02*
X123119000Y-52894000D01*
X119959000Y-54354000D02*
X119959000Y-52194000D01*
X119959000Y-54354000D02*
X120889000Y-54354000D01*
X123119000Y-54354000D02*
X122189000Y-54354000D01*
X120590000Y-49590000D02*
X121920000Y-49590000D01*
X120590000Y-48260000D02*
X120590000Y-49590000D01*
X120590000Y-46990000D02*
X123250000Y-46990000D01*
X123250000Y-46990000D02*
X123250000Y-46930000D01*
X120590000Y-46990000D02*
X120590000Y-46930000D01*
X120590000Y-46930000D02*
X123250000Y-46930000D01*
X156150000Y-49590000D02*
X157480000Y-49590000D01*
X156150000Y-48260000D02*
X156150000Y-49590000D01*
X156150000Y-46990000D02*
X158810000Y-46990000D01*
X158810000Y-46990000D02*
X158810000Y-46930000D01*
X156150000Y-46990000D02*
X156150000Y-46930000D01*
X156150000Y-46930000D02*
X158810000Y-46930000D01*
X173930000Y-49590000D02*
X175260000Y-49590000D01*
X173930000Y-48260000D02*
X173930000Y-49590000D01*
X173930000Y-46990000D02*
X176590000Y-46990000D01*
X176590000Y-46990000D02*
X176590000Y-46930000D01*
X173930000Y-46990000D02*
X173930000Y-46930000D01*
X173930000Y-46930000D02*
X176590000Y-46930000D01*
X138370000Y-49590000D02*
X139700000Y-49590000D01*
X138370000Y-48260000D02*
X138370000Y-49590000D01*
X138370000Y-46990000D02*
X141030000Y-46990000D01*
X141030000Y-46990000D02*
X141030000Y-46930000D01*
X138370000Y-46990000D02*
X138370000Y-46930000D01*
X138370000Y-46930000D02*
X141030000Y-46930000D01*
X151070000Y-49590000D02*
X152400000Y-49590000D01*
X151070000Y-48260000D02*
X151070000Y-49590000D01*
X151070000Y-46990000D02*
X153730000Y-46990000D01*
X153730000Y-46990000D02*
X153730000Y-46930000D01*
X151070000Y-46990000D02*
X151070000Y-46930000D01*
X151070000Y-46930000D02*
X153730000Y-46930000D01*
X168850000Y-49590000D02*
X170180000Y-49590000D01*
X168850000Y-48260000D02*
X168850000Y-49590000D01*
X168850000Y-46990000D02*
X171510000Y-46990000D01*
X171510000Y-46990000D02*
X171510000Y-46930000D01*
X168850000Y-46990000D02*
X168850000Y-46930000D01*
X168850000Y-46930000D02*
X171510000Y-46930000D01*
X115510000Y-49590000D02*
X116840000Y-49590000D01*
X115510000Y-48260000D02*
X115510000Y-49590000D01*
X115510000Y-46990000D02*
X118170000Y-46990000D01*
X118170000Y-46990000D02*
X118170000Y-46930000D01*
X115510000Y-46990000D02*
X115510000Y-46930000D01*
X115510000Y-46930000D02*
X118170000Y-46930000D01*
X133290000Y-49590000D02*
X134620000Y-49590000D01*
X133290000Y-48260000D02*
X133290000Y-49590000D01*
X133290000Y-46990000D02*
X135950000Y-46990000D01*
X135950000Y-46990000D02*
X135950000Y-46930000D01*
X133290000Y-46990000D02*
X133290000Y-46930000D01*
X133290000Y-46930000D02*
X135950000Y-46930000D01*
X163770000Y-72330000D02*
X163770000Y-73660000D01*
X165100000Y-72330000D02*
X163770000Y-72330000D01*
X166370000Y-72330000D02*
X166370000Y-74990000D01*
X166370000Y-74990000D02*
X176590000Y-74990000D01*
X166370000Y-72330000D02*
X176590000Y-72330000D01*
X176590000Y-72330000D02*
X176590000Y-74990000D01*
X145990000Y-74990000D02*
X147320000Y-74990000D01*
X145990000Y-73660000D02*
X145990000Y-74990000D01*
X145990000Y-72390000D02*
X148650000Y-72390000D01*
X148650000Y-72390000D02*
X148650000Y-72330000D01*
X145990000Y-72390000D02*
X145990000Y-72330000D01*
X145990000Y-72330000D02*
X148650000Y-72330000D01*
X140910000Y-74990000D02*
X142240000Y-74990000D01*
X140910000Y-73660000D02*
X140910000Y-74990000D01*
X140910000Y-72390000D02*
X143570000Y-72390000D01*
X143570000Y-72390000D02*
X143570000Y-72330000D01*
X140910000Y-72390000D02*
X140910000Y-72330000D01*
X140910000Y-72330000D02*
X143570000Y-72330000D01*
X167715000Y-67432422D02*
X167715000Y-67949578D01*
X166295000Y-67432422D02*
X166295000Y-67949578D01*
X180542000Y-67051422D02*
X180542000Y-67568578D01*
X179122000Y-67051422D02*
X179122000Y-67568578D01*
X142061000Y-67432422D02*
X142061000Y-67949578D01*
X140641000Y-67432422D02*
X140641000Y-67949578D01*
X155396000Y-69083422D02*
X155396000Y-69600578D01*
X153976000Y-69083422D02*
X153976000Y-69600578D01*
X190394000Y-67215935D02*
X190394000Y-68420063D01*
X188574000Y-67215935D02*
X188574000Y-68420063D01*
X183536000Y-67215936D02*
X183536000Y-68420064D01*
X181716000Y-67215936D02*
X181716000Y-68420064D01*
X185822001Y-67215936D02*
X185822001Y-68420064D01*
X184002001Y-67215936D02*
X184002001Y-68420064D01*
X188108001Y-67215936D02*
X188108001Y-68420064D01*
X186288001Y-67215936D02*
X186288001Y-68420064D01*
X116209578Y-69163000D02*
X115692422Y-69163000D01*
X116209578Y-67743000D02*
X115692422Y-67743000D01*
D10*
X149899666Y-49855380D02*
X150375857Y-49855380D01*
X150375857Y-48855380D01*
X149137761Y-49188714D02*
X149137761Y-49855380D01*
X149375857Y-48807761D02*
X149613952Y-49522047D01*
X148994904Y-49522047D01*
X155233666Y-49855380D02*
X155709857Y-49855380D01*
X155709857Y-48855380D01*
X154995571Y-48855380D02*
X154376523Y-48855380D01*
X154709857Y-49236333D01*
X154567000Y-49236333D01*
X154471761Y-49283952D01*
X154424142Y-49331571D01*
X154376523Y-49426809D01*
X154376523Y-49664904D01*
X154424142Y-49760142D01*
X154471761Y-49807761D01*
X154567000Y-49855380D01*
X154852714Y-49855380D01*
X154947952Y-49807761D01*
X154995571Y-49760142D01*
X167425666Y-49728380D02*
X167901857Y-49728380D01*
X167901857Y-48728380D01*
X167139952Y-48823619D02*
X167092333Y-48776000D01*
X166997095Y-48728380D01*
X166759000Y-48728380D01*
X166663761Y-48776000D01*
X166616142Y-48823619D01*
X166568523Y-48918857D01*
X166568523Y-49014095D01*
X166616142Y-49156952D01*
X167187571Y-49728380D01*
X166568523Y-49728380D01*
X137199666Y-49855380D02*
X137675857Y-49855380D01*
X137675857Y-48855380D01*
X136342523Y-49855380D02*
X136913952Y-49855380D01*
X136628238Y-49855380D02*
X136628238Y-48855380D01*
X136723476Y-48998238D01*
X136818714Y-49093476D01*
X136913952Y-49141095D01*
X125428333Y-68635571D02*
X125761666Y-68635571D01*
X125761666Y-69159380D02*
X125761666Y-68159380D01*
X125285476Y-68159380D01*
X124380714Y-69159380D02*
X124952142Y-69159380D01*
X124666428Y-69159380D02*
X124666428Y-68159380D01*
X124761666Y-68302238D01*
X124856904Y-68397476D01*
X124952142Y-68445095D01*
X156281380Y-64762142D02*
X155805190Y-64428809D01*
X156281380Y-64190714D02*
X155281380Y-64190714D01*
X155281380Y-64571666D01*
X155329000Y-64666904D01*
X155376619Y-64714523D01*
X155471857Y-64762142D01*
X155614714Y-64762142D01*
X155709952Y-64714523D01*
X155757571Y-64666904D01*
X155805190Y-64571666D01*
X155805190Y-64190714D01*
X156281380Y-65714523D02*
X156281380Y-65143095D01*
X156281380Y-65428809D02*
X155281380Y-65428809D01*
X155424238Y-65333571D01*
X155519476Y-65238333D01*
X155567095Y-65143095D01*
X156281380Y-66190714D02*
X156281380Y-66381190D01*
X156233761Y-66476428D01*
X156186142Y-66524047D01*
X156043285Y-66619285D01*
X155852809Y-66666904D01*
X155471857Y-66666904D01*
X155376619Y-66619285D01*
X155329000Y-66571666D01*
X155281380Y-66476428D01*
X155281380Y-66285952D01*
X155329000Y-66190714D01*
X155376619Y-66143095D01*
X155471857Y-66095476D01*
X155709952Y-66095476D01*
X155805190Y-66143095D01*
X155852809Y-66190714D01*
X155900428Y-66285952D01*
X155900428Y-66476428D01*
X155852809Y-66571666D01*
X155805190Y-66619285D01*
X155709952Y-66666904D01*
X161266095Y-44648380D02*
X161266095Y-43648380D01*
X161028000Y-43648380D01*
X160885142Y-43696000D01*
X160789904Y-43791238D01*
X160742285Y-43886476D01*
X160694666Y-44076952D01*
X160694666Y-44219809D01*
X160742285Y-44410285D01*
X160789904Y-44505523D01*
X160885142Y-44600761D01*
X161028000Y-44648380D01*
X161266095Y-44648380D01*
X159837523Y-43648380D02*
X160028000Y-43648380D01*
X160123238Y-43696000D01*
X160170857Y-43743619D01*
X160266095Y-43886476D01*
X160313714Y-44076952D01*
X160313714Y-44457904D01*
X160266095Y-44553142D01*
X160218476Y-44600761D01*
X160123238Y-44648380D01*
X159932761Y-44648380D01*
X159837523Y-44600761D01*
X159789904Y-44553142D01*
X159742285Y-44457904D01*
X159742285Y-44219809D01*
X159789904Y-44124571D01*
X159837523Y-44076952D01*
X159932761Y-44029333D01*
X160123238Y-44029333D01*
X160218476Y-44076952D01*
X160266095Y-44124571D01*
X160313714Y-44219809D01*
X179046095Y-45410380D02*
X179046095Y-44410380D01*
X178808000Y-44410380D01*
X178665142Y-44458000D01*
X178569904Y-44553238D01*
X178522285Y-44648476D01*
X178474666Y-44838952D01*
X178474666Y-44981809D01*
X178522285Y-45172285D01*
X178569904Y-45267523D01*
X178665142Y-45362761D01*
X178808000Y-45410380D01*
X179046095Y-45410380D01*
X177569904Y-44410380D02*
X178046095Y-44410380D01*
X178093714Y-44886571D01*
X178046095Y-44838952D01*
X177950857Y-44791333D01*
X177712761Y-44791333D01*
X177617523Y-44838952D01*
X177569904Y-44886571D01*
X177522285Y-44981809D01*
X177522285Y-45219904D01*
X177569904Y-45315142D01*
X177617523Y-45362761D01*
X177712761Y-45410380D01*
X177950857Y-45410380D01*
X178046095Y-45362761D01*
X178093714Y-45315142D01*
X132056095Y-44521380D02*
X132056095Y-43521380D01*
X131818000Y-43521380D01*
X131675142Y-43569000D01*
X131579904Y-43664238D01*
X131532285Y-43759476D01*
X131484666Y-43949952D01*
X131484666Y-44092809D01*
X131532285Y-44283285D01*
X131579904Y-44378523D01*
X131675142Y-44473761D01*
X131818000Y-44521380D01*
X132056095Y-44521380D01*
X130627523Y-43854714D02*
X130627523Y-44521380D01*
X130865619Y-43473761D02*
X131103714Y-44188047D01*
X130484666Y-44188047D01*
X152122095Y-72461380D02*
X152122095Y-71461380D01*
X151884000Y-71461380D01*
X151741142Y-71509000D01*
X151645904Y-71604238D01*
X151598285Y-71699476D01*
X151550666Y-71889952D01*
X151550666Y-72032809D01*
X151598285Y-72223285D01*
X151645904Y-72318523D01*
X151741142Y-72413761D01*
X151884000Y-72461380D01*
X152122095Y-72461380D01*
X151217333Y-71461380D02*
X150598285Y-71461380D01*
X150931619Y-71842333D01*
X150788761Y-71842333D01*
X150693523Y-71889952D01*
X150645904Y-71937571D01*
X150598285Y-72032809D01*
X150598285Y-72270904D01*
X150645904Y-72366142D01*
X150693523Y-72413761D01*
X150788761Y-72461380D01*
X151074476Y-72461380D01*
X151169714Y-72413761D01*
X151217333Y-72366142D01*
X165734904Y-69302380D02*
X165734904Y-70111904D01*
X165687285Y-70207142D01*
X165639666Y-70254761D01*
X165544428Y-70302380D01*
X165353952Y-70302380D01*
X165258714Y-70254761D01*
X165211095Y-70207142D01*
X165163476Y-70111904D01*
X165163476Y-69302380D01*
X164211095Y-69302380D02*
X164687285Y-69302380D01*
X164734904Y-69778571D01*
X164687285Y-69730952D01*
X164592047Y-69683333D01*
X164353952Y-69683333D01*
X164258714Y-69730952D01*
X164211095Y-69778571D01*
X164163476Y-69873809D01*
X164163476Y-70111904D01*
X164211095Y-70207142D01*
X164258714Y-70254761D01*
X164353952Y-70302380D01*
X164592047Y-70302380D01*
X164687285Y-70254761D01*
X164734904Y-70207142D01*
X178688904Y-69429380D02*
X178688904Y-70238904D01*
X178641285Y-70334142D01*
X178593666Y-70381761D01*
X178498428Y-70429380D01*
X178307952Y-70429380D01*
X178212714Y-70381761D01*
X178165095Y-70334142D01*
X178117476Y-70238904D01*
X178117476Y-69429380D01*
X177212714Y-69762714D02*
X177212714Y-70429380D01*
X177450809Y-69381761D02*
X177688904Y-70096047D01*
X177069857Y-70096047D01*
X140080904Y-69429380D02*
X140080904Y-70238904D01*
X140033285Y-70334142D01*
X139985666Y-70381761D01*
X139890428Y-70429380D01*
X139699952Y-70429380D01*
X139604714Y-70381761D01*
X139557095Y-70334142D01*
X139509476Y-70238904D01*
X139509476Y-69429380D01*
X139128523Y-69429380D02*
X138509476Y-69429380D01*
X138842809Y-69810333D01*
X138699952Y-69810333D01*
X138604714Y-69857952D01*
X138557095Y-69905571D01*
X138509476Y-70000809D01*
X138509476Y-70238904D01*
X138557095Y-70334142D01*
X138604714Y-70381761D01*
X138699952Y-70429380D01*
X138985666Y-70429380D01*
X139080904Y-70381761D01*
X139128523Y-70334142D01*
X154344619Y-65277904D02*
X153535095Y-65277904D01*
X153439857Y-65230285D01*
X153392238Y-65182666D01*
X153344619Y-65087428D01*
X153344619Y-64896952D01*
X153392238Y-64801714D01*
X153439857Y-64754095D01*
X153535095Y-64706476D01*
X154344619Y-64706476D01*
X154249380Y-64277904D02*
X154297000Y-64230285D01*
X154344619Y-64135047D01*
X154344619Y-63896952D01*
X154297000Y-63801714D01*
X154249380Y-63754095D01*
X154154142Y-63706476D01*
X154058904Y-63706476D01*
X153916047Y-63754095D01*
X153344619Y-64325523D01*
X153344619Y-63706476D01*
X121665904Y-67307380D02*
X121665904Y-68116904D01*
X121618285Y-68212142D01*
X121570666Y-68259761D01*
X121475428Y-68307380D01*
X121284952Y-68307380D01*
X121189714Y-68259761D01*
X121142095Y-68212142D01*
X121094476Y-68116904D01*
X121094476Y-67307380D01*
X120094476Y-68307380D02*
X120665904Y-68307380D01*
X120380190Y-68307380D02*
X120380190Y-67307380D01*
X120475428Y-67450238D01*
X120570666Y-67545476D01*
X120665904Y-67593095D01*
X135616904Y-43173714D02*
X135235952Y-42907047D01*
X135616904Y-42716571D02*
X134816904Y-42716571D01*
X134816904Y-43021333D01*
X134855000Y-43097523D01*
X134893095Y-43135619D01*
X134969285Y-43173714D01*
X135083571Y-43173714D01*
X135159761Y-43135619D01*
X135197857Y-43097523D01*
X135235952Y-43021333D01*
X135235952Y-42716571D01*
X134816904Y-43440380D02*
X134816904Y-43935619D01*
X135121666Y-43668952D01*
X135121666Y-43783238D01*
X135159761Y-43859428D01*
X135197857Y-43897523D01*
X135274047Y-43935619D01*
X135464523Y-43935619D01*
X135540714Y-43897523D01*
X135578809Y-43859428D01*
X135616904Y-43783238D01*
X135616904Y-43554666D01*
X135578809Y-43478476D01*
X135540714Y-43440380D01*
X135616904Y-44697523D02*
X135616904Y-44240380D01*
X135616904Y-44468952D02*
X134816904Y-44468952D01*
X134931190Y-44392761D01*
X135007380Y-44316571D01*
X135045476Y-44240380D01*
X122181857Y-43378380D02*
X122515190Y-42902190D01*
X122753285Y-43378380D02*
X122753285Y-42378380D01*
X122372333Y-42378380D01*
X122277095Y-42426000D01*
X122229476Y-42473619D01*
X122181857Y-42568857D01*
X122181857Y-42711714D01*
X122229476Y-42806952D01*
X122277095Y-42854571D01*
X122372333Y-42902190D01*
X122753285Y-42902190D01*
X121848523Y-42378380D02*
X121229476Y-42378380D01*
X121562809Y-42759333D01*
X121419952Y-42759333D01*
X121324714Y-42806952D01*
X121277095Y-42854571D01*
X121229476Y-42949809D01*
X121229476Y-43187904D01*
X121277095Y-43283142D01*
X121324714Y-43330761D01*
X121419952Y-43378380D01*
X121705666Y-43378380D01*
X121800904Y-43330761D01*
X121848523Y-43283142D01*
X120610428Y-42378380D02*
X120515190Y-42378380D01*
X120419952Y-42426000D01*
X120372333Y-42473619D01*
X120324714Y-42568857D01*
X120277095Y-42759333D01*
X120277095Y-42997428D01*
X120324714Y-43187904D01*
X120372333Y-43283142D01*
X120419952Y-43330761D01*
X120515190Y-43378380D01*
X120610428Y-43378380D01*
X120705666Y-43330761D01*
X120753285Y-43283142D01*
X120800904Y-43187904D01*
X120848523Y-42997428D01*
X120848523Y-42759333D01*
X120800904Y-42568857D01*
X120753285Y-42473619D01*
X120705666Y-42426000D01*
X120610428Y-42378380D01*
X153523904Y-43046714D02*
X153142952Y-42780047D01*
X153523904Y-42589571D02*
X152723904Y-42589571D01*
X152723904Y-42894333D01*
X152762000Y-42970523D01*
X152800095Y-43008619D01*
X152876285Y-43046714D01*
X152990571Y-43046714D01*
X153066761Y-43008619D01*
X153104857Y-42970523D01*
X153142952Y-42894333D01*
X153142952Y-42589571D01*
X152800095Y-43351476D02*
X152762000Y-43389571D01*
X152723904Y-43465761D01*
X152723904Y-43656238D01*
X152762000Y-43732428D01*
X152800095Y-43770523D01*
X152876285Y-43808619D01*
X152952476Y-43808619D01*
X153066761Y-43770523D01*
X153523904Y-43313380D01*
X153523904Y-43808619D01*
X153523904Y-44189571D02*
X153523904Y-44341952D01*
X153485809Y-44418142D01*
X153447714Y-44456238D01*
X153333428Y-44532428D01*
X153181047Y-44570523D01*
X152876285Y-44570523D01*
X152800095Y-44532428D01*
X152762000Y-44494333D01*
X152723904Y-44418142D01*
X152723904Y-44265761D01*
X152762000Y-44189571D01*
X152800095Y-44151476D01*
X152876285Y-44113380D01*
X153066761Y-44113380D01*
X153142952Y-44151476D01*
X153181047Y-44189571D01*
X153219142Y-44265761D01*
X153219142Y-44418142D01*
X153181047Y-44494333D01*
X153142952Y-44532428D01*
X153066761Y-44570523D01*
X171303904Y-43046714D02*
X170922952Y-42780047D01*
X171303904Y-42589571D02*
X170503904Y-42589571D01*
X170503904Y-42894333D01*
X170542000Y-42970523D01*
X170580095Y-43008619D01*
X170656285Y-43046714D01*
X170770571Y-43046714D01*
X170846761Y-43008619D01*
X170884857Y-42970523D01*
X170922952Y-42894333D01*
X170922952Y-42589571D01*
X170580095Y-43351476D02*
X170542000Y-43389571D01*
X170503904Y-43465761D01*
X170503904Y-43656238D01*
X170542000Y-43732428D01*
X170580095Y-43770523D01*
X170656285Y-43808619D01*
X170732476Y-43808619D01*
X170846761Y-43770523D01*
X171303904Y-43313380D01*
X171303904Y-43808619D01*
X170846761Y-44265761D02*
X170808666Y-44189571D01*
X170770571Y-44151476D01*
X170694380Y-44113380D01*
X170656285Y-44113380D01*
X170580095Y-44151476D01*
X170542000Y-44189571D01*
X170503904Y-44265761D01*
X170503904Y-44418142D01*
X170542000Y-44494333D01*
X170580095Y-44532428D01*
X170656285Y-44570523D01*
X170694380Y-44570523D01*
X170770571Y-44532428D01*
X170808666Y-44494333D01*
X170846761Y-44418142D01*
X170846761Y-44265761D01*
X170884857Y-44189571D01*
X170922952Y-44151476D01*
X170999142Y-44113380D01*
X171151523Y-44113380D01*
X171227714Y-44151476D01*
X171265809Y-44189571D01*
X171303904Y-44265761D01*
X171303904Y-44418142D01*
X171265809Y-44494333D01*
X171227714Y-44532428D01*
X171151523Y-44570523D01*
X170999142Y-44570523D01*
X170922952Y-44532428D01*
X170884857Y-44494333D01*
X170846761Y-44418142D01*
X148089857Y-72080380D02*
X148423190Y-71604190D01*
X148661285Y-72080380D02*
X148661285Y-71080380D01*
X148280333Y-71080380D01*
X148185095Y-71128000D01*
X148137476Y-71175619D01*
X148089857Y-71270857D01*
X148089857Y-71413714D01*
X148137476Y-71508952D01*
X148185095Y-71556571D01*
X148280333Y-71604190D01*
X148661285Y-71604190D01*
X147708904Y-71175619D02*
X147661285Y-71128000D01*
X147566047Y-71080380D01*
X147327952Y-71080380D01*
X147232714Y-71128000D01*
X147185095Y-71175619D01*
X147137476Y-71270857D01*
X147137476Y-71366095D01*
X147185095Y-71508952D01*
X147756523Y-72080380D01*
X147137476Y-72080380D01*
X146804142Y-71080380D02*
X146137476Y-71080380D01*
X146566047Y-72080380D01*
X143581380Y-68254642D02*
X143105190Y-67921309D01*
X143581380Y-67683214D02*
X142581380Y-67683214D01*
X142581380Y-68064166D01*
X142629000Y-68159404D01*
X142676619Y-68207023D01*
X142771857Y-68254642D01*
X142914714Y-68254642D01*
X143009952Y-68207023D01*
X143057571Y-68159404D01*
X143105190Y-68064166D01*
X143105190Y-67683214D01*
X142676619Y-68635595D02*
X142629000Y-68683214D01*
X142581380Y-68778452D01*
X142581380Y-69016547D01*
X142629000Y-69111785D01*
X142676619Y-69159404D01*
X142771857Y-69207023D01*
X142867095Y-69207023D01*
X143009952Y-69159404D01*
X143581380Y-68587976D01*
X143581380Y-69207023D01*
X142581380Y-70064166D02*
X142581380Y-69873690D01*
X142629000Y-69778452D01*
X142676619Y-69730833D01*
X142819476Y-69635595D01*
X143009952Y-69587976D01*
X143390904Y-69587976D01*
X143486142Y-69635595D01*
X143533761Y-69683214D01*
X143581380Y-69778452D01*
X143581380Y-69968928D01*
X143533761Y-70064166D01*
X143486142Y-70111785D01*
X143390904Y-70159404D01*
X143152809Y-70159404D01*
X143057571Y-70111785D01*
X143009952Y-70064166D01*
X142962333Y-69968928D01*
X142962333Y-69778452D01*
X143009952Y-69683214D01*
X143057571Y-69635595D01*
X143152809Y-69587976D01*
X160995357Y-72333380D02*
X161328690Y-71857190D01*
X161566785Y-72333380D02*
X161566785Y-71333380D01*
X161185833Y-71333380D01*
X161090595Y-71381000D01*
X161042976Y-71428619D01*
X160995357Y-71523857D01*
X160995357Y-71666714D01*
X161042976Y-71761952D01*
X161090595Y-71809571D01*
X161185833Y-71857190D01*
X161566785Y-71857190D01*
X160614404Y-71428619D02*
X160566785Y-71381000D01*
X160471547Y-71333380D01*
X160233452Y-71333380D01*
X160138214Y-71381000D01*
X160090595Y-71428619D01*
X160042976Y-71523857D01*
X160042976Y-71619095D01*
X160090595Y-71761952D01*
X160662023Y-72333380D01*
X160042976Y-72333380D01*
X159138214Y-71333380D02*
X159614404Y-71333380D01*
X159662023Y-71809571D01*
X159614404Y-71761952D01*
X159519166Y-71714333D01*
X159281071Y-71714333D01*
X159185833Y-71761952D01*
X159138214Y-71809571D01*
X159090595Y-71904809D01*
X159090595Y-72142904D01*
X159138214Y-72238142D01*
X159185833Y-72285761D01*
X159281071Y-72333380D01*
X159519166Y-72333380D01*
X159614404Y-72285761D01*
X159662023Y-72238142D01*
X157868857Y-71699380D02*
X158202190Y-71223190D01*
X158440285Y-71699380D02*
X158440285Y-70699380D01*
X158059333Y-70699380D01*
X157964095Y-70747000D01*
X157916476Y-70794619D01*
X157868857Y-70889857D01*
X157868857Y-71032714D01*
X157916476Y-71127952D01*
X157964095Y-71175571D01*
X158059333Y-71223190D01*
X158440285Y-71223190D01*
X157487904Y-70794619D02*
X157440285Y-70747000D01*
X157345047Y-70699380D01*
X157106952Y-70699380D01*
X157011714Y-70747000D01*
X156964095Y-70794619D01*
X156916476Y-70889857D01*
X156916476Y-70985095D01*
X156964095Y-71127952D01*
X157535523Y-71699380D01*
X156916476Y-71699380D01*
X156059333Y-71032714D02*
X156059333Y-71699380D01*
X156297428Y-70651761D02*
X156535523Y-71366047D01*
X155916476Y-71366047D01*
X173743857Y-72333380D02*
X174077190Y-71857190D01*
X174315285Y-72333380D02*
X174315285Y-71333380D01*
X173934333Y-71333380D01*
X173839095Y-71381000D01*
X173791476Y-71428619D01*
X173743857Y-71523857D01*
X173743857Y-71666714D01*
X173791476Y-71761952D01*
X173839095Y-71809571D01*
X173934333Y-71857190D01*
X174315285Y-71857190D01*
X173362904Y-71428619D02*
X173315285Y-71381000D01*
X173220047Y-71333380D01*
X172981952Y-71333380D01*
X172886714Y-71381000D01*
X172839095Y-71428619D01*
X172791476Y-71523857D01*
X172791476Y-71619095D01*
X172839095Y-71761952D01*
X173410523Y-72333380D01*
X172791476Y-72333380D01*
X172458142Y-71333380D02*
X171839095Y-71333380D01*
X172172428Y-71714333D01*
X172029571Y-71714333D01*
X171934333Y-71761952D01*
X171886714Y-71809571D01*
X171839095Y-71904809D01*
X171839095Y-72142904D01*
X171886714Y-72238142D01*
X171934333Y-72285761D01*
X172029571Y-72333380D01*
X172315285Y-72333380D01*
X172410523Y-72285761D01*
X172458142Y-72238142D01*
X169235380Y-68318142D02*
X168759190Y-67984809D01*
X169235380Y-67746714D02*
X168235380Y-67746714D01*
X168235380Y-68127666D01*
X168283000Y-68222904D01*
X168330619Y-68270523D01*
X168425857Y-68318142D01*
X168568714Y-68318142D01*
X168663952Y-68270523D01*
X168711571Y-68222904D01*
X168759190Y-68127666D01*
X168759190Y-67746714D01*
X168330619Y-68699095D02*
X168283000Y-68746714D01*
X168235380Y-68841952D01*
X168235380Y-69080047D01*
X168283000Y-69175285D01*
X168330619Y-69222904D01*
X168425857Y-69270523D01*
X168521095Y-69270523D01*
X168663952Y-69222904D01*
X169235380Y-68651476D01*
X169235380Y-69270523D01*
X168330619Y-69651476D02*
X168283000Y-69699095D01*
X168235380Y-69794333D01*
X168235380Y-70032428D01*
X168283000Y-70127666D01*
X168330619Y-70175285D01*
X168425857Y-70222904D01*
X168521095Y-70222904D01*
X168663952Y-70175285D01*
X169235380Y-69603857D01*
X169235380Y-70222904D01*
X136453619Y-71000857D02*
X136929809Y-71334190D01*
X136453619Y-71572285D02*
X137453619Y-71572285D01*
X137453619Y-71191333D01*
X137406000Y-71096095D01*
X137358380Y-71048476D01*
X137263142Y-71000857D01*
X137120285Y-71000857D01*
X137025047Y-71048476D01*
X136977428Y-71096095D01*
X136929809Y-71191333D01*
X136929809Y-71572285D01*
X137358380Y-70619904D02*
X137406000Y-70572285D01*
X137453619Y-70477047D01*
X137453619Y-70238952D01*
X137406000Y-70143714D01*
X137358380Y-70096095D01*
X137263142Y-70048476D01*
X137167904Y-70048476D01*
X137025047Y-70096095D01*
X136453619Y-70667523D01*
X136453619Y-70048476D01*
X136453619Y-69096095D02*
X136453619Y-69667523D01*
X136453619Y-69381809D02*
X137453619Y-69381809D01*
X137310761Y-69477047D01*
X137215523Y-69572285D01*
X137167904Y-69667523D01*
X130628380Y-67048142D02*
X130152190Y-66714809D01*
X130628380Y-66476714D02*
X129628380Y-66476714D01*
X129628380Y-66857666D01*
X129676000Y-66952904D01*
X129723619Y-67000523D01*
X129818857Y-67048142D01*
X129961714Y-67048142D01*
X130056952Y-67000523D01*
X130104571Y-66952904D01*
X130152190Y-66857666D01*
X130152190Y-66476714D01*
X129723619Y-67429095D02*
X129676000Y-67476714D01*
X129628380Y-67571952D01*
X129628380Y-67810047D01*
X129676000Y-67905285D01*
X129723619Y-67952904D01*
X129818857Y-68000523D01*
X129914095Y-68000523D01*
X130056952Y-67952904D01*
X130628380Y-67381476D01*
X130628380Y-68000523D01*
X129628380Y-68619571D02*
X129628380Y-68714809D01*
X129676000Y-68810047D01*
X129723619Y-68857666D01*
X129818857Y-68905285D01*
X130009333Y-68952904D01*
X130247428Y-68952904D01*
X130437904Y-68905285D01*
X130533142Y-68857666D01*
X130580761Y-68810047D01*
X130628380Y-68714809D01*
X130628380Y-68619571D01*
X130580761Y-68524333D01*
X130533142Y-68476714D01*
X130437904Y-68429095D01*
X130247428Y-68381476D01*
X130009333Y-68381476D01*
X129818857Y-68429095D01*
X129723619Y-68476714D01*
X129676000Y-68524333D01*
X129628380Y-68619571D01*
X169235380Y-64810642D02*
X168759190Y-64477309D01*
X169235380Y-64239214D02*
X168235380Y-64239214D01*
X168235380Y-64620166D01*
X168283000Y-64715404D01*
X168330619Y-64763023D01*
X168425857Y-64810642D01*
X168568714Y-64810642D01*
X168663952Y-64763023D01*
X168711571Y-64715404D01*
X168759190Y-64620166D01*
X168759190Y-64239214D01*
X169235380Y-65763023D02*
X169235380Y-65191595D01*
X169235380Y-65477309D02*
X168235380Y-65477309D01*
X168378238Y-65382071D01*
X168473476Y-65286833D01*
X168521095Y-65191595D01*
X168663952Y-66334452D02*
X168616333Y-66239214D01*
X168568714Y-66191595D01*
X168473476Y-66143976D01*
X168425857Y-66143976D01*
X168330619Y-66191595D01*
X168283000Y-66239214D01*
X168235380Y-66334452D01*
X168235380Y-66524928D01*
X168283000Y-66620166D01*
X168330619Y-66667785D01*
X168425857Y-66715404D01*
X168473476Y-66715404D01*
X168568714Y-66667785D01*
X168616333Y-66620166D01*
X168663952Y-66524928D01*
X168663952Y-66334452D01*
X168711571Y-66239214D01*
X168759190Y-66191595D01*
X168854428Y-66143976D01*
X169044904Y-66143976D01*
X169140142Y-66191595D01*
X169187761Y-66239214D01*
X169235380Y-66334452D01*
X169235380Y-66524928D01*
X169187761Y-66620166D01*
X169140142Y-66667785D01*
X169044904Y-66715404D01*
X168854428Y-66715404D01*
X168759190Y-66667785D01*
X168711571Y-66620166D01*
X168663952Y-66524928D01*
X130627380Y-63873142D02*
X130151190Y-63539809D01*
X130627380Y-63301714D02*
X129627380Y-63301714D01*
X129627380Y-63682666D01*
X129675000Y-63777904D01*
X129722619Y-63825523D01*
X129817857Y-63873142D01*
X129960714Y-63873142D01*
X130055952Y-63825523D01*
X130103571Y-63777904D01*
X130151190Y-63682666D01*
X130151190Y-63301714D01*
X130627380Y-64825523D02*
X130627380Y-64254095D01*
X130627380Y-64539809D02*
X129627380Y-64539809D01*
X129770238Y-64444571D01*
X129865476Y-64349333D01*
X129913095Y-64254095D01*
X129627380Y-65158857D02*
X129627380Y-65825523D01*
X130627380Y-65396952D01*
X143581380Y-64762142D02*
X143105190Y-64428809D01*
X143581380Y-64190714D02*
X142581380Y-64190714D01*
X142581380Y-64571666D01*
X142629000Y-64666904D01*
X142676619Y-64714523D01*
X142771857Y-64762142D01*
X142914714Y-64762142D01*
X143009952Y-64714523D01*
X143057571Y-64666904D01*
X143105190Y-64571666D01*
X143105190Y-64190714D01*
X143581380Y-65714523D02*
X143581380Y-65143095D01*
X143581380Y-65428809D02*
X142581380Y-65428809D01*
X142724238Y-65333571D01*
X142819476Y-65238333D01*
X142867095Y-65143095D01*
X142581380Y-66571666D02*
X142581380Y-66381190D01*
X142629000Y-66285952D01*
X142676619Y-66238333D01*
X142819476Y-66143095D01*
X143009952Y-66095476D01*
X143390904Y-66095476D01*
X143486142Y-66143095D01*
X143533761Y-66190714D01*
X143581380Y-66285952D01*
X143581380Y-66476428D01*
X143533761Y-66571666D01*
X143486142Y-66619285D01*
X143390904Y-66666904D01*
X143152809Y-66666904D01*
X143057571Y-66619285D01*
X143009952Y-66571666D01*
X142962333Y-66476428D01*
X142962333Y-66285952D01*
X143009952Y-66190714D01*
X143057571Y-66143095D01*
X143152809Y-66095476D01*
X192348380Y-52999642D02*
X191872190Y-52666309D01*
X192348380Y-52428214D02*
X191348380Y-52428214D01*
X191348380Y-52809166D01*
X191396000Y-52904404D01*
X191443619Y-52952023D01*
X191538857Y-52999642D01*
X191681714Y-52999642D01*
X191776952Y-52952023D01*
X191824571Y-52904404D01*
X191872190Y-52809166D01*
X191872190Y-52428214D01*
X192348380Y-53952023D02*
X192348380Y-53380595D01*
X192348380Y-53666309D02*
X191348380Y-53666309D01*
X191491238Y-53571071D01*
X191586476Y-53475833D01*
X191634095Y-53380595D01*
X191348380Y-54856785D02*
X191348380Y-54380595D01*
X191824571Y-54332976D01*
X191776952Y-54380595D01*
X191729333Y-54475833D01*
X191729333Y-54713928D01*
X191776952Y-54809166D01*
X191824571Y-54856785D01*
X191919809Y-54904404D01*
X192157904Y-54904404D01*
X192253142Y-54856785D01*
X192300761Y-54809166D01*
X192348380Y-54713928D01*
X192348380Y-54475833D01*
X192300761Y-54380595D01*
X192253142Y-54332976D01*
X188666380Y-49776142D02*
X188190190Y-49442809D01*
X188666380Y-49204714D02*
X187666380Y-49204714D01*
X187666380Y-49585666D01*
X187714000Y-49680904D01*
X187761619Y-49728523D01*
X187856857Y-49776142D01*
X187999714Y-49776142D01*
X188094952Y-49728523D01*
X188142571Y-49680904D01*
X188190190Y-49585666D01*
X188190190Y-49204714D01*
X188666380Y-50728523D02*
X188666380Y-50157095D01*
X188666380Y-50442809D02*
X187666380Y-50442809D01*
X187809238Y-50347571D01*
X187904476Y-50252333D01*
X187952095Y-50157095D01*
X187999714Y-51585666D02*
X188666380Y-51585666D01*
X187618761Y-51347571D02*
X188333047Y-51109476D01*
X188333047Y-51728523D01*
X192348380Y-56634142D02*
X191872190Y-56300809D01*
X192348380Y-56062714D02*
X191348380Y-56062714D01*
X191348380Y-56443666D01*
X191396000Y-56538904D01*
X191443619Y-56586523D01*
X191538857Y-56634142D01*
X191681714Y-56634142D01*
X191776952Y-56586523D01*
X191824571Y-56538904D01*
X191872190Y-56443666D01*
X191872190Y-56062714D01*
X192348380Y-57586523D02*
X192348380Y-57015095D01*
X192348380Y-57300809D02*
X191348380Y-57300809D01*
X191491238Y-57205571D01*
X191586476Y-57110333D01*
X191634095Y-57015095D01*
X191348380Y-57919857D02*
X191348380Y-58538904D01*
X191729333Y-58205571D01*
X191729333Y-58348428D01*
X191776952Y-58443666D01*
X191824571Y-58491285D01*
X191919809Y-58538904D01*
X192157904Y-58538904D01*
X192253142Y-58491285D01*
X192300761Y-58443666D01*
X192348380Y-58348428D01*
X192348380Y-58062714D01*
X192300761Y-57967476D01*
X192253142Y-57919857D01*
X186972956Y-60031196D02*
X186660574Y-59541006D01*
X187191632Y-59503264D02*
X186267752Y-59120581D01*
X186121968Y-59472535D01*
X186129517Y-59578747D01*
X186155288Y-59640964D01*
X186225053Y-59721404D01*
X186357036Y-59776073D01*
X186463248Y-59768525D01*
X186525465Y-59742754D01*
X186605905Y-59672988D01*
X186751689Y-59321034D01*
X186608495Y-60911081D02*
X186827172Y-60383150D01*
X186717833Y-60647115D02*
X185793954Y-60264432D01*
X185962383Y-60231112D01*
X186086817Y-60179570D01*
X186167258Y-60109804D01*
X185626820Y-60916798D02*
X185564603Y-60942569D01*
X185484163Y-61012334D01*
X185393048Y-61232306D01*
X185400596Y-61338517D01*
X185426367Y-61400735D01*
X185496132Y-61481175D01*
X185584121Y-61517621D01*
X185734327Y-61528296D01*
X186480934Y-61219041D01*
X186244035Y-61790966D01*
X115515380Y-56507142D02*
X115039190Y-56173809D01*
X115515380Y-55935714D02*
X114515380Y-55935714D01*
X114515380Y-56316666D01*
X114563000Y-56411904D01*
X114610619Y-56459523D01*
X114705857Y-56507142D01*
X114848714Y-56507142D01*
X114943952Y-56459523D01*
X114991571Y-56411904D01*
X115039190Y-56316666D01*
X115039190Y-55935714D01*
X115515380Y-57459523D02*
X115515380Y-56888095D01*
X115515380Y-57173809D02*
X114515380Y-57173809D01*
X114658238Y-57078571D01*
X114753476Y-56983333D01*
X114801095Y-56888095D01*
X115515380Y-58411904D02*
X115515380Y-57840476D01*
X115515380Y-58126190D02*
X114515380Y-58126190D01*
X114658238Y-58030952D01*
X114753476Y-57935714D01*
X114801095Y-57840476D01*
X119832380Y-59555142D02*
X119356190Y-59221809D01*
X119832380Y-58983714D02*
X118832380Y-58983714D01*
X118832380Y-59364666D01*
X118880000Y-59459904D01*
X118927619Y-59507523D01*
X119022857Y-59555142D01*
X119165714Y-59555142D01*
X119260952Y-59507523D01*
X119308571Y-59459904D01*
X119356190Y-59364666D01*
X119356190Y-58983714D01*
X119832380Y-60507523D02*
X119832380Y-59936095D01*
X119832380Y-60221809D02*
X118832380Y-60221809D01*
X118975238Y-60126571D01*
X119070476Y-60031333D01*
X119118095Y-59936095D01*
X118832380Y-61126571D02*
X118832380Y-61221809D01*
X118880000Y-61317047D01*
X118927619Y-61364666D01*
X119022857Y-61412285D01*
X119213333Y-61459904D01*
X119451428Y-61459904D01*
X119641904Y-61412285D01*
X119737142Y-61364666D01*
X119784761Y-61317047D01*
X119832380Y-61221809D01*
X119832380Y-61126571D01*
X119784761Y-61031333D01*
X119737142Y-60983714D01*
X119641904Y-60936095D01*
X119451428Y-60888476D01*
X119213333Y-60888476D01*
X119022857Y-60936095D01*
X118927619Y-60983714D01*
X118880000Y-61031333D01*
X118832380Y-61126571D01*
X115515380Y-53427333D02*
X115039190Y-53094000D01*
X115515380Y-52855904D02*
X114515380Y-52855904D01*
X114515380Y-53236857D01*
X114563000Y-53332095D01*
X114610619Y-53379714D01*
X114705857Y-53427333D01*
X114848714Y-53427333D01*
X114943952Y-53379714D01*
X114991571Y-53332095D01*
X115039190Y-53236857D01*
X115039190Y-52855904D01*
X115515380Y-53903523D02*
X115515380Y-54094000D01*
X115467761Y-54189238D01*
X115420142Y-54236857D01*
X115277285Y-54332095D01*
X115086809Y-54379714D01*
X114705857Y-54379714D01*
X114610619Y-54332095D01*
X114563000Y-54284476D01*
X114515380Y-54189238D01*
X114515380Y-53998761D01*
X114563000Y-53903523D01*
X114610619Y-53855904D01*
X114705857Y-53808285D01*
X114943952Y-53808285D01*
X115039190Y-53855904D01*
X115086809Y-53903523D01*
X115134428Y-53998761D01*
X115134428Y-54189238D01*
X115086809Y-54284476D01*
X115039190Y-54332095D01*
X114943952Y-54379714D01*
X119197380Y-50760333D02*
X118721190Y-50427000D01*
X119197380Y-50188904D02*
X118197380Y-50188904D01*
X118197380Y-50569857D01*
X118245000Y-50665095D01*
X118292619Y-50712714D01*
X118387857Y-50760333D01*
X118530714Y-50760333D01*
X118625952Y-50712714D01*
X118673571Y-50665095D01*
X118721190Y-50569857D01*
X118721190Y-50188904D01*
X118625952Y-51331761D02*
X118578333Y-51236523D01*
X118530714Y-51188904D01*
X118435476Y-51141285D01*
X118387857Y-51141285D01*
X118292619Y-51188904D01*
X118245000Y-51236523D01*
X118197380Y-51331761D01*
X118197380Y-51522238D01*
X118245000Y-51617476D01*
X118292619Y-51665095D01*
X118387857Y-51712714D01*
X118435476Y-51712714D01*
X118530714Y-51665095D01*
X118578333Y-51617476D01*
X118625952Y-51522238D01*
X118625952Y-51331761D01*
X118673571Y-51236523D01*
X118721190Y-51188904D01*
X118816428Y-51141285D01*
X119006904Y-51141285D01*
X119102142Y-51188904D01*
X119149761Y-51236523D01*
X119197380Y-51331761D01*
X119197380Y-51522238D01*
X119149761Y-51617476D01*
X119102142Y-51665095D01*
X119006904Y-51712714D01*
X118816428Y-51712714D01*
X118721190Y-51665095D01*
X118673571Y-51617476D01*
X118625952Y-51522238D01*
X152820666Y-75534780D02*
X153154000Y-75058590D01*
X153392095Y-75534780D02*
X153392095Y-74534780D01*
X153011142Y-74534780D01*
X152915904Y-74582400D01*
X152868285Y-74630019D01*
X152820666Y-74725257D01*
X152820666Y-74868114D01*
X152868285Y-74963352D01*
X152915904Y-75010971D01*
X153011142Y-75058590D01*
X153392095Y-75058590D01*
X152487333Y-74534780D02*
X151820666Y-74534780D01*
X152249238Y-75534780D01*
X159043666Y-75585580D02*
X159377000Y-75109390D01*
X159615095Y-75585580D02*
X159615095Y-74585580D01*
X159234142Y-74585580D01*
X159138904Y-74633200D01*
X159091285Y-74680819D01*
X159043666Y-74776057D01*
X159043666Y-74918914D01*
X159091285Y-75014152D01*
X159138904Y-75061771D01*
X159234142Y-75109390D01*
X159615095Y-75109390D01*
X158186523Y-74585580D02*
X158377000Y-74585580D01*
X158472238Y-74633200D01*
X158519857Y-74680819D01*
X158615095Y-74823676D01*
X158662714Y-75014152D01*
X158662714Y-75395104D01*
X158615095Y-75490342D01*
X158567476Y-75537961D01*
X158472238Y-75585580D01*
X158281761Y-75585580D01*
X158186523Y-75537961D01*
X158138904Y-75490342D01*
X158091285Y-75395104D01*
X158091285Y-75157009D01*
X158138904Y-75061771D01*
X158186523Y-75014152D01*
X158281761Y-74966533D01*
X158472238Y-74966533D01*
X158567476Y-75014152D01*
X158615095Y-75061771D01*
X158662714Y-75157009D01*
X126023666Y-65223380D02*
X126357000Y-64747190D01*
X126595095Y-65223380D02*
X126595095Y-64223380D01*
X126214142Y-64223380D01*
X126118904Y-64271000D01*
X126071285Y-64318619D01*
X126023666Y-64413857D01*
X126023666Y-64556714D01*
X126071285Y-64651952D01*
X126118904Y-64699571D01*
X126214142Y-64747190D01*
X126595095Y-64747190D01*
X125118904Y-64223380D02*
X125595095Y-64223380D01*
X125642714Y-64699571D01*
X125595095Y-64651952D01*
X125499857Y-64604333D01*
X125261761Y-64604333D01*
X125166523Y-64651952D01*
X125118904Y-64699571D01*
X125071285Y-64794809D01*
X125071285Y-65032904D01*
X125118904Y-65128142D01*
X125166523Y-65175761D01*
X125261761Y-65223380D01*
X125499857Y-65223380D01*
X125595095Y-65175761D01*
X125642714Y-65128142D01*
X113577666Y-64968380D02*
X113911000Y-64492190D01*
X114149095Y-64968380D02*
X114149095Y-63968380D01*
X113768142Y-63968380D01*
X113672904Y-64016000D01*
X113625285Y-64063619D01*
X113577666Y-64158857D01*
X113577666Y-64301714D01*
X113625285Y-64396952D01*
X113672904Y-64444571D01*
X113768142Y-64492190D01*
X114149095Y-64492190D01*
X112720523Y-64301714D02*
X112720523Y-64968380D01*
X112958619Y-63920761D02*
X113196714Y-64635047D01*
X112577666Y-64635047D01*
X113577666Y-66873380D02*
X113911000Y-66397190D01*
X114149095Y-66873380D02*
X114149095Y-65873380D01*
X113768142Y-65873380D01*
X113672904Y-65921000D01*
X113625285Y-65968619D01*
X113577666Y-66063857D01*
X113577666Y-66206714D01*
X113625285Y-66301952D01*
X113672904Y-66349571D01*
X113768142Y-66397190D01*
X114149095Y-66397190D01*
X113244333Y-65873380D02*
X112625285Y-65873380D01*
X112958619Y-66254333D01*
X112815761Y-66254333D01*
X112720523Y-66301952D01*
X112672904Y-66349571D01*
X112625285Y-66444809D01*
X112625285Y-66682904D01*
X112672904Y-66778142D01*
X112720523Y-66825761D01*
X112815761Y-66873380D01*
X113101476Y-66873380D01*
X113196714Y-66825761D01*
X113244333Y-66778142D01*
X137992380Y-75525333D02*
X137516190Y-75192000D01*
X137992380Y-74953904D02*
X136992380Y-74953904D01*
X136992380Y-75334857D01*
X137040000Y-75430095D01*
X137087619Y-75477714D01*
X137182857Y-75525333D01*
X137325714Y-75525333D01*
X137420952Y-75477714D01*
X137468571Y-75430095D01*
X137516190Y-75334857D01*
X137516190Y-74953904D01*
X137087619Y-75906285D02*
X137040000Y-75953904D01*
X136992380Y-76049142D01*
X136992380Y-76287238D01*
X137040000Y-76382476D01*
X137087619Y-76430095D01*
X137182857Y-76477714D01*
X137278095Y-76477714D01*
X137420952Y-76430095D01*
X137992380Y-75858666D01*
X137992380Y-76477714D01*
X128436666Y-69032380D02*
X128770000Y-68556190D01*
X129008095Y-69032380D02*
X129008095Y-68032380D01*
X128627142Y-68032380D01*
X128531904Y-68080000D01*
X128484285Y-68127619D01*
X128436666Y-68222857D01*
X128436666Y-68365714D01*
X128484285Y-68460952D01*
X128531904Y-68508571D01*
X128627142Y-68556190D01*
X129008095Y-68556190D01*
X127484285Y-69032380D02*
X128055714Y-69032380D01*
X127770000Y-69032380D02*
X127770000Y-68032380D01*
X127865238Y-68175238D01*
X127960476Y-68270476D01*
X128055714Y-68318095D01*
X183554619Y-53625761D02*
X183507000Y-53530523D01*
X183411761Y-53435285D01*
X183268904Y-53292428D01*
X183221285Y-53197190D01*
X183221285Y-53101952D01*
X183459380Y-53149571D02*
X183411761Y-53054333D01*
X183316523Y-52959095D01*
X183126047Y-52911476D01*
X182792714Y-52911476D01*
X182602238Y-52959095D01*
X182507000Y-53054333D01*
X182459380Y-53149571D01*
X182459380Y-53340047D01*
X182507000Y-53435285D01*
X182602238Y-53530523D01*
X182792714Y-53578142D01*
X183126047Y-53578142D01*
X183316523Y-53530523D01*
X183411761Y-53435285D01*
X183459380Y-53340047D01*
X183459380Y-53149571D01*
X182792714Y-54435285D02*
X183459380Y-54435285D01*
X182411761Y-54197190D02*
X183126047Y-53959095D01*
X183126047Y-54578142D01*
X183554619Y-57181761D02*
X183507000Y-57086523D01*
X183411761Y-56991285D01*
X183268904Y-56848428D01*
X183221285Y-56753190D01*
X183221285Y-56657952D01*
X183459380Y-56705571D02*
X183411761Y-56610333D01*
X183316523Y-56515095D01*
X183126047Y-56467476D01*
X182792714Y-56467476D01*
X182602238Y-56515095D01*
X182507000Y-56610333D01*
X182459380Y-56705571D01*
X182459380Y-56896047D01*
X182507000Y-56991285D01*
X182602238Y-57086523D01*
X182792714Y-57134142D01*
X183126047Y-57134142D01*
X183316523Y-57086523D01*
X183411761Y-56991285D01*
X183459380Y-56896047D01*
X183459380Y-56705571D01*
X182459380Y-57467476D02*
X182459380Y-58086523D01*
X182840333Y-57753190D01*
X182840333Y-57896047D01*
X182887952Y-57991285D01*
X182935571Y-58038904D01*
X183030809Y-58086523D01*
X183268904Y-58086523D01*
X183364142Y-58038904D01*
X183411761Y-57991285D01*
X183459380Y-57896047D01*
X183459380Y-57610333D01*
X183411761Y-57515095D01*
X183364142Y-57467476D01*
X124626619Y-57054761D02*
X124579000Y-56959523D01*
X124483761Y-56864285D01*
X124340904Y-56721428D01*
X124293285Y-56626190D01*
X124293285Y-56530952D01*
X124531380Y-56578571D02*
X124483761Y-56483333D01*
X124388523Y-56388095D01*
X124198047Y-56340476D01*
X123864714Y-56340476D01*
X123674238Y-56388095D01*
X123579000Y-56483333D01*
X123531380Y-56578571D01*
X123531380Y-56769047D01*
X123579000Y-56864285D01*
X123674238Y-56959523D01*
X123864714Y-57007142D01*
X124198047Y-57007142D01*
X124388523Y-56959523D01*
X124483761Y-56864285D01*
X124531380Y-56769047D01*
X124531380Y-56578571D01*
X123626619Y-57388095D02*
X123579000Y-57435714D01*
X123531380Y-57530952D01*
X123531380Y-57769047D01*
X123579000Y-57864285D01*
X123626619Y-57911904D01*
X123721857Y-57959523D01*
X123817095Y-57959523D01*
X123959952Y-57911904D01*
X124531380Y-57340476D01*
X124531380Y-57959523D01*
X124626619Y-53498761D02*
X124579000Y-53403523D01*
X124483761Y-53308285D01*
X124340904Y-53165428D01*
X124293285Y-53070190D01*
X124293285Y-52974952D01*
X124531380Y-53022571D02*
X124483761Y-52927333D01*
X124388523Y-52832095D01*
X124198047Y-52784476D01*
X123864714Y-52784476D01*
X123674238Y-52832095D01*
X123579000Y-52927333D01*
X123531380Y-53022571D01*
X123531380Y-53213047D01*
X123579000Y-53308285D01*
X123674238Y-53403523D01*
X123864714Y-53451142D01*
X124198047Y-53451142D01*
X124388523Y-53403523D01*
X124483761Y-53308285D01*
X124531380Y-53213047D01*
X124531380Y-53022571D01*
X124531380Y-54403523D02*
X124531380Y-53832095D01*
X124531380Y-54117809D02*
X123531380Y-54117809D01*
X123674238Y-54022571D01*
X123769476Y-53927333D01*
X123817095Y-53832095D01*
X167171666Y-65762142D02*
X167219285Y-65809761D01*
X167362142Y-65857380D01*
X167457380Y-65857380D01*
X167600238Y-65809761D01*
X167695476Y-65714523D01*
X167743095Y-65619285D01*
X167790714Y-65428809D01*
X167790714Y-65285952D01*
X167743095Y-65095476D01*
X167695476Y-65000238D01*
X167600238Y-64905000D01*
X167457380Y-64857380D01*
X167362142Y-64857380D01*
X167219285Y-64905000D01*
X167171666Y-64952619D01*
X166695476Y-65857380D02*
X166505000Y-65857380D01*
X166409761Y-65809761D01*
X166362142Y-65762142D01*
X166266904Y-65619285D01*
X166219285Y-65428809D01*
X166219285Y-65047857D01*
X166266904Y-64952619D01*
X166314523Y-64905000D01*
X166409761Y-64857380D01*
X166600238Y-64857380D01*
X166695476Y-64905000D01*
X166743095Y-64952619D01*
X166790714Y-65047857D01*
X166790714Y-65285952D01*
X166743095Y-65381190D01*
X166695476Y-65428809D01*
X166600238Y-65476428D01*
X166409761Y-65476428D01*
X166314523Y-65428809D01*
X166266904Y-65381190D01*
X166219285Y-65285952D01*
X179998666Y-65381142D02*
X180046285Y-65428761D01*
X180189142Y-65476380D01*
X180284380Y-65476380D01*
X180427238Y-65428761D01*
X180522476Y-65333523D01*
X180570095Y-65238285D01*
X180617714Y-65047809D01*
X180617714Y-64904952D01*
X180570095Y-64714476D01*
X180522476Y-64619238D01*
X180427238Y-64524000D01*
X180284380Y-64476380D01*
X180189142Y-64476380D01*
X180046285Y-64524000D01*
X179998666Y-64571619D01*
X179427238Y-64904952D02*
X179522476Y-64857333D01*
X179570095Y-64809714D01*
X179617714Y-64714476D01*
X179617714Y-64666857D01*
X179570095Y-64571619D01*
X179522476Y-64524000D01*
X179427238Y-64476380D01*
X179236761Y-64476380D01*
X179141523Y-64524000D01*
X179093904Y-64571619D01*
X179046285Y-64666857D01*
X179046285Y-64714476D01*
X179093904Y-64809714D01*
X179141523Y-64857333D01*
X179236761Y-64904952D01*
X179427238Y-64904952D01*
X179522476Y-64952571D01*
X179570095Y-65000190D01*
X179617714Y-65095428D01*
X179617714Y-65285904D01*
X179570095Y-65381142D01*
X179522476Y-65428761D01*
X179427238Y-65476380D01*
X179236761Y-65476380D01*
X179141523Y-65428761D01*
X179093904Y-65381142D01*
X179046285Y-65285904D01*
X179046285Y-65095428D01*
X179093904Y-65000190D01*
X179141523Y-64952571D01*
X179236761Y-64904952D01*
X141517666Y-65635142D02*
X141565285Y-65682761D01*
X141708142Y-65730380D01*
X141803380Y-65730380D01*
X141946238Y-65682761D01*
X142041476Y-65587523D01*
X142089095Y-65492285D01*
X142136714Y-65301809D01*
X142136714Y-65158952D01*
X142089095Y-64968476D01*
X142041476Y-64873238D01*
X141946238Y-64778000D01*
X141803380Y-64730380D01*
X141708142Y-64730380D01*
X141565285Y-64778000D01*
X141517666Y-64825619D01*
X141184333Y-64730380D02*
X140517666Y-64730380D01*
X140946238Y-65730380D01*
X154852666Y-72112142D02*
X154900285Y-72159761D01*
X155043142Y-72207380D01*
X155138380Y-72207380D01*
X155281238Y-72159761D01*
X155376476Y-72064523D01*
X155424095Y-71969285D01*
X155471714Y-71778809D01*
X155471714Y-71635952D01*
X155424095Y-71445476D01*
X155376476Y-71350238D01*
X155281238Y-71255000D01*
X155138380Y-71207380D01*
X155043142Y-71207380D01*
X154900285Y-71255000D01*
X154852666Y-71302619D01*
X153995523Y-71207380D02*
X154186000Y-71207380D01*
X154281238Y-71255000D01*
X154328857Y-71302619D01*
X154424095Y-71445476D01*
X154471714Y-71635952D01*
X154471714Y-72016904D01*
X154424095Y-72112142D01*
X154376476Y-72159761D01*
X154281238Y-72207380D01*
X154090761Y-72207380D01*
X153995523Y-72159761D01*
X153947904Y-72112142D01*
X153900285Y-72016904D01*
X153900285Y-71778809D01*
X153947904Y-71683571D01*
X153995523Y-71635952D01*
X154090761Y-71588333D01*
X154281238Y-71588333D01*
X154376476Y-71635952D01*
X154424095Y-71683571D01*
X154471714Y-71778809D01*
X189841142Y-64349333D02*
X189888761Y-64301714D01*
X189936380Y-64158857D01*
X189936380Y-64063619D01*
X189888761Y-63920761D01*
X189793523Y-63825523D01*
X189698285Y-63777904D01*
X189507809Y-63730285D01*
X189364952Y-63730285D01*
X189174476Y-63777904D01*
X189079238Y-63825523D01*
X188984000Y-63920761D01*
X188936380Y-64063619D01*
X188936380Y-64158857D01*
X188984000Y-64301714D01*
X189031619Y-64349333D01*
X188936380Y-65254095D02*
X188936380Y-64777904D01*
X189412571Y-64730285D01*
X189364952Y-64777904D01*
X189317333Y-64873142D01*
X189317333Y-65111238D01*
X189364952Y-65206476D01*
X189412571Y-65254095D01*
X189507809Y-65301714D01*
X189745904Y-65301714D01*
X189841142Y-65254095D01*
X189888761Y-65206476D01*
X189936380Y-65111238D01*
X189936380Y-64873142D01*
X189888761Y-64777904D01*
X189841142Y-64730285D01*
X182983142Y-64349333D02*
X183030761Y-64301714D01*
X183078380Y-64158857D01*
X183078380Y-64063619D01*
X183030761Y-63920761D01*
X182935523Y-63825523D01*
X182840285Y-63777904D01*
X182649809Y-63730285D01*
X182506952Y-63730285D01*
X182316476Y-63777904D01*
X182221238Y-63825523D01*
X182126000Y-63920761D01*
X182078380Y-64063619D01*
X182078380Y-64158857D01*
X182126000Y-64301714D01*
X182173619Y-64349333D01*
X182411714Y-65206476D02*
X183078380Y-65206476D01*
X182030761Y-64968380D02*
X182745047Y-64730285D01*
X182745047Y-65349333D01*
X185269142Y-64349333D02*
X185316761Y-64301714D01*
X185364380Y-64158857D01*
X185364380Y-64063619D01*
X185316761Y-63920761D01*
X185221523Y-63825523D01*
X185126285Y-63777904D01*
X184935809Y-63730285D01*
X184792952Y-63730285D01*
X184602476Y-63777904D01*
X184507238Y-63825523D01*
X184412000Y-63920761D01*
X184364380Y-64063619D01*
X184364380Y-64158857D01*
X184412000Y-64301714D01*
X184459619Y-64349333D01*
X184364380Y-64682666D02*
X184364380Y-65301714D01*
X184745333Y-64968380D01*
X184745333Y-65111238D01*
X184792952Y-65206476D01*
X184840571Y-65254095D01*
X184935809Y-65301714D01*
X185173904Y-65301714D01*
X185269142Y-65254095D01*
X185316761Y-65206476D01*
X185364380Y-65111238D01*
X185364380Y-64825523D01*
X185316761Y-64730285D01*
X185269142Y-64682666D01*
X187428142Y-64349333D02*
X187475761Y-64301714D01*
X187523380Y-64158857D01*
X187523380Y-64063619D01*
X187475761Y-63920761D01*
X187380523Y-63825523D01*
X187285285Y-63777904D01*
X187094809Y-63730285D01*
X186951952Y-63730285D01*
X186761476Y-63777904D01*
X186666238Y-63825523D01*
X186571000Y-63920761D01*
X186523380Y-64063619D01*
X186523380Y-64158857D01*
X186571000Y-64301714D01*
X186618619Y-64349333D01*
X186618619Y-64730285D02*
X186571000Y-64777904D01*
X186523380Y-64873142D01*
X186523380Y-65111238D01*
X186571000Y-65206476D01*
X186618619Y-65254095D01*
X186713857Y-65301714D01*
X186809095Y-65301714D01*
X186951952Y-65254095D01*
X187523380Y-64682666D01*
X187523380Y-65301714D01*
X113577666Y-68810142D02*
X113625285Y-68857761D01*
X113768142Y-68905380D01*
X113863380Y-68905380D01*
X114006238Y-68857761D01*
X114101476Y-68762523D01*
X114149095Y-68667285D01*
X114196714Y-68476809D01*
X114196714Y-68333952D01*
X114149095Y-68143476D01*
X114101476Y-68048238D01*
X114006238Y-67953000D01*
X113863380Y-67905380D01*
X113768142Y-67905380D01*
X113625285Y-67953000D01*
X113577666Y-68000619D01*
X112625285Y-68905380D02*
X113196714Y-68905380D01*
X112911000Y-68905380D02*
X112911000Y-67905380D01*
X113006238Y-68048238D01*
X113101476Y-68143476D01*
X113196714Y-68191095D01*
M02*
