M48
; DRILL file {KiCad (5.1.5-0-10_14)} date Tuesday, March 17, 2020 at 09:24:31 AM
; FORMAT={-:-/ absolute / inch / decimal}
; #@! TF.CreationDate,2020-03-17T09:24:31-05:00
; #@! TF.GenerationSoftware,Kicad,Pcbnew,(5.1.5-0-10_14)
; #@! TF.FileFunction,Plated,1,2,PTH
FMAT,2
INCH
T1C0.0157
T2C0.0236
T3C0.0394
T4C0.0787
%
G90
G05
T1
X4.525Y-2.525
X4.525Y-2.575
X4.525Y-2.625
X4.525Y-2.675
X4.55Y-2.75
X4.6Y-2.775
X4.625Y-1.975
X4.625Y-2.975
X4.65Y-3.0
X4.675Y-1.825
X4.675Y-1.875
X4.675Y-1.925
X4.675Y-1.975
X4.69Y-1.77
X4.7Y-2.35
X4.7Y-2.4
X4.7Y-3.0
X4.725Y-1.825
X4.725Y-1.875
X4.725Y-1.925
X4.725Y-1.975
X4.725Y-2.975
X4.75Y-1.7
X4.75Y-1.75
X4.75Y-3.0
X4.775Y-1.975
X4.775Y-2.65
X4.775Y-2.8
X4.785Y-2.15
X4.785Y-2.29
X4.8Y-1.675
X4.8Y-2.675
X4.8Y-2.825
X4.8Y-3.0
X4.825Y-1.975
X4.845Y-2.625
X4.85Y-1.7
X4.85Y-1.825
X4.85Y-2.5
X4.85Y-2.675
X4.85Y-3.0
X4.875Y-1.725
X4.875Y-1.775
X4.875Y-1.975
X4.875Y-2.275
X4.875Y-2.475
X4.875Y-2.9
X4.9Y-1.675
X4.9Y-1.825
X4.9Y-2.3
X4.9Y-2.525
X4.9Y-3.0
X4.925Y-2.0
X4.95Y-1.675
X4.95Y-1.825
X4.95Y-1.975
X4.95Y-2.525
X4.95Y-3.0
X4.9619Y-2.765
X4.975Y-2.0
X4.975Y-2.05
X4.975Y-2.7
X5.0Y-1.825
X5.0Y-1.975
X5.0Y-2.025
X5.0Y-2.075
X5.0Y-2.525
X5.025Y-2.475
X5.025Y-2.55
X5.025Y-2.7
X5.025Y-2.75
X5.045Y-2.51
X5.05Y-1.825
X5.075Y-1.975
X5.075Y-2.025
X5.075Y-2.075
X5.075Y-2.125
X5.075Y-2.7
X5.075Y-2.975
X5.0952Y-2.185
X5.1Y-1.8
X5.1Y-2.85
X5.125Y-1.675
X5.125Y-2.15
X5.14Y-2.705
X5.15Y-2.2
X5.175Y-1.675
X5.175Y-3.0
X5.2Y-3.025
X5.225Y-1.675
X5.225Y-1.9
X5.225Y-2.225
X5.225Y-3.0
X5.25Y-1.825
X5.25Y-2.175
X5.25Y-3.025
X5.275Y-2.225
X5.3Y-1.825
X5.3Y-3.025
X5.325Y-2.175
X5.325Y-2.75
X5.3425Y-2.71
X5.35Y-1.825
X5.35Y-2.15
X5.35Y-2.525
X5.35Y-2.575
X5.35Y-2.775
X5.375Y-1.85
X5.375Y-2.55
X5.385Y-1.705
X5.4Y-1.875
X5.4Y-2.225
X5.4Y-2.525
X5.4Y-2.575
X5.4Y-2.7
X5.4Y-3.025
X5.425Y-1.9
X5.425Y-2.725
X5.425Y-3.0
X5.44Y-1.66
X5.44Y-1.7
X5.44Y-1.74
X5.44Y-1.78
X5.44Y-1.82
X5.4414Y-2.415
X5.45Y-2.7
X5.45Y-2.75
X5.475Y-1.975
X5.475Y-2.02
X5.475Y-2.07
X5.475Y-2.12
X5.475Y-2.17
X5.475Y-2.22
X5.475Y-2.775
X5.5Y-2.7
X5.525Y-1.975
X5.525Y-2.725
X5.525Y-2.775
X5.525Y-2.875
X5.525Y-2.975
X5.55Y-2.4
X5.55Y-2.575
X5.55Y-2.75
X5.56Y-1.66
X5.56Y-1.7
X5.56Y-1.74
X5.56Y-1.78
X5.56Y-1.82
X5.575Y-1.975
X5.575Y-2.425
X5.575Y-2.775
X5.6Y-1.84
X5.6Y-2.05
X5.6Y-2.1
X5.6Y-2.15
X5.6Y-2.2
X5.6Y-2.25
X5.6Y-2.3
X5.6Y-2.35
X5.6Y-2.4
X5.615Y-2.47
X5.625Y-1.975
X5.625Y-2.025
X5.625Y-2.8
X5.6368Y-2.6485
X5.64Y-1.84
X5.675Y-2.15
X5.675Y-2.2
X5.675Y-2.25
X5.675Y-2.3
X5.675Y-2.8
X5.68Y-1.84
X5.695Y-2.5381
X5.72Y-1.82
X5.725Y-2.8
X5.7369Y-2.5381
X5.76Y-1.82
X5.8Y-1.82
X5.825Y-1.85
X5.85Y-1.9
X5.85Y-2.6
X5.85Y-2.65
X5.85Y-2.8
X5.875Y-2.825
X5.9Y-2.85
X5.9075Y-2.9
X5.925Y-1.875
X5.925Y-1.925
X5.925Y-2.825
X5.94Y-1.84
X5.95Y-2.475
X5.975Y-2.025
X5.975Y-2.675
X5.975Y-2.8
X5.98Y-1.82
X6.0Y-2.05
X6.0Y-2.11
X6.0Y-2.16
X6.0Y-2.21
X6.0Y-2.26
X6.0Y-2.31
X6.0Y-2.36
X6.0Y-2.41
X6.0Y-2.475
X6.0Y-2.825
X6.005Y-2.535
X6.02Y-1.7
X6.02Y-1.74
X6.02Y-1.82
X6.025Y-2.8
X6.05Y-2.825
X6.05Y-2.9
X6.06Y-1.76
X6.075Y-2.8
X6.08Y-1.84
X6.08Y-1.88
X6.08Y-1.92
X6.09Y-1.7
X6.1Y-1.76
X6.1Y-2.825
X6.12Y-1.88
X6.125Y-2.075
X6.125Y-2.125
X6.125Y-2.175
X6.125Y-2.225
X6.125Y-2.8
X6.125Y-3.0
X6.14Y-1.7
X6.14Y-1.76
X6.14Y-1.8
X6.14Y-1.84
X6.15Y-2.825
X6.15Y-2.975
X6.16Y-2.9
X6.175Y-2.225
X6.175Y-2.8
X6.2Y-2.825
X6.2Y-2.975
X6.225Y-2.225
X6.225Y-2.8
X6.24Y-1.78
X6.25Y-2.975
X6.26Y-1.7
X6.26Y-1.74
X6.275Y-2.225
X6.275Y-2.825
X6.295Y-2.9
X6.3Y-2.975
X6.325Y-2.225
X6.325Y-2.825
X6.35Y-2.975
X6.36Y-2.8
X6.37Y-2.56
X6.37Y-2.59
X6.37Y-2.62
X6.37Y-2.65
X6.375Y-2.225
X6.375Y-2.85
X6.375Y-2.9
X6.375Y-2.95
X6.38Y-2.53
X6.4Y-2.65
X6.4Y-2.8
X6.41Y-2.53
X6.41Y-2.62
X6.43Y-2.59
X6.44Y-1.82
X6.44Y-2.8
X6.45Y-2.175
X6.46Y-1.98
X6.4799Y-2.4063
X6.48Y-1.82
X6.48Y-2.06
X6.48Y-2.22
X6.48Y-2.8
X6.5Y-1.98
X6.52Y-1.82
X6.52Y-1.86
X6.52Y-1.9
X6.52Y-1.94
X6.52Y-2.06
X6.52Y-2.1
X6.52Y-2.14
X6.52Y-2.18
X6.52Y-2.22
X6.52Y-2.44
X6.52Y-2.48
X6.52Y-2.8
X6.54Y-1.98
X6.54Y-2.41
X6.54Y-2.58
X6.56Y-2.06
X6.56Y-2.8
X6.58Y-1.98
X6.6Y-2.06
X6.6Y-2.8
X6.62Y-1.82
X6.62Y-1.86
X6.62Y-1.9
X6.62Y-1.94
X6.62Y-1.98
X6.62Y-2.16
X6.64Y-2.8
X6.66Y-1.82
X6.66Y-2.14
X6.68Y-2.8
X6.7Y-1.82
X6.705Y-2.6781
X6.7075Y-2.17
X6.72Y-1.66
X6.72Y-1.7
X6.72Y-1.74
X6.72Y-2.8
X6.74Y-1.82
X6.76Y-1.78
X6.76Y-1.88
X6.76Y-1.92
X6.76Y-2.14
X6.76Y-2.82
X6.79Y-1.7
X6.8Y-1.78
X6.8Y-2.14
X6.8Y-2.82
X6.84Y-1.76
X6.84Y-1.8
X6.84Y-1.84
X6.84Y-1.88
X6.84Y-1.92
X6.84Y-2.14
X6.84Y-2.8
X6.86Y-2.56
X6.86Y-2.6
X6.86Y-2.64
X6.86Y-2.68
X6.88Y-2.14
X6.88Y-2.8
X6.9Y-2.68
X6.92Y-2.56
X6.92Y-2.8
X6.94Y-1.78
X6.94Y-1.82
X6.94Y-2.159
X6.96Y-1.66
X6.96Y-1.7
X6.96Y-1.74
X6.96Y-2.1
X6.96Y-2.35
X6.96Y-2.8
X6.98Y-1.78
X6.98Y-2.38
X6.98Y-2.42
X6.98Y-2.46
X6.98Y-2.5
X7.0Y-2.06
X7.0Y-2.8
X7.02Y-1.76
X7.02Y-2.16
X7.02Y-2.36
X7.02Y-2.4
X7.02Y-2.44
X7.04Y-2.06
X7.04Y-2.8
X7.06Y-1.78
X7.06Y-2.16
X7.06Y-2.48
X7.06Y-2.56
X7.08Y-1.96
X7.08Y-2.06
X7.08Y-2.8
X7.1Y-1.82
X7.1Y-2.16
X7.1Y-2.5
X7.1Y-2.54
X7.12Y-2.08
X7.12Y-2.12
X7.12Y-2.78
X7.14Y-1.82
X7.14Y-2.5
X7.14Y-2.54
X7.16Y-2.74
X7.18Y-1.82
X7.18Y-2.08
X7.18Y-2.12
X7.18Y-2.5
X7.18Y-2.54
X7.19Y-2.615
X7.2Y-2.7
X7.22Y-1.84
X7.22Y-2.08
X7.22Y-2.38
X7.22Y-2.42
X7.22Y-2.46
X7.22Y-2.5
X7.22Y-2.54
X7.24Y-1.88
X7.24Y-1.92
X7.24Y-1.96
X7.24Y-2.68
X7.28Y-1.96
X7.28Y-2.615
X7.28Y-2.68
X7.3Y-2.0756
X7.3Y-2.2206
X7.32Y-1.96
X7.32Y-2.68
X7.36Y-1.96
X7.36Y-2.48
X7.36Y-2.52
X7.36Y-2.56
X7.36Y-2.68
X7.37Y-2.615
X7.4Y-1.96
X7.4Y-2.56
X7.4Y-2.68
X7.425Y-2.0235
X7.44Y-1.96
X7.44Y-2.56
X7.44Y-2.68
X7.46Y-2.615
X7.48Y-1.98
X7.48Y-2.56
X7.48Y-2.68
X7.49Y-2.2175
X7.52Y-2.02
X7.52Y-2.34
X7.52Y-2.58
X7.52Y-2.62
X7.52Y-2.66
X7.56Y-2.06
X7.56Y-2.1
X7.56Y-2.14
X7.56Y-2.18
X7.56Y-2.22
X7.56Y-2.26
X7.56Y-2.3
X5.1829Y-2.8415
X5.1829Y-2.8947
X5.2163Y-2.8415
X5.2163Y-2.8947
X5.2498Y-2.8415
X5.2498Y-2.8947
X5.2833Y-2.8415
X5.2833Y-2.8947
X5.3167Y-2.8415
X5.3167Y-2.8947
X5.3502Y-2.8415
X5.3502Y-2.8947
X5.3837Y-2.8415
X5.3837Y-2.8947
X5.4171Y-2.8415
X5.4171Y-2.8947
T3
X5.0Y-2.9
X6.45Y-1.7031
X6.45Y-1.9
X5.05Y-1.7031
X5.05Y-1.9
X7.15Y-1.7031
X7.15Y-1.9
X5.75Y-1.7031
X5.75Y-1.9
X4.6Y-2.9
X4.7Y-2.9
X4.8Y-2.9
X4.8Y-1.9
X6.2Y-1.9
X6.7Y-1.9
X6.9Y-1.9
X6.0Y-1.9
X5.5Y-1.9
X5.6Y-2.9
X4.6Y-1.9
X5.3Y-1.9
X5.8Y-2.9
X6.5Y-2.9
X6.6Y-2.9
X6.7Y-2.9
X6.8Y-2.9
X6.9Y-2.9
T4
X4.6Y-2.405
X7.4346Y-2.405
T2
G00X5.1297Y-2.8506
M15
G01X5.1297Y-2.9096
M16
G05
G00X5.1297Y-2.9974
M15
G01X5.1297Y-3.0289
M16
G05
G00X5.4703Y-2.8506
M15
G01X5.4703Y-2.9096
M16
G05
G00X5.4703Y-2.9974
M15
G01X5.4703Y-3.0289
M16
G05
T0
M30
