G04 #@! TF.GenerationSoftware,KiCad,Pcbnew,(5.1.5-0-10_14)*
G04 #@! TF.CreationDate,2020-03-17T09:24:28-05:00*
G04 #@! TF.ProjectId,pulse,70756c73-652e-46b6-9963-61645f706362,rev?*
G04 #@! TF.SameCoordinates,Original*
G04 #@! TF.FileFunction,Profile,NP*
%FSLAX46Y46*%
G04 Gerber Fmt 4.6, Leading zero omitted, Abs format (unit mm)*
G04 Created by KiCad (PCBNEW (5.1.5-0-10_14)) date 2020-03-17 09:24:28*
%MOMM*%
%LPD*%
G04 APERTURE LIST*
%ADD10C,0.050000*%
G04 APERTURE END LIST*
D10*
X143891000Y-77035754D02*
X186238343Y-77035753D01*
X130557551Y-79193207D02*
X138682449Y-79193207D01*
X141286723Y-78114479D02*
G75*
G02X143891000Y-77035754I2604275J-2604278D01*
G01*
X141286724Y-78114480D02*
G75*
G02X138682449Y-79193207I-2604276J2604274D01*
G01*
X118561656Y-77035754D02*
X125349000Y-77035754D01*
X127953276Y-78114480D02*
G75*
G03X130557551Y-79193207I2604276J2604274D01*
G01*
X127953276Y-78114480D02*
G75*
G03X125349000Y-77035754I-2604275J-2604276D01*
G01*
X122155305Y-41293692D02*
X182644693Y-41293692D01*
X115957381Y-75957027D02*
G75*
G03X118561656Y-77035754I2604276J2604274D01*
G01*
X107694453Y-66168547D02*
G75*
G03X108773178Y-68772822I3683001J-1D01*
G01*
X107694452Y-66168548D02*
G75*
G03X106615726Y-63564274I-3683000J0D01*
G01*
X119551032Y-42372420D02*
G75*
G02X122155305Y-41293692I2604276J-2604272D01*
G01*
X106615726Y-58355726D02*
G75*
G03X107694452Y-55751452I-2604274J2604274D01*
G01*
X107695999Y-55753000D02*
G75*
G02X108774725Y-53148725I3683001J0D01*
G01*
X106615726Y-58355726D02*
G75*
G03X106615726Y-63564274I2604274J-2604274D01*
G01*
X115957383Y-75957027D02*
X108773178Y-68772822D01*
X119551033Y-42372416D02*
X108774725Y-53148725D01*
X185248967Y-42372418D02*
X196025274Y-53148726D01*
X185248967Y-42372418D02*
G75*
G03X182644693Y-41293692I-2604274J-2604274D01*
G01*
X197104000Y-55753000D02*
G75*
G03X196025274Y-53148726I-3683000J0D01*
G01*
X188842617Y-75957027D02*
X196026822Y-68772822D01*
X188842617Y-75957027D02*
G75*
G02X186238343Y-77035753I-2604274J2604274D01*
G01*
X197105548Y-66168548D02*
G75*
G02X196026822Y-68772822I-3683000J0D01*
G01*
X197105548Y-66168548D02*
G75*
G02X198184274Y-63564274I3683000J0D01*
G01*
X198184274Y-58355726D02*
G75*
G02X197105548Y-55751452I2604274J2604274D01*
G01*
X198184274Y-58355726D02*
G75*
G02X198184274Y-63564274I-2604274J-2604274D01*
G01*
M02*
