G04 #@! TF.GenerationSoftware,KiCad,Pcbnew,(5.1.5-0-10_14)*
G04 #@! TF.CreationDate,2020-03-17T09:24:28-05:00*
G04 #@! TF.ProjectId,pulse,70756c73-652e-46b6-9963-61645f706362,rev?*
G04 #@! TF.SameCoordinates,Original*
G04 #@! TF.FileFunction,Soldermask,Top*
G04 #@! TF.FilePolarity,Negative*
%FSLAX46Y46*%
G04 Gerber Fmt 4.6, Leading zero omitted, Abs format (unit mm)*
G04 Created by KiCad (PCBNEW (5.1.5-0-10_14)) date 2020-03-17 09:24:28*
%MOMM*%
%LPD*%
G04 APERTURE LIST*
%ADD10C,0.010000*%
%ADD11C,0.100000*%
G04 APERTURE END LIST*
D10*
G36*
X180087140Y-71825546D02*
G01*
X180244713Y-71836922D01*
X180372199Y-71862933D01*
X180499883Y-71909346D01*
X180627715Y-71967497D01*
X180985165Y-72182223D01*
X181280968Y-72455546D01*
X181505881Y-72778604D01*
X181537233Y-72839529D01*
X181602269Y-72978302D01*
X181644518Y-73093348D01*
X181668864Y-73211306D01*
X181680189Y-73358816D01*
X181683378Y-73562515D01*
X181683478Y-73637321D01*
X181681335Y-73866856D01*
X181671934Y-74032459D01*
X181650819Y-74160867D01*
X181613530Y-74278819D01*
X181555611Y-74413054D01*
X181553333Y-74417991D01*
X181390356Y-74686579D01*
X181163492Y-74945119D01*
X180898301Y-75168445D01*
X180630341Y-75326829D01*
X180477330Y-75389391D01*
X180327826Y-75428485D01*
X180149394Y-75450365D01*
X179937228Y-75460512D01*
X179648115Y-75458736D01*
X179420054Y-75435775D01*
X179315202Y-75410990D01*
X178989995Y-75263838D01*
X178686843Y-75049204D01*
X178425596Y-74785317D01*
X178226107Y-74490407D01*
X178161421Y-74351545D01*
X178108622Y-74198560D01*
X178076453Y-74043156D01*
X178060444Y-73854898D01*
X178056165Y-73634925D01*
X178057127Y-73476882D01*
X178136980Y-73476882D01*
X178142876Y-73846946D01*
X178225533Y-74210275D01*
X178380901Y-74547477D01*
X178561524Y-74792900D01*
X178841170Y-75054950D01*
X179140867Y-75234842D01*
X179474690Y-75338484D01*
X179856712Y-75371788D01*
X179937228Y-75370614D01*
X180165575Y-75357219D01*
X180342449Y-75327062D01*
X180506679Y-75272033D01*
X180594907Y-75233252D01*
X180892049Y-75052895D01*
X181161616Y-74809060D01*
X181378709Y-74526517D01*
X181464798Y-74367779D01*
X181525552Y-74226088D01*
X181563421Y-74101100D01*
X181583570Y-73963128D01*
X181591159Y-73782487D01*
X181591823Y-73637321D01*
X181588934Y-73420086D01*
X181577452Y-73263605D01*
X181551552Y-73137960D01*
X181505412Y-73013235D01*
X181445198Y-72884090D01*
X181242412Y-72562022D01*
X180972691Y-72296386D01*
X180630556Y-72081947D01*
X180580375Y-72057509D01*
X180419442Y-71986211D01*
X180284884Y-71943335D01*
X180142009Y-71921912D01*
X179956125Y-71914978D01*
X179869192Y-71914689D01*
X179652021Y-71919235D01*
X179491771Y-71936376D01*
X179354876Y-71972287D01*
X179207771Y-72033142D01*
X179196279Y-72038470D01*
X178850523Y-72233856D01*
X178579980Y-72467859D01*
X178372855Y-72753430D01*
X178217354Y-73103523D01*
X178211898Y-73119475D01*
X178136980Y-73476882D01*
X178057127Y-73476882D01*
X178057464Y-73421524D01*
X178067070Y-73268302D01*
X178091444Y-73144747D01*
X178137047Y-73020342D01*
X178210340Y-72864574D01*
X178226009Y-72832799D01*
X178420840Y-72511774D01*
X178662500Y-72254063D01*
X178967779Y-72043366D01*
X179120800Y-71964113D01*
X179267298Y-71897908D01*
X179390680Y-71856338D01*
X179520839Y-71833768D01*
X179687667Y-71824563D01*
X179869192Y-71823036D01*
X180087140Y-71825546D01*
G37*
X180087140Y-71825546D02*
X180244713Y-71836922D01*
X180372199Y-71862933D01*
X180499883Y-71909346D01*
X180627715Y-71967497D01*
X180985165Y-72182223D01*
X181280968Y-72455546D01*
X181505881Y-72778604D01*
X181537233Y-72839529D01*
X181602269Y-72978302D01*
X181644518Y-73093348D01*
X181668864Y-73211306D01*
X181680189Y-73358816D01*
X181683378Y-73562515D01*
X181683478Y-73637321D01*
X181681335Y-73866856D01*
X181671934Y-74032459D01*
X181650819Y-74160867D01*
X181613530Y-74278819D01*
X181555611Y-74413054D01*
X181553333Y-74417991D01*
X181390356Y-74686579D01*
X181163492Y-74945119D01*
X180898301Y-75168445D01*
X180630341Y-75326829D01*
X180477330Y-75389391D01*
X180327826Y-75428485D01*
X180149394Y-75450365D01*
X179937228Y-75460512D01*
X179648115Y-75458736D01*
X179420054Y-75435775D01*
X179315202Y-75410990D01*
X178989995Y-75263838D01*
X178686843Y-75049204D01*
X178425596Y-74785317D01*
X178226107Y-74490407D01*
X178161421Y-74351545D01*
X178108622Y-74198560D01*
X178076453Y-74043156D01*
X178060444Y-73854898D01*
X178056165Y-73634925D01*
X178057127Y-73476882D01*
X178136980Y-73476882D01*
X178142876Y-73846946D01*
X178225533Y-74210275D01*
X178380901Y-74547477D01*
X178561524Y-74792900D01*
X178841170Y-75054950D01*
X179140867Y-75234842D01*
X179474690Y-75338484D01*
X179856712Y-75371788D01*
X179937228Y-75370614D01*
X180165575Y-75357219D01*
X180342449Y-75327062D01*
X180506679Y-75272033D01*
X180594907Y-75233252D01*
X180892049Y-75052895D01*
X181161616Y-74809060D01*
X181378709Y-74526517D01*
X181464798Y-74367779D01*
X181525552Y-74226088D01*
X181563421Y-74101100D01*
X181583570Y-73963128D01*
X181591159Y-73782487D01*
X181591823Y-73637321D01*
X181588934Y-73420086D01*
X181577452Y-73263605D01*
X181551552Y-73137960D01*
X181505412Y-73013235D01*
X181445198Y-72884090D01*
X181242412Y-72562022D01*
X180972691Y-72296386D01*
X180630556Y-72081947D01*
X180580375Y-72057509D01*
X180419442Y-71986211D01*
X180284884Y-71943335D01*
X180142009Y-71921912D01*
X179956125Y-71914978D01*
X179869192Y-71914689D01*
X179652021Y-71919235D01*
X179491771Y-71936376D01*
X179354876Y-71972287D01*
X179207771Y-72033142D01*
X179196279Y-72038470D01*
X178850523Y-72233856D01*
X178579980Y-72467859D01*
X178372855Y-72753430D01*
X178217354Y-73103523D01*
X178211898Y-73119475D01*
X178136980Y-73476882D01*
X178057127Y-73476882D01*
X178057464Y-73421524D01*
X178067070Y-73268302D01*
X178091444Y-73144747D01*
X178137047Y-73020342D01*
X178210340Y-72864574D01*
X178226009Y-72832799D01*
X178420840Y-72511774D01*
X178662500Y-72254063D01*
X178967779Y-72043366D01*
X179120800Y-71964113D01*
X179267298Y-71897908D01*
X179390680Y-71856338D01*
X179520839Y-71833768D01*
X179687667Y-71824563D01*
X179869192Y-71823036D01*
X180087140Y-71825546D01*
G36*
X185017228Y-71900742D02*
G01*
X185129210Y-71905607D01*
X185171174Y-71914349D01*
X185141960Y-71923559D01*
X185017228Y-71942454D01*
X185017228Y-73115714D01*
X185331715Y-73115714D01*
X185496909Y-73114026D01*
X185592502Y-73103698D01*
X185639603Y-73076829D01*
X185659323Y-73025524D01*
X185665098Y-72990982D01*
X185678182Y-72914727D01*
X185685240Y-72921134D01*
X185690789Y-73013661D01*
X185697585Y-73161071D01*
X185232675Y-73154895D01*
X185052712Y-73150682D01*
X184924740Y-73144049D01*
X184862540Y-73135977D01*
X184869817Y-73129061D01*
X184912181Y-73117145D01*
X184940831Y-73090463D01*
X184958445Y-73033659D01*
X184967704Y-72931378D01*
X184971286Y-72768264D01*
X184971871Y-72544134D01*
X184971086Y-72308866D01*
X184966943Y-72148366D01*
X184956758Y-72046691D01*
X184937847Y-71987896D01*
X184907526Y-71956038D01*
X184869817Y-71937842D01*
X184830909Y-71914830D01*
X184864971Y-71902974D01*
X184979873Y-71900291D01*
X185017228Y-71900742D01*
G37*
X185017228Y-71900742D02*
X185129210Y-71905607D01*
X185171174Y-71914349D01*
X185141960Y-71923559D01*
X185017228Y-71942454D01*
X185017228Y-73115714D01*
X185331715Y-73115714D01*
X185496909Y-73114026D01*
X185592502Y-73103698D01*
X185639603Y-73076829D01*
X185659323Y-73025524D01*
X185665098Y-72990982D01*
X185678182Y-72914727D01*
X185685240Y-72921134D01*
X185690789Y-73013661D01*
X185697585Y-73161071D01*
X185232675Y-73154895D01*
X185052712Y-73150682D01*
X184924740Y-73144049D01*
X184862540Y-73135977D01*
X184869817Y-73129061D01*
X184912181Y-73117145D01*
X184940831Y-73090463D01*
X184958445Y-73033659D01*
X184967704Y-72931378D01*
X184971286Y-72768264D01*
X184971871Y-72544134D01*
X184971086Y-72308866D01*
X184966943Y-72148366D01*
X184956758Y-72046691D01*
X184937847Y-71987896D01*
X184907526Y-71956038D01*
X184869817Y-71937842D01*
X184830909Y-71914830D01*
X184864971Y-71902974D01*
X184979873Y-71900291D01*
X185017228Y-71900742D01*
G36*
X184151976Y-71902917D02*
G01*
X184329468Y-71936024D01*
X184441781Y-72002475D01*
X184500602Y-72109090D01*
X184517605Y-72258238D01*
X184484451Y-72420090D01*
X184392796Y-72530041D01*
X184256678Y-72571415D01*
X184253924Y-72571429D01*
X184176009Y-72581796D01*
X184155442Y-72598000D01*
X184183985Y-72667451D01*
X184256525Y-72776953D01*
X184353428Y-72902247D01*
X184455060Y-73019074D01*
X184541790Y-73103173D01*
X184586335Y-73130421D01*
X184598580Y-73140488D01*
X184534460Y-73147133D01*
X184450264Y-73148718D01*
X184342700Y-73145496D01*
X184303391Y-73137185D01*
X184324926Y-73129141D01*
X184374303Y-73115092D01*
X184388785Y-73086814D01*
X184363207Y-73027421D01*
X184292400Y-72920026D01*
X184236622Y-72840496D01*
X184126730Y-72694141D01*
X184043276Y-72611161D01*
X183967960Y-72576018D01*
X183919728Y-72571429D01*
X183849015Y-72575809D01*
X183811036Y-72603287D01*
X183795620Y-72675365D01*
X183792598Y-72813544D01*
X183792585Y-72840246D01*
X183797714Y-72997230D01*
X183816947Y-73084927D01*
X183856052Y-73124377D01*
X183871960Y-73129806D01*
X183877794Y-73141115D01*
X183808706Y-73148253D01*
X183724550Y-73149633D01*
X183617104Y-73145898D01*
X183578033Y-73137225D01*
X183599817Y-73129061D01*
X183641633Y-73117387D01*
X183670117Y-73091301D01*
X183687826Y-73035699D01*
X183697316Y-72935479D01*
X183701145Y-72775536D01*
X183701870Y-72540768D01*
X183701871Y-72526242D01*
X183701871Y-72526071D01*
X183792585Y-72526071D01*
X184049817Y-72526071D01*
X184250274Y-72510716D01*
X184374796Y-72463226D01*
X184389996Y-72451006D01*
X184458333Y-72334283D01*
X184466063Y-72187687D01*
X184411117Y-72050645D01*
X184411002Y-72050486D01*
X184339271Y-71994981D01*
X184210790Y-71960673D01*
X184070823Y-71945651D01*
X183792585Y-71925525D01*
X183792585Y-72526071D01*
X183701871Y-72526071D01*
X183700641Y-72284403D01*
X183695654Y-72118467D01*
X183684967Y-72013640D01*
X183666634Y-71955129D01*
X183638711Y-71928140D01*
X183622496Y-71922337D01*
X183625888Y-71912221D01*
X183704322Y-71903427D01*
X183842123Y-71897437D01*
X183897621Y-71896333D01*
X184151976Y-71902917D01*
G37*
X184151976Y-71902917D02*
X184329468Y-71936024D01*
X184441781Y-72002475D01*
X184500602Y-72109090D01*
X184517605Y-72258238D01*
X184484451Y-72420090D01*
X184392796Y-72530041D01*
X184256678Y-72571415D01*
X184253924Y-72571429D01*
X184176009Y-72581796D01*
X184155442Y-72598000D01*
X184183985Y-72667451D01*
X184256525Y-72776953D01*
X184353428Y-72902247D01*
X184455060Y-73019074D01*
X184541790Y-73103173D01*
X184586335Y-73130421D01*
X184598580Y-73140488D01*
X184534460Y-73147133D01*
X184450264Y-73148718D01*
X184342700Y-73145496D01*
X184303391Y-73137185D01*
X184324926Y-73129141D01*
X184374303Y-73115092D01*
X184388785Y-73086814D01*
X184363207Y-73027421D01*
X184292400Y-72920026D01*
X184236622Y-72840496D01*
X184126730Y-72694141D01*
X184043276Y-72611161D01*
X183967960Y-72576018D01*
X183919728Y-72571429D01*
X183849015Y-72575809D01*
X183811036Y-72603287D01*
X183795620Y-72675365D01*
X183792598Y-72813544D01*
X183792585Y-72840246D01*
X183797714Y-72997230D01*
X183816947Y-73084927D01*
X183856052Y-73124377D01*
X183871960Y-73129806D01*
X183877794Y-73141115D01*
X183808706Y-73148253D01*
X183724550Y-73149633D01*
X183617104Y-73145898D01*
X183578033Y-73137225D01*
X183599817Y-73129061D01*
X183641633Y-73117387D01*
X183670117Y-73091301D01*
X183687826Y-73035699D01*
X183697316Y-72935479D01*
X183701145Y-72775536D01*
X183701870Y-72540768D01*
X183701871Y-72526242D01*
X183701871Y-72526071D01*
X183792585Y-72526071D01*
X184049817Y-72526071D01*
X184250274Y-72510716D01*
X184374796Y-72463226D01*
X184389996Y-72451006D01*
X184458333Y-72334283D01*
X184466063Y-72187687D01*
X184411117Y-72050645D01*
X184411002Y-72050486D01*
X184339271Y-71994981D01*
X184210790Y-71960673D01*
X184070823Y-71945651D01*
X183792585Y-71925525D01*
X183792585Y-72526071D01*
X183701871Y-72526071D01*
X183700641Y-72284403D01*
X183695654Y-72118467D01*
X183684967Y-72013640D01*
X183666634Y-71955129D01*
X183638711Y-71928140D01*
X183622496Y-71922337D01*
X183625888Y-71912221D01*
X183704322Y-71903427D01*
X183842123Y-71897437D01*
X183897621Y-71896333D01*
X184151976Y-71902917D01*
G36*
X183260579Y-71905408D02*
G01*
X183297115Y-71915138D01*
X183282317Y-71922337D01*
X183249440Y-71939968D01*
X183227030Y-71982468D01*
X183213143Y-72064631D01*
X183205833Y-72201254D01*
X183203155Y-72407132D01*
X183202942Y-72526071D01*
X183204173Y-72767870D01*
X183209162Y-72933769D01*
X183219855Y-73038562D01*
X183238196Y-73097046D01*
X183266131Y-73124017D01*
X183282317Y-73129806D01*
X183290518Y-73141756D01*
X183223467Y-73149252D01*
X183157585Y-73150548D01*
X183054591Y-73146734D01*
X183018056Y-73137005D01*
X183032853Y-73129806D01*
X183065731Y-73112174D01*
X183088140Y-73069675D01*
X183102028Y-72987511D01*
X183109338Y-72850888D01*
X183112016Y-72645010D01*
X183112228Y-72526071D01*
X183110997Y-72284272D01*
X183106008Y-72118374D01*
X183095316Y-72013581D01*
X183076974Y-71955096D01*
X183049039Y-71928126D01*
X183032853Y-71922337D01*
X183024653Y-71910387D01*
X183091703Y-71902890D01*
X183157585Y-71901594D01*
X183260579Y-71905408D01*
G37*
X183260579Y-71905408D02*
X183297115Y-71915138D01*
X183282317Y-71922337D01*
X183249440Y-71939968D01*
X183227030Y-71982468D01*
X183213143Y-72064631D01*
X183205833Y-72201254D01*
X183203155Y-72407132D01*
X183202942Y-72526071D01*
X183204173Y-72767870D01*
X183209162Y-72933769D01*
X183219855Y-73038562D01*
X183238196Y-73097046D01*
X183266131Y-73124017D01*
X183282317Y-73129806D01*
X183290518Y-73141756D01*
X183223467Y-73149252D01*
X183157585Y-73150548D01*
X183054591Y-73146734D01*
X183018056Y-73137005D01*
X183032853Y-73129806D01*
X183065731Y-73112174D01*
X183088140Y-73069675D01*
X183102028Y-72987511D01*
X183109338Y-72850888D01*
X183112016Y-72645010D01*
X183112228Y-72526071D01*
X183110997Y-72284272D01*
X183106008Y-72118374D01*
X183095316Y-72013581D01*
X183076974Y-71955096D01*
X183049039Y-71928126D01*
X183032853Y-71922337D01*
X183024653Y-71910387D01*
X183091703Y-71902890D01*
X183157585Y-71901594D01*
X183260579Y-71905408D01*
G36*
X187957258Y-73625982D02*
G01*
X187942764Y-73728036D01*
X182930800Y-73751482D01*
X182930800Y-73523929D01*
X187971752Y-73523929D01*
X187957258Y-73625982D01*
G37*
X187957258Y-73625982D02*
X187942764Y-73728036D01*
X182930800Y-73751482D01*
X182930800Y-73523929D01*
X187971752Y-73523929D01*
X187957258Y-73625982D01*
G36*
X188645800Y-74249643D02*
G01*
X188632662Y-74345183D01*
X188601007Y-74385704D01*
X188600442Y-74385714D01*
X188566346Y-74346898D01*
X188555085Y-74272321D01*
X188549916Y-74211366D01*
X188520744Y-74177415D01*
X188447075Y-74162585D01*
X188308415Y-74158994D01*
X188260264Y-74158929D01*
X187965442Y-74158929D01*
X187965442Y-74703214D01*
X188188902Y-74703214D01*
X188331676Y-74695617D01*
X188406543Y-74668082D01*
X188433105Y-74623839D01*
X188445495Y-74615641D01*
X188454111Y-74682706D01*
X188456234Y-74748571D01*
X188454671Y-74864245D01*
X188444040Y-74898141D01*
X188421030Y-74859012D01*
X188417600Y-74850625D01*
X188375298Y-74785484D01*
X188298851Y-74755451D01*
X188171011Y-74748571D01*
X187965442Y-74748571D01*
X187965442Y-75338214D01*
X188594695Y-75338214D01*
X188612988Y-75190804D01*
X188625119Y-75099936D01*
X188631668Y-75091505D01*
X188636611Y-75169038D01*
X188638541Y-75213482D01*
X188645800Y-75383571D01*
X188158210Y-75377395D01*
X187972753Y-75373307D01*
X187838380Y-75366885D01*
X187768770Y-75359047D01*
X187772675Y-75351561D01*
X187814485Y-75339890D01*
X187842967Y-75313809D01*
X187860677Y-75258218D01*
X187870170Y-75158017D01*
X187874001Y-74998104D01*
X187874727Y-74763378D01*
X187874728Y-74748571D01*
X187874095Y-74509462D01*
X187870492Y-74345965D01*
X187861363Y-74242980D01*
X187844153Y-74185405D01*
X187816305Y-74158140D01*
X187775265Y-74146084D01*
X187772675Y-74145581D01*
X187772543Y-74137251D01*
X187849447Y-74129516D01*
X187989706Y-74123292D01*
X188158210Y-74119748D01*
X188645800Y-74113571D01*
X188645800Y-74249643D01*
G37*
X188645800Y-74249643D02*
X188632662Y-74345183D01*
X188601007Y-74385704D01*
X188600442Y-74385714D01*
X188566346Y-74346898D01*
X188555085Y-74272321D01*
X188549916Y-74211366D01*
X188520744Y-74177415D01*
X188447075Y-74162585D01*
X188308415Y-74158994D01*
X188260264Y-74158929D01*
X187965442Y-74158929D01*
X187965442Y-74703214D01*
X188188902Y-74703214D01*
X188331676Y-74695617D01*
X188406543Y-74668082D01*
X188433105Y-74623839D01*
X188445495Y-74615641D01*
X188454111Y-74682706D01*
X188456234Y-74748571D01*
X188454671Y-74864245D01*
X188444040Y-74898141D01*
X188421030Y-74859012D01*
X188417600Y-74850625D01*
X188375298Y-74785484D01*
X188298851Y-74755451D01*
X188171011Y-74748571D01*
X187965442Y-74748571D01*
X187965442Y-75338214D01*
X188594695Y-75338214D01*
X188612988Y-75190804D01*
X188625119Y-75099936D01*
X188631668Y-75091505D01*
X188636611Y-75169038D01*
X188638541Y-75213482D01*
X188645800Y-75383571D01*
X188158210Y-75377395D01*
X187972753Y-75373307D01*
X187838380Y-75366885D01*
X187768770Y-75359047D01*
X187772675Y-75351561D01*
X187814485Y-75339890D01*
X187842967Y-75313809D01*
X187860677Y-75258218D01*
X187870170Y-75158017D01*
X187874001Y-74998104D01*
X187874727Y-74763378D01*
X187874728Y-74748571D01*
X187874095Y-74509462D01*
X187870492Y-74345965D01*
X187861363Y-74242980D01*
X187844153Y-74185405D01*
X187816305Y-74158140D01*
X187775265Y-74146084D01*
X187772675Y-74145581D01*
X187772543Y-74137251D01*
X187849447Y-74129516D01*
X187989706Y-74123292D01*
X188158210Y-74119748D01*
X188645800Y-74113571D01*
X188645800Y-74249643D01*
G36*
X187143841Y-74133171D02*
G01*
X187284109Y-74181102D01*
X187375169Y-74222476D01*
X187416953Y-74215555D01*
X187435345Y-74169763D01*
X187446603Y-74164216D01*
X187453705Y-74233526D01*
X187455075Y-74317679D01*
X187451357Y-74425304D01*
X187442729Y-74464728D01*
X187434622Y-74443314D01*
X187373392Y-74314230D01*
X187260777Y-74223673D01*
X187117553Y-74172323D01*
X186964498Y-74160854D01*
X186822391Y-74189946D01*
X186712007Y-74260274D01*
X186654126Y-74372517D01*
X186650085Y-74417750D01*
X186668404Y-74502549D01*
X186732956Y-74571704D01*
X186858136Y-74635250D01*
X187058337Y-74703225D01*
X187060421Y-74703856D01*
X187221801Y-74760645D01*
X187357338Y-74822264D01*
X187425925Y-74866280D01*
X187497143Y-74985612D01*
X187503129Y-75131158D01*
X187444291Y-75266517D01*
X187421157Y-75292857D01*
X187309303Y-75352951D01*
X187147215Y-75382750D01*
X186970581Y-75381052D01*
X186815089Y-75346654D01*
X186754259Y-75315322D01*
X186681187Y-75272161D01*
X186648293Y-75289188D01*
X186636035Y-75326661D01*
X186624231Y-75334990D01*
X186617148Y-75268042D01*
X186616166Y-75202143D01*
X186620054Y-75102210D01*
X186628975Y-75071690D01*
X186635614Y-75091509D01*
X186696243Y-75204356D01*
X186811945Y-75281837D01*
X186961092Y-75324005D01*
X187122056Y-75330916D01*
X187273206Y-75302624D01*
X187392915Y-75239184D01*
X187459553Y-75140649D01*
X187466514Y-75089418D01*
X187441782Y-74977559D01*
X187359239Y-74889421D01*
X187206364Y-74814954D01*
X187069609Y-74770910D01*
X186854421Y-74701311D01*
X186714976Y-74633153D01*
X186637136Y-74555594D01*
X186606765Y-74457793D01*
X186604728Y-74414377D01*
X186631829Y-74274826D01*
X186687675Y-74188637D01*
X186803688Y-74133924D01*
X186967589Y-74115286D01*
X187143841Y-74133171D01*
G37*
X187143841Y-74133171D02*
X187284109Y-74181102D01*
X187375169Y-74222476D01*
X187416953Y-74215555D01*
X187435345Y-74169763D01*
X187446603Y-74164216D01*
X187453705Y-74233526D01*
X187455075Y-74317679D01*
X187451357Y-74425304D01*
X187442729Y-74464728D01*
X187434622Y-74443314D01*
X187373392Y-74314230D01*
X187260777Y-74223673D01*
X187117553Y-74172323D01*
X186964498Y-74160854D01*
X186822391Y-74189946D01*
X186712007Y-74260274D01*
X186654126Y-74372517D01*
X186650085Y-74417750D01*
X186668404Y-74502549D01*
X186732956Y-74571704D01*
X186858136Y-74635250D01*
X187058337Y-74703225D01*
X187060421Y-74703856D01*
X187221801Y-74760645D01*
X187357338Y-74822264D01*
X187425925Y-74866280D01*
X187497143Y-74985612D01*
X187503129Y-75131158D01*
X187444291Y-75266517D01*
X187421157Y-75292857D01*
X187309303Y-75352951D01*
X187147215Y-75382750D01*
X186970581Y-75381052D01*
X186815089Y-75346654D01*
X186754259Y-75315322D01*
X186681187Y-75272161D01*
X186648293Y-75289188D01*
X186636035Y-75326661D01*
X186624231Y-75334990D01*
X186617148Y-75268042D01*
X186616166Y-75202143D01*
X186620054Y-75102210D01*
X186628975Y-75071690D01*
X186635614Y-75091509D01*
X186696243Y-75204356D01*
X186811945Y-75281837D01*
X186961092Y-75324005D01*
X187122056Y-75330916D01*
X187273206Y-75302624D01*
X187392915Y-75239184D01*
X187459553Y-75140649D01*
X187466514Y-75089418D01*
X187441782Y-74977559D01*
X187359239Y-74889421D01*
X187206364Y-74814954D01*
X187069609Y-74770910D01*
X186854421Y-74701311D01*
X186714976Y-74633153D01*
X186637136Y-74555594D01*
X186606765Y-74457793D01*
X186604728Y-74414377D01*
X186631829Y-74274826D01*
X186687675Y-74188637D01*
X186803688Y-74133924D01*
X186967589Y-74115286D01*
X187143841Y-74133171D01*
G36*
X185813720Y-74128902D02*
G01*
X185863940Y-74136641D01*
X185844996Y-74145581D01*
X185803341Y-74157185D01*
X185774907Y-74183097D01*
X185757172Y-74238349D01*
X185747615Y-74337969D01*
X185743713Y-74496988D01*
X185742944Y-74730433D01*
X185742942Y-74753798D01*
X185742942Y-75342359D01*
X186048809Y-75328947D01*
X186211385Y-75319878D01*
X186305412Y-75303996D01*
X186353002Y-75271431D01*
X186376268Y-75212308D01*
X186383621Y-75179464D01*
X186402581Y-75097032D01*
X186411844Y-75093422D01*
X186416636Y-75173817D01*
X186417933Y-75213482D01*
X186423300Y-75383571D01*
X185935710Y-75377395D01*
X185750253Y-75373307D01*
X185615880Y-75366885D01*
X185546270Y-75359047D01*
X185550175Y-75351561D01*
X185591985Y-75339890D01*
X185620467Y-75313809D01*
X185638177Y-75258218D01*
X185647670Y-75158017D01*
X185651501Y-74998104D01*
X185652227Y-74763378D01*
X185652228Y-74748571D01*
X185651595Y-74509462D01*
X185647992Y-74345965D01*
X185638863Y-74242980D01*
X185621653Y-74185405D01*
X185593805Y-74158140D01*
X185552765Y-74146084D01*
X185550175Y-74145581D01*
X185534126Y-74135213D01*
X185595355Y-74128090D01*
X185697585Y-74125925D01*
X185813720Y-74128902D01*
G37*
X185813720Y-74128902D02*
X185863940Y-74136641D01*
X185844996Y-74145581D01*
X185803341Y-74157185D01*
X185774907Y-74183097D01*
X185757172Y-74238349D01*
X185747615Y-74337969D01*
X185743713Y-74496988D01*
X185742944Y-74730433D01*
X185742942Y-74753798D01*
X185742942Y-75342359D01*
X186048809Y-75328947D01*
X186211385Y-75319878D01*
X186305412Y-75303996D01*
X186353002Y-75271431D01*
X186376268Y-75212308D01*
X186383621Y-75179464D01*
X186402581Y-75097032D01*
X186411844Y-75093422D01*
X186416636Y-75173817D01*
X186417933Y-75213482D01*
X186423300Y-75383571D01*
X185935710Y-75377395D01*
X185750253Y-75373307D01*
X185615880Y-75366885D01*
X185546270Y-75359047D01*
X185550175Y-75351561D01*
X185591985Y-75339890D01*
X185620467Y-75313809D01*
X185638177Y-75258218D01*
X185647670Y-75158017D01*
X185651501Y-74998104D01*
X185652227Y-74763378D01*
X185652228Y-74748571D01*
X185651595Y-74509462D01*
X185647992Y-74345965D01*
X185638863Y-74242980D01*
X185621653Y-74185405D01*
X185593805Y-74158140D01*
X185552765Y-74146084D01*
X185550175Y-74145581D01*
X185534126Y-74135213D01*
X185595355Y-74128090D01*
X185697585Y-74125925D01*
X185813720Y-74128902D01*
G36*
X184246157Y-74121708D02*
G01*
X184349157Y-74126897D01*
X184385686Y-74137491D01*
X184370889Y-74144837D01*
X184334983Y-74164690D01*
X184311722Y-74212646D01*
X184298479Y-74305094D01*
X184292631Y-74458423D01*
X184291514Y-74640566D01*
X184292975Y-74855729D01*
X184299933Y-75000540D01*
X184316253Y-75095348D01*
X184345798Y-75160499D01*
X184392432Y-75216343D01*
X184402845Y-75226883D01*
X184525727Y-75311312D01*
X184685094Y-75338097D01*
X184699728Y-75338214D01*
X184863515Y-75315142D01*
X184987705Y-75235593D01*
X184996611Y-75226883D01*
X185046700Y-75170561D01*
X185079012Y-75108562D01*
X185097408Y-75020538D01*
X185105754Y-74886141D01*
X185107913Y-74685023D01*
X185107942Y-74640566D01*
X185106193Y-74425249D01*
X185099195Y-74284219D01*
X185084324Y-74201087D01*
X185058956Y-74159466D01*
X185028567Y-74144837D01*
X185020369Y-74132447D01*
X185087434Y-74123831D01*
X185153300Y-74121708D01*
X185268973Y-74123272D01*
X185302869Y-74133902D01*
X185263740Y-74156912D01*
X185255353Y-74160342D01*
X185209491Y-74184217D01*
X185179910Y-74223315D01*
X185163060Y-74295387D01*
X185155389Y-74418186D01*
X185153347Y-74609464D01*
X185153300Y-74670588D01*
X185152152Y-74882567D01*
X185145734Y-75024578D01*
X185129581Y-75117362D01*
X185099228Y-75181663D01*
X185050213Y-75238222D01*
X185026085Y-75261693D01*
X184863593Y-75361280D01*
X184676316Y-75390933D01*
X184493321Y-75350550D01*
X184365735Y-75263993D01*
X184311945Y-75205023D01*
X184277284Y-75143817D01*
X184257567Y-75059682D01*
X184248607Y-74931927D01*
X184246218Y-74739859D01*
X184246157Y-74672889D01*
X184244986Y-74460951D01*
X184239124Y-74322019D01*
X184225046Y-74238389D01*
X184199228Y-74192360D01*
X184158144Y-74166231D01*
X184144103Y-74160342D01*
X184097476Y-74135767D01*
X184122910Y-74123937D01*
X184229159Y-74121538D01*
X184246157Y-74121708D01*
G37*
X184246157Y-74121708D02*
X184349157Y-74126897D01*
X184385686Y-74137491D01*
X184370889Y-74144837D01*
X184334983Y-74164690D01*
X184311722Y-74212646D01*
X184298479Y-74305094D01*
X184292631Y-74458423D01*
X184291514Y-74640566D01*
X184292975Y-74855729D01*
X184299933Y-75000540D01*
X184316253Y-75095348D01*
X184345798Y-75160499D01*
X184392432Y-75216343D01*
X184402845Y-75226883D01*
X184525727Y-75311312D01*
X184685094Y-75338097D01*
X184699728Y-75338214D01*
X184863515Y-75315142D01*
X184987705Y-75235593D01*
X184996611Y-75226883D01*
X185046700Y-75170561D01*
X185079012Y-75108562D01*
X185097408Y-75020538D01*
X185105754Y-74886141D01*
X185107913Y-74685023D01*
X185107942Y-74640566D01*
X185106193Y-74425249D01*
X185099195Y-74284219D01*
X185084324Y-74201087D01*
X185058956Y-74159466D01*
X185028567Y-74144837D01*
X185020369Y-74132447D01*
X185087434Y-74123831D01*
X185153300Y-74121708D01*
X185268973Y-74123272D01*
X185302869Y-74133902D01*
X185263740Y-74156912D01*
X185255353Y-74160342D01*
X185209491Y-74184217D01*
X185179910Y-74223315D01*
X185163060Y-74295387D01*
X185155389Y-74418186D01*
X185153347Y-74609464D01*
X185153300Y-74670588D01*
X185152152Y-74882567D01*
X185145734Y-75024578D01*
X185129581Y-75117362D01*
X185099228Y-75181663D01*
X185050213Y-75238222D01*
X185026085Y-75261693D01*
X184863593Y-75361280D01*
X184676316Y-75390933D01*
X184493321Y-75350550D01*
X184365735Y-75263993D01*
X184311945Y-75205023D01*
X184277284Y-75143817D01*
X184257567Y-75059682D01*
X184248607Y-74931927D01*
X184246218Y-74739859D01*
X184246157Y-74672889D01*
X184244986Y-74460951D01*
X184239124Y-74322019D01*
X184225046Y-74238389D01*
X184199228Y-74192360D01*
X184158144Y-74166231D01*
X184144103Y-74160342D01*
X184097476Y-74135767D01*
X184122910Y-74123937D01*
X184229159Y-74121538D01*
X184246157Y-74121708D01*
G36*
X183630474Y-74126559D02*
G01*
X183714191Y-74147740D01*
X183776822Y-74187140D01*
X183817325Y-74224903D01*
X183911122Y-74376511D01*
X183927839Y-74548092D01*
X183867478Y-74711786D01*
X183817325Y-74773312D01*
X183736920Y-74838325D01*
X183641755Y-74872130D01*
X183499808Y-74883974D01*
X183431790Y-74884643D01*
X183157585Y-74884643D01*
X183157585Y-75108274D01*
X183162805Y-75244498D01*
X183185495Y-75315417D01*
X183236203Y-75346176D01*
X183259639Y-75351561D01*
X183278238Y-75362329D01*
X183219080Y-75369469D01*
X183134907Y-75371218D01*
X183027463Y-75367984D01*
X182988391Y-75359644D01*
X183010175Y-75351561D01*
X183051985Y-75339890D01*
X183080467Y-75313809D01*
X183098177Y-75258218D01*
X183107670Y-75158017D01*
X183111501Y-74998104D01*
X183112227Y-74763378D01*
X183112228Y-74748571D01*
X183111595Y-74509462D01*
X183110701Y-74468869D01*
X183157585Y-74468869D01*
X183161717Y-74628911D01*
X183172552Y-74751058D01*
X183187748Y-74808971D01*
X183187823Y-74809048D01*
X183247446Y-74826711D01*
X183365034Y-74837603D01*
X183439349Y-74839286D01*
X183598585Y-74827108D01*
X183708212Y-74781902D01*
X183771968Y-74727954D01*
X183864166Y-74594552D01*
X183874378Y-74448787D01*
X183832413Y-74323657D01*
X183773248Y-74239078D01*
X183677327Y-74188239D01*
X183525173Y-74164183D01*
X183373032Y-74159548D01*
X183157585Y-74158929D01*
X183157585Y-74468869D01*
X183110701Y-74468869D01*
X183107992Y-74345965D01*
X183098863Y-74242980D01*
X183081653Y-74185405D01*
X183053805Y-74158140D01*
X183012765Y-74146084D01*
X183010175Y-74145581D01*
X183005659Y-74136435D01*
X183077833Y-74128119D01*
X183212671Y-74121855D01*
X183307058Y-74119748D01*
X183502490Y-74118821D01*
X183630474Y-74126559D01*
G37*
X183630474Y-74126559D02*
X183714191Y-74147740D01*
X183776822Y-74187140D01*
X183817325Y-74224903D01*
X183911122Y-74376511D01*
X183927839Y-74548092D01*
X183867478Y-74711786D01*
X183817325Y-74773312D01*
X183736920Y-74838325D01*
X183641755Y-74872130D01*
X183499808Y-74883974D01*
X183431790Y-74884643D01*
X183157585Y-74884643D01*
X183157585Y-75108274D01*
X183162805Y-75244498D01*
X183185495Y-75315417D01*
X183236203Y-75346176D01*
X183259639Y-75351561D01*
X183278238Y-75362329D01*
X183219080Y-75369469D01*
X183134907Y-75371218D01*
X183027463Y-75367984D01*
X182988391Y-75359644D01*
X183010175Y-75351561D01*
X183051985Y-75339890D01*
X183080467Y-75313809D01*
X183098177Y-75258218D01*
X183107670Y-75158017D01*
X183111501Y-74998104D01*
X183112227Y-74763378D01*
X183112228Y-74748571D01*
X183111595Y-74509462D01*
X183110701Y-74468869D01*
X183157585Y-74468869D01*
X183161717Y-74628911D01*
X183172552Y-74751058D01*
X183187748Y-74808971D01*
X183187823Y-74809048D01*
X183247446Y-74826711D01*
X183365034Y-74837603D01*
X183439349Y-74839286D01*
X183598585Y-74827108D01*
X183708212Y-74781902D01*
X183771968Y-74727954D01*
X183864166Y-74594552D01*
X183874378Y-74448787D01*
X183832413Y-74323657D01*
X183773248Y-74239078D01*
X183677327Y-74188239D01*
X183525173Y-74164183D01*
X183373032Y-74159548D01*
X183157585Y-74158929D01*
X183157585Y-74468869D01*
X183110701Y-74468869D01*
X183107992Y-74345965D01*
X183098863Y-74242980D01*
X183081653Y-74185405D01*
X183053805Y-74158140D01*
X183012765Y-74146084D01*
X183010175Y-74145581D01*
X183005659Y-74136435D01*
X183077833Y-74128119D01*
X183212671Y-74121855D01*
X183307058Y-74119748D01*
X183502490Y-74118821D01*
X183630474Y-74126559D01*
G36*
X179537853Y-71355493D02*
G01*
X179905792Y-71357616D01*
X181722045Y-71369464D01*
X182119911Y-72458036D01*
X182228501Y-72758405D01*
X182325989Y-73034320D01*
X182408119Y-73273224D01*
X182470635Y-73462561D01*
X182509283Y-73589777D01*
X182520182Y-73639034D01*
X182505606Y-73705589D01*
X182463339Y-73844512D01*
X182397614Y-74043260D01*
X182312663Y-74289290D01*
X182212720Y-74570058D01*
X182122214Y-74818319D01*
X181721842Y-75905179D01*
X179876106Y-75917027D01*
X178030370Y-75928876D01*
X177989280Y-75820800D01*
X177956233Y-75730713D01*
X177902532Y-75580996D01*
X177837474Y-75397643D01*
X177806595Y-75310023D01*
X177735898Y-75111646D01*
X177644504Y-74859063D01*
X177543595Y-74582995D01*
X177444353Y-74314162D01*
X177432507Y-74282290D01*
X177200014Y-73657258D01*
X177207174Y-73637321D01*
X177307209Y-73637321D01*
X177641920Y-74567143D01*
X177744252Y-74851625D01*
X177839645Y-75117205D01*
X177922578Y-75348476D01*
X177987526Y-75530031D01*
X178028966Y-75646464D01*
X178036220Y-75667054D01*
X178095809Y-75837143D01*
X181648469Y-75837143D01*
X182044473Y-74740778D01*
X182440477Y-73644414D01*
X181641569Y-71436464D01*
X179872048Y-71448321D01*
X178102527Y-71460179D01*
X177307209Y-73637321D01*
X177207174Y-73637321D01*
X177317628Y-73329790D01*
X177373082Y-73175455D01*
X177451200Y-72958121D01*
X177543945Y-72700152D01*
X177643276Y-72423908D01*
X177710763Y-72236252D01*
X177802551Y-71985420D01*
X177887304Y-71761929D01*
X177959077Y-71580826D01*
X178011927Y-71457159D01*
X178037910Y-71407975D01*
X178064988Y-71392083D01*
X178122351Y-71379277D01*
X178217772Y-71369346D01*
X178359026Y-71362082D01*
X178553886Y-71357274D01*
X178810129Y-71354713D01*
X179135526Y-71354189D01*
X179537853Y-71355493D01*
G37*
X179537853Y-71355493D02*
X179905792Y-71357616D01*
X181722045Y-71369464D01*
X182119911Y-72458036D01*
X182228501Y-72758405D01*
X182325989Y-73034320D01*
X182408119Y-73273224D01*
X182470635Y-73462561D01*
X182509283Y-73589777D01*
X182520182Y-73639034D01*
X182505606Y-73705589D01*
X182463339Y-73844512D01*
X182397614Y-74043260D01*
X182312663Y-74289290D01*
X182212720Y-74570058D01*
X182122214Y-74818319D01*
X181721842Y-75905179D01*
X179876106Y-75917027D01*
X178030370Y-75928876D01*
X177989280Y-75820800D01*
X177956233Y-75730713D01*
X177902532Y-75580996D01*
X177837474Y-75397643D01*
X177806595Y-75310023D01*
X177735898Y-75111646D01*
X177644504Y-74859063D01*
X177543595Y-74582995D01*
X177444353Y-74314162D01*
X177432507Y-74282290D01*
X177200014Y-73657258D01*
X177207174Y-73637321D01*
X177307209Y-73637321D01*
X177641920Y-74567143D01*
X177744252Y-74851625D01*
X177839645Y-75117205D01*
X177922578Y-75348476D01*
X177987526Y-75530031D01*
X178028966Y-75646464D01*
X178036220Y-75667054D01*
X178095809Y-75837143D01*
X181648469Y-75837143D01*
X182044473Y-74740778D01*
X182440477Y-73644414D01*
X181641569Y-71436464D01*
X179872048Y-71448321D01*
X178102527Y-71460179D01*
X177307209Y-73637321D01*
X177207174Y-73637321D01*
X177317628Y-73329790D01*
X177373082Y-73175455D01*
X177451200Y-72958121D01*
X177543945Y-72700152D01*
X177643276Y-72423908D01*
X177710763Y-72236252D01*
X177802551Y-71985420D01*
X177887304Y-71761929D01*
X177959077Y-71580826D01*
X178011927Y-71457159D01*
X178037910Y-71407975D01*
X178064988Y-71392083D01*
X178122351Y-71379277D01*
X178217772Y-71369346D01*
X178359026Y-71362082D01*
X178553886Y-71357274D01*
X178810129Y-71354713D01*
X179135526Y-71354189D01*
X179537853Y-71355493D01*
D11*
G36*
X130413600Y-75384754D02*
G01*
X130527643Y-75419349D01*
X130632745Y-75475527D01*
X130632746Y-75475528D01*
X130632748Y-75475529D01*
X130724869Y-75551131D01*
X130800471Y-75643251D01*
X130800472Y-75643253D01*
X130800473Y-75643254D01*
X130856651Y-75748356D01*
X130891246Y-75862399D01*
X130900000Y-75951281D01*
X130900000Y-77118719D01*
X130891246Y-77207601D01*
X130856651Y-77321644D01*
X130800473Y-77426746D01*
X130800471Y-77426749D01*
X130724870Y-77518870D01*
X130632749Y-77594471D01*
X130632747Y-77594472D01*
X130632746Y-77594473D01*
X130527644Y-77650651D01*
X130413601Y-77685246D01*
X130295000Y-77696927D01*
X130176400Y-77685246D01*
X130062357Y-77650651D01*
X129957255Y-77594473D01*
X129957254Y-77594472D01*
X129957252Y-77594471D01*
X129865131Y-77518870D01*
X129789530Y-77426749D01*
X129789528Y-77426746D01*
X129733350Y-77321644D01*
X129698755Y-77207601D01*
X129690001Y-77118719D01*
X129690000Y-75951282D01*
X129698754Y-75862400D01*
X129733349Y-75748357D01*
X129789527Y-75643255D01*
X129865131Y-75551131D01*
X129957251Y-75475529D01*
X129957253Y-75475528D01*
X129957254Y-75475527D01*
X130062356Y-75419349D01*
X130176399Y-75384754D01*
X130295000Y-75373073D01*
X130413600Y-75384754D01*
G37*
G36*
X139063600Y-75384754D02*
G01*
X139177643Y-75419349D01*
X139282745Y-75475527D01*
X139282746Y-75475528D01*
X139282748Y-75475529D01*
X139374869Y-75551131D01*
X139450471Y-75643251D01*
X139450472Y-75643253D01*
X139450473Y-75643254D01*
X139506651Y-75748356D01*
X139541246Y-75862399D01*
X139550000Y-75951281D01*
X139550000Y-77118719D01*
X139541246Y-77207601D01*
X139506651Y-77321644D01*
X139450473Y-77426746D01*
X139450471Y-77426749D01*
X139374870Y-77518870D01*
X139282749Y-77594471D01*
X139282747Y-77594472D01*
X139282746Y-77594473D01*
X139177644Y-77650651D01*
X139063601Y-77685246D01*
X138945000Y-77696927D01*
X138826400Y-77685246D01*
X138712357Y-77650651D01*
X138607255Y-77594473D01*
X138607254Y-77594472D01*
X138607252Y-77594471D01*
X138515131Y-77518870D01*
X138439530Y-77426749D01*
X138439528Y-77426746D01*
X138383350Y-77321644D01*
X138348755Y-77207601D01*
X138340001Y-77118719D01*
X138340000Y-75951282D01*
X138348754Y-75862400D01*
X138383349Y-75748357D01*
X138439527Y-75643255D01*
X138515131Y-75551131D01*
X138607251Y-75475529D01*
X138607253Y-75475528D01*
X138607254Y-75475527D01*
X138712356Y-75419349D01*
X138826399Y-75384754D01*
X138945000Y-75373073D01*
X139063600Y-75384754D01*
G37*
G36*
X154318604Y-72738347D02*
G01*
X154355144Y-72749432D01*
X154388821Y-72767433D01*
X154418341Y-72791659D01*
X154442567Y-72821179D01*
X154460568Y-72854856D01*
X154471653Y-72891396D01*
X154476000Y-72935538D01*
X154476000Y-74384462D01*
X154471653Y-74428604D01*
X154460568Y-74465144D01*
X154442567Y-74498821D01*
X154418341Y-74528341D01*
X154388821Y-74552567D01*
X154355144Y-74570568D01*
X154318604Y-74581653D01*
X154274462Y-74586000D01*
X153325538Y-74586000D01*
X153281396Y-74581653D01*
X153244856Y-74570568D01*
X153211179Y-74552567D01*
X153181659Y-74528341D01*
X153157433Y-74498821D01*
X153139432Y-74465144D01*
X153128347Y-74428604D01*
X153124000Y-74384462D01*
X153124000Y-72935538D01*
X153128347Y-72891396D01*
X153139432Y-72854856D01*
X153157433Y-72821179D01*
X153181659Y-72791659D01*
X153211179Y-72767433D01*
X153244856Y-72749432D01*
X153281396Y-72738347D01*
X153325538Y-72734000D01*
X154274462Y-72734000D01*
X154318604Y-72738347D01*
G37*
G36*
X151518604Y-72738347D02*
G01*
X151555144Y-72749432D01*
X151588821Y-72767433D01*
X151618341Y-72791659D01*
X151642567Y-72821179D01*
X151660568Y-72854856D01*
X151671653Y-72891396D01*
X151676000Y-72935538D01*
X151676000Y-74384462D01*
X151671653Y-74428604D01*
X151660568Y-74465144D01*
X151642567Y-74498821D01*
X151618341Y-74528341D01*
X151588821Y-74552567D01*
X151555144Y-74570568D01*
X151518604Y-74581653D01*
X151474462Y-74586000D01*
X150525538Y-74586000D01*
X150481396Y-74581653D01*
X150444856Y-74570568D01*
X150411179Y-74552567D01*
X150381659Y-74528341D01*
X150357433Y-74498821D01*
X150339432Y-74465144D01*
X150328347Y-74428604D01*
X150324000Y-74384462D01*
X150324000Y-72935538D01*
X150328347Y-72891396D01*
X150339432Y-72854856D01*
X150357433Y-72821179D01*
X150381659Y-72791659D01*
X150411179Y-72767433D01*
X150444856Y-72749432D01*
X150481396Y-72738347D01*
X150525538Y-72734000D01*
X151474462Y-72734000D01*
X151518604Y-72738347D01*
G37*
G36*
X160538604Y-72738347D02*
G01*
X160575144Y-72749432D01*
X160608821Y-72767433D01*
X160638341Y-72791659D01*
X160662567Y-72821179D01*
X160680568Y-72854856D01*
X160691653Y-72891396D01*
X160696000Y-72935538D01*
X160696000Y-74384462D01*
X160691653Y-74428604D01*
X160680568Y-74465144D01*
X160662567Y-74498821D01*
X160638341Y-74528341D01*
X160608821Y-74552567D01*
X160575144Y-74570568D01*
X160538604Y-74581653D01*
X160494462Y-74586000D01*
X159545538Y-74586000D01*
X159501396Y-74581653D01*
X159464856Y-74570568D01*
X159431179Y-74552567D01*
X159401659Y-74528341D01*
X159377433Y-74498821D01*
X159359432Y-74465144D01*
X159348347Y-74428604D01*
X159344000Y-74384462D01*
X159344000Y-72935538D01*
X159348347Y-72891396D01*
X159359432Y-72854856D01*
X159377433Y-72821179D01*
X159401659Y-72791659D01*
X159431179Y-72767433D01*
X159464856Y-72749432D01*
X159501396Y-72738347D01*
X159545538Y-72734000D01*
X160494462Y-72734000D01*
X160538604Y-72738347D01*
G37*
G36*
X157738604Y-72738347D02*
G01*
X157775144Y-72749432D01*
X157808821Y-72767433D01*
X157838341Y-72791659D01*
X157862567Y-72821179D01*
X157880568Y-72854856D01*
X157891653Y-72891396D01*
X157896000Y-72935538D01*
X157896000Y-74384462D01*
X157891653Y-74428604D01*
X157880568Y-74465144D01*
X157862567Y-74498821D01*
X157838341Y-74528341D01*
X157808821Y-74552567D01*
X157775144Y-74570568D01*
X157738604Y-74581653D01*
X157694462Y-74586000D01*
X156745538Y-74586000D01*
X156701396Y-74581653D01*
X156664856Y-74570568D01*
X156631179Y-74552567D01*
X156601659Y-74528341D01*
X156577433Y-74498821D01*
X156559432Y-74465144D01*
X156548347Y-74428604D01*
X156544000Y-74384462D01*
X156544000Y-72935538D01*
X156548347Y-72891396D01*
X156559432Y-72854856D01*
X156577433Y-72821179D01*
X156601659Y-72791659D01*
X156631179Y-72767433D01*
X156664856Y-72749432D01*
X156701396Y-72738347D01*
X156745538Y-72734000D01*
X157694462Y-72734000D01*
X157738604Y-72738347D01*
G37*
G36*
X143141000Y-74561000D02*
G01*
X141339000Y-74561000D01*
X141339000Y-72759000D01*
X143141000Y-72759000D01*
X143141000Y-74561000D01*
G37*
G36*
X127901000Y-74561000D02*
G01*
X126099000Y-74561000D01*
X126099000Y-72759000D01*
X127901000Y-72759000D01*
X127901000Y-74561000D01*
G37*
G36*
X122033512Y-72763927D02*
G01*
X122182812Y-72793624D01*
X122346784Y-72861544D01*
X122494354Y-72960147D01*
X122619853Y-73085646D01*
X122718456Y-73233216D01*
X122786376Y-73397188D01*
X122821000Y-73571259D01*
X122821000Y-73748741D01*
X122786376Y-73922812D01*
X122718456Y-74086784D01*
X122619853Y-74234354D01*
X122494354Y-74359853D01*
X122346784Y-74458456D01*
X122182812Y-74526376D01*
X122033512Y-74556073D01*
X122008742Y-74561000D01*
X121831258Y-74561000D01*
X121806488Y-74556073D01*
X121657188Y-74526376D01*
X121493216Y-74458456D01*
X121345646Y-74359853D01*
X121220147Y-74234354D01*
X121121544Y-74086784D01*
X121053624Y-73922812D01*
X121019000Y-73748741D01*
X121019000Y-73571259D01*
X121053624Y-73397188D01*
X121121544Y-73233216D01*
X121220147Y-73085646D01*
X121345646Y-72960147D01*
X121493216Y-72861544D01*
X121657188Y-72793624D01*
X121806488Y-72763927D01*
X121831258Y-72759000D01*
X122008742Y-72759000D01*
X122033512Y-72763927D01*
G37*
G36*
X119493512Y-72763927D02*
G01*
X119642812Y-72793624D01*
X119806784Y-72861544D01*
X119954354Y-72960147D01*
X120079853Y-73085646D01*
X120178456Y-73233216D01*
X120246376Y-73397188D01*
X120281000Y-73571259D01*
X120281000Y-73748741D01*
X120246376Y-73922812D01*
X120178456Y-74086784D01*
X120079853Y-74234354D01*
X119954354Y-74359853D01*
X119806784Y-74458456D01*
X119642812Y-74526376D01*
X119493512Y-74556073D01*
X119468742Y-74561000D01*
X119291258Y-74561000D01*
X119266488Y-74556073D01*
X119117188Y-74526376D01*
X118953216Y-74458456D01*
X118805646Y-74359853D01*
X118680147Y-74234354D01*
X118581544Y-74086784D01*
X118513624Y-73922812D01*
X118479000Y-73748741D01*
X118479000Y-73571259D01*
X118513624Y-73397188D01*
X118581544Y-73233216D01*
X118680147Y-73085646D01*
X118805646Y-72960147D01*
X118953216Y-72861544D01*
X119117188Y-72793624D01*
X119266488Y-72763927D01*
X119291258Y-72759000D01*
X119468742Y-72759000D01*
X119493512Y-72763927D01*
G37*
G36*
X117741000Y-74561000D02*
G01*
X115939000Y-74561000D01*
X115939000Y-72759000D01*
X117741000Y-72759000D01*
X117741000Y-74561000D01*
G37*
G36*
X167753512Y-72763927D02*
G01*
X167902812Y-72793624D01*
X168066784Y-72861544D01*
X168214354Y-72960147D01*
X168339853Y-73085646D01*
X168438456Y-73233216D01*
X168506376Y-73397188D01*
X168541000Y-73571259D01*
X168541000Y-73748741D01*
X168506376Y-73922812D01*
X168438456Y-74086784D01*
X168339853Y-74234354D01*
X168214354Y-74359853D01*
X168066784Y-74458456D01*
X167902812Y-74526376D01*
X167753512Y-74556073D01*
X167728742Y-74561000D01*
X167551258Y-74561000D01*
X167526488Y-74556073D01*
X167377188Y-74526376D01*
X167213216Y-74458456D01*
X167065646Y-74359853D01*
X166940147Y-74234354D01*
X166841544Y-74086784D01*
X166773624Y-73922812D01*
X166739000Y-73748741D01*
X166739000Y-73571259D01*
X166773624Y-73397188D01*
X166841544Y-73233216D01*
X166940147Y-73085646D01*
X167065646Y-72960147D01*
X167213216Y-72861544D01*
X167377188Y-72793624D01*
X167526488Y-72763927D01*
X167551258Y-72759000D01*
X167728742Y-72759000D01*
X167753512Y-72763927D01*
G37*
G36*
X166001000Y-74561000D02*
G01*
X164199000Y-74561000D01*
X164199000Y-72759000D01*
X166001000Y-72759000D01*
X166001000Y-74561000D01*
G37*
G36*
X148221000Y-74561000D02*
G01*
X146419000Y-74561000D01*
X146419000Y-72759000D01*
X148221000Y-72759000D01*
X148221000Y-74561000D01*
G37*
G36*
X172833512Y-72763927D02*
G01*
X172982812Y-72793624D01*
X173146784Y-72861544D01*
X173294354Y-72960147D01*
X173419853Y-73085646D01*
X173518456Y-73233216D01*
X173586376Y-73397188D01*
X173621000Y-73571259D01*
X173621000Y-73748741D01*
X173586376Y-73922812D01*
X173518456Y-74086784D01*
X173419853Y-74234354D01*
X173294354Y-74359853D01*
X173146784Y-74458456D01*
X172982812Y-74526376D01*
X172833512Y-74556073D01*
X172808742Y-74561000D01*
X172631258Y-74561000D01*
X172606488Y-74556073D01*
X172457188Y-74526376D01*
X172293216Y-74458456D01*
X172145646Y-74359853D01*
X172020147Y-74234354D01*
X171921544Y-74086784D01*
X171853624Y-73922812D01*
X171819000Y-73748741D01*
X171819000Y-73571259D01*
X171853624Y-73397188D01*
X171921544Y-73233216D01*
X172020147Y-73085646D01*
X172145646Y-72960147D01*
X172293216Y-72861544D01*
X172457188Y-72793624D01*
X172606488Y-72763927D01*
X172631258Y-72759000D01*
X172808742Y-72759000D01*
X172833512Y-72763927D01*
G37*
G36*
X170293512Y-72763927D02*
G01*
X170442812Y-72793624D01*
X170606784Y-72861544D01*
X170754354Y-72960147D01*
X170879853Y-73085646D01*
X170978456Y-73233216D01*
X171046376Y-73397188D01*
X171081000Y-73571259D01*
X171081000Y-73748741D01*
X171046376Y-73922812D01*
X170978456Y-74086784D01*
X170879853Y-74234354D01*
X170754354Y-74359853D01*
X170606784Y-74458456D01*
X170442812Y-74526376D01*
X170293512Y-74556073D01*
X170268742Y-74561000D01*
X170091258Y-74561000D01*
X170066488Y-74556073D01*
X169917188Y-74526376D01*
X169753216Y-74458456D01*
X169605646Y-74359853D01*
X169480147Y-74234354D01*
X169381544Y-74086784D01*
X169313624Y-73922812D01*
X169279000Y-73748741D01*
X169279000Y-73571259D01*
X169313624Y-73397188D01*
X169381544Y-73233216D01*
X169480147Y-73085646D01*
X169605646Y-72960147D01*
X169753216Y-72861544D01*
X169917188Y-72793624D01*
X170066488Y-72763927D01*
X170091258Y-72759000D01*
X170268742Y-72759000D01*
X170293512Y-72763927D01*
G37*
G36*
X175373512Y-72763927D02*
G01*
X175522812Y-72793624D01*
X175686784Y-72861544D01*
X175834354Y-72960147D01*
X175959853Y-73085646D01*
X176058456Y-73233216D01*
X176126376Y-73397188D01*
X176161000Y-73571259D01*
X176161000Y-73748741D01*
X176126376Y-73922812D01*
X176058456Y-74086784D01*
X175959853Y-74234354D01*
X175834354Y-74359853D01*
X175686784Y-74458456D01*
X175522812Y-74526376D01*
X175373512Y-74556073D01*
X175348742Y-74561000D01*
X175171258Y-74561000D01*
X175146488Y-74556073D01*
X174997188Y-74526376D01*
X174833216Y-74458456D01*
X174685646Y-74359853D01*
X174560147Y-74234354D01*
X174461544Y-74086784D01*
X174393624Y-73922812D01*
X174359000Y-73748741D01*
X174359000Y-73571259D01*
X174393624Y-73397188D01*
X174461544Y-73233216D01*
X174560147Y-73085646D01*
X174685646Y-72960147D01*
X174833216Y-72861544D01*
X174997188Y-72793624D01*
X175146488Y-72763927D01*
X175171258Y-72759000D01*
X175348742Y-72759000D01*
X175373512Y-72763927D01*
G37*
G36*
X130413600Y-72004754D02*
G01*
X130527643Y-72039349D01*
X130632745Y-72095527D01*
X130632746Y-72095528D01*
X130632748Y-72095529D01*
X130724869Y-72171131D01*
X130800471Y-72263251D01*
X130800472Y-72263253D01*
X130800473Y-72263254D01*
X130856651Y-72368356D01*
X130891246Y-72482399D01*
X130900000Y-72571281D01*
X130900000Y-73738719D01*
X130891246Y-73827601D01*
X130856651Y-73941644D01*
X130800473Y-74046746D01*
X130800471Y-74046749D01*
X130724870Y-74138870D01*
X130632749Y-74214471D01*
X130632747Y-74214472D01*
X130632746Y-74214473D01*
X130527644Y-74270651D01*
X130413601Y-74305246D01*
X130295000Y-74316927D01*
X130176400Y-74305246D01*
X130062357Y-74270651D01*
X129957255Y-74214473D01*
X129957254Y-74214472D01*
X129957252Y-74214471D01*
X129865131Y-74138870D01*
X129789530Y-74046749D01*
X129789528Y-74046746D01*
X129733350Y-73941644D01*
X129698755Y-73827601D01*
X129690001Y-73738719D01*
X129690000Y-72571282D01*
X129698754Y-72482400D01*
X129733349Y-72368357D01*
X129789527Y-72263255D01*
X129831564Y-72212033D01*
X129865131Y-72171131D01*
X129957251Y-72095529D01*
X129957253Y-72095528D01*
X129957254Y-72095527D01*
X130062356Y-72039349D01*
X130176399Y-72004754D01*
X130295000Y-71993073D01*
X130413600Y-72004754D01*
G37*
G36*
X139063600Y-72004754D02*
G01*
X139177643Y-72039349D01*
X139282745Y-72095527D01*
X139282746Y-72095528D01*
X139282748Y-72095529D01*
X139374869Y-72171131D01*
X139450471Y-72263251D01*
X139450472Y-72263253D01*
X139450473Y-72263254D01*
X139506651Y-72368356D01*
X139541246Y-72482399D01*
X139550000Y-72571281D01*
X139550000Y-73738719D01*
X139541246Y-73827601D01*
X139506651Y-73941644D01*
X139450473Y-74046746D01*
X139450471Y-74046749D01*
X139374870Y-74138870D01*
X139282749Y-74214471D01*
X139282747Y-74214472D01*
X139282746Y-74214473D01*
X139177644Y-74270651D01*
X139063601Y-74305246D01*
X138945000Y-74316927D01*
X138826400Y-74305246D01*
X138712357Y-74270651D01*
X138607255Y-74214473D01*
X138607254Y-74214472D01*
X138607252Y-74214471D01*
X138515131Y-74138870D01*
X138439530Y-74046749D01*
X138439528Y-74046746D01*
X138383350Y-73941644D01*
X138348755Y-73827601D01*
X138340001Y-73738719D01*
X138340000Y-72571282D01*
X138348754Y-72482400D01*
X138383349Y-72368357D01*
X138439527Y-72263255D01*
X138481564Y-72212033D01*
X138515131Y-72171131D01*
X138607251Y-72095529D01*
X138607253Y-72095528D01*
X138607254Y-72095527D01*
X138712356Y-72039349D01*
X138826399Y-72004754D01*
X138945000Y-71993073D01*
X139063600Y-72004754D01*
G37*
G36*
X131754672Y-73163449D02*
G01*
X131754674Y-73163450D01*
X131754675Y-73163450D01*
X131823103Y-73191793D01*
X131884686Y-73232942D01*
X131937058Y-73285314D01*
X131966073Y-73328737D01*
X131981612Y-73347672D01*
X132000554Y-73363217D01*
X132022165Y-73374768D01*
X132045614Y-73381881D01*
X132070000Y-73384283D01*
X132094386Y-73381881D01*
X132117835Y-73374768D01*
X132139446Y-73363217D01*
X132158388Y-73347672D01*
X132173927Y-73328737D01*
X132202942Y-73285314D01*
X132255314Y-73232942D01*
X132316897Y-73191793D01*
X132385325Y-73163450D01*
X132385326Y-73163450D01*
X132385328Y-73163449D01*
X132457966Y-73149000D01*
X132532034Y-73149000D01*
X132604672Y-73163449D01*
X132604674Y-73163450D01*
X132604675Y-73163450D01*
X132673103Y-73191793D01*
X132734686Y-73232942D01*
X132787058Y-73285314D01*
X132816073Y-73328737D01*
X132831612Y-73347672D01*
X132850554Y-73363217D01*
X132872165Y-73374768D01*
X132895614Y-73381881D01*
X132920000Y-73384283D01*
X132944386Y-73381881D01*
X132967835Y-73374768D01*
X132989446Y-73363217D01*
X133008388Y-73347672D01*
X133023927Y-73328737D01*
X133052942Y-73285314D01*
X133105314Y-73232942D01*
X133166897Y-73191793D01*
X133235325Y-73163450D01*
X133235326Y-73163450D01*
X133235328Y-73163449D01*
X133307966Y-73149000D01*
X133382034Y-73149000D01*
X133454672Y-73163449D01*
X133454674Y-73163450D01*
X133454675Y-73163450D01*
X133523103Y-73191793D01*
X133584686Y-73232942D01*
X133637058Y-73285314D01*
X133666073Y-73328737D01*
X133681612Y-73347672D01*
X133700554Y-73363217D01*
X133722165Y-73374768D01*
X133745614Y-73381881D01*
X133770000Y-73384283D01*
X133794386Y-73381881D01*
X133817835Y-73374768D01*
X133839446Y-73363217D01*
X133858388Y-73347672D01*
X133873927Y-73328737D01*
X133902942Y-73285314D01*
X133955314Y-73232942D01*
X134016897Y-73191793D01*
X134085325Y-73163450D01*
X134085326Y-73163450D01*
X134085328Y-73163449D01*
X134157966Y-73149000D01*
X134232034Y-73149000D01*
X134304672Y-73163449D01*
X134304674Y-73163450D01*
X134304675Y-73163450D01*
X134373103Y-73191793D01*
X134434686Y-73232942D01*
X134487058Y-73285314D01*
X134516073Y-73328737D01*
X134531612Y-73347672D01*
X134550554Y-73363217D01*
X134572165Y-73374768D01*
X134595614Y-73381881D01*
X134620000Y-73384283D01*
X134644386Y-73381881D01*
X134667835Y-73374768D01*
X134689446Y-73363217D01*
X134708388Y-73347672D01*
X134723927Y-73328737D01*
X134752942Y-73285314D01*
X134805314Y-73232942D01*
X134866897Y-73191793D01*
X134935325Y-73163450D01*
X134935326Y-73163450D01*
X134935328Y-73163449D01*
X135007966Y-73149000D01*
X135082034Y-73149000D01*
X135154672Y-73163449D01*
X135154674Y-73163450D01*
X135154675Y-73163450D01*
X135223103Y-73191793D01*
X135284686Y-73232942D01*
X135337058Y-73285314D01*
X135366073Y-73328737D01*
X135381612Y-73347672D01*
X135400554Y-73363217D01*
X135422165Y-73374768D01*
X135445614Y-73381881D01*
X135470000Y-73384283D01*
X135494386Y-73381881D01*
X135517835Y-73374768D01*
X135539446Y-73363217D01*
X135558388Y-73347672D01*
X135573927Y-73328737D01*
X135602942Y-73285314D01*
X135655314Y-73232942D01*
X135716897Y-73191793D01*
X135785325Y-73163450D01*
X135785326Y-73163450D01*
X135785328Y-73163449D01*
X135857966Y-73149000D01*
X135932034Y-73149000D01*
X136004672Y-73163449D01*
X136004674Y-73163450D01*
X136004675Y-73163450D01*
X136073103Y-73191793D01*
X136134686Y-73232942D01*
X136187058Y-73285314D01*
X136216073Y-73328737D01*
X136231612Y-73347672D01*
X136250554Y-73363217D01*
X136272165Y-73374768D01*
X136295614Y-73381881D01*
X136320000Y-73384283D01*
X136344386Y-73381881D01*
X136367835Y-73374768D01*
X136389446Y-73363217D01*
X136408388Y-73347672D01*
X136423927Y-73328737D01*
X136452942Y-73285314D01*
X136505314Y-73232942D01*
X136566897Y-73191793D01*
X136635325Y-73163450D01*
X136635326Y-73163450D01*
X136635328Y-73163449D01*
X136707966Y-73149000D01*
X136782034Y-73149000D01*
X136854672Y-73163449D01*
X136854674Y-73163450D01*
X136854675Y-73163450D01*
X136923103Y-73191793D01*
X136984686Y-73232942D01*
X137037058Y-73285314D01*
X137066073Y-73328737D01*
X137081612Y-73347672D01*
X137100554Y-73363217D01*
X137122165Y-73374768D01*
X137145614Y-73381881D01*
X137170000Y-73384283D01*
X137194386Y-73381881D01*
X137217835Y-73374768D01*
X137239446Y-73363217D01*
X137258388Y-73347672D01*
X137273927Y-73328737D01*
X137302942Y-73285314D01*
X137355314Y-73232942D01*
X137416897Y-73191793D01*
X137485325Y-73163450D01*
X137485326Y-73163450D01*
X137485328Y-73163449D01*
X137557966Y-73149000D01*
X137632034Y-73149000D01*
X137704672Y-73163449D01*
X137704674Y-73163450D01*
X137704675Y-73163450D01*
X137773103Y-73191793D01*
X137834686Y-73232942D01*
X137887058Y-73285314D01*
X137928207Y-73346897D01*
X137956550Y-73415325D01*
X137971000Y-73487967D01*
X137971000Y-73562033D01*
X137956550Y-73634675D01*
X137928207Y-73703103D01*
X137887058Y-73764686D01*
X137834686Y-73817058D01*
X137773103Y-73858207D01*
X137704675Y-73886550D01*
X137704674Y-73886550D01*
X137704672Y-73886551D01*
X137632034Y-73901000D01*
X137557966Y-73901000D01*
X137485328Y-73886551D01*
X137485326Y-73886550D01*
X137485325Y-73886550D01*
X137416897Y-73858207D01*
X137355314Y-73817058D01*
X137302942Y-73764686D01*
X137273927Y-73721263D01*
X137258388Y-73702328D01*
X137239446Y-73686783D01*
X137217835Y-73675232D01*
X137194386Y-73668119D01*
X137170000Y-73665717D01*
X137145614Y-73668119D01*
X137122165Y-73675232D01*
X137100554Y-73686783D01*
X137081612Y-73702328D01*
X137066073Y-73721263D01*
X137037058Y-73764686D01*
X136984686Y-73817058D01*
X136923103Y-73858207D01*
X136854675Y-73886550D01*
X136854674Y-73886550D01*
X136854672Y-73886551D01*
X136782034Y-73901000D01*
X136707966Y-73901000D01*
X136635328Y-73886551D01*
X136635326Y-73886550D01*
X136635325Y-73886550D01*
X136566897Y-73858207D01*
X136505314Y-73817058D01*
X136452942Y-73764686D01*
X136423927Y-73721263D01*
X136408388Y-73702328D01*
X136389446Y-73686783D01*
X136367835Y-73675232D01*
X136344386Y-73668119D01*
X136320000Y-73665717D01*
X136295614Y-73668119D01*
X136272165Y-73675232D01*
X136250554Y-73686783D01*
X136231612Y-73702328D01*
X136216073Y-73721263D01*
X136187058Y-73764686D01*
X136134686Y-73817058D01*
X136073103Y-73858207D01*
X136004675Y-73886550D01*
X136004674Y-73886550D01*
X136004672Y-73886551D01*
X135932034Y-73901000D01*
X135857966Y-73901000D01*
X135785328Y-73886551D01*
X135785326Y-73886550D01*
X135785325Y-73886550D01*
X135716897Y-73858207D01*
X135655314Y-73817058D01*
X135602942Y-73764686D01*
X135573927Y-73721263D01*
X135558388Y-73702328D01*
X135539446Y-73686783D01*
X135517835Y-73675232D01*
X135494386Y-73668119D01*
X135470000Y-73665717D01*
X135445614Y-73668119D01*
X135422165Y-73675232D01*
X135400554Y-73686783D01*
X135381612Y-73702328D01*
X135366073Y-73721263D01*
X135337058Y-73764686D01*
X135284686Y-73817058D01*
X135223103Y-73858207D01*
X135154675Y-73886550D01*
X135154674Y-73886550D01*
X135154672Y-73886551D01*
X135082034Y-73901000D01*
X135007966Y-73901000D01*
X134935328Y-73886551D01*
X134935326Y-73886550D01*
X134935325Y-73886550D01*
X134866897Y-73858207D01*
X134805314Y-73817058D01*
X134752942Y-73764686D01*
X134723927Y-73721263D01*
X134708388Y-73702328D01*
X134689446Y-73686783D01*
X134667835Y-73675232D01*
X134644386Y-73668119D01*
X134620000Y-73665717D01*
X134595614Y-73668119D01*
X134572165Y-73675232D01*
X134550554Y-73686783D01*
X134531612Y-73702328D01*
X134516073Y-73721263D01*
X134487058Y-73764686D01*
X134434686Y-73817058D01*
X134373103Y-73858207D01*
X134304675Y-73886550D01*
X134304674Y-73886550D01*
X134304672Y-73886551D01*
X134232034Y-73901000D01*
X134157966Y-73901000D01*
X134085328Y-73886551D01*
X134085326Y-73886550D01*
X134085325Y-73886550D01*
X134016897Y-73858207D01*
X133955314Y-73817058D01*
X133902942Y-73764686D01*
X133873927Y-73721263D01*
X133858388Y-73702328D01*
X133839446Y-73686783D01*
X133817835Y-73675232D01*
X133794386Y-73668119D01*
X133770000Y-73665717D01*
X133745614Y-73668119D01*
X133722165Y-73675232D01*
X133700554Y-73686783D01*
X133681612Y-73702328D01*
X133666073Y-73721263D01*
X133637058Y-73764686D01*
X133584686Y-73817058D01*
X133523103Y-73858207D01*
X133454675Y-73886550D01*
X133454674Y-73886550D01*
X133454672Y-73886551D01*
X133382034Y-73901000D01*
X133307966Y-73901000D01*
X133235328Y-73886551D01*
X133235326Y-73886550D01*
X133235325Y-73886550D01*
X133166897Y-73858207D01*
X133105314Y-73817058D01*
X133052942Y-73764686D01*
X133023927Y-73721263D01*
X133008388Y-73702328D01*
X132989446Y-73686783D01*
X132967835Y-73675232D01*
X132944386Y-73668119D01*
X132920000Y-73665717D01*
X132895614Y-73668119D01*
X132872165Y-73675232D01*
X132850554Y-73686783D01*
X132831612Y-73702328D01*
X132816073Y-73721263D01*
X132787058Y-73764686D01*
X132734686Y-73817058D01*
X132673103Y-73858207D01*
X132604675Y-73886550D01*
X132604674Y-73886550D01*
X132604672Y-73886551D01*
X132532034Y-73901000D01*
X132457966Y-73901000D01*
X132385328Y-73886551D01*
X132385326Y-73886550D01*
X132385325Y-73886550D01*
X132316897Y-73858207D01*
X132255314Y-73817058D01*
X132202942Y-73764686D01*
X132173927Y-73721263D01*
X132158388Y-73702328D01*
X132139446Y-73686783D01*
X132117835Y-73675232D01*
X132094386Y-73668119D01*
X132070000Y-73665717D01*
X132045614Y-73668119D01*
X132022165Y-73675232D01*
X132000554Y-73686783D01*
X131981612Y-73702328D01*
X131966073Y-73721263D01*
X131937058Y-73764686D01*
X131884686Y-73817058D01*
X131823103Y-73858207D01*
X131754675Y-73886550D01*
X131754674Y-73886550D01*
X131754672Y-73886551D01*
X131682034Y-73901000D01*
X131607966Y-73901000D01*
X131535328Y-73886551D01*
X131535326Y-73886550D01*
X131535325Y-73886550D01*
X131466897Y-73858207D01*
X131405314Y-73817058D01*
X131352942Y-73764686D01*
X131311793Y-73703103D01*
X131283450Y-73634675D01*
X131269000Y-73562033D01*
X131269000Y-73487967D01*
X131283450Y-73415325D01*
X131311793Y-73346897D01*
X131352942Y-73285314D01*
X131405314Y-73232942D01*
X131466897Y-73191793D01*
X131535325Y-73163450D01*
X131535326Y-73163450D01*
X131535328Y-73163449D01*
X131607966Y-73149000D01*
X131682034Y-73149000D01*
X131754672Y-73163449D01*
G37*
G36*
X131754672Y-71813449D02*
G01*
X131754674Y-71813450D01*
X131754675Y-71813450D01*
X131823103Y-71841793D01*
X131884686Y-71882942D01*
X131937058Y-71935314D01*
X131966073Y-71978737D01*
X131981612Y-71997672D01*
X132000554Y-72013217D01*
X132022165Y-72024768D01*
X132045614Y-72031881D01*
X132070000Y-72034283D01*
X132094386Y-72031881D01*
X132117835Y-72024768D01*
X132139446Y-72013217D01*
X132158388Y-71997672D01*
X132173927Y-71978737D01*
X132202942Y-71935314D01*
X132255314Y-71882942D01*
X132316897Y-71841793D01*
X132385325Y-71813450D01*
X132385326Y-71813450D01*
X132385328Y-71813449D01*
X132457966Y-71799000D01*
X132532034Y-71799000D01*
X132604672Y-71813449D01*
X132604674Y-71813450D01*
X132604675Y-71813450D01*
X132673103Y-71841793D01*
X132734686Y-71882942D01*
X132787058Y-71935314D01*
X132816073Y-71978737D01*
X132831612Y-71997672D01*
X132850554Y-72013217D01*
X132872165Y-72024768D01*
X132895614Y-72031881D01*
X132920000Y-72034283D01*
X132944386Y-72031881D01*
X132967835Y-72024768D01*
X132989446Y-72013217D01*
X133008388Y-71997672D01*
X133023927Y-71978737D01*
X133052942Y-71935314D01*
X133105314Y-71882942D01*
X133166897Y-71841793D01*
X133235325Y-71813450D01*
X133235326Y-71813450D01*
X133235328Y-71813449D01*
X133307966Y-71799000D01*
X133382034Y-71799000D01*
X133454672Y-71813449D01*
X133454674Y-71813450D01*
X133454675Y-71813450D01*
X133523103Y-71841793D01*
X133584686Y-71882942D01*
X133637058Y-71935314D01*
X133666073Y-71978737D01*
X133681612Y-71997672D01*
X133700554Y-72013217D01*
X133722165Y-72024768D01*
X133745614Y-72031881D01*
X133770000Y-72034283D01*
X133794386Y-72031881D01*
X133817835Y-72024768D01*
X133839446Y-72013217D01*
X133858388Y-71997672D01*
X133873927Y-71978737D01*
X133902942Y-71935314D01*
X133955314Y-71882942D01*
X134016897Y-71841793D01*
X134085325Y-71813450D01*
X134085326Y-71813450D01*
X134085328Y-71813449D01*
X134157966Y-71799000D01*
X134232034Y-71799000D01*
X134304672Y-71813449D01*
X134304674Y-71813450D01*
X134304675Y-71813450D01*
X134373103Y-71841793D01*
X134434686Y-71882942D01*
X134487058Y-71935314D01*
X134516073Y-71978737D01*
X134531612Y-71997672D01*
X134550554Y-72013217D01*
X134572165Y-72024768D01*
X134595614Y-72031881D01*
X134620000Y-72034283D01*
X134644386Y-72031881D01*
X134667835Y-72024768D01*
X134689446Y-72013217D01*
X134708388Y-71997672D01*
X134723927Y-71978737D01*
X134752942Y-71935314D01*
X134805314Y-71882942D01*
X134866897Y-71841793D01*
X134935325Y-71813450D01*
X134935326Y-71813450D01*
X134935328Y-71813449D01*
X135007966Y-71799000D01*
X135082034Y-71799000D01*
X135154672Y-71813449D01*
X135154674Y-71813450D01*
X135154675Y-71813450D01*
X135223103Y-71841793D01*
X135284686Y-71882942D01*
X135337058Y-71935314D01*
X135366073Y-71978737D01*
X135381612Y-71997672D01*
X135400554Y-72013217D01*
X135422165Y-72024768D01*
X135445614Y-72031881D01*
X135470000Y-72034283D01*
X135494386Y-72031881D01*
X135517835Y-72024768D01*
X135539446Y-72013217D01*
X135558388Y-71997672D01*
X135573927Y-71978737D01*
X135602942Y-71935314D01*
X135655314Y-71882942D01*
X135716897Y-71841793D01*
X135785325Y-71813450D01*
X135785326Y-71813450D01*
X135785328Y-71813449D01*
X135857966Y-71799000D01*
X135932034Y-71799000D01*
X136004672Y-71813449D01*
X136004674Y-71813450D01*
X136004675Y-71813450D01*
X136073103Y-71841793D01*
X136134686Y-71882942D01*
X136187058Y-71935314D01*
X136216073Y-71978737D01*
X136231612Y-71997672D01*
X136250554Y-72013217D01*
X136272165Y-72024768D01*
X136295614Y-72031881D01*
X136320000Y-72034283D01*
X136344386Y-72031881D01*
X136367835Y-72024768D01*
X136389446Y-72013217D01*
X136408388Y-71997672D01*
X136423927Y-71978737D01*
X136452942Y-71935314D01*
X136505314Y-71882942D01*
X136566897Y-71841793D01*
X136635325Y-71813450D01*
X136635326Y-71813450D01*
X136635328Y-71813449D01*
X136707966Y-71799000D01*
X136782034Y-71799000D01*
X136854672Y-71813449D01*
X136854674Y-71813450D01*
X136854675Y-71813450D01*
X136923103Y-71841793D01*
X136984686Y-71882942D01*
X137037058Y-71935314D01*
X137066073Y-71978737D01*
X137081612Y-71997672D01*
X137100554Y-72013217D01*
X137122165Y-72024768D01*
X137145614Y-72031881D01*
X137170000Y-72034283D01*
X137194386Y-72031881D01*
X137217835Y-72024768D01*
X137239446Y-72013217D01*
X137258388Y-71997672D01*
X137273927Y-71978737D01*
X137302942Y-71935314D01*
X137355314Y-71882942D01*
X137416897Y-71841793D01*
X137485325Y-71813450D01*
X137485326Y-71813450D01*
X137485328Y-71813449D01*
X137557966Y-71799000D01*
X137632034Y-71799000D01*
X137704672Y-71813449D01*
X137704674Y-71813450D01*
X137704675Y-71813450D01*
X137773103Y-71841793D01*
X137834686Y-71882942D01*
X137887058Y-71935314D01*
X137928207Y-71996897D01*
X137956550Y-72065325D01*
X137956551Y-72065328D01*
X137971000Y-72137966D01*
X137971000Y-72212034D01*
X137960812Y-72263252D01*
X137956550Y-72284675D01*
X137928207Y-72353103D01*
X137887058Y-72414686D01*
X137834686Y-72467058D01*
X137773103Y-72508207D01*
X137704675Y-72536550D01*
X137704674Y-72536550D01*
X137704672Y-72536551D01*
X137632034Y-72551000D01*
X137557966Y-72551000D01*
X137485328Y-72536551D01*
X137485326Y-72536550D01*
X137485325Y-72536550D01*
X137416897Y-72508207D01*
X137355314Y-72467058D01*
X137302942Y-72414686D01*
X137273927Y-72371263D01*
X137258388Y-72352328D01*
X137239446Y-72336783D01*
X137217835Y-72325232D01*
X137194386Y-72318119D01*
X137170000Y-72315717D01*
X137145614Y-72318119D01*
X137122165Y-72325232D01*
X137100554Y-72336783D01*
X137081612Y-72352328D01*
X137066073Y-72371263D01*
X137037058Y-72414686D01*
X136984686Y-72467058D01*
X136923103Y-72508207D01*
X136854675Y-72536550D01*
X136854674Y-72536550D01*
X136854672Y-72536551D01*
X136782034Y-72551000D01*
X136707966Y-72551000D01*
X136635328Y-72536551D01*
X136635326Y-72536550D01*
X136635325Y-72536550D01*
X136566897Y-72508207D01*
X136505314Y-72467058D01*
X136452942Y-72414686D01*
X136423927Y-72371263D01*
X136408388Y-72352328D01*
X136389446Y-72336783D01*
X136367835Y-72325232D01*
X136344386Y-72318119D01*
X136320000Y-72315717D01*
X136295614Y-72318119D01*
X136272165Y-72325232D01*
X136250554Y-72336783D01*
X136231612Y-72352328D01*
X136216073Y-72371263D01*
X136187058Y-72414686D01*
X136134686Y-72467058D01*
X136073103Y-72508207D01*
X136004675Y-72536550D01*
X136004674Y-72536550D01*
X136004672Y-72536551D01*
X135932034Y-72551000D01*
X135857966Y-72551000D01*
X135785328Y-72536551D01*
X135785326Y-72536550D01*
X135785325Y-72536550D01*
X135716897Y-72508207D01*
X135655314Y-72467058D01*
X135602942Y-72414686D01*
X135573927Y-72371263D01*
X135558388Y-72352328D01*
X135539446Y-72336783D01*
X135517835Y-72325232D01*
X135494386Y-72318119D01*
X135470000Y-72315717D01*
X135445614Y-72318119D01*
X135422165Y-72325232D01*
X135400554Y-72336783D01*
X135381612Y-72352328D01*
X135366073Y-72371263D01*
X135337058Y-72414686D01*
X135284686Y-72467058D01*
X135223103Y-72508207D01*
X135154675Y-72536550D01*
X135154674Y-72536550D01*
X135154672Y-72536551D01*
X135082034Y-72551000D01*
X135007966Y-72551000D01*
X134935328Y-72536551D01*
X134935326Y-72536550D01*
X134935325Y-72536550D01*
X134866897Y-72508207D01*
X134805314Y-72467058D01*
X134752942Y-72414686D01*
X134723927Y-72371263D01*
X134708388Y-72352328D01*
X134689446Y-72336783D01*
X134667835Y-72325232D01*
X134644386Y-72318119D01*
X134620000Y-72315717D01*
X134595614Y-72318119D01*
X134572165Y-72325232D01*
X134550554Y-72336783D01*
X134531612Y-72352328D01*
X134516073Y-72371263D01*
X134487058Y-72414686D01*
X134434686Y-72467058D01*
X134373103Y-72508207D01*
X134304675Y-72536550D01*
X134304674Y-72536550D01*
X134304672Y-72536551D01*
X134232034Y-72551000D01*
X134157966Y-72551000D01*
X134085328Y-72536551D01*
X134085326Y-72536550D01*
X134085325Y-72536550D01*
X134016897Y-72508207D01*
X133955314Y-72467058D01*
X133902942Y-72414686D01*
X133873927Y-72371263D01*
X133858388Y-72352328D01*
X133839446Y-72336783D01*
X133817835Y-72325232D01*
X133794386Y-72318119D01*
X133770000Y-72315717D01*
X133745614Y-72318119D01*
X133722165Y-72325232D01*
X133700554Y-72336783D01*
X133681612Y-72352328D01*
X133666073Y-72371263D01*
X133637058Y-72414686D01*
X133584686Y-72467058D01*
X133523103Y-72508207D01*
X133454675Y-72536550D01*
X133454674Y-72536550D01*
X133454672Y-72536551D01*
X133382034Y-72551000D01*
X133307966Y-72551000D01*
X133235328Y-72536551D01*
X133235326Y-72536550D01*
X133235325Y-72536550D01*
X133166897Y-72508207D01*
X133105314Y-72467058D01*
X133052942Y-72414686D01*
X133023927Y-72371263D01*
X133008388Y-72352328D01*
X132989446Y-72336783D01*
X132967835Y-72325232D01*
X132944386Y-72318119D01*
X132920000Y-72315717D01*
X132895614Y-72318119D01*
X132872165Y-72325232D01*
X132850554Y-72336783D01*
X132831612Y-72352328D01*
X132816073Y-72371263D01*
X132787058Y-72414686D01*
X132734686Y-72467058D01*
X132673103Y-72508207D01*
X132604675Y-72536550D01*
X132604674Y-72536550D01*
X132604672Y-72536551D01*
X132532034Y-72551000D01*
X132457966Y-72551000D01*
X132385328Y-72536551D01*
X132385326Y-72536550D01*
X132385325Y-72536550D01*
X132316897Y-72508207D01*
X132255314Y-72467058D01*
X132202942Y-72414686D01*
X132173927Y-72371263D01*
X132158388Y-72352328D01*
X132139446Y-72336783D01*
X132117835Y-72325232D01*
X132094386Y-72318119D01*
X132070000Y-72315717D01*
X132045614Y-72318119D01*
X132022165Y-72325232D01*
X132000554Y-72336783D01*
X131981612Y-72352328D01*
X131966073Y-72371263D01*
X131937058Y-72414686D01*
X131884686Y-72467058D01*
X131823103Y-72508207D01*
X131754675Y-72536550D01*
X131754674Y-72536550D01*
X131754672Y-72536551D01*
X131682034Y-72551000D01*
X131607966Y-72551000D01*
X131535328Y-72536551D01*
X131535326Y-72536550D01*
X131535325Y-72536550D01*
X131466897Y-72508207D01*
X131405314Y-72467058D01*
X131352942Y-72414686D01*
X131311793Y-72353103D01*
X131283450Y-72284675D01*
X131279189Y-72263252D01*
X131269000Y-72212034D01*
X131269000Y-72137966D01*
X131283449Y-72065328D01*
X131283450Y-72065325D01*
X131311793Y-71996897D01*
X131352942Y-71935314D01*
X131405314Y-71882942D01*
X131466897Y-71841793D01*
X131535325Y-71813450D01*
X131535326Y-71813450D01*
X131535328Y-71813449D01*
X131607966Y-71799000D01*
X131682034Y-71799000D01*
X131754672Y-71813449D01*
G37*
G36*
X118641000Y-62888000D02*
G01*
X115039000Y-62888000D01*
X115039000Y-59286000D01*
X118641000Y-59286000D01*
X118641000Y-62888000D01*
G37*
G36*
X189365331Y-59355211D02*
G01*
X189693092Y-59490974D01*
X189988070Y-59688072D01*
X190238928Y-59938930D01*
X190436026Y-60233908D01*
X190571789Y-60561669D01*
X190641000Y-60909616D01*
X190641000Y-61264384D01*
X190571789Y-61612331D01*
X190436026Y-61940092D01*
X190238928Y-62235070D01*
X189988070Y-62485928D01*
X189693092Y-62683026D01*
X189365331Y-62818789D01*
X189017384Y-62888000D01*
X188662616Y-62888000D01*
X188314669Y-62818789D01*
X187986908Y-62683026D01*
X187691930Y-62485928D01*
X187441072Y-62235070D01*
X187243974Y-61940092D01*
X187108211Y-61612331D01*
X187039000Y-61264384D01*
X187039000Y-60909616D01*
X187108211Y-60561669D01*
X187243974Y-60233908D01*
X187441072Y-59938930D01*
X187691930Y-59688072D01*
X187986908Y-59490974D01*
X188314669Y-59355211D01*
X188662616Y-59286000D01*
X189017384Y-59286000D01*
X189365331Y-59355211D01*
G37*
G36*
X125860256Y-59478298D02*
G01*
X125966579Y-59499447D01*
X126267042Y-59623903D01*
X126537451Y-59804585D01*
X126767415Y-60034549D01*
X126948097Y-60304958D01*
X126948098Y-60304960D01*
X127072553Y-60605422D01*
X127136000Y-60924389D01*
X127136000Y-61249611D01*
X127133061Y-61264384D01*
X127072553Y-61568579D01*
X126948097Y-61869042D01*
X126767415Y-62139451D01*
X126537451Y-62369415D01*
X126267042Y-62550097D01*
X125966579Y-62674553D01*
X125923987Y-62683025D01*
X125647611Y-62738000D01*
X125322389Y-62738000D01*
X125046013Y-62683025D01*
X125003421Y-62674553D01*
X124702958Y-62550097D01*
X124432549Y-62369415D01*
X124202585Y-62139451D01*
X124021903Y-61869042D01*
X123897447Y-61568579D01*
X123836939Y-61264384D01*
X123834000Y-61249611D01*
X123834000Y-60924389D01*
X123897447Y-60605422D01*
X124021902Y-60304960D01*
X124021903Y-60304958D01*
X124202585Y-60034549D01*
X124432549Y-59804585D01*
X124702958Y-59623903D01*
X125003421Y-59499447D01*
X125109744Y-59478298D01*
X125322389Y-59436000D01*
X125647611Y-59436000D01*
X125860256Y-59478298D01*
G37*
G36*
X181470256Y-59478298D02*
G01*
X181576579Y-59499447D01*
X181877042Y-59623903D01*
X182147451Y-59804585D01*
X182377415Y-60034549D01*
X182558097Y-60304958D01*
X182558098Y-60304960D01*
X182682553Y-60605422D01*
X182746000Y-60924389D01*
X182746000Y-61249611D01*
X182743061Y-61264384D01*
X182682553Y-61568579D01*
X182558097Y-61869042D01*
X182377415Y-62139451D01*
X182147451Y-62369415D01*
X181877042Y-62550097D01*
X181576579Y-62674553D01*
X181533987Y-62683025D01*
X181257611Y-62738000D01*
X180932389Y-62738000D01*
X180656013Y-62683025D01*
X180613421Y-62674553D01*
X180312958Y-62550097D01*
X180042549Y-62369415D01*
X179812585Y-62139451D01*
X179631903Y-61869042D01*
X179507447Y-61568579D01*
X179446939Y-61264384D01*
X179444000Y-61249611D01*
X179444000Y-60924389D01*
X179507447Y-60605422D01*
X179631902Y-60304960D01*
X179631903Y-60304958D01*
X179812585Y-60034549D01*
X180042549Y-59804585D01*
X180312958Y-59623903D01*
X180613421Y-59499447D01*
X180719744Y-59478298D01*
X180932389Y-59436000D01*
X181257611Y-59436000D01*
X181470256Y-59478298D01*
G37*
G36*
X109595256Y-59351298D02*
G01*
X109701579Y-59372447D01*
X110002042Y-59496903D01*
X110272451Y-59677585D01*
X110502415Y-59907549D01*
X110502416Y-59907551D01*
X110683098Y-60177960D01*
X110807553Y-60478422D01*
X110871000Y-60797389D01*
X110871000Y-61122611D01*
X110842799Y-61264384D01*
X110807553Y-61441579D01*
X110683097Y-61742042D01*
X110502415Y-62012451D01*
X110272451Y-62242415D01*
X110002042Y-62423097D01*
X109701579Y-62547553D01*
X109688789Y-62550097D01*
X109382611Y-62611000D01*
X109057389Y-62611000D01*
X108751211Y-62550097D01*
X108738421Y-62547553D01*
X108437958Y-62423097D01*
X108167549Y-62242415D01*
X107937585Y-62012451D01*
X107756903Y-61742042D01*
X107632447Y-61441579D01*
X107597201Y-61264384D01*
X107569000Y-61122611D01*
X107569000Y-60797389D01*
X107632447Y-60478422D01*
X107756902Y-60177960D01*
X107937584Y-59907551D01*
X107937585Y-59907549D01*
X108167549Y-59677585D01*
X108437958Y-59496903D01*
X108738421Y-59372447D01*
X108844744Y-59351298D01*
X109057389Y-59309000D01*
X109382611Y-59309000D01*
X109595256Y-59351298D01*
G37*
G36*
X195955256Y-59351298D02*
G01*
X196061579Y-59372447D01*
X196362042Y-59496903D01*
X196632451Y-59677585D01*
X196862415Y-59907549D01*
X196862416Y-59907551D01*
X197043098Y-60177960D01*
X197167553Y-60478422D01*
X197231000Y-60797389D01*
X197231000Y-61122611D01*
X197202799Y-61264384D01*
X197167553Y-61441579D01*
X197043097Y-61742042D01*
X196862415Y-62012451D01*
X196632451Y-62242415D01*
X196362042Y-62423097D01*
X196061579Y-62547553D01*
X196048789Y-62550097D01*
X195742611Y-62611000D01*
X195417389Y-62611000D01*
X195111211Y-62550097D01*
X195098421Y-62547553D01*
X194797958Y-62423097D01*
X194527549Y-62242415D01*
X194297585Y-62012451D01*
X194116903Y-61742042D01*
X193992447Y-61441579D01*
X193957201Y-61264384D01*
X193929000Y-61122611D01*
X193929000Y-60797389D01*
X193992447Y-60478422D01*
X194116902Y-60177960D01*
X194297584Y-59907551D01*
X194297585Y-59907549D01*
X194527549Y-59677585D01*
X194797958Y-59496903D01*
X195098421Y-59372447D01*
X195204744Y-59351298D01*
X195417389Y-59309000D01*
X195742611Y-59309000D01*
X195955256Y-59351298D01*
G37*
G36*
X129321000Y-49311000D02*
G01*
X127219000Y-49311000D01*
X127219000Y-47209000D01*
X129321000Y-47209000D01*
X129321000Y-49311000D01*
G37*
G36*
X147101000Y-49311000D02*
G01*
X144999000Y-49311000D01*
X144999000Y-47209000D01*
X147101000Y-47209000D01*
X147101000Y-49311000D01*
G37*
G36*
X164881000Y-49311000D02*
G01*
X162779000Y-49311000D01*
X162779000Y-47209000D01*
X164881000Y-47209000D01*
X164881000Y-49311000D01*
G37*
G36*
X182661000Y-49311000D02*
G01*
X180559000Y-49311000D01*
X180559000Y-47209000D01*
X182661000Y-47209000D01*
X182661000Y-49311000D01*
G37*
G36*
X135521000Y-49161000D02*
G01*
X133719000Y-49161000D01*
X133719000Y-47359000D01*
X135521000Y-47359000D01*
X135521000Y-49161000D01*
G37*
G36*
X117741000Y-49161000D02*
G01*
X115939000Y-49161000D01*
X115939000Y-47359000D01*
X117741000Y-47359000D01*
X117741000Y-49161000D01*
G37*
G36*
X122821000Y-49161000D02*
G01*
X121019000Y-49161000D01*
X121019000Y-47359000D01*
X122821000Y-47359000D01*
X122821000Y-49161000D01*
G37*
G36*
X140601000Y-49161000D02*
G01*
X138799000Y-49161000D01*
X138799000Y-47359000D01*
X140601000Y-47359000D01*
X140601000Y-49161000D01*
G37*
G36*
X153301000Y-49161000D02*
G01*
X151499000Y-49161000D01*
X151499000Y-47359000D01*
X153301000Y-47359000D01*
X153301000Y-49161000D01*
G37*
G36*
X158381000Y-49161000D02*
G01*
X156579000Y-49161000D01*
X156579000Y-47359000D01*
X158381000Y-47359000D01*
X158381000Y-49161000D01*
G37*
G36*
X171081000Y-49161000D02*
G01*
X169279000Y-49161000D01*
X169279000Y-47359000D01*
X171081000Y-47359000D01*
X171081000Y-49161000D01*
G37*
G36*
X176161000Y-49161000D02*
G01*
X174359000Y-49161000D01*
X174359000Y-47359000D01*
X176161000Y-47359000D01*
X176161000Y-49161000D01*
G37*
G36*
X119638604Y-43909347D02*
G01*
X119675144Y-43920432D01*
X119708821Y-43938433D01*
X119738341Y-43962659D01*
X119762567Y-43992179D01*
X119780568Y-44025856D01*
X119791653Y-44062396D01*
X119796000Y-44106538D01*
X119796000Y-45555462D01*
X119791653Y-45599604D01*
X119780568Y-45636144D01*
X119762567Y-45669821D01*
X119738341Y-45699341D01*
X119708821Y-45723567D01*
X119675144Y-45741568D01*
X119638604Y-45752653D01*
X119594462Y-45757000D01*
X118645538Y-45757000D01*
X118601396Y-45752653D01*
X118564856Y-45741568D01*
X118531179Y-45723567D01*
X118501659Y-45699341D01*
X118477433Y-45669821D01*
X118459432Y-45636144D01*
X118448347Y-45599604D01*
X118444000Y-45555462D01*
X118444000Y-44106538D01*
X118448347Y-44062396D01*
X118459432Y-44025856D01*
X118477433Y-43992179D01*
X118501659Y-43962659D01*
X118531179Y-43938433D01*
X118564856Y-43920432D01*
X118601396Y-43909347D01*
X118645538Y-43905000D01*
X119594462Y-43905000D01*
X119638604Y-43909347D01*
G37*
G36*
X122438604Y-43909347D02*
G01*
X122475144Y-43920432D01*
X122508821Y-43938433D01*
X122538341Y-43962659D01*
X122562567Y-43992179D01*
X122580568Y-44025856D01*
X122591653Y-44062396D01*
X122596000Y-44106538D01*
X122596000Y-45555462D01*
X122591653Y-45599604D01*
X122580568Y-45636144D01*
X122562567Y-45669821D01*
X122538341Y-45699341D01*
X122508821Y-45723567D01*
X122475144Y-45741568D01*
X122438604Y-45752653D01*
X122394462Y-45757000D01*
X121445538Y-45757000D01*
X121401396Y-45752653D01*
X121364856Y-45741568D01*
X121331179Y-45723567D01*
X121301659Y-45699341D01*
X121277433Y-45669821D01*
X121259432Y-45636144D01*
X121248347Y-45599604D01*
X121244000Y-45555462D01*
X121244000Y-44106538D01*
X121248347Y-44062396D01*
X121259432Y-44025856D01*
X121277433Y-43992179D01*
X121301659Y-43962659D01*
X121331179Y-43938433D01*
X121364856Y-43920432D01*
X121401396Y-43909347D01*
X121445538Y-43905000D01*
X122394462Y-43905000D01*
X122438604Y-43909347D01*
G37*
G36*
X146356564Y-42249389D02*
G01*
X146477714Y-42299571D01*
X146547835Y-42328616D01*
X146616017Y-42374174D01*
X146719973Y-42443635D01*
X146866365Y-42590027D01*
X146981385Y-42762167D01*
X147060611Y-42953436D01*
X147101000Y-43156484D01*
X147101000Y-43363516D01*
X147060611Y-43566564D01*
X146981385Y-43757833D01*
X146981384Y-43757835D01*
X146866365Y-43929973D01*
X146719973Y-44076365D01*
X146547835Y-44191384D01*
X146547834Y-44191385D01*
X146547833Y-44191385D01*
X146356564Y-44270611D01*
X146153516Y-44311000D01*
X145946484Y-44311000D01*
X145743436Y-44270611D01*
X145552167Y-44191385D01*
X145552166Y-44191385D01*
X145552165Y-44191384D01*
X145380027Y-44076365D01*
X145233635Y-43929973D01*
X145118616Y-43757835D01*
X145118615Y-43757833D01*
X145039389Y-43566564D01*
X144999000Y-43363516D01*
X144999000Y-43156484D01*
X145039389Y-42953436D01*
X145118615Y-42762167D01*
X145233635Y-42590027D01*
X145380027Y-42443635D01*
X145483983Y-42374174D01*
X145552165Y-42328616D01*
X145622286Y-42299571D01*
X145743436Y-42249389D01*
X145946484Y-42209000D01*
X146153516Y-42209000D01*
X146356564Y-42249389D01*
G37*
G36*
X128576564Y-42249389D02*
G01*
X128697714Y-42299571D01*
X128767835Y-42328616D01*
X128836017Y-42374174D01*
X128939973Y-42443635D01*
X129086365Y-42590027D01*
X129201385Y-42762167D01*
X129280611Y-42953436D01*
X129321000Y-43156484D01*
X129321000Y-43363516D01*
X129280611Y-43566564D01*
X129201385Y-43757833D01*
X129201384Y-43757835D01*
X129086365Y-43929973D01*
X128939973Y-44076365D01*
X128767835Y-44191384D01*
X128767834Y-44191385D01*
X128767833Y-44191385D01*
X128576564Y-44270611D01*
X128373516Y-44311000D01*
X128166484Y-44311000D01*
X127963436Y-44270611D01*
X127772167Y-44191385D01*
X127772166Y-44191385D01*
X127772165Y-44191384D01*
X127600027Y-44076365D01*
X127453635Y-43929973D01*
X127338616Y-43757835D01*
X127338615Y-43757833D01*
X127259389Y-43566564D01*
X127219000Y-43363516D01*
X127219000Y-43156484D01*
X127259389Y-42953436D01*
X127338615Y-42762167D01*
X127453635Y-42590027D01*
X127600027Y-42443635D01*
X127703983Y-42374174D01*
X127772165Y-42328616D01*
X127842286Y-42299571D01*
X127963436Y-42249389D01*
X128166484Y-42209000D01*
X128373516Y-42209000D01*
X128576564Y-42249389D01*
G37*
G36*
X181916564Y-42249389D02*
G01*
X182037714Y-42299571D01*
X182107835Y-42328616D01*
X182176017Y-42374174D01*
X182279973Y-42443635D01*
X182426365Y-42590027D01*
X182541385Y-42762167D01*
X182620611Y-42953436D01*
X182661000Y-43156484D01*
X182661000Y-43363516D01*
X182620611Y-43566564D01*
X182541385Y-43757833D01*
X182541384Y-43757835D01*
X182426365Y-43929973D01*
X182279973Y-44076365D01*
X182107835Y-44191384D01*
X182107834Y-44191385D01*
X182107833Y-44191385D01*
X181916564Y-44270611D01*
X181713516Y-44311000D01*
X181506484Y-44311000D01*
X181303436Y-44270611D01*
X181112167Y-44191385D01*
X181112166Y-44191385D01*
X181112165Y-44191384D01*
X180940027Y-44076365D01*
X180793635Y-43929973D01*
X180678616Y-43757835D01*
X180678615Y-43757833D01*
X180599389Y-43566564D01*
X180559000Y-43363516D01*
X180559000Y-43156484D01*
X180599389Y-42953436D01*
X180678615Y-42762167D01*
X180793635Y-42590027D01*
X180940027Y-42443635D01*
X181043983Y-42374174D01*
X181112165Y-42328616D01*
X181182286Y-42299571D01*
X181303436Y-42249389D01*
X181506484Y-42209000D01*
X181713516Y-42209000D01*
X181916564Y-42249389D01*
G37*
G36*
X164136564Y-42249389D02*
G01*
X164257714Y-42299571D01*
X164327835Y-42328616D01*
X164396017Y-42374174D01*
X164499973Y-42443635D01*
X164646365Y-42590027D01*
X164761385Y-42762167D01*
X164840611Y-42953436D01*
X164881000Y-43156484D01*
X164881000Y-43363516D01*
X164840611Y-43566564D01*
X164761385Y-43757833D01*
X164761384Y-43757835D01*
X164646365Y-43929973D01*
X164499973Y-44076365D01*
X164327835Y-44191384D01*
X164327834Y-44191385D01*
X164327833Y-44191385D01*
X164136564Y-44270611D01*
X163933516Y-44311000D01*
X163726484Y-44311000D01*
X163523436Y-44270611D01*
X163332167Y-44191385D01*
X163332166Y-44191385D01*
X163332165Y-44191384D01*
X163160027Y-44076365D01*
X163013635Y-43929973D01*
X162898616Y-43757835D01*
X162898615Y-43757833D01*
X162819389Y-43566564D01*
X162779000Y-43363516D01*
X162779000Y-43156484D01*
X162819389Y-42953436D01*
X162898615Y-42762167D01*
X163013635Y-42590027D01*
X163160027Y-42443635D01*
X163263983Y-42374174D01*
X163332165Y-42328616D01*
X163402286Y-42299571D01*
X163523436Y-42249389D01*
X163726484Y-42209000D01*
X163933516Y-42209000D01*
X164136564Y-42249389D01*
G37*
G36*
X137418604Y-42258347D02*
G01*
X137455144Y-42269432D01*
X137488821Y-42287433D01*
X137518341Y-42311659D01*
X137542567Y-42341179D01*
X137560568Y-42374856D01*
X137571653Y-42411396D01*
X137576000Y-42455538D01*
X137576000Y-43904462D01*
X137571653Y-43948604D01*
X137560568Y-43985144D01*
X137542567Y-44018821D01*
X137518341Y-44048341D01*
X137488821Y-44072567D01*
X137455144Y-44090568D01*
X137418604Y-44101653D01*
X137374462Y-44106000D01*
X136425538Y-44106000D01*
X136381396Y-44101653D01*
X136344856Y-44090568D01*
X136311179Y-44072567D01*
X136281659Y-44048341D01*
X136257433Y-44018821D01*
X136239432Y-43985144D01*
X136228347Y-43948604D01*
X136224000Y-43904462D01*
X136224000Y-42455538D01*
X136228347Y-42411396D01*
X136239432Y-42374856D01*
X136257433Y-42341179D01*
X136281659Y-42311659D01*
X136311179Y-42287433D01*
X136344856Y-42269432D01*
X136381396Y-42258347D01*
X136425538Y-42254000D01*
X137374462Y-42254000D01*
X137418604Y-42258347D01*
G37*
G36*
X140218604Y-42258347D02*
G01*
X140255144Y-42269432D01*
X140288821Y-42287433D01*
X140318341Y-42311659D01*
X140342567Y-42341179D01*
X140360568Y-42374856D01*
X140371653Y-42411396D01*
X140376000Y-42455538D01*
X140376000Y-43904462D01*
X140371653Y-43948604D01*
X140360568Y-43985144D01*
X140342567Y-44018821D01*
X140318341Y-44048341D01*
X140288821Y-44072567D01*
X140255144Y-44090568D01*
X140218604Y-44101653D01*
X140174462Y-44106000D01*
X139225538Y-44106000D01*
X139181396Y-44101653D01*
X139144856Y-44090568D01*
X139111179Y-44072567D01*
X139081659Y-44048341D01*
X139057433Y-44018821D01*
X139039432Y-43985144D01*
X139028347Y-43948604D01*
X139024000Y-43904462D01*
X139024000Y-42455538D01*
X139028347Y-42411396D01*
X139039432Y-42374856D01*
X139057433Y-42341179D01*
X139081659Y-42311659D01*
X139111179Y-42287433D01*
X139144856Y-42269432D01*
X139181396Y-42258347D01*
X139225538Y-42254000D01*
X140174462Y-42254000D01*
X140218604Y-42258347D01*
G37*
G36*
X155198604Y-42258347D02*
G01*
X155235144Y-42269432D01*
X155268821Y-42287433D01*
X155298341Y-42311659D01*
X155322567Y-42341179D01*
X155340568Y-42374856D01*
X155351653Y-42411396D01*
X155356000Y-42455538D01*
X155356000Y-43904462D01*
X155351653Y-43948604D01*
X155340568Y-43985144D01*
X155322567Y-44018821D01*
X155298341Y-44048341D01*
X155268821Y-44072567D01*
X155235144Y-44090568D01*
X155198604Y-44101653D01*
X155154462Y-44106000D01*
X154205538Y-44106000D01*
X154161396Y-44101653D01*
X154124856Y-44090568D01*
X154091179Y-44072567D01*
X154061659Y-44048341D01*
X154037433Y-44018821D01*
X154019432Y-43985144D01*
X154008347Y-43948604D01*
X154004000Y-43904462D01*
X154004000Y-42455538D01*
X154008347Y-42411396D01*
X154019432Y-42374856D01*
X154037433Y-42341179D01*
X154061659Y-42311659D01*
X154091179Y-42287433D01*
X154124856Y-42269432D01*
X154161396Y-42258347D01*
X154205538Y-42254000D01*
X155154462Y-42254000D01*
X155198604Y-42258347D01*
G37*
G36*
X157998604Y-42258347D02*
G01*
X158035144Y-42269432D01*
X158068821Y-42287433D01*
X158098341Y-42311659D01*
X158122567Y-42341179D01*
X158140568Y-42374856D01*
X158151653Y-42411396D01*
X158156000Y-42455538D01*
X158156000Y-43904462D01*
X158151653Y-43948604D01*
X158140568Y-43985144D01*
X158122567Y-44018821D01*
X158098341Y-44048341D01*
X158068821Y-44072567D01*
X158035144Y-44090568D01*
X157998604Y-44101653D01*
X157954462Y-44106000D01*
X157005538Y-44106000D01*
X156961396Y-44101653D01*
X156924856Y-44090568D01*
X156891179Y-44072567D01*
X156861659Y-44048341D01*
X156837433Y-44018821D01*
X156819432Y-43985144D01*
X156808347Y-43948604D01*
X156804000Y-43904462D01*
X156804000Y-42455538D01*
X156808347Y-42411396D01*
X156819432Y-42374856D01*
X156837433Y-42341179D01*
X156861659Y-42311659D01*
X156891179Y-42287433D01*
X156924856Y-42269432D01*
X156961396Y-42258347D01*
X157005538Y-42254000D01*
X157954462Y-42254000D01*
X157998604Y-42258347D01*
G37*
G36*
X175778604Y-42258347D02*
G01*
X175815144Y-42269432D01*
X175848821Y-42287433D01*
X175878341Y-42311659D01*
X175902567Y-42341179D01*
X175920568Y-42374856D01*
X175931653Y-42411396D01*
X175936000Y-42455538D01*
X175936000Y-43904462D01*
X175931653Y-43948604D01*
X175920568Y-43985144D01*
X175902567Y-44018821D01*
X175878341Y-44048341D01*
X175848821Y-44072567D01*
X175815144Y-44090568D01*
X175778604Y-44101653D01*
X175734462Y-44106000D01*
X174785538Y-44106000D01*
X174741396Y-44101653D01*
X174704856Y-44090568D01*
X174671179Y-44072567D01*
X174641659Y-44048341D01*
X174617433Y-44018821D01*
X174599432Y-43985144D01*
X174588347Y-43948604D01*
X174584000Y-43904462D01*
X174584000Y-42455538D01*
X174588347Y-42411396D01*
X174599432Y-42374856D01*
X174617433Y-42341179D01*
X174641659Y-42311659D01*
X174671179Y-42287433D01*
X174704856Y-42269432D01*
X174741396Y-42258347D01*
X174785538Y-42254000D01*
X175734462Y-42254000D01*
X175778604Y-42258347D01*
G37*
G36*
X172978604Y-42258347D02*
G01*
X173015144Y-42269432D01*
X173048821Y-42287433D01*
X173078341Y-42311659D01*
X173102567Y-42341179D01*
X173120568Y-42374856D01*
X173131653Y-42411396D01*
X173136000Y-42455538D01*
X173136000Y-43904462D01*
X173131653Y-43948604D01*
X173120568Y-43985144D01*
X173102567Y-44018821D01*
X173078341Y-44048341D01*
X173048821Y-44072567D01*
X173015144Y-44090568D01*
X172978604Y-44101653D01*
X172934462Y-44106000D01*
X171985538Y-44106000D01*
X171941396Y-44101653D01*
X171904856Y-44090568D01*
X171871179Y-44072567D01*
X171841659Y-44048341D01*
X171817433Y-44018821D01*
X171799432Y-43985144D01*
X171788347Y-43948604D01*
X171784000Y-43904462D01*
X171784000Y-42455538D01*
X171788347Y-42411396D01*
X171799432Y-42374856D01*
X171817433Y-42341179D01*
X171841659Y-42311659D01*
X171871179Y-42287433D01*
X171904856Y-42269432D01*
X171941396Y-42258347D01*
X171985538Y-42254000D01*
X172934462Y-42254000D01*
X172978604Y-42258347D01*
G37*
M02*
